G04 #@! TF.GenerationSoftware,KiCad,Pcbnew,(5.1.5)-3*
G04 #@! TF.CreationDate,2021-09-22T00:57:08-07:00*
G04 #@! TF.ProjectId,control_board,636f6e74-726f-46c5-9f62-6f6172642e6b,rev?*
G04 #@! TF.SameCoordinates,Original*
G04 #@! TF.FileFunction,Soldermask,Top*
G04 #@! TF.FilePolarity,Negative*
%FSLAX46Y46*%
G04 Gerber Fmt 4.6, Leading zero omitted, Abs format (unit mm)*
G04 Created by KiCad (PCBNEW (5.1.5)-3) date 2021-09-22 00:57:08*
%MOMM*%
%LPD*%
G04 APERTURE LIST*
%ADD10C,0.100000*%
G04 APERTURE END LIST*
D10*
G36*
X117105213Y-58659379D02*
G01*
X117370957Y-58712239D01*
X117871607Y-58919615D01*
X117989648Y-58998488D01*
X118322180Y-59220678D01*
X118705362Y-59603860D01*
X118875322Y-59858224D01*
X119006425Y-60054433D01*
X119132854Y-60359660D01*
X119213801Y-60555084D01*
X119309232Y-61034846D01*
X119319520Y-61086570D01*
X119319520Y-61628470D01*
X119213801Y-62159957D01*
X119006425Y-62660607D01*
X118885836Y-62841081D01*
X118705362Y-63111180D01*
X118322180Y-63494362D01*
X118052081Y-63674836D01*
X117871607Y-63795425D01*
X117370957Y-64002801D01*
X117105214Y-64055660D01*
X116839471Y-64108520D01*
X116297569Y-64108520D01*
X116031826Y-64055660D01*
X115766083Y-64002801D01*
X115265433Y-63795425D01*
X115084959Y-63674836D01*
X114814860Y-63494362D01*
X114431678Y-63111180D01*
X114251204Y-62841081D01*
X114130615Y-62660607D01*
X113923239Y-62159957D01*
X113817520Y-61628470D01*
X113817520Y-61086570D01*
X113827809Y-61034846D01*
X113923239Y-60555084D01*
X114004186Y-60359660D01*
X114130615Y-60054433D01*
X114261718Y-59858224D01*
X114431678Y-59603860D01*
X114814860Y-59220678D01*
X115147392Y-58998488D01*
X115265433Y-58919615D01*
X115766083Y-58712239D01*
X116031827Y-58659379D01*
X116297569Y-58606520D01*
X116839471Y-58606520D01*
X117105213Y-58659379D01*
G37*
G36*
X32105213Y-58659379D02*
G01*
X32370957Y-58712239D01*
X32871607Y-58919615D01*
X32989648Y-58998488D01*
X33322180Y-59220678D01*
X33705362Y-59603860D01*
X33875322Y-59858224D01*
X34006425Y-60054433D01*
X34132854Y-60359660D01*
X34213801Y-60555084D01*
X34309232Y-61034846D01*
X34319520Y-61086570D01*
X34319520Y-61628470D01*
X34213801Y-62159957D01*
X34006425Y-62660607D01*
X33885836Y-62841081D01*
X33705362Y-63111180D01*
X33322180Y-63494362D01*
X33052081Y-63674836D01*
X32871607Y-63795425D01*
X32370957Y-64002801D01*
X32105214Y-64055660D01*
X31839471Y-64108520D01*
X31297569Y-64108520D01*
X31031826Y-64055660D01*
X30766083Y-64002801D01*
X30265433Y-63795425D01*
X30084959Y-63674836D01*
X29814860Y-63494362D01*
X29431678Y-63111180D01*
X29251204Y-62841081D01*
X29130615Y-62660607D01*
X28923239Y-62159957D01*
X28817520Y-61628470D01*
X28817520Y-61086570D01*
X28827809Y-61034846D01*
X28923239Y-60555084D01*
X29004186Y-60359660D01*
X29130615Y-60054433D01*
X29261718Y-59858224D01*
X29431678Y-59603860D01*
X29814860Y-59220678D01*
X30147392Y-58998488D01*
X30265433Y-58919615D01*
X30766083Y-58712239D01*
X31031827Y-58659379D01*
X31297569Y-58606520D01*
X31839471Y-58606520D01*
X32105213Y-58659379D01*
G37*
G36*
X61831488Y-59967585D02*
G01*
X61870158Y-59979316D01*
X61905797Y-59998366D01*
X61937037Y-60024003D01*
X61962674Y-60055243D01*
X61981724Y-60090882D01*
X61993455Y-60129552D01*
X61998020Y-60175908D01*
X61998020Y-60827132D01*
X61993455Y-60873488D01*
X61981724Y-60912158D01*
X61962674Y-60947797D01*
X61937037Y-60979037D01*
X61905797Y-61004674D01*
X61870158Y-61023724D01*
X61831488Y-61035455D01*
X61785132Y-61040020D01*
X60708908Y-61040020D01*
X60662552Y-61035455D01*
X60623882Y-61023724D01*
X60588243Y-61004674D01*
X60557003Y-60979037D01*
X60531366Y-60947797D01*
X60512316Y-60912158D01*
X60500585Y-60873488D01*
X60496020Y-60827132D01*
X60496020Y-60175908D01*
X60500585Y-60129552D01*
X60512316Y-60090882D01*
X60531366Y-60055243D01*
X60557003Y-60024003D01*
X60588243Y-59998366D01*
X60623882Y-59979316D01*
X60662552Y-59967585D01*
X60708908Y-59963020D01*
X61785132Y-59963020D01*
X61831488Y-59967585D01*
G37*
G36*
X66037458Y-60245736D02*
G01*
X66058077Y-60251991D01*
X66077073Y-60262144D01*
X66093728Y-60275812D01*
X66107396Y-60292467D01*
X66117549Y-60311463D01*
X66123804Y-60332082D01*
X66126520Y-60359660D01*
X66126520Y-60818380D01*
X66123804Y-60845958D01*
X66117549Y-60866577D01*
X66107396Y-60885573D01*
X66093728Y-60902228D01*
X66077073Y-60915896D01*
X66058077Y-60926049D01*
X66037458Y-60932304D01*
X66009880Y-60935020D01*
X65501160Y-60935020D01*
X65473582Y-60932304D01*
X65452963Y-60926049D01*
X65433967Y-60915896D01*
X65417312Y-60902228D01*
X65403644Y-60885573D01*
X65393491Y-60866577D01*
X65387236Y-60845958D01*
X65384520Y-60818380D01*
X65384520Y-60359660D01*
X65387236Y-60332082D01*
X65393491Y-60311463D01*
X65403644Y-60292467D01*
X65417312Y-60275812D01*
X65433967Y-60262144D01*
X65452963Y-60251991D01*
X65473582Y-60245736D01*
X65501160Y-60243020D01*
X66009880Y-60243020D01*
X66037458Y-60245736D01*
G37*
G36*
X69783958Y-60245736D02*
G01*
X69804577Y-60251991D01*
X69823573Y-60262144D01*
X69840228Y-60275812D01*
X69853896Y-60292467D01*
X69864049Y-60311463D01*
X69870304Y-60332082D01*
X69873020Y-60359660D01*
X69873020Y-60818380D01*
X69870304Y-60845958D01*
X69864049Y-60866577D01*
X69853896Y-60885573D01*
X69840228Y-60902228D01*
X69823573Y-60915896D01*
X69804577Y-60926049D01*
X69783958Y-60932304D01*
X69756380Y-60935020D01*
X69247660Y-60935020D01*
X69220082Y-60932304D01*
X69199463Y-60926049D01*
X69180467Y-60915896D01*
X69163812Y-60902228D01*
X69150144Y-60885573D01*
X69139991Y-60866577D01*
X69133736Y-60845958D01*
X69131020Y-60818380D01*
X69131020Y-60359660D01*
X69133736Y-60332082D01*
X69139991Y-60311463D01*
X69150144Y-60292467D01*
X69163812Y-60275812D01*
X69180467Y-60262144D01*
X69199463Y-60251991D01*
X69220082Y-60245736D01*
X69247660Y-60243020D01*
X69756380Y-60243020D01*
X69783958Y-60245736D01*
G37*
G36*
X69783958Y-59275736D02*
G01*
X69804577Y-59281991D01*
X69823573Y-59292144D01*
X69840228Y-59305812D01*
X69853896Y-59322467D01*
X69864049Y-59341463D01*
X69870304Y-59362082D01*
X69873020Y-59389660D01*
X69873020Y-59848380D01*
X69870304Y-59875958D01*
X69864049Y-59896577D01*
X69853896Y-59915573D01*
X69840228Y-59932228D01*
X69823573Y-59945896D01*
X69804577Y-59956049D01*
X69783958Y-59962304D01*
X69756380Y-59965020D01*
X69247660Y-59965020D01*
X69220082Y-59962304D01*
X69199463Y-59956049D01*
X69180467Y-59945896D01*
X69163812Y-59932228D01*
X69150144Y-59915573D01*
X69139991Y-59896577D01*
X69133736Y-59875958D01*
X69131020Y-59848380D01*
X69131020Y-59389660D01*
X69133736Y-59362082D01*
X69139991Y-59341463D01*
X69150144Y-59322467D01*
X69163812Y-59305812D01*
X69180467Y-59292144D01*
X69199463Y-59281991D01*
X69220082Y-59275736D01*
X69247660Y-59273020D01*
X69756380Y-59273020D01*
X69783958Y-59275736D01*
G37*
G36*
X66037458Y-59275736D02*
G01*
X66058077Y-59281991D01*
X66077073Y-59292144D01*
X66093728Y-59305812D01*
X66107396Y-59322467D01*
X66117549Y-59341463D01*
X66123804Y-59362082D01*
X66126520Y-59389660D01*
X66126520Y-59848380D01*
X66123804Y-59875958D01*
X66117549Y-59896577D01*
X66107396Y-59915573D01*
X66093728Y-59932228D01*
X66077073Y-59945896D01*
X66058077Y-59956049D01*
X66037458Y-59962304D01*
X66009880Y-59965020D01*
X65501160Y-59965020D01*
X65473582Y-59962304D01*
X65452963Y-59956049D01*
X65433967Y-59945896D01*
X65417312Y-59932228D01*
X65403644Y-59915573D01*
X65393491Y-59896577D01*
X65387236Y-59875958D01*
X65384520Y-59848380D01*
X65384520Y-59389660D01*
X65387236Y-59362082D01*
X65393491Y-59341463D01*
X65403644Y-59322467D01*
X65417312Y-59305812D01*
X65433967Y-59292144D01*
X65452963Y-59281991D01*
X65473582Y-59275736D01*
X65501160Y-59273020D01*
X66009880Y-59273020D01*
X66037458Y-59275736D01*
G37*
G36*
X61831488Y-58092585D02*
G01*
X61870158Y-58104316D01*
X61905797Y-58123366D01*
X61937037Y-58149003D01*
X61962674Y-58180243D01*
X61981724Y-58215882D01*
X61993455Y-58254552D01*
X61998020Y-58300908D01*
X61998020Y-58952132D01*
X61993455Y-58998488D01*
X61981724Y-59037158D01*
X61962674Y-59072797D01*
X61937037Y-59104037D01*
X61905797Y-59129674D01*
X61870158Y-59148724D01*
X61831488Y-59160455D01*
X61785132Y-59165020D01*
X60708908Y-59165020D01*
X60662552Y-59160455D01*
X60623882Y-59148724D01*
X60588243Y-59129674D01*
X60557003Y-59104037D01*
X60531366Y-59072797D01*
X60512316Y-59037158D01*
X60500585Y-58998488D01*
X60496020Y-58952132D01*
X60496020Y-58300908D01*
X60500585Y-58254552D01*
X60512316Y-58215882D01*
X60531366Y-58180243D01*
X60557003Y-58149003D01*
X60588243Y-58123366D01*
X60623882Y-58104316D01*
X60662552Y-58092585D01*
X60708908Y-58088020D01*
X61785132Y-58088020D01*
X61831488Y-58092585D01*
G37*
G36*
X51036488Y-57459585D02*
G01*
X51075158Y-57471316D01*
X51110797Y-57490366D01*
X51142037Y-57516003D01*
X51167674Y-57547243D01*
X51186724Y-57582882D01*
X51198455Y-57621552D01*
X51203020Y-57667908D01*
X51203020Y-58319132D01*
X51198455Y-58365488D01*
X51186724Y-58404158D01*
X51167674Y-58439797D01*
X51142037Y-58471037D01*
X51110797Y-58496674D01*
X51075158Y-58515724D01*
X51036488Y-58527455D01*
X50990132Y-58532020D01*
X49913908Y-58532020D01*
X49867552Y-58527455D01*
X49828882Y-58515724D01*
X49793243Y-58496674D01*
X49762003Y-58471037D01*
X49736366Y-58439797D01*
X49717316Y-58404158D01*
X49705585Y-58365488D01*
X49701020Y-58319132D01*
X49701020Y-57667908D01*
X49705585Y-57621552D01*
X49717316Y-57582882D01*
X49736366Y-57547243D01*
X49762003Y-57516003D01*
X49793243Y-57490366D01*
X49828882Y-57471316D01*
X49867552Y-57459585D01*
X49913908Y-57455020D01*
X50990132Y-57455020D01*
X51036488Y-57459585D01*
G37*
G36*
X70270624Y-56641367D02*
G01*
X70307164Y-56652452D01*
X70340841Y-56670453D01*
X70370361Y-56694679D01*
X70394587Y-56724199D01*
X70412588Y-56757876D01*
X70423673Y-56794416D01*
X70428020Y-56838558D01*
X70428020Y-57787482D01*
X70423673Y-57831624D01*
X70412588Y-57868164D01*
X70394587Y-57901841D01*
X70370361Y-57931361D01*
X70340841Y-57955587D01*
X70307164Y-57973588D01*
X70270624Y-57984673D01*
X70226482Y-57989020D01*
X68777558Y-57989020D01*
X68733416Y-57984673D01*
X68696876Y-57973588D01*
X68663199Y-57955587D01*
X68633679Y-57931361D01*
X68609453Y-57901841D01*
X68591452Y-57868164D01*
X68580367Y-57831624D01*
X68576020Y-57787482D01*
X68576020Y-56838558D01*
X68580367Y-56794416D01*
X68591452Y-56757876D01*
X68609453Y-56724199D01*
X68633679Y-56694679D01*
X68663199Y-56670453D01*
X68696876Y-56652452D01*
X68733416Y-56641367D01*
X68777558Y-56637020D01*
X70226482Y-56637020D01*
X70270624Y-56641367D01*
G37*
G36*
X66524124Y-56641367D02*
G01*
X66560664Y-56652452D01*
X66594341Y-56670453D01*
X66623861Y-56694679D01*
X66648087Y-56724199D01*
X66666088Y-56757876D01*
X66677173Y-56794416D01*
X66681520Y-56838558D01*
X66681520Y-57787482D01*
X66677173Y-57831624D01*
X66666088Y-57868164D01*
X66648087Y-57901841D01*
X66623861Y-57931361D01*
X66594341Y-57955587D01*
X66560664Y-57973588D01*
X66524124Y-57984673D01*
X66479982Y-57989020D01*
X65031058Y-57989020D01*
X64986916Y-57984673D01*
X64950376Y-57973588D01*
X64916699Y-57955587D01*
X64887179Y-57931361D01*
X64862953Y-57901841D01*
X64844952Y-57868164D01*
X64833867Y-57831624D01*
X64829520Y-57787482D01*
X64829520Y-56838558D01*
X64833867Y-56794416D01*
X64844952Y-56757876D01*
X64862953Y-56724199D01*
X64887179Y-56694679D01*
X64916699Y-56670453D01*
X64950376Y-56652452D01*
X64986916Y-56641367D01*
X65031058Y-56637020D01*
X66479982Y-56637020D01*
X66524124Y-56641367D01*
G37*
G36*
X87395532Y-55461447D02*
G01*
X87544832Y-55491144D01*
X87708804Y-55559064D01*
X87856374Y-55657667D01*
X87981873Y-55783166D01*
X88080476Y-55930736D01*
X88148396Y-56094708D01*
X88183020Y-56268779D01*
X88183020Y-56446261D01*
X88148396Y-56620332D01*
X88080476Y-56784304D01*
X87981873Y-56931874D01*
X87856374Y-57057373D01*
X87708804Y-57155976D01*
X87544832Y-57223896D01*
X87395532Y-57253593D01*
X87370762Y-57258520D01*
X87193278Y-57258520D01*
X87168508Y-57253593D01*
X87019208Y-57223896D01*
X86855236Y-57155976D01*
X86707666Y-57057373D01*
X86582167Y-56931874D01*
X86483564Y-56784304D01*
X86415644Y-56620332D01*
X86381020Y-56446261D01*
X86381020Y-56268779D01*
X86415644Y-56094708D01*
X86483564Y-55930736D01*
X86582167Y-55783166D01*
X86707666Y-55657667D01*
X86855236Y-55559064D01*
X87019208Y-55491144D01*
X87168508Y-55461447D01*
X87193278Y-55456520D01*
X87370762Y-55456520D01*
X87395532Y-55461447D01*
G37*
G36*
X89935532Y-55461447D02*
G01*
X90084832Y-55491144D01*
X90248804Y-55559064D01*
X90396374Y-55657667D01*
X90521873Y-55783166D01*
X90620476Y-55930736D01*
X90688396Y-56094708D01*
X90723020Y-56268779D01*
X90723020Y-56446261D01*
X90688396Y-56620332D01*
X90620476Y-56784304D01*
X90521873Y-56931874D01*
X90396374Y-57057373D01*
X90248804Y-57155976D01*
X90084832Y-57223896D01*
X89935532Y-57253593D01*
X89910762Y-57258520D01*
X89733278Y-57258520D01*
X89708508Y-57253593D01*
X89559208Y-57223896D01*
X89395236Y-57155976D01*
X89247666Y-57057373D01*
X89122167Y-56931874D01*
X89023564Y-56784304D01*
X88955644Y-56620332D01*
X88921020Y-56446261D01*
X88921020Y-56268779D01*
X88955644Y-56094708D01*
X89023564Y-55930736D01*
X89122167Y-55783166D01*
X89247666Y-55657667D01*
X89395236Y-55559064D01*
X89559208Y-55491144D01*
X89708508Y-55461447D01*
X89733278Y-55456520D01*
X89910762Y-55456520D01*
X89935532Y-55461447D01*
G37*
G36*
X84855532Y-55461447D02*
G01*
X85004832Y-55491144D01*
X85168804Y-55559064D01*
X85316374Y-55657667D01*
X85441873Y-55783166D01*
X85540476Y-55930736D01*
X85608396Y-56094708D01*
X85643020Y-56268779D01*
X85643020Y-56446261D01*
X85608396Y-56620332D01*
X85540476Y-56784304D01*
X85441873Y-56931874D01*
X85316374Y-57057373D01*
X85168804Y-57155976D01*
X85004832Y-57223896D01*
X84855532Y-57253593D01*
X84830762Y-57258520D01*
X84653278Y-57258520D01*
X84628508Y-57253593D01*
X84479208Y-57223896D01*
X84315236Y-57155976D01*
X84167666Y-57057373D01*
X84042167Y-56931874D01*
X83943564Y-56784304D01*
X83875644Y-56620332D01*
X83841020Y-56446261D01*
X83841020Y-56268779D01*
X83875644Y-56094708D01*
X83943564Y-55930736D01*
X84042167Y-55783166D01*
X84167666Y-55657667D01*
X84315236Y-55559064D01*
X84479208Y-55491144D01*
X84628508Y-55461447D01*
X84653278Y-55456520D01*
X84830762Y-55456520D01*
X84855532Y-55461447D01*
G37*
G36*
X82315532Y-55461447D02*
G01*
X82464832Y-55491144D01*
X82628804Y-55559064D01*
X82776374Y-55657667D01*
X82901873Y-55783166D01*
X83000476Y-55930736D01*
X83068396Y-56094708D01*
X83103020Y-56268779D01*
X83103020Y-56446261D01*
X83068396Y-56620332D01*
X83000476Y-56784304D01*
X82901873Y-56931874D01*
X82776374Y-57057373D01*
X82628804Y-57155976D01*
X82464832Y-57223896D01*
X82315532Y-57253593D01*
X82290762Y-57258520D01*
X82113278Y-57258520D01*
X82088508Y-57253593D01*
X81939208Y-57223896D01*
X81775236Y-57155976D01*
X81627666Y-57057373D01*
X81502167Y-56931874D01*
X81403564Y-56784304D01*
X81335644Y-56620332D01*
X81301020Y-56446261D01*
X81301020Y-56268779D01*
X81335644Y-56094708D01*
X81403564Y-55930736D01*
X81502167Y-55783166D01*
X81627666Y-55657667D01*
X81775236Y-55559064D01*
X81939208Y-55491144D01*
X82088508Y-55461447D01*
X82113278Y-55456520D01*
X82290762Y-55456520D01*
X82315532Y-55461447D01*
G37*
G36*
X79775532Y-55461447D02*
G01*
X79924832Y-55491144D01*
X80088804Y-55559064D01*
X80236374Y-55657667D01*
X80361873Y-55783166D01*
X80460476Y-55930736D01*
X80528396Y-56094708D01*
X80563020Y-56268779D01*
X80563020Y-56446261D01*
X80528396Y-56620332D01*
X80460476Y-56784304D01*
X80361873Y-56931874D01*
X80236374Y-57057373D01*
X80088804Y-57155976D01*
X79924832Y-57223896D01*
X79775532Y-57253593D01*
X79750762Y-57258520D01*
X79573278Y-57258520D01*
X79548508Y-57253593D01*
X79399208Y-57223896D01*
X79235236Y-57155976D01*
X79087666Y-57057373D01*
X78962167Y-56931874D01*
X78863564Y-56784304D01*
X78795644Y-56620332D01*
X78761020Y-56446261D01*
X78761020Y-56268779D01*
X78795644Y-56094708D01*
X78863564Y-55930736D01*
X78962167Y-55783166D01*
X79087666Y-55657667D01*
X79235236Y-55559064D01*
X79399208Y-55491144D01*
X79548508Y-55461447D01*
X79573278Y-55456520D01*
X79750762Y-55456520D01*
X79775532Y-55461447D01*
G37*
G36*
X77235532Y-55461447D02*
G01*
X77384832Y-55491144D01*
X77548804Y-55559064D01*
X77696374Y-55657667D01*
X77821873Y-55783166D01*
X77920476Y-55930736D01*
X77988396Y-56094708D01*
X78023020Y-56268779D01*
X78023020Y-56446261D01*
X77988396Y-56620332D01*
X77920476Y-56784304D01*
X77821873Y-56931874D01*
X77696374Y-57057373D01*
X77548804Y-57155976D01*
X77384832Y-57223896D01*
X77235532Y-57253593D01*
X77210762Y-57258520D01*
X77033278Y-57258520D01*
X77008508Y-57253593D01*
X76859208Y-57223896D01*
X76695236Y-57155976D01*
X76547666Y-57057373D01*
X76422167Y-56931874D01*
X76323564Y-56784304D01*
X76255644Y-56620332D01*
X76221020Y-56446261D01*
X76221020Y-56268779D01*
X76255644Y-56094708D01*
X76323564Y-55930736D01*
X76422167Y-55783166D01*
X76547666Y-55657667D01*
X76695236Y-55559064D01*
X76859208Y-55491144D01*
X77008508Y-55461447D01*
X77033278Y-55456520D01*
X77210762Y-55456520D01*
X77235532Y-55461447D01*
G37*
G36*
X75483020Y-57258520D02*
G01*
X73681020Y-57258520D01*
X73681020Y-55456520D01*
X75483020Y-55456520D01*
X75483020Y-57258520D01*
G37*
G36*
X96222032Y-55461447D02*
G01*
X96371332Y-55491144D01*
X96535304Y-55559064D01*
X96682874Y-55657667D01*
X96808373Y-55783166D01*
X96906976Y-55930736D01*
X96974896Y-56094708D01*
X97009520Y-56268779D01*
X97009520Y-56446261D01*
X96974896Y-56620332D01*
X96906976Y-56784304D01*
X96808373Y-56931874D01*
X96682874Y-57057373D01*
X96535304Y-57155976D01*
X96371332Y-57223896D01*
X96222032Y-57253593D01*
X96197262Y-57258520D01*
X96019778Y-57258520D01*
X95995008Y-57253593D01*
X95845708Y-57223896D01*
X95681736Y-57155976D01*
X95534166Y-57057373D01*
X95408667Y-56931874D01*
X95310064Y-56784304D01*
X95242144Y-56620332D01*
X95207520Y-56446261D01*
X95207520Y-56268779D01*
X95242144Y-56094708D01*
X95310064Y-55930736D01*
X95408667Y-55783166D01*
X95534166Y-55657667D01*
X95681736Y-55559064D01*
X95845708Y-55491144D01*
X95995008Y-55461447D01*
X96019778Y-55456520D01*
X96197262Y-55456520D01*
X96222032Y-55461447D01*
G37*
G36*
X111462032Y-55461447D02*
G01*
X111611332Y-55491144D01*
X111775304Y-55559064D01*
X111922874Y-55657667D01*
X112048373Y-55783166D01*
X112146976Y-55930736D01*
X112214896Y-56094708D01*
X112249520Y-56268779D01*
X112249520Y-56446261D01*
X112214896Y-56620332D01*
X112146976Y-56784304D01*
X112048373Y-56931874D01*
X111922874Y-57057373D01*
X111775304Y-57155976D01*
X111611332Y-57223896D01*
X111462032Y-57253593D01*
X111437262Y-57258520D01*
X111259778Y-57258520D01*
X111235008Y-57253593D01*
X111085708Y-57223896D01*
X110921736Y-57155976D01*
X110774166Y-57057373D01*
X110648667Y-56931874D01*
X110550064Y-56784304D01*
X110482144Y-56620332D01*
X110447520Y-56446261D01*
X110447520Y-56268779D01*
X110482144Y-56094708D01*
X110550064Y-55930736D01*
X110648667Y-55783166D01*
X110774166Y-55657667D01*
X110921736Y-55559064D01*
X111085708Y-55491144D01*
X111235008Y-55461447D01*
X111259778Y-55456520D01*
X111437262Y-55456520D01*
X111462032Y-55461447D01*
G37*
G36*
X108922032Y-55461447D02*
G01*
X109071332Y-55491144D01*
X109235304Y-55559064D01*
X109382874Y-55657667D01*
X109508373Y-55783166D01*
X109606976Y-55930736D01*
X109674896Y-56094708D01*
X109709520Y-56268779D01*
X109709520Y-56446261D01*
X109674896Y-56620332D01*
X109606976Y-56784304D01*
X109508373Y-56931874D01*
X109382874Y-57057373D01*
X109235304Y-57155976D01*
X109071332Y-57223896D01*
X108922032Y-57253593D01*
X108897262Y-57258520D01*
X108719778Y-57258520D01*
X108695008Y-57253593D01*
X108545708Y-57223896D01*
X108381736Y-57155976D01*
X108234166Y-57057373D01*
X108108667Y-56931874D01*
X108010064Y-56784304D01*
X107942144Y-56620332D01*
X107907520Y-56446261D01*
X107907520Y-56268779D01*
X107942144Y-56094708D01*
X108010064Y-55930736D01*
X108108667Y-55783166D01*
X108234166Y-55657667D01*
X108381736Y-55559064D01*
X108545708Y-55491144D01*
X108695008Y-55461447D01*
X108719778Y-55456520D01*
X108897262Y-55456520D01*
X108922032Y-55461447D01*
G37*
G36*
X106382032Y-55461447D02*
G01*
X106531332Y-55491144D01*
X106695304Y-55559064D01*
X106842874Y-55657667D01*
X106968373Y-55783166D01*
X107066976Y-55930736D01*
X107134896Y-56094708D01*
X107169520Y-56268779D01*
X107169520Y-56446261D01*
X107134896Y-56620332D01*
X107066976Y-56784304D01*
X106968373Y-56931874D01*
X106842874Y-57057373D01*
X106695304Y-57155976D01*
X106531332Y-57223896D01*
X106382032Y-57253593D01*
X106357262Y-57258520D01*
X106179778Y-57258520D01*
X106155008Y-57253593D01*
X106005708Y-57223896D01*
X105841736Y-57155976D01*
X105694166Y-57057373D01*
X105568667Y-56931874D01*
X105470064Y-56784304D01*
X105402144Y-56620332D01*
X105367520Y-56446261D01*
X105367520Y-56268779D01*
X105402144Y-56094708D01*
X105470064Y-55930736D01*
X105568667Y-55783166D01*
X105694166Y-55657667D01*
X105841736Y-55559064D01*
X106005708Y-55491144D01*
X106155008Y-55461447D01*
X106179778Y-55456520D01*
X106357262Y-55456520D01*
X106382032Y-55461447D01*
G37*
G36*
X103842032Y-55461447D02*
G01*
X103991332Y-55491144D01*
X104155304Y-55559064D01*
X104302874Y-55657667D01*
X104428373Y-55783166D01*
X104526976Y-55930736D01*
X104594896Y-56094708D01*
X104629520Y-56268779D01*
X104629520Y-56446261D01*
X104594896Y-56620332D01*
X104526976Y-56784304D01*
X104428373Y-56931874D01*
X104302874Y-57057373D01*
X104155304Y-57155976D01*
X103991332Y-57223896D01*
X103842032Y-57253593D01*
X103817262Y-57258520D01*
X103639778Y-57258520D01*
X103615008Y-57253593D01*
X103465708Y-57223896D01*
X103301736Y-57155976D01*
X103154166Y-57057373D01*
X103028667Y-56931874D01*
X102930064Y-56784304D01*
X102862144Y-56620332D01*
X102827520Y-56446261D01*
X102827520Y-56268779D01*
X102862144Y-56094708D01*
X102930064Y-55930736D01*
X103028667Y-55783166D01*
X103154166Y-55657667D01*
X103301736Y-55559064D01*
X103465708Y-55491144D01*
X103615008Y-55461447D01*
X103639778Y-55456520D01*
X103817262Y-55456520D01*
X103842032Y-55461447D01*
G37*
G36*
X101302032Y-55461447D02*
G01*
X101451332Y-55491144D01*
X101615304Y-55559064D01*
X101762874Y-55657667D01*
X101888373Y-55783166D01*
X101986976Y-55930736D01*
X102054896Y-56094708D01*
X102089520Y-56268779D01*
X102089520Y-56446261D01*
X102054896Y-56620332D01*
X101986976Y-56784304D01*
X101888373Y-56931874D01*
X101762874Y-57057373D01*
X101615304Y-57155976D01*
X101451332Y-57223896D01*
X101302032Y-57253593D01*
X101277262Y-57258520D01*
X101099778Y-57258520D01*
X101075008Y-57253593D01*
X100925708Y-57223896D01*
X100761736Y-57155976D01*
X100614166Y-57057373D01*
X100488667Y-56931874D01*
X100390064Y-56784304D01*
X100322144Y-56620332D01*
X100287520Y-56446261D01*
X100287520Y-56268779D01*
X100322144Y-56094708D01*
X100390064Y-55930736D01*
X100488667Y-55783166D01*
X100614166Y-55657667D01*
X100761736Y-55559064D01*
X100925708Y-55491144D01*
X101075008Y-55461447D01*
X101099778Y-55456520D01*
X101277262Y-55456520D01*
X101302032Y-55461447D01*
G37*
G36*
X94469520Y-57258520D02*
G01*
X92667520Y-57258520D01*
X92667520Y-55456520D01*
X94469520Y-55456520D01*
X94469520Y-57258520D01*
G37*
G36*
X98762032Y-55461447D02*
G01*
X98911332Y-55491144D01*
X99075304Y-55559064D01*
X99222874Y-55657667D01*
X99348373Y-55783166D01*
X99446976Y-55930736D01*
X99514896Y-56094708D01*
X99549520Y-56268779D01*
X99549520Y-56446261D01*
X99514896Y-56620332D01*
X99446976Y-56784304D01*
X99348373Y-56931874D01*
X99222874Y-57057373D01*
X99075304Y-57155976D01*
X98911332Y-57223896D01*
X98762032Y-57253593D01*
X98737262Y-57258520D01*
X98559778Y-57258520D01*
X98535008Y-57253593D01*
X98385708Y-57223896D01*
X98221736Y-57155976D01*
X98074166Y-57057373D01*
X97948667Y-56931874D01*
X97850064Y-56784304D01*
X97782144Y-56620332D01*
X97747520Y-56446261D01*
X97747520Y-56268779D01*
X97782144Y-56094708D01*
X97850064Y-55930736D01*
X97948667Y-55783166D01*
X98074166Y-55657667D01*
X98221736Y-55559064D01*
X98385708Y-55491144D01*
X98535008Y-55461447D01*
X98559778Y-55456520D01*
X98737262Y-55456520D01*
X98762032Y-55461447D01*
G37*
G36*
X58513520Y-51657021D02*
G01*
X58515922Y-51681407D01*
X58523035Y-51704856D01*
X58534586Y-51726467D01*
X58550131Y-51745409D01*
X58569073Y-51760954D01*
X58590684Y-51772505D01*
X58614133Y-51779618D01*
X58638519Y-51782020D01*
X59523520Y-51782020D01*
X59523520Y-55702020D01*
X58638519Y-55702020D01*
X58614133Y-55704422D01*
X58590684Y-55711535D01*
X58569073Y-55723086D01*
X58550131Y-55738631D01*
X58534586Y-55757573D01*
X58523035Y-55779184D01*
X58515922Y-55802633D01*
X58513520Y-55827019D01*
X58513520Y-56712020D01*
X54593520Y-56712020D01*
X54593520Y-55827019D01*
X54591118Y-55802633D01*
X54584005Y-55779184D01*
X54572454Y-55757573D01*
X54556909Y-55738631D01*
X54537967Y-55723086D01*
X54516356Y-55711535D01*
X54492907Y-55704422D01*
X54468521Y-55702020D01*
X53583520Y-55702020D01*
X53583520Y-51782020D01*
X54468521Y-51782020D01*
X54492907Y-51779618D01*
X54516356Y-51772505D01*
X54537967Y-51760954D01*
X54556909Y-51745409D01*
X54572454Y-51726467D01*
X54584005Y-51704856D01*
X54591118Y-51681407D01*
X54593520Y-51657021D01*
X54593520Y-50772020D01*
X58513520Y-50772020D01*
X58513520Y-51657021D01*
G37*
G36*
X51036488Y-55584585D02*
G01*
X51075158Y-55596316D01*
X51110797Y-55615366D01*
X51142037Y-55641003D01*
X51167674Y-55672243D01*
X51186724Y-55707882D01*
X51198455Y-55746552D01*
X51203020Y-55792908D01*
X51203020Y-56444132D01*
X51198455Y-56490488D01*
X51186724Y-56529158D01*
X51167674Y-56564797D01*
X51142037Y-56596037D01*
X51110797Y-56621674D01*
X51075158Y-56640724D01*
X51036488Y-56652455D01*
X50990132Y-56657020D01*
X49913908Y-56657020D01*
X49867552Y-56652455D01*
X49828882Y-56640724D01*
X49793243Y-56621674D01*
X49762003Y-56596037D01*
X49736366Y-56564797D01*
X49717316Y-56529158D01*
X49705585Y-56490488D01*
X49701020Y-56444132D01*
X49701020Y-55792908D01*
X49705585Y-55746552D01*
X49717316Y-55707882D01*
X49736366Y-55672243D01*
X49762003Y-55641003D01*
X49793243Y-55615366D01*
X49828882Y-55596316D01*
X49867552Y-55584585D01*
X49913908Y-55580020D01*
X50990132Y-55580020D01*
X51036488Y-55584585D01*
G37*
G36*
X42338294Y-54891530D02*
G01*
X42338296Y-54891531D01*
X42338297Y-54891531D01*
X42388071Y-54912148D01*
X42432866Y-54942079D01*
X42470961Y-54980174D01*
X42470962Y-54980176D01*
X42500892Y-55024969D01*
X42521510Y-55074746D01*
X42532020Y-55127581D01*
X42532020Y-55181459D01*
X42531381Y-55184673D01*
X42521509Y-55234297D01*
X42500892Y-55284071D01*
X42470961Y-55328866D01*
X42432866Y-55366961D01*
X42388071Y-55396892D01*
X42338297Y-55417509D01*
X42338296Y-55417509D01*
X42338294Y-55417510D01*
X42285459Y-55428020D01*
X42231581Y-55428020D01*
X42178746Y-55417510D01*
X42178744Y-55417509D01*
X42178743Y-55417509D01*
X42128969Y-55396892D01*
X42084174Y-55366961D01*
X42046079Y-55328866D01*
X42016148Y-55284071D01*
X41995531Y-55234297D01*
X41985660Y-55184673D01*
X41985020Y-55181459D01*
X41985020Y-55127581D01*
X41995530Y-55074746D01*
X42016148Y-55024969D01*
X42046078Y-54980176D01*
X42046079Y-54980174D01*
X42084174Y-54942079D01*
X42128969Y-54912148D01*
X42178743Y-54891531D01*
X42178744Y-54891531D01*
X42178746Y-54891530D01*
X42231581Y-54881020D01*
X42285459Y-54881020D01*
X42338294Y-54891530D01*
G37*
G36*
X66524124Y-53841367D02*
G01*
X66560664Y-53852452D01*
X66594341Y-53870453D01*
X66623861Y-53894679D01*
X66648087Y-53924199D01*
X66666088Y-53957876D01*
X66677173Y-53994416D01*
X66681520Y-54038558D01*
X66681520Y-54987482D01*
X66677173Y-55031624D01*
X66666088Y-55068164D01*
X66648087Y-55101841D01*
X66623861Y-55131361D01*
X66594341Y-55155587D01*
X66560664Y-55173588D01*
X66524124Y-55184673D01*
X66479982Y-55189020D01*
X65031058Y-55189020D01*
X64986916Y-55184673D01*
X64950376Y-55173588D01*
X64916699Y-55155587D01*
X64887179Y-55131361D01*
X64862953Y-55101841D01*
X64844952Y-55068164D01*
X64833867Y-55031624D01*
X64829520Y-54987482D01*
X64829520Y-54038558D01*
X64833867Y-53994416D01*
X64844952Y-53957876D01*
X64862953Y-53924199D01*
X64887179Y-53894679D01*
X64916699Y-53870453D01*
X64950376Y-53852452D01*
X64986916Y-53841367D01*
X65031058Y-53837020D01*
X66479982Y-53837020D01*
X66524124Y-53841367D01*
G37*
G36*
X70270624Y-53841367D02*
G01*
X70307164Y-53852452D01*
X70340841Y-53870453D01*
X70370361Y-53894679D01*
X70394587Y-53924199D01*
X70412588Y-53957876D01*
X70423673Y-53994416D01*
X70428020Y-54038558D01*
X70428020Y-54987482D01*
X70423673Y-55031624D01*
X70412588Y-55068164D01*
X70394587Y-55101841D01*
X70370361Y-55131361D01*
X70340841Y-55155587D01*
X70307164Y-55173588D01*
X70270624Y-55184673D01*
X70226482Y-55189020D01*
X68777558Y-55189020D01*
X68733416Y-55184673D01*
X68696876Y-55173588D01*
X68663199Y-55155587D01*
X68633679Y-55131361D01*
X68609453Y-55101841D01*
X68591452Y-55068164D01*
X68580367Y-55031624D01*
X68576020Y-54987482D01*
X68576020Y-54038558D01*
X68580367Y-53994416D01*
X68591452Y-53957876D01*
X68609453Y-53924199D01*
X68633679Y-53894679D01*
X68663199Y-53870453D01*
X68696876Y-53852452D01*
X68733416Y-53841367D01*
X68777558Y-53837020D01*
X70226482Y-53837020D01*
X70270624Y-53841367D01*
G37*
G36*
X44650914Y-53005454D02*
G01*
X44802144Y-53068096D01*
X44802146Y-53068097D01*
X44938252Y-53159040D01*
X45054000Y-53274788D01*
X45058832Y-53282020D01*
X45144944Y-53410896D01*
X45207586Y-53562126D01*
X45239520Y-53722672D01*
X45239520Y-53886368D01*
X45207586Y-54046914D01*
X45182523Y-54107420D01*
X45144943Y-54198146D01*
X45054000Y-54334252D01*
X44938252Y-54450000D01*
X44802146Y-54540943D01*
X44802145Y-54540944D01*
X44802144Y-54540944D01*
X44650914Y-54603586D01*
X44490368Y-54635520D01*
X44326672Y-54635520D01*
X44166126Y-54603586D01*
X44014896Y-54540944D01*
X44014895Y-54540944D01*
X44014894Y-54540943D01*
X43878788Y-54450000D01*
X43820914Y-54392126D01*
X43801978Y-54376586D01*
X43780367Y-54365035D01*
X43756918Y-54357922D01*
X43732532Y-54355520D01*
X42637520Y-54355520D01*
X42637520Y-53953520D01*
X43452521Y-53953520D01*
X43476907Y-53951118D01*
X43500356Y-53944005D01*
X43521967Y-53932454D01*
X43540909Y-53916909D01*
X43556454Y-53897967D01*
X43568005Y-53876356D01*
X43575118Y-53852907D01*
X43577520Y-53828521D01*
X43577520Y-53722672D01*
X43609454Y-53562126D01*
X43672096Y-53410896D01*
X43758208Y-53282020D01*
X43763040Y-53274788D01*
X43878788Y-53159040D01*
X44014894Y-53068097D01*
X44014896Y-53068096D01*
X44166126Y-53005454D01*
X44326672Y-52973520D01*
X44490368Y-52973520D01*
X44650914Y-53005454D01*
G37*
G36*
X40350914Y-53005454D02*
G01*
X40502144Y-53068096D01*
X40502146Y-53068097D01*
X40638252Y-53159040D01*
X40754000Y-53274788D01*
X40758832Y-53282020D01*
X40844944Y-53410896D01*
X40907586Y-53562126D01*
X40939520Y-53722672D01*
X40939520Y-53828521D01*
X40941922Y-53852907D01*
X40949035Y-53876356D01*
X40960586Y-53897967D01*
X40976131Y-53916909D01*
X40995073Y-53932454D01*
X41016684Y-53944005D01*
X41040133Y-53951118D01*
X41064519Y-53953520D01*
X41879520Y-53953520D01*
X41879520Y-54355520D01*
X40784508Y-54355520D01*
X40760122Y-54357922D01*
X40736673Y-54365035D01*
X40715062Y-54376586D01*
X40696126Y-54392126D01*
X40638252Y-54450000D01*
X40502146Y-54540943D01*
X40502145Y-54540944D01*
X40502144Y-54540944D01*
X40350914Y-54603586D01*
X40190368Y-54635520D01*
X40026672Y-54635520D01*
X39866126Y-54603586D01*
X39714896Y-54540944D01*
X39714895Y-54540944D01*
X39714894Y-54540943D01*
X39578788Y-54450000D01*
X39463040Y-54334252D01*
X39372097Y-54198146D01*
X39334517Y-54107420D01*
X39309454Y-54046914D01*
X39277520Y-53886368D01*
X39277520Y-53722672D01*
X39309454Y-53562126D01*
X39372096Y-53410896D01*
X39458208Y-53282020D01*
X39463040Y-53274788D01*
X39578788Y-53159040D01*
X39714894Y-53068097D01*
X39714896Y-53068096D01*
X39866126Y-53005454D01*
X40026672Y-52973520D01*
X40190368Y-52973520D01*
X40350914Y-53005454D01*
G37*
G36*
X43609520Y-52855520D02*
G01*
X42637520Y-52855520D01*
X42637520Y-49953520D01*
X43609520Y-49953520D01*
X43609520Y-52855520D01*
G37*
G36*
X41879520Y-52855520D02*
G01*
X40907520Y-52855520D01*
X40907520Y-49953520D01*
X41879520Y-49953520D01*
X41879520Y-52855520D01*
G37*
G36*
X37187124Y-51243867D02*
G01*
X37223664Y-51254952D01*
X37257341Y-51272953D01*
X37286861Y-51297179D01*
X37311087Y-51326699D01*
X37329088Y-51360376D01*
X37340173Y-51396916D01*
X37344520Y-51441058D01*
X37344520Y-52389982D01*
X37340173Y-52434124D01*
X37329088Y-52470664D01*
X37311087Y-52504341D01*
X37286861Y-52533861D01*
X37257341Y-52558087D01*
X37223664Y-52576088D01*
X37187124Y-52587173D01*
X37142982Y-52591520D01*
X35694058Y-52591520D01*
X35649916Y-52587173D01*
X35613376Y-52576088D01*
X35579699Y-52558087D01*
X35550179Y-52533861D01*
X35525953Y-52504341D01*
X35507952Y-52470664D01*
X35496867Y-52434124D01*
X35492520Y-52389982D01*
X35492520Y-51441058D01*
X35496867Y-51396916D01*
X35507952Y-51360376D01*
X35525953Y-51326699D01*
X35550179Y-51297179D01*
X35579699Y-51272953D01*
X35613376Y-51254952D01*
X35649916Y-51243867D01*
X35694058Y-51239520D01*
X37142982Y-51239520D01*
X37187124Y-51243867D01*
G37*
G36*
X51700624Y-49085867D02*
G01*
X51737164Y-49096952D01*
X51770841Y-49114953D01*
X51800361Y-49139179D01*
X51824587Y-49168699D01*
X51842588Y-49202376D01*
X51853673Y-49238916D01*
X51858020Y-49283058D01*
X51858020Y-50731982D01*
X51853673Y-50776124D01*
X51842588Y-50812664D01*
X51824587Y-50846341D01*
X51800361Y-50875861D01*
X51770841Y-50900087D01*
X51737164Y-50918088D01*
X51700624Y-50929173D01*
X51656482Y-50933520D01*
X50707558Y-50933520D01*
X50663416Y-50929173D01*
X50626876Y-50918088D01*
X50593199Y-50900087D01*
X50563679Y-50875861D01*
X50539453Y-50846341D01*
X50521452Y-50812664D01*
X50510367Y-50776124D01*
X50506020Y-50731982D01*
X50506020Y-49283058D01*
X50510367Y-49238916D01*
X50521452Y-49202376D01*
X50539453Y-49168699D01*
X50563679Y-49139179D01*
X50593199Y-49114953D01*
X50626876Y-49096952D01*
X50663416Y-49085867D01*
X50707558Y-49081520D01*
X51656482Y-49081520D01*
X51700624Y-49085867D01*
G37*
G36*
X48900624Y-49085867D02*
G01*
X48937164Y-49096952D01*
X48970841Y-49114953D01*
X49000361Y-49139179D01*
X49024587Y-49168699D01*
X49042588Y-49202376D01*
X49053673Y-49238916D01*
X49058020Y-49283058D01*
X49058020Y-50731982D01*
X49053673Y-50776124D01*
X49042588Y-50812664D01*
X49024587Y-50846341D01*
X49000361Y-50875861D01*
X48970841Y-50900087D01*
X48937164Y-50918088D01*
X48900624Y-50929173D01*
X48856482Y-50933520D01*
X47907558Y-50933520D01*
X47863416Y-50929173D01*
X47826876Y-50918088D01*
X47793199Y-50900087D01*
X47763679Y-50875861D01*
X47739453Y-50846341D01*
X47721452Y-50812664D01*
X47710367Y-50776124D01*
X47706020Y-50731982D01*
X47706020Y-49283058D01*
X47710367Y-49238916D01*
X47721452Y-49202376D01*
X47739453Y-49168699D01*
X47763679Y-49139179D01*
X47793199Y-49114953D01*
X47826876Y-49096952D01*
X47863416Y-49085867D01*
X47907558Y-49081520D01*
X48856482Y-49081520D01*
X48900624Y-49085867D01*
G37*
G36*
X44650914Y-48205454D02*
G01*
X44802144Y-48268096D01*
X44802146Y-48268097D01*
X44938252Y-48359040D01*
X45054000Y-48474788D01*
X45110732Y-48559694D01*
X45144944Y-48610896D01*
X45207586Y-48762126D01*
X45239520Y-48922672D01*
X45239520Y-49086368D01*
X45207586Y-49246914D01*
X45144944Y-49398144D01*
X45144943Y-49398146D01*
X45054000Y-49534252D01*
X44938252Y-49650000D01*
X44802146Y-49740943D01*
X44802145Y-49740944D01*
X44802144Y-49740944D01*
X44650914Y-49803586D01*
X44490368Y-49835520D01*
X44326672Y-49835520D01*
X44166126Y-49803586D01*
X44014896Y-49740944D01*
X44014895Y-49740944D01*
X44014894Y-49740943D01*
X43878788Y-49650000D01*
X43763040Y-49534252D01*
X43672097Y-49398146D01*
X43672096Y-49398144D01*
X43609454Y-49246914D01*
X43577520Y-49086368D01*
X43577520Y-48980519D01*
X43575118Y-48956133D01*
X43568005Y-48932684D01*
X43556454Y-48911073D01*
X43540909Y-48892131D01*
X43521967Y-48876586D01*
X43500356Y-48865035D01*
X43476907Y-48857922D01*
X43452521Y-48855520D01*
X42637520Y-48855520D01*
X42637520Y-48453520D01*
X43732532Y-48453520D01*
X43756918Y-48451118D01*
X43780367Y-48444005D01*
X43801978Y-48432454D01*
X43820914Y-48416914D01*
X43878788Y-48359040D01*
X44014894Y-48268097D01*
X44014896Y-48268096D01*
X44166126Y-48205454D01*
X44326672Y-48173520D01*
X44490368Y-48173520D01*
X44650914Y-48205454D01*
G37*
G36*
X40350914Y-48205454D02*
G01*
X40502144Y-48268096D01*
X40502146Y-48268097D01*
X40638252Y-48359040D01*
X40696126Y-48416914D01*
X40715062Y-48432454D01*
X40736673Y-48444005D01*
X40760122Y-48451118D01*
X40784508Y-48453520D01*
X41879520Y-48453520D01*
X41879520Y-48855520D01*
X41064519Y-48855520D01*
X41040133Y-48857922D01*
X41016684Y-48865035D01*
X40995073Y-48876586D01*
X40976131Y-48892131D01*
X40960586Y-48911073D01*
X40949035Y-48932684D01*
X40941922Y-48956133D01*
X40939520Y-48980519D01*
X40939520Y-49086368D01*
X40907586Y-49246914D01*
X40844944Y-49398144D01*
X40844943Y-49398146D01*
X40754000Y-49534252D01*
X40638252Y-49650000D01*
X40502146Y-49740943D01*
X40502145Y-49740944D01*
X40502144Y-49740944D01*
X40350914Y-49803586D01*
X40190368Y-49835520D01*
X40026672Y-49835520D01*
X39866126Y-49803586D01*
X39714896Y-49740944D01*
X39714895Y-49740944D01*
X39714894Y-49740943D01*
X39578788Y-49650000D01*
X39463040Y-49534252D01*
X39372097Y-49398146D01*
X39372096Y-49398144D01*
X39309454Y-49246914D01*
X39277520Y-49086368D01*
X39277520Y-48922672D01*
X39309454Y-48762126D01*
X39372096Y-48610896D01*
X39406308Y-48559694D01*
X39463040Y-48474788D01*
X39578788Y-48359040D01*
X39714894Y-48268097D01*
X39714896Y-48268096D01*
X39866126Y-48205454D01*
X40026672Y-48173520D01*
X40190368Y-48173520D01*
X40350914Y-48205454D01*
G37*
G36*
X37187124Y-48443867D02*
G01*
X37223664Y-48454952D01*
X37257341Y-48472953D01*
X37286861Y-48497179D01*
X37311087Y-48526699D01*
X37329088Y-48560376D01*
X37340173Y-48596916D01*
X37344520Y-48641058D01*
X37344520Y-49589982D01*
X37340173Y-49634124D01*
X37329088Y-49670664D01*
X37311087Y-49704341D01*
X37286861Y-49733861D01*
X37257341Y-49758087D01*
X37223664Y-49776088D01*
X37187124Y-49787173D01*
X37142982Y-49791520D01*
X35694058Y-49791520D01*
X35649916Y-49787173D01*
X35613376Y-49776088D01*
X35579699Y-49758087D01*
X35550179Y-49733861D01*
X35525953Y-49704341D01*
X35507952Y-49670664D01*
X35496867Y-49634124D01*
X35492520Y-49589982D01*
X35492520Y-48641058D01*
X35496867Y-48596916D01*
X35507952Y-48560376D01*
X35525953Y-48526699D01*
X35550179Y-48497179D01*
X35579699Y-48472953D01*
X35613376Y-48454952D01*
X35649916Y-48443867D01*
X35694058Y-48439520D01*
X37142982Y-48439520D01*
X37187124Y-48443867D01*
G37*
G36*
X63037988Y-47426585D02*
G01*
X63076658Y-47438316D01*
X63112297Y-47457366D01*
X63143537Y-47483003D01*
X63169174Y-47514243D01*
X63188224Y-47549882D01*
X63199955Y-47588552D01*
X63204520Y-47634908D01*
X63204520Y-48286132D01*
X63199955Y-48332488D01*
X63188224Y-48371158D01*
X63169174Y-48406797D01*
X63143537Y-48438037D01*
X63112297Y-48463674D01*
X63076658Y-48482724D01*
X63037988Y-48494455D01*
X62991632Y-48499020D01*
X61915408Y-48499020D01*
X61869052Y-48494455D01*
X61830382Y-48482724D01*
X61794743Y-48463674D01*
X61763503Y-48438037D01*
X61737866Y-48406797D01*
X61718816Y-48371158D01*
X61707085Y-48332488D01*
X61702520Y-48286132D01*
X61702520Y-47634908D01*
X61707085Y-47588552D01*
X61718816Y-47549882D01*
X61737866Y-47514243D01*
X61763503Y-47483003D01*
X61794743Y-47457366D01*
X61830382Y-47438316D01*
X61869052Y-47426585D01*
X61915408Y-47422020D01*
X62991632Y-47422020D01*
X63037988Y-47426585D01*
G37*
G36*
X60751988Y-47426585D02*
G01*
X60790658Y-47438316D01*
X60826297Y-47457366D01*
X60857537Y-47483003D01*
X60883174Y-47514243D01*
X60902224Y-47549882D01*
X60913955Y-47588552D01*
X60918520Y-47634908D01*
X60918520Y-48286132D01*
X60913955Y-48332488D01*
X60902224Y-48371158D01*
X60883174Y-48406797D01*
X60857537Y-48438037D01*
X60826297Y-48463674D01*
X60790658Y-48482724D01*
X60751988Y-48494455D01*
X60705632Y-48499020D01*
X59629408Y-48499020D01*
X59583052Y-48494455D01*
X59544382Y-48482724D01*
X59508743Y-48463674D01*
X59477503Y-48438037D01*
X59451866Y-48406797D01*
X59432816Y-48371158D01*
X59421085Y-48332488D01*
X59416520Y-48286132D01*
X59416520Y-47634908D01*
X59421085Y-47588552D01*
X59432816Y-47549882D01*
X59451866Y-47514243D01*
X59477503Y-47483003D01*
X59508743Y-47457366D01*
X59544382Y-47438316D01*
X59583052Y-47426585D01*
X59629408Y-47422020D01*
X60705632Y-47422020D01*
X60751988Y-47426585D01*
G37*
G36*
X66350815Y-46524843D02*
G01*
X66357829Y-46526971D01*
X66371597Y-46534330D01*
X66394236Y-46543707D01*
X66418269Y-46548487D01*
X66442773Y-46548487D01*
X66466806Y-46543706D01*
X66489443Y-46534330D01*
X66503211Y-46526971D01*
X66510225Y-46524843D01*
X66523660Y-46523520D01*
X66837380Y-46523520D01*
X66850815Y-46524843D01*
X66857829Y-46526971D01*
X66871597Y-46534330D01*
X66894236Y-46543707D01*
X66918269Y-46548487D01*
X66942773Y-46548487D01*
X66966806Y-46543706D01*
X66989443Y-46534330D01*
X67003211Y-46526971D01*
X67010225Y-46524843D01*
X67023660Y-46523520D01*
X67337380Y-46523520D01*
X67350815Y-46524843D01*
X67357829Y-46526971D01*
X67371597Y-46534330D01*
X67394236Y-46543707D01*
X67418269Y-46548487D01*
X67442773Y-46548487D01*
X67466806Y-46543706D01*
X67489443Y-46534330D01*
X67503211Y-46526971D01*
X67510225Y-46524843D01*
X67523660Y-46523520D01*
X67837380Y-46523520D01*
X67850815Y-46524843D01*
X67857829Y-46526971D01*
X67871597Y-46534330D01*
X67894236Y-46543707D01*
X67918269Y-46548487D01*
X67942773Y-46548487D01*
X67966806Y-46543706D01*
X67989443Y-46534330D01*
X68003211Y-46526971D01*
X68010225Y-46524843D01*
X68023660Y-46523520D01*
X68337380Y-46523520D01*
X68350815Y-46524843D01*
X68357829Y-46526971D01*
X68371597Y-46534330D01*
X68394236Y-46543707D01*
X68418269Y-46548487D01*
X68442773Y-46548487D01*
X68466806Y-46543706D01*
X68489443Y-46534330D01*
X68503211Y-46526971D01*
X68510225Y-46524843D01*
X68523660Y-46523520D01*
X68837380Y-46523520D01*
X68850815Y-46524843D01*
X68857829Y-46526971D01*
X68871597Y-46534330D01*
X68894236Y-46543707D01*
X68918269Y-46548487D01*
X68942773Y-46548487D01*
X68966806Y-46543706D01*
X68989443Y-46534330D01*
X69003211Y-46526971D01*
X69010225Y-46524843D01*
X69023660Y-46523520D01*
X69337380Y-46523520D01*
X69350815Y-46524843D01*
X69357829Y-46526971D01*
X69371597Y-46534330D01*
X69394236Y-46543707D01*
X69418269Y-46548487D01*
X69442773Y-46548487D01*
X69466806Y-46543706D01*
X69489443Y-46534330D01*
X69503211Y-46526971D01*
X69510225Y-46524843D01*
X69523660Y-46523520D01*
X69837380Y-46523520D01*
X69850815Y-46524843D01*
X69857829Y-46526971D01*
X69871597Y-46534330D01*
X69894236Y-46543707D01*
X69918269Y-46548487D01*
X69942773Y-46548487D01*
X69966806Y-46543706D01*
X69989443Y-46534330D01*
X70003211Y-46526971D01*
X70010225Y-46524843D01*
X70023660Y-46523520D01*
X70337380Y-46523520D01*
X70350815Y-46524843D01*
X70357829Y-46526971D01*
X70371597Y-46534330D01*
X70394236Y-46543707D01*
X70418269Y-46548487D01*
X70442773Y-46548487D01*
X70466806Y-46543706D01*
X70489443Y-46534330D01*
X70503211Y-46526971D01*
X70510225Y-46524843D01*
X70523660Y-46523520D01*
X70837380Y-46523520D01*
X70850815Y-46524843D01*
X70857829Y-46526971D01*
X70871597Y-46534330D01*
X70894236Y-46543707D01*
X70918269Y-46548487D01*
X70942773Y-46548487D01*
X70966806Y-46543706D01*
X70989443Y-46534330D01*
X71003211Y-46526971D01*
X71010225Y-46524843D01*
X71023660Y-46523520D01*
X71337380Y-46523520D01*
X71350815Y-46524843D01*
X71357829Y-46526971D01*
X71371597Y-46534330D01*
X71394236Y-46543707D01*
X71418269Y-46548487D01*
X71442773Y-46548487D01*
X71466806Y-46543706D01*
X71489443Y-46534330D01*
X71503211Y-46526971D01*
X71510225Y-46524843D01*
X71523660Y-46523520D01*
X71837380Y-46523520D01*
X71850815Y-46524843D01*
X71857830Y-46526971D01*
X71864296Y-46530428D01*
X71869962Y-46535078D01*
X71874612Y-46540744D01*
X71878069Y-46547210D01*
X71880197Y-46554225D01*
X71881520Y-46567660D01*
X71881520Y-48056380D01*
X71880197Y-48069815D01*
X71878069Y-48076830D01*
X71874612Y-48083296D01*
X71869962Y-48088962D01*
X71864296Y-48093612D01*
X71857830Y-48097069D01*
X71850815Y-48099197D01*
X71837380Y-48100520D01*
X71523660Y-48100520D01*
X71510225Y-48099197D01*
X71503211Y-48097069D01*
X71489443Y-48089710D01*
X71466804Y-48080333D01*
X71442771Y-48075553D01*
X71418267Y-48075553D01*
X71394234Y-48080334D01*
X71371597Y-48089710D01*
X71357829Y-48097069D01*
X71350815Y-48099197D01*
X71337380Y-48100520D01*
X71023660Y-48100520D01*
X71010225Y-48099197D01*
X71003211Y-48097069D01*
X70989443Y-48089710D01*
X70966804Y-48080333D01*
X70942771Y-48075553D01*
X70918267Y-48075553D01*
X70894234Y-48080334D01*
X70871597Y-48089710D01*
X70857829Y-48097069D01*
X70850815Y-48099197D01*
X70837380Y-48100520D01*
X70523660Y-48100520D01*
X70510225Y-48099197D01*
X70503211Y-48097069D01*
X70489443Y-48089710D01*
X70466804Y-48080333D01*
X70442771Y-48075553D01*
X70418267Y-48075553D01*
X70394234Y-48080334D01*
X70371597Y-48089710D01*
X70357829Y-48097069D01*
X70350815Y-48099197D01*
X70337380Y-48100520D01*
X70023660Y-48100520D01*
X70010225Y-48099197D01*
X70003211Y-48097069D01*
X69989443Y-48089710D01*
X69966804Y-48080333D01*
X69942771Y-48075553D01*
X69918267Y-48075553D01*
X69894234Y-48080334D01*
X69871597Y-48089710D01*
X69857829Y-48097069D01*
X69850815Y-48099197D01*
X69837380Y-48100520D01*
X69523660Y-48100520D01*
X69510225Y-48099197D01*
X69503211Y-48097069D01*
X69489443Y-48089710D01*
X69466804Y-48080333D01*
X69442771Y-48075553D01*
X69418267Y-48075553D01*
X69394234Y-48080334D01*
X69371597Y-48089710D01*
X69357829Y-48097069D01*
X69350815Y-48099197D01*
X69337380Y-48100520D01*
X69023660Y-48100520D01*
X69010225Y-48099197D01*
X69003211Y-48097069D01*
X68989443Y-48089710D01*
X68966804Y-48080333D01*
X68942771Y-48075553D01*
X68918267Y-48075553D01*
X68894234Y-48080334D01*
X68871597Y-48089710D01*
X68857829Y-48097069D01*
X68850815Y-48099197D01*
X68837380Y-48100520D01*
X68523660Y-48100520D01*
X68510225Y-48099197D01*
X68503211Y-48097069D01*
X68489443Y-48089710D01*
X68466804Y-48080333D01*
X68442771Y-48075553D01*
X68418267Y-48075553D01*
X68394234Y-48080334D01*
X68371597Y-48089710D01*
X68357829Y-48097069D01*
X68350815Y-48099197D01*
X68337380Y-48100520D01*
X68023660Y-48100520D01*
X68010225Y-48099197D01*
X68003211Y-48097069D01*
X67989443Y-48089710D01*
X67966804Y-48080333D01*
X67942771Y-48075553D01*
X67918267Y-48075553D01*
X67894234Y-48080334D01*
X67871597Y-48089710D01*
X67857829Y-48097069D01*
X67850815Y-48099197D01*
X67837380Y-48100520D01*
X67523660Y-48100520D01*
X67510225Y-48099197D01*
X67503211Y-48097069D01*
X67489443Y-48089710D01*
X67466804Y-48080333D01*
X67442771Y-48075553D01*
X67418267Y-48075553D01*
X67394234Y-48080334D01*
X67371597Y-48089710D01*
X67357829Y-48097069D01*
X67350815Y-48099197D01*
X67337380Y-48100520D01*
X67023660Y-48100520D01*
X67010225Y-48099197D01*
X67003211Y-48097069D01*
X66989443Y-48089710D01*
X66966804Y-48080333D01*
X66942771Y-48075553D01*
X66918267Y-48075553D01*
X66894234Y-48080334D01*
X66871597Y-48089710D01*
X66857829Y-48097069D01*
X66850815Y-48099197D01*
X66837380Y-48100520D01*
X66523660Y-48100520D01*
X66510225Y-48099197D01*
X66503211Y-48097069D01*
X66489443Y-48089710D01*
X66466804Y-48080333D01*
X66442771Y-48075553D01*
X66418267Y-48075553D01*
X66394234Y-48080334D01*
X66371597Y-48089710D01*
X66357829Y-48097069D01*
X66350815Y-48099197D01*
X66337380Y-48100520D01*
X66023660Y-48100520D01*
X66010225Y-48099197D01*
X66003210Y-48097069D01*
X65996744Y-48093612D01*
X65991078Y-48088962D01*
X65986428Y-48083296D01*
X65982971Y-48076830D01*
X65980843Y-48069815D01*
X65979520Y-48056380D01*
X65979520Y-46567660D01*
X65980843Y-46554225D01*
X65982971Y-46547210D01*
X65986428Y-46540744D01*
X65991078Y-46535078D01*
X65996744Y-46530428D01*
X66003210Y-46526971D01*
X66010225Y-46524843D01*
X66023660Y-46523520D01*
X66337380Y-46523520D01*
X66350815Y-46524843D01*
G37*
G36*
X42311313Y-47480474D02*
G01*
X42337441Y-47491297D01*
X42344256Y-47494120D01*
X42373901Y-47513928D01*
X42399112Y-47539139D01*
X42399113Y-47539141D01*
X42418920Y-47568784D01*
X42432566Y-47601727D01*
X42439520Y-47636691D01*
X42439520Y-47672349D01*
X42432566Y-47707313D01*
X42418920Y-47740256D01*
X42399112Y-47769901D01*
X42373901Y-47795112D01*
X42344256Y-47814920D01*
X42311313Y-47828566D01*
X42276349Y-47835520D01*
X42240691Y-47835520D01*
X42205727Y-47828566D01*
X42172784Y-47814920D01*
X42143139Y-47795112D01*
X42117928Y-47769901D01*
X42098120Y-47740256D01*
X42084474Y-47707313D01*
X42077520Y-47672349D01*
X42077520Y-47636691D01*
X42084474Y-47601727D01*
X42098120Y-47568784D01*
X42117927Y-47539141D01*
X42117928Y-47539139D01*
X42143139Y-47513928D01*
X42172784Y-47494120D01*
X42179599Y-47491297D01*
X42205727Y-47480474D01*
X42240691Y-47473520D01*
X42276349Y-47473520D01*
X42311313Y-47480474D01*
G37*
G36*
X50491488Y-46086085D02*
G01*
X50530158Y-46097816D01*
X50565797Y-46116866D01*
X50597037Y-46142503D01*
X50622674Y-46173743D01*
X50641724Y-46209382D01*
X50653455Y-46248052D01*
X50658020Y-46294408D01*
X50658020Y-47370632D01*
X50653455Y-47416988D01*
X50641724Y-47455658D01*
X50622674Y-47491297D01*
X50597037Y-47522537D01*
X50565797Y-47548174D01*
X50530158Y-47567224D01*
X50491488Y-47578955D01*
X50445132Y-47583520D01*
X49793908Y-47583520D01*
X49747552Y-47578955D01*
X49708882Y-47567224D01*
X49673243Y-47548174D01*
X49642003Y-47522537D01*
X49616366Y-47491297D01*
X49597316Y-47455658D01*
X49585585Y-47416988D01*
X49581020Y-47370632D01*
X49581020Y-46294408D01*
X49585585Y-46248052D01*
X49597316Y-46209382D01*
X49616366Y-46173743D01*
X49642003Y-46142503D01*
X49673243Y-46116866D01*
X49708882Y-46097816D01*
X49747552Y-46086085D01*
X49793908Y-46081520D01*
X50445132Y-46081520D01*
X50491488Y-46086085D01*
G37*
G36*
X48616488Y-46086085D02*
G01*
X48655158Y-46097816D01*
X48690797Y-46116866D01*
X48722037Y-46142503D01*
X48747674Y-46173743D01*
X48766724Y-46209382D01*
X48778455Y-46248052D01*
X48783020Y-46294408D01*
X48783020Y-47370632D01*
X48778455Y-47416988D01*
X48766724Y-47455658D01*
X48747674Y-47491297D01*
X48722037Y-47522537D01*
X48690797Y-47548174D01*
X48655158Y-47567224D01*
X48616488Y-47578955D01*
X48570132Y-47583520D01*
X47918908Y-47583520D01*
X47872552Y-47578955D01*
X47833882Y-47567224D01*
X47798243Y-47548174D01*
X47767003Y-47522537D01*
X47741366Y-47491297D01*
X47722316Y-47455658D01*
X47710585Y-47416988D01*
X47706020Y-47370632D01*
X47706020Y-46294408D01*
X47710585Y-46248052D01*
X47722316Y-46209382D01*
X47741366Y-46173743D01*
X47767003Y-46142503D01*
X47798243Y-46116866D01*
X47833882Y-46097816D01*
X47872552Y-46086085D01*
X47918908Y-46081520D01*
X48570132Y-46081520D01*
X48616488Y-46086085D01*
G37*
G36*
X63037988Y-45551585D02*
G01*
X63076658Y-45563316D01*
X63112297Y-45582366D01*
X63143537Y-45608003D01*
X63169174Y-45639243D01*
X63188224Y-45674882D01*
X63199955Y-45713552D01*
X63204520Y-45759908D01*
X63204520Y-46411132D01*
X63199955Y-46457488D01*
X63188224Y-46496158D01*
X63169174Y-46531797D01*
X63143537Y-46563037D01*
X63112297Y-46588674D01*
X63076658Y-46607724D01*
X63037988Y-46619455D01*
X62991632Y-46624020D01*
X61915408Y-46624020D01*
X61869052Y-46619455D01*
X61830382Y-46607724D01*
X61794743Y-46588674D01*
X61763503Y-46563037D01*
X61737866Y-46531797D01*
X61718816Y-46496158D01*
X61707085Y-46457488D01*
X61702520Y-46411132D01*
X61702520Y-45759908D01*
X61707085Y-45713552D01*
X61718816Y-45674882D01*
X61737866Y-45639243D01*
X61763503Y-45608003D01*
X61794743Y-45582366D01*
X61830382Y-45563316D01*
X61869052Y-45551585D01*
X61915408Y-45547020D01*
X62991632Y-45547020D01*
X63037988Y-45551585D01*
G37*
G36*
X60751988Y-45551585D02*
G01*
X60790658Y-45563316D01*
X60826297Y-45582366D01*
X60857537Y-45608003D01*
X60883174Y-45639243D01*
X60902224Y-45674882D01*
X60913955Y-45713552D01*
X60918520Y-45759908D01*
X60918520Y-46411132D01*
X60913955Y-46457488D01*
X60902224Y-46496158D01*
X60883174Y-46531797D01*
X60857537Y-46563037D01*
X60826297Y-46588674D01*
X60790658Y-46607724D01*
X60751988Y-46619455D01*
X60705632Y-46624020D01*
X59629408Y-46624020D01*
X59583052Y-46619455D01*
X59544382Y-46607724D01*
X59508743Y-46588674D01*
X59477503Y-46563037D01*
X59451866Y-46531797D01*
X59432816Y-46496158D01*
X59421085Y-46457488D01*
X59416520Y-46411132D01*
X59416520Y-45759908D01*
X59421085Y-45713552D01*
X59432816Y-45674882D01*
X59451866Y-45639243D01*
X59477503Y-45608003D01*
X59508743Y-45582366D01*
X59544382Y-45563316D01*
X59583052Y-45551585D01*
X59629408Y-45547020D01*
X60705632Y-45547020D01*
X60751988Y-45551585D01*
G37*
G36*
X65525815Y-40199843D02*
G01*
X65532830Y-40201971D01*
X65539296Y-40205428D01*
X65544962Y-40210078D01*
X65549612Y-40215744D01*
X65553069Y-40222210D01*
X65555197Y-40229225D01*
X65556520Y-40242660D01*
X65556520Y-40556380D01*
X65555197Y-40569815D01*
X65553069Y-40576829D01*
X65545710Y-40590597D01*
X65536333Y-40613236D01*
X65531553Y-40637269D01*
X65531553Y-40661773D01*
X65536334Y-40685806D01*
X65545710Y-40708443D01*
X65553069Y-40722211D01*
X65555197Y-40729225D01*
X65556520Y-40742660D01*
X65556520Y-41056380D01*
X65555197Y-41069815D01*
X65553069Y-41076829D01*
X65545710Y-41090597D01*
X65536333Y-41113236D01*
X65531553Y-41137269D01*
X65531553Y-41161773D01*
X65536334Y-41185806D01*
X65545710Y-41208443D01*
X65553069Y-41222211D01*
X65555197Y-41229225D01*
X65556520Y-41242660D01*
X65556520Y-41556380D01*
X65555197Y-41569815D01*
X65553069Y-41576829D01*
X65545710Y-41590597D01*
X65536333Y-41613236D01*
X65531553Y-41637269D01*
X65531553Y-41661773D01*
X65536334Y-41685806D01*
X65545710Y-41708443D01*
X65553069Y-41722211D01*
X65555197Y-41729225D01*
X65556520Y-41742660D01*
X65556520Y-42056380D01*
X65555197Y-42069815D01*
X65553069Y-42076829D01*
X65545710Y-42090597D01*
X65536333Y-42113236D01*
X65531553Y-42137269D01*
X65531553Y-42161773D01*
X65536334Y-42185806D01*
X65545710Y-42208443D01*
X65553069Y-42222211D01*
X65555197Y-42229225D01*
X65556520Y-42242660D01*
X65556520Y-42556380D01*
X65555197Y-42569815D01*
X65553069Y-42576829D01*
X65545710Y-42590597D01*
X65536333Y-42613236D01*
X65531553Y-42637269D01*
X65531553Y-42661773D01*
X65536334Y-42685806D01*
X65545710Y-42708443D01*
X65553069Y-42722211D01*
X65555197Y-42729225D01*
X65556520Y-42742660D01*
X65556520Y-43056380D01*
X65555197Y-43069815D01*
X65553069Y-43076829D01*
X65545710Y-43090597D01*
X65536333Y-43113236D01*
X65531553Y-43137269D01*
X65531553Y-43161773D01*
X65536334Y-43185806D01*
X65545710Y-43208443D01*
X65553069Y-43222211D01*
X65555197Y-43229225D01*
X65556520Y-43242660D01*
X65556520Y-43556380D01*
X65555197Y-43569815D01*
X65553069Y-43576829D01*
X65545710Y-43590597D01*
X65536333Y-43613236D01*
X65531553Y-43637269D01*
X65531553Y-43661773D01*
X65536334Y-43685806D01*
X65545710Y-43708443D01*
X65553069Y-43722211D01*
X65555197Y-43729225D01*
X65556520Y-43742660D01*
X65556520Y-44056380D01*
X65555197Y-44069815D01*
X65553069Y-44076829D01*
X65545710Y-44090597D01*
X65536333Y-44113236D01*
X65531553Y-44137269D01*
X65531553Y-44161773D01*
X65536334Y-44185806D01*
X65545710Y-44208443D01*
X65553069Y-44222211D01*
X65555197Y-44229225D01*
X65556520Y-44242660D01*
X65556520Y-44556380D01*
X65555197Y-44569815D01*
X65553069Y-44576829D01*
X65545710Y-44590597D01*
X65536333Y-44613236D01*
X65531553Y-44637269D01*
X65531553Y-44661773D01*
X65536334Y-44685806D01*
X65545710Y-44708443D01*
X65553069Y-44722211D01*
X65555197Y-44729225D01*
X65556520Y-44742660D01*
X65556520Y-45056380D01*
X65555197Y-45069815D01*
X65553069Y-45076829D01*
X65545710Y-45090597D01*
X65536333Y-45113236D01*
X65531553Y-45137269D01*
X65531553Y-45161773D01*
X65536334Y-45185806D01*
X65545710Y-45208443D01*
X65553069Y-45222211D01*
X65555197Y-45229225D01*
X65556520Y-45242660D01*
X65556520Y-45556380D01*
X65555197Y-45569815D01*
X65553069Y-45576829D01*
X65545710Y-45590597D01*
X65536333Y-45613236D01*
X65531553Y-45637269D01*
X65531553Y-45661773D01*
X65536334Y-45685806D01*
X65545710Y-45708443D01*
X65553069Y-45722211D01*
X65555197Y-45729225D01*
X65556520Y-45742660D01*
X65556520Y-46056380D01*
X65555197Y-46069815D01*
X65553069Y-46076830D01*
X65549612Y-46083296D01*
X65544962Y-46088962D01*
X65539296Y-46093612D01*
X65532830Y-46097069D01*
X65525815Y-46099197D01*
X65512380Y-46100520D01*
X64023660Y-46100520D01*
X64010225Y-46099197D01*
X64003210Y-46097069D01*
X63996744Y-46093612D01*
X63991078Y-46088962D01*
X63986428Y-46083296D01*
X63982971Y-46076830D01*
X63980843Y-46069815D01*
X63979520Y-46056380D01*
X63979520Y-45742660D01*
X63980843Y-45729225D01*
X63982971Y-45722211D01*
X63990330Y-45708443D01*
X63999707Y-45685804D01*
X64004487Y-45661771D01*
X64004487Y-45637267D01*
X63999706Y-45613234D01*
X63990330Y-45590597D01*
X63982971Y-45576829D01*
X63980843Y-45569815D01*
X63979520Y-45556380D01*
X63979520Y-45242660D01*
X63980843Y-45229225D01*
X63982971Y-45222211D01*
X63990330Y-45208443D01*
X63999707Y-45185804D01*
X64004487Y-45161771D01*
X64004487Y-45137267D01*
X63999706Y-45113234D01*
X63990330Y-45090597D01*
X63982971Y-45076829D01*
X63980843Y-45069815D01*
X63979520Y-45056380D01*
X63979520Y-44742660D01*
X63980843Y-44729225D01*
X63982971Y-44722211D01*
X63990330Y-44708443D01*
X63999707Y-44685804D01*
X64004487Y-44661771D01*
X64004487Y-44637267D01*
X63999706Y-44613234D01*
X63990330Y-44590597D01*
X63982971Y-44576829D01*
X63980843Y-44569815D01*
X63979520Y-44556380D01*
X63979520Y-44242660D01*
X63980843Y-44229225D01*
X63982971Y-44222211D01*
X63990330Y-44208443D01*
X63999707Y-44185804D01*
X64004487Y-44161771D01*
X64004487Y-44137267D01*
X63999706Y-44113234D01*
X63990330Y-44090597D01*
X63982971Y-44076829D01*
X63980843Y-44069815D01*
X63979520Y-44056380D01*
X63979520Y-43742660D01*
X63980843Y-43729225D01*
X63982971Y-43722211D01*
X63990330Y-43708443D01*
X63999707Y-43685804D01*
X64004487Y-43661771D01*
X64004487Y-43637267D01*
X63999706Y-43613234D01*
X63990330Y-43590597D01*
X63982971Y-43576829D01*
X63980843Y-43569815D01*
X63979520Y-43556380D01*
X63979520Y-43242660D01*
X63980843Y-43229225D01*
X63982971Y-43222211D01*
X63990330Y-43208443D01*
X63999707Y-43185804D01*
X64004487Y-43161771D01*
X64004487Y-43137267D01*
X63999706Y-43113234D01*
X63990330Y-43090597D01*
X63982971Y-43076829D01*
X63980843Y-43069815D01*
X63979520Y-43056380D01*
X63979520Y-42742660D01*
X63980843Y-42729225D01*
X63982971Y-42722211D01*
X63990330Y-42708443D01*
X63999707Y-42685804D01*
X64004487Y-42661771D01*
X64004487Y-42637267D01*
X63999706Y-42613234D01*
X63990330Y-42590597D01*
X63982971Y-42576829D01*
X63980843Y-42569815D01*
X63979520Y-42556380D01*
X63979520Y-42242660D01*
X63980843Y-42229225D01*
X63982971Y-42222211D01*
X63990330Y-42208443D01*
X63999707Y-42185804D01*
X64004487Y-42161771D01*
X64004487Y-42137267D01*
X63999706Y-42113234D01*
X63990330Y-42090597D01*
X63982971Y-42076829D01*
X63980843Y-42069815D01*
X63979520Y-42056380D01*
X63979520Y-41742660D01*
X63980843Y-41729225D01*
X63982971Y-41722211D01*
X63990330Y-41708443D01*
X63999707Y-41685804D01*
X64004487Y-41661771D01*
X64004487Y-41637267D01*
X63999706Y-41613234D01*
X63990330Y-41590597D01*
X63982971Y-41576829D01*
X63980843Y-41569815D01*
X63979520Y-41556380D01*
X63979520Y-41242660D01*
X63980843Y-41229225D01*
X63982971Y-41222211D01*
X63990330Y-41208443D01*
X63999707Y-41185804D01*
X64004487Y-41161771D01*
X64004487Y-41137267D01*
X63999706Y-41113234D01*
X63990330Y-41090597D01*
X63982971Y-41076829D01*
X63980843Y-41069815D01*
X63979520Y-41056380D01*
X63979520Y-40742660D01*
X63980843Y-40729225D01*
X63982971Y-40722211D01*
X63990330Y-40708443D01*
X63999707Y-40685804D01*
X64004487Y-40661771D01*
X64004487Y-40637267D01*
X63999706Y-40613234D01*
X63990330Y-40590597D01*
X63982971Y-40576829D01*
X63980843Y-40569815D01*
X63979520Y-40556380D01*
X63979520Y-40242660D01*
X63980843Y-40229225D01*
X63982971Y-40222210D01*
X63986428Y-40215744D01*
X63991078Y-40210078D01*
X63996744Y-40205428D01*
X64003210Y-40201971D01*
X64010225Y-40199843D01*
X64023660Y-40198520D01*
X65512380Y-40198520D01*
X65525815Y-40199843D01*
G37*
G36*
X73850815Y-40199843D02*
G01*
X73857830Y-40201971D01*
X73864296Y-40205428D01*
X73869962Y-40210078D01*
X73874612Y-40215744D01*
X73878069Y-40222210D01*
X73880197Y-40229225D01*
X73881520Y-40242660D01*
X73881520Y-40556380D01*
X73880197Y-40569815D01*
X73878069Y-40576829D01*
X73870710Y-40590597D01*
X73861333Y-40613236D01*
X73856553Y-40637269D01*
X73856553Y-40661773D01*
X73861334Y-40685806D01*
X73870710Y-40708443D01*
X73878069Y-40722211D01*
X73880197Y-40729225D01*
X73881520Y-40742660D01*
X73881520Y-41056380D01*
X73880197Y-41069815D01*
X73878069Y-41076829D01*
X73870710Y-41090597D01*
X73861333Y-41113236D01*
X73856553Y-41137269D01*
X73856553Y-41161773D01*
X73861334Y-41185806D01*
X73870710Y-41208443D01*
X73878069Y-41222211D01*
X73880197Y-41229225D01*
X73881520Y-41242660D01*
X73881520Y-41556380D01*
X73880197Y-41569815D01*
X73878069Y-41576829D01*
X73870710Y-41590597D01*
X73861333Y-41613236D01*
X73856553Y-41637269D01*
X73856553Y-41661773D01*
X73861334Y-41685806D01*
X73870710Y-41708443D01*
X73878069Y-41722211D01*
X73880197Y-41729225D01*
X73881520Y-41742660D01*
X73881520Y-42056380D01*
X73880197Y-42069815D01*
X73878069Y-42076829D01*
X73870710Y-42090597D01*
X73861333Y-42113236D01*
X73856553Y-42137269D01*
X73856553Y-42161773D01*
X73861334Y-42185806D01*
X73870710Y-42208443D01*
X73878069Y-42222211D01*
X73880197Y-42229225D01*
X73881520Y-42242660D01*
X73881520Y-42556380D01*
X73880197Y-42569815D01*
X73878069Y-42576829D01*
X73870710Y-42590597D01*
X73861333Y-42613236D01*
X73856553Y-42637269D01*
X73856553Y-42661773D01*
X73861334Y-42685806D01*
X73870710Y-42708443D01*
X73878069Y-42722211D01*
X73880197Y-42729225D01*
X73881520Y-42742660D01*
X73881520Y-43056380D01*
X73880197Y-43069815D01*
X73878069Y-43076829D01*
X73870710Y-43090597D01*
X73861333Y-43113236D01*
X73856553Y-43137269D01*
X73856553Y-43161773D01*
X73861334Y-43185806D01*
X73870710Y-43208443D01*
X73878069Y-43222211D01*
X73880197Y-43229225D01*
X73881520Y-43242660D01*
X73881520Y-43556380D01*
X73880197Y-43569815D01*
X73878069Y-43576829D01*
X73870710Y-43590597D01*
X73861333Y-43613236D01*
X73856553Y-43637269D01*
X73856553Y-43661773D01*
X73861334Y-43685806D01*
X73870710Y-43708443D01*
X73878069Y-43722211D01*
X73880197Y-43729225D01*
X73881520Y-43742660D01*
X73881520Y-44056380D01*
X73880197Y-44069815D01*
X73878069Y-44076829D01*
X73870710Y-44090597D01*
X73861333Y-44113236D01*
X73856553Y-44137269D01*
X73856553Y-44161773D01*
X73861334Y-44185806D01*
X73870710Y-44208443D01*
X73878069Y-44222211D01*
X73880197Y-44229225D01*
X73881520Y-44242660D01*
X73881520Y-44556380D01*
X73880197Y-44569815D01*
X73878069Y-44576829D01*
X73870710Y-44590597D01*
X73861333Y-44613236D01*
X73856553Y-44637269D01*
X73856553Y-44661773D01*
X73861334Y-44685806D01*
X73870710Y-44708443D01*
X73878069Y-44722211D01*
X73880197Y-44729225D01*
X73881520Y-44742660D01*
X73881520Y-45056380D01*
X73880197Y-45069815D01*
X73878069Y-45076829D01*
X73870710Y-45090597D01*
X73861333Y-45113236D01*
X73856553Y-45137269D01*
X73856553Y-45161773D01*
X73861334Y-45185806D01*
X73870710Y-45208443D01*
X73878069Y-45222211D01*
X73880197Y-45229225D01*
X73881520Y-45242660D01*
X73881520Y-45556380D01*
X73880197Y-45569815D01*
X73878069Y-45576829D01*
X73870710Y-45590597D01*
X73861333Y-45613236D01*
X73856553Y-45637269D01*
X73856553Y-45661773D01*
X73861334Y-45685806D01*
X73870710Y-45708443D01*
X73878069Y-45722211D01*
X73880197Y-45729225D01*
X73881520Y-45742660D01*
X73881520Y-46056380D01*
X73880197Y-46069815D01*
X73878069Y-46076830D01*
X73874612Y-46083296D01*
X73869962Y-46088962D01*
X73864296Y-46093612D01*
X73857830Y-46097069D01*
X73850815Y-46099197D01*
X73837380Y-46100520D01*
X72348660Y-46100520D01*
X72335225Y-46099197D01*
X72328210Y-46097069D01*
X72321744Y-46093612D01*
X72316078Y-46088962D01*
X72311428Y-46083296D01*
X72307971Y-46076830D01*
X72305843Y-46069815D01*
X72304520Y-46056380D01*
X72304520Y-45742660D01*
X72305843Y-45729225D01*
X72307971Y-45722211D01*
X72315330Y-45708443D01*
X72324707Y-45685804D01*
X72329487Y-45661771D01*
X72329487Y-45637267D01*
X72324706Y-45613234D01*
X72315330Y-45590597D01*
X72307971Y-45576829D01*
X72305843Y-45569815D01*
X72304520Y-45556380D01*
X72304520Y-45242660D01*
X72305843Y-45229225D01*
X72307971Y-45222211D01*
X72315330Y-45208443D01*
X72324707Y-45185804D01*
X72329487Y-45161771D01*
X72329487Y-45137267D01*
X72324706Y-45113234D01*
X72315330Y-45090597D01*
X72307971Y-45076829D01*
X72305843Y-45069815D01*
X72304520Y-45056380D01*
X72304520Y-44742660D01*
X72305843Y-44729225D01*
X72307971Y-44722211D01*
X72315330Y-44708443D01*
X72324707Y-44685804D01*
X72329487Y-44661771D01*
X72329487Y-44637267D01*
X72324706Y-44613234D01*
X72315330Y-44590597D01*
X72307971Y-44576829D01*
X72305843Y-44569815D01*
X72304520Y-44556380D01*
X72304520Y-44242660D01*
X72305843Y-44229225D01*
X72307971Y-44222211D01*
X72315330Y-44208443D01*
X72324707Y-44185804D01*
X72329487Y-44161771D01*
X72329487Y-44137267D01*
X72324706Y-44113234D01*
X72315330Y-44090597D01*
X72307971Y-44076829D01*
X72305843Y-44069815D01*
X72304520Y-44056380D01*
X72304520Y-43742660D01*
X72305843Y-43729225D01*
X72307971Y-43722211D01*
X72315330Y-43708443D01*
X72324707Y-43685804D01*
X72329487Y-43661771D01*
X72329487Y-43637267D01*
X72324706Y-43613234D01*
X72315330Y-43590597D01*
X72307971Y-43576829D01*
X72305843Y-43569815D01*
X72304520Y-43556380D01*
X72304520Y-43242660D01*
X72305843Y-43229225D01*
X72307971Y-43222211D01*
X72315330Y-43208443D01*
X72324707Y-43185804D01*
X72329487Y-43161771D01*
X72329487Y-43137267D01*
X72324706Y-43113234D01*
X72315330Y-43090597D01*
X72307971Y-43076829D01*
X72305843Y-43069815D01*
X72304520Y-43056380D01*
X72304520Y-42742660D01*
X72305843Y-42729225D01*
X72307971Y-42722211D01*
X72315330Y-42708443D01*
X72324707Y-42685804D01*
X72329487Y-42661771D01*
X72329487Y-42637267D01*
X72324706Y-42613234D01*
X72315330Y-42590597D01*
X72307971Y-42576829D01*
X72305843Y-42569815D01*
X72304520Y-42556380D01*
X72304520Y-42242660D01*
X72305843Y-42229225D01*
X72307971Y-42222211D01*
X72315330Y-42208443D01*
X72324707Y-42185804D01*
X72329487Y-42161771D01*
X72329487Y-42137267D01*
X72324706Y-42113234D01*
X72315330Y-42090597D01*
X72307971Y-42076829D01*
X72305843Y-42069815D01*
X72304520Y-42056380D01*
X72304520Y-41742660D01*
X72305843Y-41729225D01*
X72307971Y-41722211D01*
X72315330Y-41708443D01*
X72324707Y-41685804D01*
X72329487Y-41661771D01*
X72329487Y-41637267D01*
X72324706Y-41613234D01*
X72315330Y-41590597D01*
X72307971Y-41576829D01*
X72305843Y-41569815D01*
X72304520Y-41556380D01*
X72304520Y-41242660D01*
X72305843Y-41229225D01*
X72307971Y-41222211D01*
X72315330Y-41208443D01*
X72324707Y-41185804D01*
X72329487Y-41161771D01*
X72329487Y-41137267D01*
X72324706Y-41113234D01*
X72315330Y-41090597D01*
X72307971Y-41076829D01*
X72305843Y-41069815D01*
X72304520Y-41056380D01*
X72304520Y-40742660D01*
X72305843Y-40729225D01*
X72307971Y-40722211D01*
X72315330Y-40708443D01*
X72324707Y-40685804D01*
X72329487Y-40661771D01*
X72329487Y-40637267D01*
X72324706Y-40613234D01*
X72315330Y-40590597D01*
X72307971Y-40576829D01*
X72305843Y-40569815D01*
X72304520Y-40556380D01*
X72304520Y-40242660D01*
X72305843Y-40229225D01*
X72307971Y-40222210D01*
X72311428Y-40215744D01*
X72316078Y-40210078D01*
X72321744Y-40205428D01*
X72328210Y-40201971D01*
X72335225Y-40199843D01*
X72348660Y-40198520D01*
X73837380Y-40198520D01*
X73850815Y-40199843D01*
G37*
G36*
X100413032Y-44031447D02*
G01*
X100562332Y-44061144D01*
X100726304Y-44129064D01*
X100873874Y-44227667D01*
X100999373Y-44353166D01*
X101097976Y-44500736D01*
X101165896Y-44664708D01*
X101192612Y-44799020D01*
X101200520Y-44838778D01*
X101200520Y-45016262D01*
X101196100Y-45038480D01*
X101165896Y-45190332D01*
X101097976Y-45354304D01*
X100999373Y-45501874D01*
X100873874Y-45627373D01*
X100726304Y-45725976D01*
X100562332Y-45793896D01*
X100413032Y-45823593D01*
X100388262Y-45828520D01*
X100210778Y-45828520D01*
X100186008Y-45823593D01*
X100036708Y-45793896D01*
X99872736Y-45725976D01*
X99725166Y-45627373D01*
X99599667Y-45501874D01*
X99501064Y-45354304D01*
X99433144Y-45190332D01*
X99402940Y-45038480D01*
X99398520Y-45016262D01*
X99398520Y-44838778D01*
X99406428Y-44799020D01*
X99433144Y-44664708D01*
X99501064Y-44500736D01*
X99599667Y-44353166D01*
X99725166Y-44227667D01*
X99872736Y-44129064D01*
X100036708Y-44061144D01*
X100186008Y-44031447D01*
X100210778Y-44026520D01*
X100388262Y-44026520D01*
X100413032Y-44031447D01*
G37*
G36*
X104223032Y-44031447D02*
G01*
X104372332Y-44061144D01*
X104536304Y-44129064D01*
X104683874Y-44227667D01*
X104809373Y-44353166D01*
X104907976Y-44500736D01*
X104975896Y-44664708D01*
X105002612Y-44799020D01*
X105010520Y-44838778D01*
X105010520Y-45016262D01*
X105006100Y-45038480D01*
X104975896Y-45190332D01*
X104907976Y-45354304D01*
X104809373Y-45501874D01*
X104683874Y-45627373D01*
X104536304Y-45725976D01*
X104372332Y-45793896D01*
X104223032Y-45823593D01*
X104198262Y-45828520D01*
X104020778Y-45828520D01*
X103996008Y-45823593D01*
X103846708Y-45793896D01*
X103682736Y-45725976D01*
X103535166Y-45627373D01*
X103409667Y-45501874D01*
X103311064Y-45354304D01*
X103243144Y-45190332D01*
X103212940Y-45038480D01*
X103208520Y-45016262D01*
X103208520Y-44838778D01*
X103216428Y-44799020D01*
X103243144Y-44664708D01*
X103311064Y-44500736D01*
X103409667Y-44353166D01*
X103535166Y-44227667D01*
X103682736Y-44129064D01*
X103846708Y-44061144D01*
X103996008Y-44031447D01*
X104020778Y-44026520D01*
X104198262Y-44026520D01*
X104223032Y-44031447D01*
G37*
G36*
X50491488Y-42847585D02*
G01*
X50530158Y-42859316D01*
X50565797Y-42878366D01*
X50597037Y-42904003D01*
X50622674Y-42935243D01*
X50641724Y-42970882D01*
X50653455Y-43009552D01*
X50658020Y-43055908D01*
X50658020Y-44132132D01*
X50653455Y-44178488D01*
X50641724Y-44217158D01*
X50622674Y-44252797D01*
X50597037Y-44284037D01*
X50565797Y-44309674D01*
X50530158Y-44328724D01*
X50491488Y-44340455D01*
X50445132Y-44345020D01*
X49793908Y-44345020D01*
X49747552Y-44340455D01*
X49708882Y-44328724D01*
X49673243Y-44309674D01*
X49642003Y-44284037D01*
X49616366Y-44252797D01*
X49597316Y-44217158D01*
X49585585Y-44178488D01*
X49581020Y-44132132D01*
X49581020Y-43055908D01*
X49585585Y-43009552D01*
X49597316Y-42970882D01*
X49616366Y-42935243D01*
X49642003Y-42904003D01*
X49673243Y-42878366D01*
X49708882Y-42859316D01*
X49747552Y-42847585D01*
X49793908Y-42843020D01*
X50445132Y-42843020D01*
X50491488Y-42847585D01*
G37*
G36*
X48616488Y-42847585D02*
G01*
X48655158Y-42859316D01*
X48690797Y-42878366D01*
X48722037Y-42904003D01*
X48747674Y-42935243D01*
X48766724Y-42970882D01*
X48778455Y-43009552D01*
X48783020Y-43055908D01*
X48783020Y-44132132D01*
X48778455Y-44178488D01*
X48766724Y-44217158D01*
X48747674Y-44252797D01*
X48722037Y-44284037D01*
X48690797Y-44309674D01*
X48655158Y-44328724D01*
X48616488Y-44340455D01*
X48570132Y-44345020D01*
X47918908Y-44345020D01*
X47872552Y-44340455D01*
X47833882Y-44328724D01*
X47798243Y-44309674D01*
X47767003Y-44284037D01*
X47741366Y-44252797D01*
X47722316Y-44217158D01*
X47710585Y-44178488D01*
X47706020Y-44132132D01*
X47706020Y-43055908D01*
X47710585Y-43009552D01*
X47722316Y-42970882D01*
X47741366Y-42935243D01*
X47767003Y-42904003D01*
X47798243Y-42878366D01*
X47833882Y-42859316D01*
X47872552Y-42847585D01*
X47918908Y-42843020D01*
X48570132Y-42843020D01*
X48616488Y-42847585D01*
G37*
G36*
X61571124Y-42988867D02*
G01*
X61607664Y-42999952D01*
X61641341Y-43017953D01*
X61670861Y-43042179D01*
X61695087Y-43071699D01*
X61713088Y-43105376D01*
X61724173Y-43141916D01*
X61728520Y-43186058D01*
X61728520Y-44134982D01*
X61724173Y-44179124D01*
X61713088Y-44215664D01*
X61695087Y-44249341D01*
X61670861Y-44278861D01*
X61641341Y-44303087D01*
X61607664Y-44321088D01*
X61571124Y-44332173D01*
X61526982Y-44336520D01*
X60078058Y-44336520D01*
X60033916Y-44332173D01*
X59997376Y-44321088D01*
X59963699Y-44303087D01*
X59934179Y-44278861D01*
X59909953Y-44249341D01*
X59891952Y-44215664D01*
X59880867Y-44179124D01*
X59876520Y-44134982D01*
X59876520Y-43186058D01*
X59880867Y-43141916D01*
X59891952Y-43105376D01*
X59909953Y-43071699D01*
X59934179Y-43042179D01*
X59963699Y-43017953D01*
X59997376Y-42999952D01*
X60033916Y-42988867D01*
X60078058Y-42984520D01*
X61526982Y-42984520D01*
X61571124Y-42988867D01*
G37*
G36*
X104220528Y-41490949D02*
G01*
X104372332Y-41521144D01*
X104536304Y-41589064D01*
X104683874Y-41687667D01*
X104809373Y-41813166D01*
X104907976Y-41960736D01*
X104975896Y-42124708D01*
X105010520Y-42298779D01*
X105010520Y-42476261D01*
X104975896Y-42650332D01*
X104907976Y-42814304D01*
X104809373Y-42961874D01*
X104683874Y-43087373D01*
X104536304Y-43185976D01*
X104372332Y-43253896D01*
X104223032Y-43283593D01*
X104198262Y-43288520D01*
X104020778Y-43288520D01*
X103996008Y-43283593D01*
X103846708Y-43253896D01*
X103682736Y-43185976D01*
X103535166Y-43087373D01*
X103409667Y-42961874D01*
X103311064Y-42814304D01*
X103243144Y-42650332D01*
X103208520Y-42476261D01*
X103208520Y-42298779D01*
X103243144Y-42124708D01*
X103311064Y-41960736D01*
X103409667Y-41813166D01*
X103535166Y-41687667D01*
X103682736Y-41589064D01*
X103846708Y-41521144D01*
X103998512Y-41490949D01*
X104020778Y-41486520D01*
X104198262Y-41486520D01*
X104220528Y-41490949D01*
G37*
G36*
X100410528Y-41490949D02*
G01*
X100562332Y-41521144D01*
X100726304Y-41589064D01*
X100873874Y-41687667D01*
X100999373Y-41813166D01*
X101097976Y-41960736D01*
X101165896Y-42124708D01*
X101200520Y-42298779D01*
X101200520Y-42476261D01*
X101165896Y-42650332D01*
X101097976Y-42814304D01*
X100999373Y-42961874D01*
X100873874Y-43087373D01*
X100726304Y-43185976D01*
X100562332Y-43253896D01*
X100413032Y-43283593D01*
X100388262Y-43288520D01*
X100210778Y-43288520D01*
X100186008Y-43283593D01*
X100036708Y-43253896D01*
X99872736Y-43185976D01*
X99725166Y-43087373D01*
X99599667Y-42961874D01*
X99501064Y-42814304D01*
X99433144Y-42650332D01*
X99398520Y-42476261D01*
X99398520Y-42298779D01*
X99433144Y-42124708D01*
X99501064Y-41960736D01*
X99599667Y-41813166D01*
X99725166Y-41687667D01*
X99872736Y-41589064D01*
X100036708Y-41521144D01*
X100188512Y-41490949D01*
X100210778Y-41486520D01*
X100388262Y-41486520D01*
X100410528Y-41490949D01*
G37*
G36*
X81135488Y-41648085D02*
G01*
X81174158Y-41659816D01*
X81209797Y-41678866D01*
X81241037Y-41704503D01*
X81266674Y-41735743D01*
X81285724Y-41771382D01*
X81297455Y-41810052D01*
X81302020Y-41856408D01*
X81302020Y-42507632D01*
X81297455Y-42553988D01*
X81285724Y-42592658D01*
X81266674Y-42628297D01*
X81241037Y-42659537D01*
X81209797Y-42685174D01*
X81174158Y-42704224D01*
X81135488Y-42715955D01*
X81089132Y-42720520D01*
X80012908Y-42720520D01*
X79966552Y-42715955D01*
X79927882Y-42704224D01*
X79892243Y-42685174D01*
X79861003Y-42659537D01*
X79835366Y-42628297D01*
X79816316Y-42592658D01*
X79804585Y-42553988D01*
X79800020Y-42507632D01*
X79800020Y-41856408D01*
X79804585Y-41810052D01*
X79816316Y-41771382D01*
X79835366Y-41735743D01*
X79861003Y-41704503D01*
X79892243Y-41678866D01*
X79927882Y-41659816D01*
X79966552Y-41648085D01*
X80012908Y-41643520D01*
X81089132Y-41643520D01*
X81135488Y-41648085D01*
G37*
G36*
X61571124Y-40188867D02*
G01*
X61607664Y-40199952D01*
X61641341Y-40217953D01*
X61670861Y-40242179D01*
X61695087Y-40271699D01*
X61713088Y-40305376D01*
X61724173Y-40341916D01*
X61728520Y-40386058D01*
X61728520Y-41334982D01*
X61724173Y-41379124D01*
X61713088Y-41415664D01*
X61695087Y-41449341D01*
X61670861Y-41478861D01*
X61641341Y-41503087D01*
X61607664Y-41521088D01*
X61571124Y-41532173D01*
X61526982Y-41536520D01*
X60078058Y-41536520D01*
X60033916Y-41532173D01*
X59997376Y-41521088D01*
X59963699Y-41503087D01*
X59934179Y-41478861D01*
X59909953Y-41449341D01*
X59891952Y-41415664D01*
X59880867Y-41379124D01*
X59876520Y-41334982D01*
X59876520Y-40386058D01*
X59880867Y-40341916D01*
X59891952Y-40305376D01*
X59909953Y-40271699D01*
X59934179Y-40242179D01*
X59963699Y-40217953D01*
X59997376Y-40199952D01*
X60033916Y-40188867D01*
X60078058Y-40184520D01*
X61526982Y-40184520D01*
X61571124Y-40188867D01*
G37*
G36*
X48639591Y-40498585D02*
G01*
X48673569Y-40508893D01*
X48704890Y-40525634D01*
X48732339Y-40548161D01*
X48754866Y-40575610D01*
X48771607Y-40606931D01*
X48781915Y-40640909D01*
X48786000Y-40682390D01*
X48786000Y-41283610D01*
X48781915Y-41325091D01*
X48771607Y-41359069D01*
X48754866Y-41390390D01*
X48732339Y-41417839D01*
X48704890Y-41440366D01*
X48673569Y-41457107D01*
X48639591Y-41467415D01*
X48598110Y-41471500D01*
X47921890Y-41471500D01*
X47880409Y-41467415D01*
X47846431Y-41457107D01*
X47815110Y-41440366D01*
X47787661Y-41417839D01*
X47765134Y-41390390D01*
X47748393Y-41359069D01*
X47738085Y-41325091D01*
X47734000Y-41283610D01*
X47734000Y-40682390D01*
X47738085Y-40640909D01*
X47748393Y-40606931D01*
X47765134Y-40575610D01*
X47787661Y-40548161D01*
X47815110Y-40525634D01*
X47846431Y-40508893D01*
X47880409Y-40498585D01*
X47921890Y-40494500D01*
X48598110Y-40494500D01*
X48639591Y-40498585D01*
G37*
G36*
X81135488Y-39773085D02*
G01*
X81174158Y-39784816D01*
X81209797Y-39803866D01*
X81241037Y-39829503D01*
X81266674Y-39860743D01*
X81285724Y-39896382D01*
X81297455Y-39935052D01*
X81302020Y-39981408D01*
X81302020Y-40632632D01*
X81297455Y-40678988D01*
X81285724Y-40717658D01*
X81266674Y-40753297D01*
X81241037Y-40784537D01*
X81209797Y-40810174D01*
X81174158Y-40829224D01*
X81135488Y-40840955D01*
X81089132Y-40845520D01*
X80012908Y-40845520D01*
X79966552Y-40840955D01*
X79927882Y-40829224D01*
X79892243Y-40810174D01*
X79861003Y-40784537D01*
X79835366Y-40753297D01*
X79816316Y-40717658D01*
X79804585Y-40678988D01*
X79800020Y-40632632D01*
X79800020Y-39981408D01*
X79804585Y-39935052D01*
X79816316Y-39896382D01*
X79835366Y-39860743D01*
X79861003Y-39829503D01*
X79892243Y-39803866D01*
X79927882Y-39784816D01*
X79966552Y-39773085D01*
X80012908Y-39768520D01*
X81089132Y-39768520D01*
X81135488Y-39773085D01*
G37*
G36*
X100408944Y-38950634D02*
G01*
X100562332Y-38981144D01*
X100726304Y-39049064D01*
X100873874Y-39147667D01*
X100999373Y-39273166D01*
X101097976Y-39420736D01*
X101165896Y-39584708D01*
X101190541Y-39708610D01*
X101197923Y-39745720D01*
X101200520Y-39758779D01*
X101200520Y-39936261D01*
X101165896Y-40110332D01*
X101097976Y-40274304D01*
X100999373Y-40421874D01*
X100873874Y-40547373D01*
X100726304Y-40645976D01*
X100562332Y-40713896D01*
X100413032Y-40743593D01*
X100388262Y-40748520D01*
X100210778Y-40748520D01*
X100186008Y-40743593D01*
X100036708Y-40713896D01*
X99872736Y-40645976D01*
X99725166Y-40547373D01*
X99599667Y-40421874D01*
X99501064Y-40274304D01*
X99433144Y-40110332D01*
X99398520Y-39936261D01*
X99398520Y-39758779D01*
X99401118Y-39745720D01*
X99408499Y-39708610D01*
X99433144Y-39584708D01*
X99501064Y-39420736D01*
X99599667Y-39273166D01*
X99725166Y-39147667D01*
X99872736Y-39049064D01*
X100036708Y-38981144D01*
X100190096Y-38950634D01*
X100210778Y-38946520D01*
X100388262Y-38946520D01*
X100408944Y-38950634D01*
G37*
G36*
X104218944Y-38950634D02*
G01*
X104372332Y-38981144D01*
X104536304Y-39049064D01*
X104683874Y-39147667D01*
X104809373Y-39273166D01*
X104907976Y-39420736D01*
X104975896Y-39584708D01*
X105000541Y-39708610D01*
X105007923Y-39745720D01*
X105010520Y-39758779D01*
X105010520Y-39936261D01*
X104975896Y-40110332D01*
X104907976Y-40274304D01*
X104809373Y-40421874D01*
X104683874Y-40547373D01*
X104536304Y-40645976D01*
X104372332Y-40713896D01*
X104223032Y-40743593D01*
X104198262Y-40748520D01*
X104020778Y-40748520D01*
X103996008Y-40743593D01*
X103846708Y-40713896D01*
X103682736Y-40645976D01*
X103535166Y-40547373D01*
X103409667Y-40421874D01*
X103311064Y-40274304D01*
X103243144Y-40110332D01*
X103208520Y-39936261D01*
X103208520Y-39758779D01*
X103211118Y-39745720D01*
X103218499Y-39708610D01*
X103243144Y-39584708D01*
X103311064Y-39420736D01*
X103409667Y-39273166D01*
X103535166Y-39147667D01*
X103682736Y-39049064D01*
X103846708Y-38981144D01*
X104000096Y-38950634D01*
X104020778Y-38946520D01*
X104198262Y-38946520D01*
X104218944Y-38950634D01*
G37*
G36*
X45774000Y-40524000D02*
G01*
X45412000Y-40524000D01*
X45412000Y-39867000D01*
X45774000Y-39867000D01*
X45774000Y-40524000D01*
G37*
G36*
X88560020Y-40188020D02*
G01*
X86658020Y-40188020D01*
X86658020Y-39086020D01*
X88560020Y-39086020D01*
X88560020Y-40188020D01*
G37*
G36*
X56400520Y-36348698D02*
G01*
X56402922Y-36373084D01*
X56410035Y-36396533D01*
X56423116Y-36420380D01*
X56931542Y-37146703D01*
X56947494Y-37165304D01*
X56966768Y-37180435D01*
X56988624Y-37191515D01*
X57000520Y-37194844D01*
X57000520Y-37205842D01*
X57002922Y-37230228D01*
X57010035Y-37253677D01*
X57023116Y-37277524D01*
X57039292Y-37300632D01*
X57047473Y-37312320D01*
X57060546Y-37330995D01*
X57056073Y-37333386D01*
X57037131Y-37348931D01*
X57021586Y-37367873D01*
X57010035Y-37389484D01*
X57002922Y-37412933D01*
X57000520Y-37437319D01*
X57000520Y-38903521D01*
X57002922Y-38927907D01*
X57010035Y-38951356D01*
X57021586Y-38972967D01*
X57037131Y-38991909D01*
X57056073Y-39007454D01*
X57060970Y-39010071D01*
X57023399Y-39063296D01*
X57011298Y-39084604D01*
X57003587Y-39107863D01*
X57000520Y-39135381D01*
X57000520Y-39146755D01*
X56984763Y-39151535D01*
X56963152Y-39163086D01*
X56944210Y-39178631D01*
X56930478Y-39194934D01*
X56375946Y-39980520D01*
X55323094Y-39980520D01*
X54768562Y-39194934D01*
X54752537Y-39176397D01*
X54733203Y-39161342D01*
X54711304Y-39150348D01*
X54698520Y-39146825D01*
X54698520Y-39135381D01*
X54696118Y-39110995D01*
X54689005Y-39087546D01*
X54675641Y-39063296D01*
X54638070Y-39010071D01*
X54642967Y-39007454D01*
X54661909Y-38991909D01*
X54677454Y-38972967D01*
X54689005Y-38951356D01*
X54696118Y-38927907D01*
X54698520Y-38903521D01*
X54698520Y-37437319D01*
X54696118Y-37412933D01*
X54689005Y-37389484D01*
X54677454Y-37367873D01*
X54661909Y-37348931D01*
X54642967Y-37333386D01*
X54638494Y-37330995D01*
X54675924Y-37277524D01*
X54687941Y-37256169D01*
X54695561Y-37232880D01*
X54698520Y-37205842D01*
X54698520Y-37194876D01*
X54712930Y-37190505D01*
X54734541Y-37178954D01*
X54753483Y-37163409D01*
X54767498Y-37146703D01*
X55275924Y-36420380D01*
X55287941Y-36399025D01*
X55295561Y-36375736D01*
X55298520Y-36348698D01*
X55298520Y-34553020D01*
X56400520Y-34553020D01*
X56400520Y-36348698D01*
G37*
G36*
X48639591Y-38923585D02*
G01*
X48673569Y-38933893D01*
X48704890Y-38950634D01*
X48732339Y-38973161D01*
X48754866Y-39000610D01*
X48771607Y-39031931D01*
X48781915Y-39065909D01*
X48786000Y-39107390D01*
X48786000Y-39708610D01*
X48781915Y-39750091D01*
X48771607Y-39784069D01*
X48754866Y-39815390D01*
X48732339Y-39842839D01*
X48704890Y-39865366D01*
X48673569Y-39882107D01*
X48639591Y-39892415D01*
X48598110Y-39896500D01*
X47921890Y-39896500D01*
X47880409Y-39892415D01*
X47846431Y-39882107D01*
X47815110Y-39865366D01*
X47787661Y-39842839D01*
X47765134Y-39815390D01*
X47748393Y-39784069D01*
X47738085Y-39750091D01*
X47734000Y-39708610D01*
X47734000Y-39107390D01*
X47738085Y-39065909D01*
X47748393Y-39031931D01*
X47765134Y-39000610D01*
X47787661Y-38973161D01*
X47815110Y-38950634D01*
X47846431Y-38933893D01*
X47880409Y-38923585D01*
X47921890Y-38919500D01*
X48598110Y-38919500D01*
X48639591Y-38923585D01*
G37*
G36*
X66350815Y-38199843D02*
G01*
X66357829Y-38201971D01*
X66371597Y-38209330D01*
X66394236Y-38218707D01*
X66418269Y-38223487D01*
X66442773Y-38223487D01*
X66466806Y-38218706D01*
X66489443Y-38209330D01*
X66503211Y-38201971D01*
X66510225Y-38199843D01*
X66523660Y-38198520D01*
X66837380Y-38198520D01*
X66850815Y-38199843D01*
X66857829Y-38201971D01*
X66871597Y-38209330D01*
X66894236Y-38218707D01*
X66918269Y-38223487D01*
X66942773Y-38223487D01*
X66966806Y-38218706D01*
X66989443Y-38209330D01*
X67003211Y-38201971D01*
X67010225Y-38199843D01*
X67023660Y-38198520D01*
X67337380Y-38198520D01*
X67350815Y-38199843D01*
X67357829Y-38201971D01*
X67371597Y-38209330D01*
X67394236Y-38218707D01*
X67418269Y-38223487D01*
X67442773Y-38223487D01*
X67466806Y-38218706D01*
X67489443Y-38209330D01*
X67503211Y-38201971D01*
X67510225Y-38199843D01*
X67523660Y-38198520D01*
X67837380Y-38198520D01*
X67850815Y-38199843D01*
X67857829Y-38201971D01*
X67871597Y-38209330D01*
X67894236Y-38218707D01*
X67918269Y-38223487D01*
X67942773Y-38223487D01*
X67966806Y-38218706D01*
X67989443Y-38209330D01*
X68003211Y-38201971D01*
X68010225Y-38199843D01*
X68023660Y-38198520D01*
X68337380Y-38198520D01*
X68350815Y-38199843D01*
X68357829Y-38201971D01*
X68371597Y-38209330D01*
X68394236Y-38218707D01*
X68418269Y-38223487D01*
X68442773Y-38223487D01*
X68466806Y-38218706D01*
X68489443Y-38209330D01*
X68503211Y-38201971D01*
X68510225Y-38199843D01*
X68523660Y-38198520D01*
X68837380Y-38198520D01*
X68850815Y-38199843D01*
X68857829Y-38201971D01*
X68871597Y-38209330D01*
X68894236Y-38218707D01*
X68918269Y-38223487D01*
X68942773Y-38223487D01*
X68966806Y-38218706D01*
X68989443Y-38209330D01*
X69003211Y-38201971D01*
X69010225Y-38199843D01*
X69023660Y-38198520D01*
X69337380Y-38198520D01*
X69350815Y-38199843D01*
X69357829Y-38201971D01*
X69371597Y-38209330D01*
X69394236Y-38218707D01*
X69418269Y-38223487D01*
X69442773Y-38223487D01*
X69466806Y-38218706D01*
X69489443Y-38209330D01*
X69503211Y-38201971D01*
X69510225Y-38199843D01*
X69523660Y-38198520D01*
X69837380Y-38198520D01*
X69850815Y-38199843D01*
X69857829Y-38201971D01*
X69871597Y-38209330D01*
X69894236Y-38218707D01*
X69918269Y-38223487D01*
X69942773Y-38223487D01*
X69966806Y-38218706D01*
X69989443Y-38209330D01*
X70003211Y-38201971D01*
X70010225Y-38199843D01*
X70023660Y-38198520D01*
X70337380Y-38198520D01*
X70350815Y-38199843D01*
X70357829Y-38201971D01*
X70371597Y-38209330D01*
X70394236Y-38218707D01*
X70418269Y-38223487D01*
X70442773Y-38223487D01*
X70466806Y-38218706D01*
X70489443Y-38209330D01*
X70503211Y-38201971D01*
X70510225Y-38199843D01*
X70523660Y-38198520D01*
X70837380Y-38198520D01*
X70850815Y-38199843D01*
X70857829Y-38201971D01*
X70871597Y-38209330D01*
X70894236Y-38218707D01*
X70918269Y-38223487D01*
X70942773Y-38223487D01*
X70966806Y-38218706D01*
X70989443Y-38209330D01*
X71003211Y-38201971D01*
X71010225Y-38199843D01*
X71023660Y-38198520D01*
X71337380Y-38198520D01*
X71350815Y-38199843D01*
X71357829Y-38201971D01*
X71371597Y-38209330D01*
X71394236Y-38218707D01*
X71418269Y-38223487D01*
X71442773Y-38223487D01*
X71466806Y-38218706D01*
X71489443Y-38209330D01*
X71503211Y-38201971D01*
X71510225Y-38199843D01*
X71523660Y-38198520D01*
X71837380Y-38198520D01*
X71850815Y-38199843D01*
X71857830Y-38201971D01*
X71864296Y-38205428D01*
X71869962Y-38210078D01*
X71874612Y-38215744D01*
X71878069Y-38222210D01*
X71880197Y-38229225D01*
X71881520Y-38242660D01*
X71881520Y-39731380D01*
X71880197Y-39744815D01*
X71878069Y-39751830D01*
X71874612Y-39758296D01*
X71869962Y-39763962D01*
X71864296Y-39768612D01*
X71857830Y-39772069D01*
X71850815Y-39774197D01*
X71837380Y-39775520D01*
X71523660Y-39775520D01*
X71510225Y-39774197D01*
X71503211Y-39772069D01*
X71489443Y-39764710D01*
X71466804Y-39755333D01*
X71442771Y-39750553D01*
X71418267Y-39750553D01*
X71394234Y-39755334D01*
X71371597Y-39764710D01*
X71357829Y-39772069D01*
X71350815Y-39774197D01*
X71337380Y-39775520D01*
X71023660Y-39775520D01*
X71010225Y-39774197D01*
X71003211Y-39772069D01*
X70989443Y-39764710D01*
X70966804Y-39755333D01*
X70942771Y-39750553D01*
X70918267Y-39750553D01*
X70894234Y-39755334D01*
X70871597Y-39764710D01*
X70857829Y-39772069D01*
X70850815Y-39774197D01*
X70837380Y-39775520D01*
X70523660Y-39775520D01*
X70510225Y-39774197D01*
X70503211Y-39772069D01*
X70489443Y-39764710D01*
X70466804Y-39755333D01*
X70442771Y-39750553D01*
X70418267Y-39750553D01*
X70394234Y-39755334D01*
X70371597Y-39764710D01*
X70357829Y-39772069D01*
X70350815Y-39774197D01*
X70337380Y-39775520D01*
X70023660Y-39775520D01*
X70010225Y-39774197D01*
X70003211Y-39772069D01*
X69989443Y-39764710D01*
X69966804Y-39755333D01*
X69942771Y-39750553D01*
X69918267Y-39750553D01*
X69894234Y-39755334D01*
X69871597Y-39764710D01*
X69857829Y-39772069D01*
X69850815Y-39774197D01*
X69837380Y-39775520D01*
X69523660Y-39775520D01*
X69510225Y-39774197D01*
X69503211Y-39772069D01*
X69489443Y-39764710D01*
X69466804Y-39755333D01*
X69442771Y-39750553D01*
X69418267Y-39750553D01*
X69394234Y-39755334D01*
X69371597Y-39764710D01*
X69357829Y-39772069D01*
X69350815Y-39774197D01*
X69337380Y-39775520D01*
X69023660Y-39775520D01*
X69010225Y-39774197D01*
X69003211Y-39772069D01*
X68989443Y-39764710D01*
X68966804Y-39755333D01*
X68942771Y-39750553D01*
X68918267Y-39750553D01*
X68894234Y-39755334D01*
X68871597Y-39764710D01*
X68857829Y-39772069D01*
X68850815Y-39774197D01*
X68837380Y-39775520D01*
X68523660Y-39775520D01*
X68510225Y-39774197D01*
X68503211Y-39772069D01*
X68489443Y-39764710D01*
X68466804Y-39755333D01*
X68442771Y-39750553D01*
X68418267Y-39750553D01*
X68394234Y-39755334D01*
X68371597Y-39764710D01*
X68357829Y-39772069D01*
X68350815Y-39774197D01*
X68337380Y-39775520D01*
X68023660Y-39775520D01*
X68010225Y-39774197D01*
X68003211Y-39772069D01*
X67989443Y-39764710D01*
X67966804Y-39755333D01*
X67942771Y-39750553D01*
X67918267Y-39750553D01*
X67894234Y-39755334D01*
X67871597Y-39764710D01*
X67857829Y-39772069D01*
X67850815Y-39774197D01*
X67837380Y-39775520D01*
X67523660Y-39775520D01*
X67510225Y-39774197D01*
X67503211Y-39772069D01*
X67489443Y-39764710D01*
X67466804Y-39755333D01*
X67442771Y-39750553D01*
X67418267Y-39750553D01*
X67394234Y-39755334D01*
X67371597Y-39764710D01*
X67357829Y-39772069D01*
X67350815Y-39774197D01*
X67337380Y-39775520D01*
X67023660Y-39775520D01*
X67010225Y-39774197D01*
X67003211Y-39772069D01*
X66989443Y-39764710D01*
X66966804Y-39755333D01*
X66942771Y-39750553D01*
X66918267Y-39750553D01*
X66894234Y-39755334D01*
X66871597Y-39764710D01*
X66857829Y-39772069D01*
X66850815Y-39774197D01*
X66837380Y-39775520D01*
X66523660Y-39775520D01*
X66510225Y-39774197D01*
X66503211Y-39772069D01*
X66489443Y-39764710D01*
X66466804Y-39755333D01*
X66442771Y-39750553D01*
X66418267Y-39750553D01*
X66394234Y-39755334D01*
X66371597Y-39764710D01*
X66357829Y-39772069D01*
X66350815Y-39774197D01*
X66337380Y-39775520D01*
X66023660Y-39775520D01*
X66010225Y-39774197D01*
X66003210Y-39772069D01*
X65996744Y-39768612D01*
X65991078Y-39763962D01*
X65986428Y-39758296D01*
X65982971Y-39751830D01*
X65980843Y-39744815D01*
X65979520Y-39731380D01*
X65979520Y-38242660D01*
X65980843Y-38229225D01*
X65982971Y-38222210D01*
X65986428Y-38215744D01*
X65991078Y-38210078D01*
X65996744Y-38205428D01*
X66003210Y-38201971D01*
X66010225Y-38199843D01*
X66023660Y-38198520D01*
X66337380Y-38198520D01*
X66350815Y-38199843D01*
G37*
G36*
X51886104Y-37365867D02*
G01*
X51922644Y-37376952D01*
X51956321Y-37394953D01*
X51985841Y-37419179D01*
X52010067Y-37448699D01*
X52028068Y-37482376D01*
X52039153Y-37518916D01*
X52043500Y-37563058D01*
X52043500Y-38511982D01*
X52039153Y-38556124D01*
X52028068Y-38592664D01*
X52010067Y-38626341D01*
X51985841Y-38655861D01*
X51956321Y-38680087D01*
X51922644Y-38698088D01*
X51886104Y-38709173D01*
X51841962Y-38713520D01*
X50393038Y-38713520D01*
X50348896Y-38709173D01*
X50312356Y-38698088D01*
X50278679Y-38680087D01*
X50249159Y-38655861D01*
X50224933Y-38626341D01*
X50206932Y-38592664D01*
X50195847Y-38556124D01*
X50191500Y-38511982D01*
X50191500Y-37563058D01*
X50195847Y-37518916D01*
X50206932Y-37482376D01*
X50224933Y-37448699D01*
X50249159Y-37419179D01*
X50278679Y-37394953D01*
X50312356Y-37376952D01*
X50348896Y-37365867D01*
X50393038Y-37361520D01*
X51841962Y-37361520D01*
X51886104Y-37365867D01*
G37*
G36*
X84786448Y-37848284D02*
G01*
X84807529Y-37854680D01*
X84826965Y-37865068D01*
X84843996Y-37879044D01*
X84857972Y-37896075D01*
X84868360Y-37915511D01*
X84874756Y-37936592D01*
X84877520Y-37964660D01*
X84877520Y-38428380D01*
X84874756Y-38456448D01*
X84868360Y-38477529D01*
X84857972Y-38496965D01*
X84843996Y-38513996D01*
X84826965Y-38527972D01*
X84807529Y-38538360D01*
X84786448Y-38544756D01*
X84758380Y-38547520D01*
X82944660Y-38547520D01*
X82916592Y-38544756D01*
X82895511Y-38538360D01*
X82876075Y-38527972D01*
X82859044Y-38513996D01*
X82845068Y-38496965D01*
X82834680Y-38477529D01*
X82828284Y-38456448D01*
X82825520Y-38428380D01*
X82825520Y-37964660D01*
X82828284Y-37936592D01*
X82834680Y-37915511D01*
X82845068Y-37896075D01*
X82859044Y-37879044D01*
X82876075Y-37865068D01*
X82895511Y-37854680D01*
X82916592Y-37848284D01*
X82944660Y-37845520D01*
X84758380Y-37845520D01*
X84786448Y-37848284D01*
G37*
G36*
X79836448Y-37848284D02*
G01*
X79857529Y-37854680D01*
X79876965Y-37865068D01*
X79893996Y-37879044D01*
X79907972Y-37896075D01*
X79918360Y-37915511D01*
X79924756Y-37936592D01*
X79927520Y-37964660D01*
X79927520Y-38428380D01*
X79924756Y-38456448D01*
X79918360Y-38477529D01*
X79907972Y-38496965D01*
X79893996Y-38513996D01*
X79876965Y-38527972D01*
X79857529Y-38538360D01*
X79836448Y-38544756D01*
X79808380Y-38547520D01*
X77994660Y-38547520D01*
X77966592Y-38544756D01*
X77945511Y-38538360D01*
X77926075Y-38527972D01*
X77909044Y-38513996D01*
X77895068Y-38496965D01*
X77884680Y-38477529D01*
X77878284Y-38456448D01*
X77875520Y-38428380D01*
X77875520Y-37964660D01*
X77878284Y-37936592D01*
X77884680Y-37915511D01*
X77895068Y-37896075D01*
X77909044Y-37879044D01*
X77926075Y-37865068D01*
X77945511Y-37854680D01*
X77966592Y-37848284D01*
X77994660Y-37845520D01*
X79808380Y-37845520D01*
X79836448Y-37848284D01*
G37*
G36*
X100413032Y-36411447D02*
G01*
X100562332Y-36441144D01*
X100726304Y-36509064D01*
X100873874Y-36607667D01*
X100999373Y-36733166D01*
X101097976Y-36880736D01*
X101165896Y-37044708D01*
X101200520Y-37218779D01*
X101200520Y-37396261D01*
X101165896Y-37570332D01*
X101097976Y-37734304D01*
X100999373Y-37881874D01*
X100873874Y-38007373D01*
X100726304Y-38105976D01*
X100562332Y-38173896D01*
X100421186Y-38201971D01*
X100388262Y-38208520D01*
X100210778Y-38208520D01*
X100177854Y-38201971D01*
X100036708Y-38173896D01*
X99872736Y-38105976D01*
X99725166Y-38007373D01*
X99599667Y-37881874D01*
X99501064Y-37734304D01*
X99433144Y-37570332D01*
X99398520Y-37396261D01*
X99398520Y-37218779D01*
X99433144Y-37044708D01*
X99501064Y-36880736D01*
X99599667Y-36733166D01*
X99725166Y-36607667D01*
X99872736Y-36509064D01*
X100036708Y-36441144D01*
X100186008Y-36411447D01*
X100210778Y-36406520D01*
X100388262Y-36406520D01*
X100413032Y-36411447D01*
G37*
G36*
X104223032Y-36411447D02*
G01*
X104372332Y-36441144D01*
X104536304Y-36509064D01*
X104683874Y-36607667D01*
X104809373Y-36733166D01*
X104907976Y-36880736D01*
X104975896Y-37044708D01*
X105010520Y-37218779D01*
X105010520Y-37396261D01*
X104975896Y-37570332D01*
X104907976Y-37734304D01*
X104809373Y-37881874D01*
X104683874Y-38007373D01*
X104536304Y-38105976D01*
X104372332Y-38173896D01*
X104231186Y-38201971D01*
X104198262Y-38208520D01*
X104020778Y-38208520D01*
X103987854Y-38201971D01*
X103846708Y-38173896D01*
X103682736Y-38105976D01*
X103535166Y-38007373D01*
X103409667Y-37881874D01*
X103311064Y-37734304D01*
X103243144Y-37570332D01*
X103208520Y-37396261D01*
X103208520Y-37218779D01*
X103243144Y-37044708D01*
X103311064Y-36880736D01*
X103409667Y-36733166D01*
X103535166Y-36607667D01*
X103682736Y-36509064D01*
X103846708Y-36441144D01*
X103996008Y-36411447D01*
X104020778Y-36406520D01*
X104198262Y-36406520D01*
X104223032Y-36411447D01*
G37*
G36*
X88560020Y-37688020D02*
G01*
X86658020Y-37688020D01*
X86658020Y-36586020D01*
X88560020Y-36586020D01*
X88560020Y-37688020D01*
G37*
G36*
X60942488Y-36441085D02*
G01*
X60981158Y-36452816D01*
X61016797Y-36471866D01*
X61048037Y-36497503D01*
X61073674Y-36528743D01*
X61092724Y-36564382D01*
X61104455Y-36603052D01*
X61109020Y-36649408D01*
X61109020Y-37300632D01*
X61104455Y-37346988D01*
X61092724Y-37385658D01*
X61073674Y-37421297D01*
X61048037Y-37452537D01*
X61016797Y-37478174D01*
X60981158Y-37497224D01*
X60942488Y-37508955D01*
X60896132Y-37513520D01*
X59819908Y-37513520D01*
X59773552Y-37508955D01*
X59734882Y-37497224D01*
X59699243Y-37478174D01*
X59668003Y-37452537D01*
X59642366Y-37421297D01*
X59623316Y-37385658D01*
X59611585Y-37346988D01*
X59607020Y-37300632D01*
X59607020Y-36649408D01*
X59611585Y-36603052D01*
X59623316Y-36564382D01*
X59642366Y-36528743D01*
X59668003Y-36497503D01*
X59699243Y-36471866D01*
X59734882Y-36452816D01*
X59773552Y-36441085D01*
X59819908Y-36436520D01*
X60896132Y-36436520D01*
X60942488Y-36441085D01*
G37*
G36*
X44622988Y-36441085D02*
G01*
X44661658Y-36452816D01*
X44697297Y-36471866D01*
X44728537Y-36497503D01*
X44754174Y-36528743D01*
X44773224Y-36564382D01*
X44784955Y-36603052D01*
X44789520Y-36649408D01*
X44789520Y-37300632D01*
X44784955Y-37346988D01*
X44773224Y-37385658D01*
X44754174Y-37421297D01*
X44728537Y-37452537D01*
X44697297Y-37478174D01*
X44661658Y-37497224D01*
X44622988Y-37508955D01*
X44576632Y-37513520D01*
X43500408Y-37513520D01*
X43454052Y-37508955D01*
X43415382Y-37497224D01*
X43379743Y-37478174D01*
X43348503Y-37452537D01*
X43322866Y-37421297D01*
X43303816Y-37385658D01*
X43292085Y-37346988D01*
X43287520Y-37300632D01*
X43287520Y-36649408D01*
X43292085Y-36603052D01*
X43303816Y-36564382D01*
X43322866Y-36528743D01*
X43348503Y-36497503D01*
X43379743Y-36471866D01*
X43415382Y-36452816D01*
X43454052Y-36441085D01*
X43500408Y-36436520D01*
X44576632Y-36436520D01*
X44622988Y-36441085D01*
G37*
G36*
X39709520Y-37483520D02*
G01*
X38547520Y-37483520D01*
X38547520Y-34831520D01*
X39709520Y-34831520D01*
X39709520Y-37483520D01*
G37*
G36*
X41909520Y-37483520D02*
G01*
X40747520Y-37483520D01*
X40747520Y-36731520D01*
X41909520Y-36731520D01*
X41909520Y-37483520D01*
G37*
G36*
X84786448Y-36578284D02*
G01*
X84807529Y-36584680D01*
X84826965Y-36595068D01*
X84843996Y-36609044D01*
X84857972Y-36626075D01*
X84868360Y-36645511D01*
X84874756Y-36666592D01*
X84877520Y-36694660D01*
X84877520Y-37158380D01*
X84874756Y-37186448D01*
X84868360Y-37207529D01*
X84857972Y-37226965D01*
X84843996Y-37243996D01*
X84826965Y-37257972D01*
X84807529Y-37268360D01*
X84786448Y-37274756D01*
X84758380Y-37277520D01*
X82944660Y-37277520D01*
X82916592Y-37274756D01*
X82895511Y-37268360D01*
X82876075Y-37257972D01*
X82859044Y-37243996D01*
X82845068Y-37226965D01*
X82834680Y-37207529D01*
X82828284Y-37186448D01*
X82825520Y-37158380D01*
X82825520Y-36694660D01*
X82828284Y-36666592D01*
X82834680Y-36645511D01*
X82845068Y-36626075D01*
X82859044Y-36609044D01*
X82876075Y-36595068D01*
X82895511Y-36584680D01*
X82916592Y-36578284D01*
X82944660Y-36575520D01*
X84758380Y-36575520D01*
X84786448Y-36578284D01*
G37*
G36*
X79836448Y-36578284D02*
G01*
X79857529Y-36584680D01*
X79876965Y-36595068D01*
X79893996Y-36609044D01*
X79907972Y-36626075D01*
X79918360Y-36645511D01*
X79924756Y-36666592D01*
X79927520Y-36694660D01*
X79927520Y-37158380D01*
X79924756Y-37186448D01*
X79918360Y-37207529D01*
X79907972Y-37226965D01*
X79893996Y-37243996D01*
X79876965Y-37257972D01*
X79857529Y-37268360D01*
X79836448Y-37274756D01*
X79808380Y-37277520D01*
X77994660Y-37277520D01*
X77966592Y-37274756D01*
X77945511Y-37268360D01*
X77926075Y-37257972D01*
X77909044Y-37243996D01*
X77895068Y-37226965D01*
X77884680Y-37207529D01*
X77878284Y-37186448D01*
X77875520Y-37158380D01*
X77875520Y-36694660D01*
X77878284Y-36666592D01*
X77884680Y-36645511D01*
X77895068Y-36626075D01*
X77909044Y-36609044D01*
X77926075Y-36595068D01*
X77945511Y-36584680D01*
X77966592Y-36578284D01*
X77994660Y-36575520D01*
X79808380Y-36575520D01*
X79836448Y-36578284D01*
G37*
G36*
X76705458Y-36242736D02*
G01*
X76726077Y-36248991D01*
X76745073Y-36259144D01*
X76761728Y-36272812D01*
X76775396Y-36289467D01*
X76785549Y-36308463D01*
X76791804Y-36329082D01*
X76794520Y-36356660D01*
X76794520Y-36815380D01*
X76791804Y-36842958D01*
X76785549Y-36863577D01*
X76775396Y-36882573D01*
X76761728Y-36899228D01*
X76745073Y-36912896D01*
X76726077Y-36923049D01*
X76705458Y-36929304D01*
X76677880Y-36932020D01*
X76169160Y-36932020D01*
X76141582Y-36929304D01*
X76120963Y-36923049D01*
X76101967Y-36912896D01*
X76085312Y-36899228D01*
X76071644Y-36882573D01*
X76061491Y-36863577D01*
X76055236Y-36842958D01*
X76052520Y-36815380D01*
X76052520Y-36356660D01*
X76055236Y-36329082D01*
X76061491Y-36308463D01*
X76071644Y-36289467D01*
X76085312Y-36272812D01*
X76101967Y-36259144D01*
X76120963Y-36248991D01*
X76141582Y-36242736D01*
X76169160Y-36240020D01*
X76677880Y-36240020D01*
X76705458Y-36242736D01*
G37*
G36*
X54900520Y-36158520D02*
G01*
X53798520Y-36158520D01*
X53798520Y-34556520D01*
X54900520Y-34556520D01*
X54900520Y-36158520D01*
G37*
G36*
X57900520Y-36158520D02*
G01*
X56798520Y-36158520D01*
X56798520Y-34556520D01*
X57900520Y-34556520D01*
X57900520Y-36158520D01*
G37*
G36*
X79836448Y-35308284D02*
G01*
X79857529Y-35314680D01*
X79876965Y-35325068D01*
X79893996Y-35339044D01*
X79907972Y-35356075D01*
X79918360Y-35375511D01*
X79924756Y-35396592D01*
X79927520Y-35424660D01*
X79927520Y-35888380D01*
X79924756Y-35916448D01*
X79918360Y-35937529D01*
X79907972Y-35956965D01*
X79893996Y-35973996D01*
X79876965Y-35987972D01*
X79857529Y-35998360D01*
X79836448Y-36004756D01*
X79808380Y-36007520D01*
X77994660Y-36007520D01*
X77966592Y-36004756D01*
X77945511Y-35998360D01*
X77926075Y-35987972D01*
X77909044Y-35973996D01*
X77895068Y-35956965D01*
X77884680Y-35937529D01*
X77878284Y-35916448D01*
X77875520Y-35888380D01*
X77875520Y-35424660D01*
X77878284Y-35396592D01*
X77884680Y-35375511D01*
X77895068Y-35356075D01*
X77909044Y-35339044D01*
X77926075Y-35325068D01*
X77945511Y-35314680D01*
X77966592Y-35308284D01*
X77994660Y-35305520D01*
X79808380Y-35305520D01*
X79836448Y-35308284D01*
G37*
G36*
X84786448Y-35308284D02*
G01*
X84807529Y-35314680D01*
X84826965Y-35325068D01*
X84843996Y-35339044D01*
X84857972Y-35356075D01*
X84868360Y-35375511D01*
X84874756Y-35396592D01*
X84877520Y-35424660D01*
X84877520Y-35888380D01*
X84874756Y-35916448D01*
X84868360Y-35937529D01*
X84857972Y-35956965D01*
X84843996Y-35973996D01*
X84826965Y-35987972D01*
X84807529Y-35998360D01*
X84786448Y-36004756D01*
X84758380Y-36007520D01*
X82944660Y-36007520D01*
X82916592Y-36004756D01*
X82895511Y-35998360D01*
X82876075Y-35987972D01*
X82859044Y-35973996D01*
X82845068Y-35956965D01*
X82834680Y-35937529D01*
X82828284Y-35916448D01*
X82825520Y-35888380D01*
X82825520Y-35424660D01*
X82828284Y-35396592D01*
X82834680Y-35375511D01*
X82845068Y-35356075D01*
X82859044Y-35339044D01*
X82876075Y-35325068D01*
X82895511Y-35314680D01*
X82916592Y-35308284D01*
X82944660Y-35305520D01*
X84758380Y-35305520D01*
X84786448Y-35308284D01*
G37*
G36*
X76705458Y-35272736D02*
G01*
X76726077Y-35278991D01*
X76745073Y-35289144D01*
X76761728Y-35302812D01*
X76775396Y-35319467D01*
X76785549Y-35338463D01*
X76791804Y-35359082D01*
X76794520Y-35386660D01*
X76794520Y-35845380D01*
X76791804Y-35872958D01*
X76785549Y-35893577D01*
X76775396Y-35912573D01*
X76761728Y-35929228D01*
X76745073Y-35942896D01*
X76726077Y-35953049D01*
X76705458Y-35959304D01*
X76677880Y-35962020D01*
X76169160Y-35962020D01*
X76141582Y-35959304D01*
X76120963Y-35953049D01*
X76101967Y-35942896D01*
X76085312Y-35929228D01*
X76071644Y-35912573D01*
X76061491Y-35893577D01*
X76055236Y-35872958D01*
X76052520Y-35845380D01*
X76052520Y-35386660D01*
X76055236Y-35359082D01*
X76061491Y-35338463D01*
X76071644Y-35319467D01*
X76085312Y-35302812D01*
X76101967Y-35289144D01*
X76120963Y-35278991D01*
X76141582Y-35272736D01*
X76169160Y-35270020D01*
X76677880Y-35270020D01*
X76705458Y-35272736D01*
G37*
G36*
X51886104Y-34565867D02*
G01*
X51922644Y-34576952D01*
X51956321Y-34594953D01*
X51985841Y-34619179D01*
X52010067Y-34648699D01*
X52028068Y-34682376D01*
X52039153Y-34718916D01*
X52043500Y-34763058D01*
X52043500Y-35711982D01*
X52039153Y-35756124D01*
X52028068Y-35792664D01*
X52010067Y-35826341D01*
X51985841Y-35855861D01*
X51956321Y-35880087D01*
X51922644Y-35898088D01*
X51886104Y-35909173D01*
X51841962Y-35913520D01*
X50393038Y-35913520D01*
X50348896Y-35909173D01*
X50312356Y-35898088D01*
X50278679Y-35880087D01*
X50249159Y-35855861D01*
X50224933Y-35826341D01*
X50206932Y-35792664D01*
X50195847Y-35756124D01*
X50191500Y-35711982D01*
X50191500Y-34763058D01*
X50195847Y-34718916D01*
X50206932Y-34682376D01*
X50224933Y-34648699D01*
X50249159Y-34619179D01*
X50278679Y-34594953D01*
X50312356Y-34576952D01*
X50348896Y-34565867D01*
X50393038Y-34561520D01*
X51841962Y-34561520D01*
X51886104Y-34565867D01*
G37*
G36*
X100413032Y-33871447D02*
G01*
X100562332Y-33901144D01*
X100726304Y-33969064D01*
X100873874Y-34067667D01*
X100999373Y-34193166D01*
X101097976Y-34340736D01*
X101165896Y-34504708D01*
X101200520Y-34678779D01*
X101200520Y-34856261D01*
X101165896Y-35030332D01*
X101097976Y-35194304D01*
X100999373Y-35341874D01*
X100873874Y-35467373D01*
X100726304Y-35565976D01*
X100562332Y-35633896D01*
X100413032Y-35663593D01*
X100388262Y-35668520D01*
X100210778Y-35668520D01*
X100186008Y-35663593D01*
X100036708Y-35633896D01*
X99872736Y-35565976D01*
X99725166Y-35467373D01*
X99599667Y-35341874D01*
X99501064Y-35194304D01*
X99433144Y-35030332D01*
X99398520Y-34856261D01*
X99398520Y-34678779D01*
X99433144Y-34504708D01*
X99501064Y-34340736D01*
X99599667Y-34193166D01*
X99725166Y-34067667D01*
X99872736Y-33969064D01*
X100036708Y-33901144D01*
X100186008Y-33871447D01*
X100210778Y-33866520D01*
X100388262Y-33866520D01*
X100413032Y-33871447D01*
G37*
G36*
X104223032Y-33871447D02*
G01*
X104372332Y-33901144D01*
X104536304Y-33969064D01*
X104683874Y-34067667D01*
X104809373Y-34193166D01*
X104907976Y-34340736D01*
X104975896Y-34504708D01*
X105010520Y-34678779D01*
X105010520Y-34856261D01*
X104975896Y-35030332D01*
X104907976Y-35194304D01*
X104809373Y-35341874D01*
X104683874Y-35467373D01*
X104536304Y-35565976D01*
X104372332Y-35633896D01*
X104223032Y-35663593D01*
X104198262Y-35668520D01*
X104020778Y-35668520D01*
X103996008Y-35663593D01*
X103846708Y-35633896D01*
X103682736Y-35565976D01*
X103535166Y-35467373D01*
X103409667Y-35341874D01*
X103311064Y-35194304D01*
X103243144Y-35030332D01*
X103208520Y-34856261D01*
X103208520Y-34678779D01*
X103243144Y-34504708D01*
X103311064Y-34340736D01*
X103409667Y-34193166D01*
X103535166Y-34067667D01*
X103682736Y-33969064D01*
X103846708Y-33901144D01*
X103996008Y-33871447D01*
X104020778Y-33866520D01*
X104198262Y-33866520D01*
X104223032Y-33871447D01*
G37*
G36*
X60942488Y-34566085D02*
G01*
X60981158Y-34577816D01*
X61016797Y-34596866D01*
X61048037Y-34622503D01*
X61073674Y-34653743D01*
X61092724Y-34689382D01*
X61104455Y-34728052D01*
X61109020Y-34774408D01*
X61109020Y-35425632D01*
X61104455Y-35471988D01*
X61092724Y-35510658D01*
X61073674Y-35546297D01*
X61048037Y-35577537D01*
X61016797Y-35603174D01*
X60981158Y-35622224D01*
X60942488Y-35633955D01*
X60896132Y-35638520D01*
X59819908Y-35638520D01*
X59773552Y-35633955D01*
X59734882Y-35622224D01*
X59699243Y-35603174D01*
X59668003Y-35577537D01*
X59642366Y-35546297D01*
X59623316Y-35510658D01*
X59611585Y-35471988D01*
X59607020Y-35425632D01*
X59607020Y-34774408D01*
X59611585Y-34728052D01*
X59623316Y-34689382D01*
X59642366Y-34653743D01*
X59668003Y-34622503D01*
X59699243Y-34596866D01*
X59734882Y-34577816D01*
X59773552Y-34566085D01*
X59819908Y-34561520D01*
X60896132Y-34561520D01*
X60942488Y-34566085D01*
G37*
G36*
X44622988Y-34566085D02*
G01*
X44661658Y-34577816D01*
X44697297Y-34596866D01*
X44728537Y-34622503D01*
X44754174Y-34653743D01*
X44773224Y-34689382D01*
X44784955Y-34728052D01*
X44789520Y-34774408D01*
X44789520Y-35425632D01*
X44784955Y-35471988D01*
X44773224Y-35510658D01*
X44754174Y-35546297D01*
X44728537Y-35577537D01*
X44697297Y-35603174D01*
X44661658Y-35622224D01*
X44622988Y-35633955D01*
X44576632Y-35638520D01*
X43500408Y-35638520D01*
X43454052Y-35633955D01*
X43415382Y-35622224D01*
X43379743Y-35603174D01*
X43348503Y-35577537D01*
X43322866Y-35546297D01*
X43303816Y-35510658D01*
X43292085Y-35471988D01*
X43287520Y-35425632D01*
X43287520Y-34774408D01*
X43292085Y-34728052D01*
X43303816Y-34689382D01*
X43322866Y-34653743D01*
X43348503Y-34622503D01*
X43379743Y-34596866D01*
X43415382Y-34577816D01*
X43454052Y-34566085D01*
X43500408Y-34561520D01*
X44576632Y-34561520D01*
X44622988Y-34566085D01*
G37*
G36*
X46862091Y-34580605D02*
G01*
X46896069Y-34590913D01*
X46927390Y-34607654D01*
X46954839Y-34630181D01*
X46977366Y-34657630D01*
X46994107Y-34688951D01*
X47004415Y-34722929D01*
X47008500Y-34764410D01*
X47008500Y-35440630D01*
X47004415Y-35482111D01*
X46994107Y-35516089D01*
X46977366Y-35547410D01*
X46954839Y-35574859D01*
X46927390Y-35597386D01*
X46896069Y-35614127D01*
X46862091Y-35624435D01*
X46820610Y-35628520D01*
X46219390Y-35628520D01*
X46177909Y-35624435D01*
X46143931Y-35614127D01*
X46112610Y-35597386D01*
X46085161Y-35574859D01*
X46062634Y-35547410D01*
X46045893Y-35516089D01*
X46035585Y-35482111D01*
X46031500Y-35440630D01*
X46031500Y-34764410D01*
X46035585Y-34722929D01*
X46045893Y-34688951D01*
X46062634Y-34657630D01*
X46085161Y-34630181D01*
X46112610Y-34607654D01*
X46143931Y-34590913D01*
X46177909Y-34580605D01*
X46219390Y-34576520D01*
X46820610Y-34576520D01*
X46862091Y-34580605D01*
G37*
G36*
X48437091Y-34580605D02*
G01*
X48471069Y-34590913D01*
X48502390Y-34607654D01*
X48529839Y-34630181D01*
X48552366Y-34657630D01*
X48569107Y-34688951D01*
X48579415Y-34722929D01*
X48583500Y-34764410D01*
X48583500Y-35440630D01*
X48579415Y-35482111D01*
X48569107Y-35516089D01*
X48552366Y-35547410D01*
X48529839Y-35574859D01*
X48502390Y-35597386D01*
X48471069Y-35614127D01*
X48437091Y-35624435D01*
X48395610Y-35628520D01*
X47794390Y-35628520D01*
X47752909Y-35624435D01*
X47718931Y-35614127D01*
X47687610Y-35597386D01*
X47660161Y-35574859D01*
X47637634Y-35547410D01*
X47620893Y-35516089D01*
X47610585Y-35482111D01*
X47606500Y-35440630D01*
X47606500Y-34764410D01*
X47610585Y-34722929D01*
X47620893Y-34688951D01*
X47637634Y-34657630D01*
X47660161Y-34630181D01*
X47687610Y-34607654D01*
X47718931Y-34590913D01*
X47752909Y-34580605D01*
X47794390Y-34576520D01*
X48395610Y-34576520D01*
X48437091Y-34580605D01*
G37*
G36*
X41909520Y-35583520D02*
G01*
X40747520Y-35583520D01*
X40747520Y-34831520D01*
X41909520Y-34831520D01*
X41909520Y-35583520D01*
G37*
G36*
X87993488Y-34409085D02*
G01*
X88032158Y-34420816D01*
X88067797Y-34439866D01*
X88099037Y-34465503D01*
X88124674Y-34496743D01*
X88143724Y-34532382D01*
X88155455Y-34571052D01*
X88160020Y-34617408D01*
X88160020Y-35268632D01*
X88155455Y-35314988D01*
X88143724Y-35353658D01*
X88124674Y-35389297D01*
X88099037Y-35420537D01*
X88067797Y-35446174D01*
X88032158Y-35465224D01*
X87993488Y-35476955D01*
X87947132Y-35481520D01*
X86870908Y-35481520D01*
X86824552Y-35476955D01*
X86785882Y-35465224D01*
X86750243Y-35446174D01*
X86719003Y-35420537D01*
X86693366Y-35389297D01*
X86674316Y-35353658D01*
X86662585Y-35314988D01*
X86658020Y-35268632D01*
X86658020Y-34617408D01*
X86662585Y-34571052D01*
X86674316Y-34532382D01*
X86693366Y-34496743D01*
X86719003Y-34465503D01*
X86750243Y-34439866D01*
X86785882Y-34420816D01*
X86824552Y-34409085D01*
X86870908Y-34404520D01*
X87947132Y-34404520D01*
X87993488Y-34409085D01*
G37*
G36*
X71095488Y-33894085D02*
G01*
X71134158Y-33905816D01*
X71169797Y-33924866D01*
X71201037Y-33950503D01*
X71226674Y-33981743D01*
X71245724Y-34017382D01*
X71257455Y-34056052D01*
X71262020Y-34102408D01*
X71262020Y-35178632D01*
X71257455Y-35224988D01*
X71245724Y-35263658D01*
X71226674Y-35299297D01*
X71201037Y-35330537D01*
X71169797Y-35356174D01*
X71134158Y-35375224D01*
X71095488Y-35386955D01*
X71049132Y-35391520D01*
X70397908Y-35391520D01*
X70351552Y-35386955D01*
X70312882Y-35375224D01*
X70277243Y-35356174D01*
X70246003Y-35330537D01*
X70220366Y-35299297D01*
X70201316Y-35263658D01*
X70189585Y-35224988D01*
X70185020Y-35178632D01*
X70185020Y-34102408D01*
X70189585Y-34056052D01*
X70201316Y-34017382D01*
X70220366Y-33981743D01*
X70246003Y-33950503D01*
X70277243Y-33924866D01*
X70312882Y-33905816D01*
X70351552Y-33894085D01*
X70397908Y-33889520D01*
X71049132Y-33889520D01*
X71095488Y-33894085D01*
G37*
G36*
X72970488Y-33894085D02*
G01*
X73009158Y-33905816D01*
X73044797Y-33924866D01*
X73076037Y-33950503D01*
X73101674Y-33981743D01*
X73120724Y-34017382D01*
X73132455Y-34056052D01*
X73137020Y-34102408D01*
X73137020Y-35178632D01*
X73132455Y-35224988D01*
X73120724Y-35263658D01*
X73101674Y-35299297D01*
X73076037Y-35330537D01*
X73044797Y-35356174D01*
X73009158Y-35375224D01*
X72970488Y-35386955D01*
X72924132Y-35391520D01*
X72272908Y-35391520D01*
X72226552Y-35386955D01*
X72187882Y-35375224D01*
X72152243Y-35356174D01*
X72121003Y-35330537D01*
X72095366Y-35299297D01*
X72076316Y-35263658D01*
X72064585Y-35224988D01*
X72060020Y-35178632D01*
X72060020Y-34102408D01*
X72064585Y-34056052D01*
X72076316Y-34017382D01*
X72095366Y-33981743D01*
X72121003Y-33950503D01*
X72152243Y-33924866D01*
X72187882Y-33905816D01*
X72226552Y-33894085D01*
X72272908Y-33889520D01*
X72924132Y-33889520D01*
X72970488Y-33894085D01*
G37*
G36*
X63943091Y-34021585D02*
G01*
X63977069Y-34031893D01*
X64008390Y-34048634D01*
X64035839Y-34071161D01*
X64058366Y-34098610D01*
X64075107Y-34129931D01*
X64085415Y-34163909D01*
X64089500Y-34205390D01*
X64089500Y-34806610D01*
X64085415Y-34848091D01*
X64075107Y-34882069D01*
X64058366Y-34913390D01*
X64035839Y-34940839D01*
X64008390Y-34963366D01*
X63977069Y-34980107D01*
X63943091Y-34990415D01*
X63901610Y-34994500D01*
X63225390Y-34994500D01*
X63183909Y-34990415D01*
X63149931Y-34980107D01*
X63118610Y-34963366D01*
X63091161Y-34940839D01*
X63068634Y-34913390D01*
X63051893Y-34882069D01*
X63041585Y-34848091D01*
X63037500Y-34806610D01*
X63037500Y-34205390D01*
X63041585Y-34163909D01*
X63051893Y-34129931D01*
X63068634Y-34098610D01*
X63091161Y-34071161D01*
X63118610Y-34048634D01*
X63149931Y-34031893D01*
X63183909Y-34021585D01*
X63225390Y-34017500D01*
X63901610Y-34017500D01*
X63943091Y-34021585D01*
G37*
G36*
X84786448Y-34038284D02*
G01*
X84807529Y-34044680D01*
X84826965Y-34055068D01*
X84843996Y-34069044D01*
X84857972Y-34086075D01*
X84868360Y-34105511D01*
X84874756Y-34126592D01*
X84877520Y-34154660D01*
X84877520Y-34618380D01*
X84874756Y-34646448D01*
X84868360Y-34667529D01*
X84857972Y-34686965D01*
X84843996Y-34703996D01*
X84826965Y-34717972D01*
X84807529Y-34728360D01*
X84786448Y-34734756D01*
X84758380Y-34737520D01*
X82944660Y-34737520D01*
X82916592Y-34734756D01*
X82895511Y-34728360D01*
X82876075Y-34717972D01*
X82859044Y-34703996D01*
X82845068Y-34686965D01*
X82834680Y-34667529D01*
X82828284Y-34646448D01*
X82825520Y-34618380D01*
X82825520Y-34154660D01*
X82828284Y-34126592D01*
X82834680Y-34105511D01*
X82845068Y-34086075D01*
X82859044Y-34069044D01*
X82876075Y-34055068D01*
X82895511Y-34044680D01*
X82916592Y-34038284D01*
X82944660Y-34035520D01*
X84758380Y-34035520D01*
X84786448Y-34038284D01*
G37*
G36*
X79836448Y-34038284D02*
G01*
X79857529Y-34044680D01*
X79876965Y-34055068D01*
X79893996Y-34069044D01*
X79907972Y-34086075D01*
X79918360Y-34105511D01*
X79924756Y-34126592D01*
X79927520Y-34154660D01*
X79927520Y-34618380D01*
X79924756Y-34646448D01*
X79918360Y-34667529D01*
X79907972Y-34686965D01*
X79893996Y-34703996D01*
X79876965Y-34717972D01*
X79857529Y-34728360D01*
X79836448Y-34734756D01*
X79808380Y-34737520D01*
X77994660Y-34737520D01*
X77966592Y-34734756D01*
X77945511Y-34728360D01*
X77926075Y-34717972D01*
X77909044Y-34703996D01*
X77895068Y-34686965D01*
X77884680Y-34667529D01*
X77878284Y-34646448D01*
X77875520Y-34618380D01*
X77875520Y-34154660D01*
X77878284Y-34126592D01*
X77884680Y-34105511D01*
X77895068Y-34086075D01*
X77909044Y-34069044D01*
X77926075Y-34055068D01*
X77945511Y-34044680D01*
X77966592Y-34038284D01*
X77994660Y-34035520D01*
X79808380Y-34035520D01*
X79836448Y-34038284D01*
G37*
G36*
X76705458Y-33956736D02*
G01*
X76726077Y-33962991D01*
X76745073Y-33973144D01*
X76761728Y-33986812D01*
X76775396Y-34003467D01*
X76785549Y-34022463D01*
X76791804Y-34043082D01*
X76794520Y-34070660D01*
X76794520Y-34529380D01*
X76791804Y-34556958D01*
X76785549Y-34577577D01*
X76775396Y-34596573D01*
X76761728Y-34613228D01*
X76745073Y-34626896D01*
X76726077Y-34637049D01*
X76705458Y-34643304D01*
X76677880Y-34646020D01*
X76169160Y-34646020D01*
X76141582Y-34643304D01*
X76120963Y-34637049D01*
X76101967Y-34626896D01*
X76085312Y-34613228D01*
X76071644Y-34596573D01*
X76061491Y-34577577D01*
X76055236Y-34556958D01*
X76052520Y-34529380D01*
X76052520Y-34070660D01*
X76055236Y-34043082D01*
X76061491Y-34022463D01*
X76071644Y-34003467D01*
X76085312Y-33986812D01*
X76101967Y-33973144D01*
X76120963Y-33962991D01*
X76141582Y-33956736D01*
X76169160Y-33954020D01*
X76677880Y-33954020D01*
X76705458Y-33956736D01*
G37*
G36*
X76705458Y-32986736D02*
G01*
X76726077Y-32992991D01*
X76745073Y-33003144D01*
X76761728Y-33016812D01*
X76775396Y-33033467D01*
X76785549Y-33052463D01*
X76791804Y-33073082D01*
X76794520Y-33100660D01*
X76794520Y-33559380D01*
X76791804Y-33586958D01*
X76785549Y-33607577D01*
X76775396Y-33626573D01*
X76761728Y-33643228D01*
X76745073Y-33656896D01*
X76726077Y-33667049D01*
X76705458Y-33673304D01*
X76677880Y-33676020D01*
X76169160Y-33676020D01*
X76141582Y-33673304D01*
X76120963Y-33667049D01*
X76101967Y-33656896D01*
X76085312Y-33643228D01*
X76071644Y-33626573D01*
X76061491Y-33607577D01*
X76055236Y-33586958D01*
X76052520Y-33559380D01*
X76052520Y-33100660D01*
X76055236Y-33073082D01*
X76061491Y-33052463D01*
X76071644Y-33033467D01*
X76085312Y-33016812D01*
X76101967Y-33003144D01*
X76120963Y-32992991D01*
X76141582Y-32986736D01*
X76169160Y-32984020D01*
X76677880Y-32984020D01*
X76705458Y-32986736D01*
G37*
G36*
X87993488Y-32534085D02*
G01*
X88032158Y-32545816D01*
X88067797Y-32564866D01*
X88099037Y-32590503D01*
X88124674Y-32621743D01*
X88143724Y-32657382D01*
X88155455Y-32696052D01*
X88160020Y-32742408D01*
X88160020Y-33393632D01*
X88155455Y-33439988D01*
X88143724Y-33478658D01*
X88124674Y-33514297D01*
X88099037Y-33545537D01*
X88067797Y-33571174D01*
X88032158Y-33590224D01*
X87993488Y-33601955D01*
X87947132Y-33606520D01*
X86870908Y-33606520D01*
X86824552Y-33601955D01*
X86785882Y-33590224D01*
X86750243Y-33571174D01*
X86719003Y-33545537D01*
X86693366Y-33514297D01*
X86674316Y-33478658D01*
X86662585Y-33439988D01*
X86658020Y-33393632D01*
X86658020Y-32742408D01*
X86662585Y-32696052D01*
X86674316Y-32657382D01*
X86693366Y-32621743D01*
X86719003Y-32590503D01*
X86750243Y-32564866D01*
X86785882Y-32545816D01*
X86824552Y-32534085D01*
X86870908Y-32529520D01*
X87947132Y-32529520D01*
X87993488Y-32534085D01*
G37*
G36*
X63943091Y-32446585D02*
G01*
X63977069Y-32456893D01*
X64008390Y-32473634D01*
X64035839Y-32496161D01*
X64058366Y-32523610D01*
X64075107Y-32554931D01*
X64085415Y-32588909D01*
X64089500Y-32630390D01*
X64089500Y-33231610D01*
X64085415Y-33273091D01*
X64075107Y-33307069D01*
X64058366Y-33338390D01*
X64035839Y-33365839D01*
X64008390Y-33388366D01*
X63977069Y-33405107D01*
X63943091Y-33415415D01*
X63901610Y-33419500D01*
X63225390Y-33419500D01*
X63183909Y-33415415D01*
X63149931Y-33405107D01*
X63118610Y-33388366D01*
X63091161Y-33365839D01*
X63068634Y-33338390D01*
X63051893Y-33307069D01*
X63041585Y-33273091D01*
X63037500Y-33231610D01*
X63037500Y-32630390D01*
X63041585Y-32588909D01*
X63051893Y-32554931D01*
X63068634Y-32523610D01*
X63091161Y-32496161D01*
X63118610Y-32473634D01*
X63149931Y-32456893D01*
X63183909Y-32446585D01*
X63225390Y-32442500D01*
X63901610Y-32442500D01*
X63943091Y-32446585D01*
G37*
G36*
X100413032Y-31331447D02*
G01*
X100562332Y-31361144D01*
X100726304Y-31429064D01*
X100873874Y-31527667D01*
X100999373Y-31653166D01*
X101097976Y-31800736D01*
X101165896Y-31964708D01*
X101200520Y-32138779D01*
X101200520Y-32316261D01*
X101165896Y-32490332D01*
X101097976Y-32654304D01*
X100999373Y-32801874D01*
X100873874Y-32927373D01*
X100726304Y-33025976D01*
X100562332Y-33093896D01*
X100414660Y-33123269D01*
X100388262Y-33128520D01*
X100210778Y-33128520D01*
X100184380Y-33123269D01*
X100036708Y-33093896D01*
X99872736Y-33025976D01*
X99725166Y-32927373D01*
X99599667Y-32801874D01*
X99501064Y-32654304D01*
X99433144Y-32490332D01*
X99398520Y-32316261D01*
X99398520Y-32138779D01*
X99433144Y-31964708D01*
X99501064Y-31800736D01*
X99599667Y-31653166D01*
X99725166Y-31527667D01*
X99872736Y-31429064D01*
X100036708Y-31361144D01*
X100186008Y-31331447D01*
X100210778Y-31326520D01*
X100388262Y-31326520D01*
X100413032Y-31331447D01*
G37*
G36*
X104223032Y-31331447D02*
G01*
X104372332Y-31361144D01*
X104536304Y-31429064D01*
X104683874Y-31527667D01*
X104809373Y-31653166D01*
X104907976Y-31800736D01*
X104975896Y-31964708D01*
X105010520Y-32138779D01*
X105010520Y-32316261D01*
X104975896Y-32490332D01*
X104907976Y-32654304D01*
X104809373Y-32801874D01*
X104683874Y-32927373D01*
X104536304Y-33025976D01*
X104372332Y-33093896D01*
X104224660Y-33123269D01*
X104198262Y-33128520D01*
X104020778Y-33128520D01*
X103994380Y-33123269D01*
X103846708Y-33093896D01*
X103682736Y-33025976D01*
X103535166Y-32927373D01*
X103409667Y-32801874D01*
X103311064Y-32654304D01*
X103243144Y-32490332D01*
X103208520Y-32316261D01*
X103208520Y-32138779D01*
X103243144Y-31964708D01*
X103311064Y-31800736D01*
X103409667Y-31653166D01*
X103535166Y-31527667D01*
X103682736Y-31429064D01*
X103846708Y-31361144D01*
X103996008Y-31331447D01*
X104020778Y-31326520D01*
X104198262Y-31326520D01*
X104223032Y-31331447D01*
G37*
G36*
X39727124Y-31115367D02*
G01*
X39763664Y-31126452D01*
X39797341Y-31144453D01*
X39826861Y-31168679D01*
X39851087Y-31198199D01*
X39869088Y-31231876D01*
X39880173Y-31268416D01*
X39884520Y-31312558D01*
X39884520Y-32761482D01*
X39880173Y-32805624D01*
X39869088Y-32842164D01*
X39851087Y-32875841D01*
X39826861Y-32905361D01*
X39797341Y-32929587D01*
X39763664Y-32947588D01*
X39727124Y-32958673D01*
X39682982Y-32963020D01*
X38734058Y-32963020D01*
X38689916Y-32958673D01*
X38653376Y-32947588D01*
X38619699Y-32929587D01*
X38590179Y-32905361D01*
X38565953Y-32875841D01*
X38547952Y-32842164D01*
X38536867Y-32805624D01*
X38532520Y-32761482D01*
X38532520Y-31312558D01*
X38536867Y-31268416D01*
X38547952Y-31231876D01*
X38565953Y-31198199D01*
X38590179Y-31168679D01*
X38619699Y-31144453D01*
X38653376Y-31126452D01*
X38689916Y-31115367D01*
X38734058Y-31111020D01*
X39682982Y-31111020D01*
X39727124Y-31115367D01*
G37*
G36*
X42527124Y-31115367D02*
G01*
X42563664Y-31126452D01*
X42597341Y-31144453D01*
X42626861Y-31168679D01*
X42651087Y-31198199D01*
X42669088Y-31231876D01*
X42680173Y-31268416D01*
X42684520Y-31312558D01*
X42684520Y-32761482D01*
X42680173Y-32805624D01*
X42669088Y-32842164D01*
X42651087Y-32875841D01*
X42626861Y-32905361D01*
X42597341Y-32929587D01*
X42563664Y-32947588D01*
X42527124Y-32958673D01*
X42482982Y-32963020D01*
X41534058Y-32963020D01*
X41489916Y-32958673D01*
X41453376Y-32947588D01*
X41419699Y-32929587D01*
X41390179Y-32905361D01*
X41365953Y-32875841D01*
X41347952Y-32842164D01*
X41336867Y-32805624D01*
X41332520Y-32761482D01*
X41332520Y-31312558D01*
X41336867Y-31268416D01*
X41347952Y-31231876D01*
X41365953Y-31198199D01*
X41390179Y-31168679D01*
X41419699Y-31144453D01*
X41453376Y-31126452D01*
X41489916Y-31115367D01*
X41534058Y-31111020D01*
X42482982Y-31111020D01*
X42527124Y-31115367D01*
G37*
G36*
X47445500Y-32756500D02*
G01*
X46788500Y-32756500D01*
X46788500Y-32394500D01*
X47445500Y-32394500D01*
X47445500Y-32756500D01*
G37*
G36*
X60887000Y-32523000D02*
G01*
X60525000Y-32523000D01*
X60525000Y-31866000D01*
X60887000Y-31866000D01*
X60887000Y-32523000D01*
G37*
G36*
X100413032Y-28791447D02*
G01*
X100562332Y-28821144D01*
X100726304Y-28889064D01*
X100873874Y-28987667D01*
X100999373Y-29113166D01*
X101097976Y-29260736D01*
X101165896Y-29424708D01*
X101200520Y-29598779D01*
X101200520Y-29776261D01*
X101165896Y-29950332D01*
X101097976Y-30114304D01*
X100999373Y-30261874D01*
X100873874Y-30387373D01*
X100726304Y-30485976D01*
X100562332Y-30553896D01*
X100413032Y-30583593D01*
X100388262Y-30588520D01*
X100210778Y-30588520D01*
X100186008Y-30583593D01*
X100036708Y-30553896D01*
X99872736Y-30485976D01*
X99725166Y-30387373D01*
X99599667Y-30261874D01*
X99501064Y-30114304D01*
X99433144Y-29950332D01*
X99398520Y-29776261D01*
X99398520Y-29598779D01*
X99433144Y-29424708D01*
X99501064Y-29260736D01*
X99599667Y-29113166D01*
X99725166Y-28987667D01*
X99872736Y-28889064D01*
X100036708Y-28821144D01*
X100186008Y-28791447D01*
X100210778Y-28786520D01*
X100388262Y-28786520D01*
X100413032Y-28791447D01*
G37*
G36*
X104223032Y-28791447D02*
G01*
X104372332Y-28821144D01*
X104536304Y-28889064D01*
X104683874Y-28987667D01*
X104809373Y-29113166D01*
X104907976Y-29260736D01*
X104975896Y-29424708D01*
X105010520Y-29598779D01*
X105010520Y-29776261D01*
X104975896Y-29950332D01*
X104907976Y-30114304D01*
X104809373Y-30261874D01*
X104683874Y-30387373D01*
X104536304Y-30485976D01*
X104372332Y-30553896D01*
X104223032Y-30583593D01*
X104198262Y-30588520D01*
X104020778Y-30588520D01*
X103996008Y-30583593D01*
X103846708Y-30553896D01*
X103682736Y-30485976D01*
X103535166Y-30387373D01*
X103409667Y-30261874D01*
X103311064Y-30114304D01*
X103243144Y-29950332D01*
X103208520Y-29776261D01*
X103208520Y-29598779D01*
X103243144Y-29424708D01*
X103311064Y-29260736D01*
X103409667Y-29113166D01*
X103535166Y-28987667D01*
X103682736Y-28889064D01*
X103846708Y-28821144D01*
X103996008Y-28791447D01*
X104020778Y-28786520D01*
X104198262Y-28786520D01*
X104223032Y-28791447D01*
G37*
G36*
X63710032Y-28410447D02*
G01*
X63859332Y-28440144D01*
X64023304Y-28508064D01*
X64170874Y-28606667D01*
X64296373Y-28732166D01*
X64394976Y-28879736D01*
X64462896Y-29043708D01*
X64497520Y-29217779D01*
X64497520Y-29395261D01*
X64462896Y-29569332D01*
X64394976Y-29733304D01*
X64296373Y-29880874D01*
X64170874Y-30006373D01*
X64023304Y-30104976D01*
X63859332Y-30172896D01*
X63710032Y-30202593D01*
X63685262Y-30207520D01*
X63507778Y-30207520D01*
X63483008Y-30202593D01*
X63333708Y-30172896D01*
X63169736Y-30104976D01*
X63022166Y-30006373D01*
X62896667Y-29880874D01*
X62798064Y-29733304D01*
X62730144Y-29569332D01*
X62695520Y-29395261D01*
X62695520Y-29217779D01*
X62730144Y-29043708D01*
X62798064Y-28879736D01*
X62896667Y-28732166D01*
X63022166Y-28606667D01*
X63169736Y-28508064D01*
X63333708Y-28440144D01*
X63483008Y-28410447D01*
X63507778Y-28405520D01*
X63685262Y-28405520D01*
X63710032Y-28410447D01*
G37*
G36*
X48343032Y-28410447D02*
G01*
X48492332Y-28440144D01*
X48656304Y-28508064D01*
X48803874Y-28606667D01*
X48929373Y-28732166D01*
X49027976Y-28879736D01*
X49095896Y-29043708D01*
X49130520Y-29217779D01*
X49130520Y-29395261D01*
X49095896Y-29569332D01*
X49027976Y-29733304D01*
X48929373Y-29880874D01*
X48803874Y-30006373D01*
X48656304Y-30104976D01*
X48492332Y-30172896D01*
X48343032Y-30202593D01*
X48318262Y-30207520D01*
X48140778Y-30207520D01*
X48116008Y-30202593D01*
X47966708Y-30172896D01*
X47802736Y-30104976D01*
X47655166Y-30006373D01*
X47529667Y-29880874D01*
X47431064Y-29733304D01*
X47363144Y-29569332D01*
X47328520Y-29395261D01*
X47328520Y-29217779D01*
X47363144Y-29043708D01*
X47431064Y-28879736D01*
X47529667Y-28732166D01*
X47655166Y-28606667D01*
X47802736Y-28508064D01*
X47966708Y-28440144D01*
X48116008Y-28410447D01*
X48140778Y-28405520D01*
X48318262Y-28405520D01*
X48343032Y-28410447D01*
G37*
G36*
X105010520Y-28048520D02*
G01*
X103208520Y-28048520D01*
X103208520Y-26246520D01*
X105010520Y-26246520D01*
X105010520Y-28048520D01*
G37*
G36*
X101200520Y-28048520D02*
G01*
X99398520Y-28048520D01*
X99398520Y-26246520D01*
X101200520Y-26246520D01*
X101200520Y-28048520D01*
G37*
G36*
X72282532Y-25933947D02*
G01*
X72431832Y-25963644D01*
X72595804Y-26031564D01*
X72743374Y-26130167D01*
X72868873Y-26255666D01*
X72967476Y-26403236D01*
X73035396Y-26567208D01*
X73070020Y-26741279D01*
X73070020Y-26918761D01*
X73035396Y-27092832D01*
X72967476Y-27256804D01*
X72868873Y-27404374D01*
X72743374Y-27529873D01*
X72595804Y-27628476D01*
X72431832Y-27696396D01*
X72282532Y-27726093D01*
X72257762Y-27731020D01*
X72080278Y-27731020D01*
X72055508Y-27726093D01*
X71906208Y-27696396D01*
X71742236Y-27628476D01*
X71594666Y-27529873D01*
X71469167Y-27404374D01*
X71370564Y-27256804D01*
X71302644Y-27092832D01*
X71268020Y-26918761D01*
X71268020Y-26741279D01*
X71302644Y-26567208D01*
X71370564Y-26403236D01*
X71469167Y-26255666D01*
X71594666Y-26130167D01*
X71742236Y-26031564D01*
X71906208Y-25963644D01*
X72055508Y-25933947D01*
X72080278Y-25929020D01*
X72257762Y-25929020D01*
X72282532Y-25933947D01*
G37*
G36*
X78150020Y-27731020D02*
G01*
X76348020Y-27731020D01*
X76348020Y-25929020D01*
X78150020Y-25929020D01*
X78150020Y-27731020D01*
G37*
G36*
X74822532Y-25933947D02*
G01*
X74971832Y-25963644D01*
X75135804Y-26031564D01*
X75283374Y-26130167D01*
X75408873Y-26255666D01*
X75507476Y-26403236D01*
X75575396Y-26567208D01*
X75610020Y-26741279D01*
X75610020Y-26918761D01*
X75575396Y-27092832D01*
X75507476Y-27256804D01*
X75408873Y-27404374D01*
X75283374Y-27529873D01*
X75135804Y-27628476D01*
X74971832Y-27696396D01*
X74822532Y-27726093D01*
X74797762Y-27731020D01*
X74620278Y-27731020D01*
X74595508Y-27726093D01*
X74446208Y-27696396D01*
X74282236Y-27628476D01*
X74134666Y-27529873D01*
X74009167Y-27404374D01*
X73910564Y-27256804D01*
X73842644Y-27092832D01*
X73808020Y-26918761D01*
X73808020Y-26741279D01*
X73842644Y-26567208D01*
X73910564Y-26403236D01*
X74009167Y-26255666D01*
X74134666Y-26130167D01*
X74282236Y-26031564D01*
X74446208Y-25963644D01*
X74595508Y-25933947D01*
X74620278Y-25929020D01*
X74797762Y-25929020D01*
X74822532Y-25933947D01*
G37*
G36*
X69742532Y-25933947D02*
G01*
X69891832Y-25963644D01*
X70055804Y-26031564D01*
X70203374Y-26130167D01*
X70328873Y-26255666D01*
X70427476Y-26403236D01*
X70495396Y-26567208D01*
X70530020Y-26741279D01*
X70530020Y-26918761D01*
X70495396Y-27092832D01*
X70427476Y-27256804D01*
X70328873Y-27404374D01*
X70203374Y-27529873D01*
X70055804Y-27628476D01*
X69891832Y-27696396D01*
X69742532Y-27726093D01*
X69717762Y-27731020D01*
X69540278Y-27731020D01*
X69515508Y-27726093D01*
X69366208Y-27696396D01*
X69202236Y-27628476D01*
X69054666Y-27529873D01*
X68929167Y-27404374D01*
X68830564Y-27256804D01*
X68762644Y-27092832D01*
X68728020Y-26918761D01*
X68728020Y-26741279D01*
X68762644Y-26567208D01*
X68830564Y-26403236D01*
X68929167Y-26255666D01*
X69054666Y-26130167D01*
X69202236Y-26031564D01*
X69366208Y-25963644D01*
X69515508Y-25933947D01*
X69540278Y-25929020D01*
X69717762Y-25929020D01*
X69742532Y-25933947D01*
G37*
G36*
X40050020Y-27677520D02*
G01*
X38248020Y-27677520D01*
X38248020Y-25875520D01*
X40050020Y-25875520D01*
X40050020Y-27677520D01*
G37*
G36*
X48343032Y-25870447D02*
G01*
X48492332Y-25900144D01*
X48656304Y-25968064D01*
X48803874Y-26066667D01*
X48929373Y-26192166D01*
X49027976Y-26339736D01*
X49095896Y-26503708D01*
X49130520Y-26677779D01*
X49130520Y-26855261D01*
X49095896Y-27029332D01*
X49027976Y-27193304D01*
X48929373Y-27340874D01*
X48803874Y-27466373D01*
X48656304Y-27564976D01*
X48492332Y-27632896D01*
X48343032Y-27662593D01*
X48318262Y-27667520D01*
X48140778Y-27667520D01*
X48116008Y-27662593D01*
X47966708Y-27632896D01*
X47802736Y-27564976D01*
X47655166Y-27466373D01*
X47529667Y-27340874D01*
X47431064Y-27193304D01*
X47363144Y-27029332D01*
X47328520Y-26855261D01*
X47328520Y-26677779D01*
X47363144Y-26503708D01*
X47431064Y-26339736D01*
X47529667Y-26192166D01*
X47655166Y-26066667D01*
X47802736Y-25968064D01*
X47966708Y-25900144D01*
X48116008Y-25870447D01*
X48140778Y-25865520D01*
X48318262Y-25865520D01*
X48343032Y-25870447D01*
G37*
G36*
X63710032Y-25870447D02*
G01*
X63859332Y-25900144D01*
X64023304Y-25968064D01*
X64170874Y-26066667D01*
X64296373Y-26192166D01*
X64394976Y-26339736D01*
X64462896Y-26503708D01*
X64497520Y-26677779D01*
X64497520Y-26855261D01*
X64462896Y-27029332D01*
X64394976Y-27193304D01*
X64296373Y-27340874D01*
X64170874Y-27466373D01*
X64023304Y-27564976D01*
X63859332Y-27632896D01*
X63710032Y-27662593D01*
X63685262Y-27667520D01*
X63507778Y-27667520D01*
X63483008Y-27662593D01*
X63333708Y-27632896D01*
X63169736Y-27564976D01*
X63022166Y-27466373D01*
X62896667Y-27340874D01*
X62798064Y-27193304D01*
X62730144Y-27029332D01*
X62695520Y-26855261D01*
X62695520Y-26677779D01*
X62730144Y-26503708D01*
X62798064Y-26339736D01*
X62896667Y-26192166D01*
X63022166Y-26066667D01*
X63169736Y-25968064D01*
X63333708Y-25900144D01*
X63483008Y-25870447D01*
X63507778Y-25865520D01*
X63685262Y-25865520D01*
X63710032Y-25870447D01*
G37*
G36*
X39262532Y-23340447D02*
G01*
X39411832Y-23370144D01*
X39575804Y-23438064D01*
X39723374Y-23536667D01*
X39848873Y-23662166D01*
X39947476Y-23809736D01*
X40015396Y-23973708D01*
X40050020Y-24147779D01*
X40050020Y-24325261D01*
X40015396Y-24499332D01*
X39947476Y-24663304D01*
X39848873Y-24810874D01*
X39723374Y-24936373D01*
X39575804Y-25034976D01*
X39411832Y-25102896D01*
X39262532Y-25132593D01*
X39237762Y-25137520D01*
X39060278Y-25137520D01*
X39035508Y-25132593D01*
X38886208Y-25102896D01*
X38722236Y-25034976D01*
X38574666Y-24936373D01*
X38449167Y-24810874D01*
X38350564Y-24663304D01*
X38282644Y-24499332D01*
X38248020Y-24325261D01*
X38248020Y-24147779D01*
X38282644Y-23973708D01*
X38350564Y-23809736D01*
X38449167Y-23662166D01*
X38574666Y-23536667D01*
X38722236Y-23438064D01*
X38886208Y-23370144D01*
X39035508Y-23340447D01*
X39060278Y-23335520D01*
X39237762Y-23335520D01*
X39262532Y-23340447D01*
G37*
G36*
X64497520Y-25127520D02*
G01*
X62695520Y-25127520D01*
X62695520Y-23325520D01*
X64497520Y-23325520D01*
X64497520Y-25127520D01*
G37*
G36*
X49130520Y-25127520D02*
G01*
X47328520Y-25127520D01*
X47328520Y-23325520D01*
X49130520Y-23325520D01*
X49130520Y-25127520D01*
G37*
G36*
X32105214Y-18659380D02*
G01*
X32370957Y-18712239D01*
X32871607Y-18919615D01*
X33052081Y-19040204D01*
X33322180Y-19220678D01*
X33705362Y-19603860D01*
X33885836Y-19873959D01*
X34006425Y-20054433D01*
X34213801Y-20555083D01*
X34319520Y-21086570D01*
X34319520Y-21628470D01*
X34213801Y-22159957D01*
X34006425Y-22660607D01*
X33887673Y-22838331D01*
X33705362Y-23111180D01*
X33322180Y-23494362D01*
X33071043Y-23662166D01*
X32871607Y-23795425D01*
X32370957Y-24002801D01*
X32105214Y-24055660D01*
X31839471Y-24108520D01*
X31297569Y-24108520D01*
X31031827Y-24055661D01*
X30766083Y-24002801D01*
X30265433Y-23795425D01*
X30065997Y-23662166D01*
X29814860Y-23494362D01*
X29431678Y-23111180D01*
X29249367Y-22838331D01*
X29130615Y-22660607D01*
X28923239Y-22159957D01*
X28817520Y-21628470D01*
X28817520Y-21086570D01*
X28923239Y-20555083D01*
X29130615Y-20054433D01*
X29251204Y-19873959D01*
X29431678Y-19603860D01*
X29814860Y-19220678D01*
X30084959Y-19040204D01*
X30265433Y-18919615D01*
X30766083Y-18712239D01*
X31031826Y-18659380D01*
X31297569Y-18606520D01*
X31839471Y-18606520D01*
X32105214Y-18659380D01*
G37*
G36*
X117105214Y-18659380D02*
G01*
X117370957Y-18712239D01*
X117871607Y-18919615D01*
X118052081Y-19040204D01*
X118322180Y-19220678D01*
X118705362Y-19603860D01*
X118885836Y-19873959D01*
X119006425Y-20054433D01*
X119213801Y-20555083D01*
X119319520Y-21086570D01*
X119319520Y-21628470D01*
X119213801Y-22159957D01*
X119006425Y-22660607D01*
X118887673Y-22838331D01*
X118705362Y-23111180D01*
X118322180Y-23494362D01*
X118071043Y-23662166D01*
X117871607Y-23795425D01*
X117370957Y-24002801D01*
X117105214Y-24055660D01*
X116839471Y-24108520D01*
X116297569Y-24108520D01*
X116031827Y-24055661D01*
X115766083Y-24002801D01*
X115265433Y-23795425D01*
X115065997Y-23662166D01*
X114814860Y-23494362D01*
X114431678Y-23111180D01*
X114249367Y-22838331D01*
X114130615Y-22660607D01*
X113923239Y-22159957D01*
X113817520Y-21628470D01*
X113817520Y-21086570D01*
X113923239Y-20555083D01*
X114130615Y-20054433D01*
X114251204Y-19873959D01*
X114431678Y-19603860D01*
X114814860Y-19220678D01*
X115084959Y-19040204D01*
X115265433Y-18919615D01*
X115766083Y-18712239D01*
X116031826Y-18659380D01*
X116297569Y-18606520D01*
X116839471Y-18606520D01*
X117105214Y-18659380D01*
G37*
G36*
X83420520Y-23476520D02*
G01*
X81618520Y-23476520D01*
X81618520Y-21674520D01*
X83420520Y-21674520D01*
X83420520Y-23476520D01*
G37*
G36*
X100413032Y-21679447D02*
G01*
X100562332Y-21709144D01*
X100726304Y-21777064D01*
X100873874Y-21875667D01*
X100999373Y-22001166D01*
X101097976Y-22148736D01*
X101165896Y-22312708D01*
X101200520Y-22486779D01*
X101200520Y-22664261D01*
X101165896Y-22838332D01*
X101097976Y-23002304D01*
X100999373Y-23149874D01*
X100873874Y-23275373D01*
X100726304Y-23373976D01*
X100562332Y-23441896D01*
X100413032Y-23471593D01*
X100388262Y-23476520D01*
X100210778Y-23476520D01*
X100186008Y-23471593D01*
X100036708Y-23441896D01*
X99872736Y-23373976D01*
X99725166Y-23275373D01*
X99599667Y-23149874D01*
X99501064Y-23002304D01*
X99433144Y-22838332D01*
X99398520Y-22664261D01*
X99398520Y-22486779D01*
X99433144Y-22312708D01*
X99501064Y-22148736D01*
X99599667Y-22001166D01*
X99725166Y-21875667D01*
X99872736Y-21777064D01*
X100036708Y-21709144D01*
X100186008Y-21679447D01*
X100210778Y-21674520D01*
X100388262Y-21674520D01*
X100413032Y-21679447D01*
G37*
G36*
X97873032Y-21679447D02*
G01*
X98022332Y-21709144D01*
X98186304Y-21777064D01*
X98333874Y-21875667D01*
X98459373Y-22001166D01*
X98557976Y-22148736D01*
X98625896Y-22312708D01*
X98660520Y-22486779D01*
X98660520Y-22664261D01*
X98625896Y-22838332D01*
X98557976Y-23002304D01*
X98459373Y-23149874D01*
X98333874Y-23275373D01*
X98186304Y-23373976D01*
X98022332Y-23441896D01*
X97873032Y-23471593D01*
X97848262Y-23476520D01*
X97670778Y-23476520D01*
X97646008Y-23471593D01*
X97496708Y-23441896D01*
X97332736Y-23373976D01*
X97185166Y-23275373D01*
X97059667Y-23149874D01*
X96961064Y-23002304D01*
X96893144Y-22838332D01*
X96858520Y-22664261D01*
X96858520Y-22486779D01*
X96893144Y-22312708D01*
X96961064Y-22148736D01*
X97059667Y-22001166D01*
X97185166Y-21875667D01*
X97332736Y-21777064D01*
X97496708Y-21709144D01*
X97646008Y-21679447D01*
X97670778Y-21674520D01*
X97848262Y-21674520D01*
X97873032Y-21679447D01*
G37*
G36*
X87713032Y-21679447D02*
G01*
X87862332Y-21709144D01*
X88026304Y-21777064D01*
X88173874Y-21875667D01*
X88299373Y-22001166D01*
X88397976Y-22148736D01*
X88465896Y-22312708D01*
X88500520Y-22486779D01*
X88500520Y-22664261D01*
X88465896Y-22838332D01*
X88397976Y-23002304D01*
X88299373Y-23149874D01*
X88173874Y-23275373D01*
X88026304Y-23373976D01*
X87862332Y-23441896D01*
X87713032Y-23471593D01*
X87688262Y-23476520D01*
X87510778Y-23476520D01*
X87486008Y-23471593D01*
X87336708Y-23441896D01*
X87172736Y-23373976D01*
X87025166Y-23275373D01*
X86899667Y-23149874D01*
X86801064Y-23002304D01*
X86733144Y-22838332D01*
X86698520Y-22664261D01*
X86698520Y-22486779D01*
X86733144Y-22312708D01*
X86801064Y-22148736D01*
X86899667Y-22001166D01*
X87025166Y-21875667D01*
X87172736Y-21777064D01*
X87336708Y-21709144D01*
X87486008Y-21679447D01*
X87510778Y-21674520D01*
X87688262Y-21674520D01*
X87713032Y-21679447D01*
G37*
G36*
X85173032Y-21679447D02*
G01*
X85322332Y-21709144D01*
X85486304Y-21777064D01*
X85633874Y-21875667D01*
X85759373Y-22001166D01*
X85857976Y-22148736D01*
X85925896Y-22312708D01*
X85960520Y-22486779D01*
X85960520Y-22664261D01*
X85925896Y-22838332D01*
X85857976Y-23002304D01*
X85759373Y-23149874D01*
X85633874Y-23275373D01*
X85486304Y-23373976D01*
X85322332Y-23441896D01*
X85173032Y-23471593D01*
X85148262Y-23476520D01*
X84970778Y-23476520D01*
X84946008Y-23471593D01*
X84796708Y-23441896D01*
X84632736Y-23373976D01*
X84485166Y-23275373D01*
X84359667Y-23149874D01*
X84261064Y-23002304D01*
X84193144Y-22838332D01*
X84158520Y-22664261D01*
X84158520Y-22486779D01*
X84193144Y-22312708D01*
X84261064Y-22148736D01*
X84359667Y-22001166D01*
X84485166Y-21875667D01*
X84632736Y-21777064D01*
X84796708Y-21709144D01*
X84946008Y-21679447D01*
X84970778Y-21674520D01*
X85148262Y-21674520D01*
X85173032Y-21679447D01*
G37*
G36*
X90253032Y-21679447D02*
G01*
X90402332Y-21709144D01*
X90566304Y-21777064D01*
X90713874Y-21875667D01*
X90839373Y-22001166D01*
X90937976Y-22148736D01*
X91005896Y-22312708D01*
X91040520Y-22486779D01*
X91040520Y-22664261D01*
X91005896Y-22838332D01*
X90937976Y-23002304D01*
X90839373Y-23149874D01*
X90713874Y-23275373D01*
X90566304Y-23373976D01*
X90402332Y-23441896D01*
X90253032Y-23471593D01*
X90228262Y-23476520D01*
X90050778Y-23476520D01*
X90026008Y-23471593D01*
X89876708Y-23441896D01*
X89712736Y-23373976D01*
X89565166Y-23275373D01*
X89439667Y-23149874D01*
X89341064Y-23002304D01*
X89273144Y-22838332D01*
X89238520Y-22664261D01*
X89238520Y-22486779D01*
X89273144Y-22312708D01*
X89341064Y-22148736D01*
X89439667Y-22001166D01*
X89565166Y-21875667D01*
X89712736Y-21777064D01*
X89876708Y-21709144D01*
X90026008Y-21679447D01*
X90050778Y-21674520D01*
X90228262Y-21674520D01*
X90253032Y-21679447D01*
G37*
G36*
X92793032Y-21679447D02*
G01*
X92942332Y-21709144D01*
X93106304Y-21777064D01*
X93253874Y-21875667D01*
X93379373Y-22001166D01*
X93477976Y-22148736D01*
X93545896Y-22312708D01*
X93580520Y-22486779D01*
X93580520Y-22664261D01*
X93545896Y-22838332D01*
X93477976Y-23002304D01*
X93379373Y-23149874D01*
X93253874Y-23275373D01*
X93106304Y-23373976D01*
X92942332Y-23441896D01*
X92793032Y-23471593D01*
X92768262Y-23476520D01*
X92590778Y-23476520D01*
X92566008Y-23471593D01*
X92416708Y-23441896D01*
X92252736Y-23373976D01*
X92105166Y-23275373D01*
X91979667Y-23149874D01*
X91881064Y-23002304D01*
X91813144Y-22838332D01*
X91778520Y-22664261D01*
X91778520Y-22486779D01*
X91813144Y-22312708D01*
X91881064Y-22148736D01*
X91979667Y-22001166D01*
X92105166Y-21875667D01*
X92252736Y-21777064D01*
X92416708Y-21709144D01*
X92566008Y-21679447D01*
X92590778Y-21674520D01*
X92768262Y-21674520D01*
X92793032Y-21679447D01*
G37*
G36*
X95333032Y-21679447D02*
G01*
X95482332Y-21709144D01*
X95646304Y-21777064D01*
X95793874Y-21875667D01*
X95919373Y-22001166D01*
X96017976Y-22148736D01*
X96085896Y-22312708D01*
X96120520Y-22486779D01*
X96120520Y-22664261D01*
X96085896Y-22838332D01*
X96017976Y-23002304D01*
X95919373Y-23149874D01*
X95793874Y-23275373D01*
X95646304Y-23373976D01*
X95482332Y-23441896D01*
X95333032Y-23471593D01*
X95308262Y-23476520D01*
X95130778Y-23476520D01*
X95106008Y-23471593D01*
X94956708Y-23441896D01*
X94792736Y-23373976D01*
X94645166Y-23275373D01*
X94519667Y-23149874D01*
X94421064Y-23002304D01*
X94353144Y-22838332D01*
X94318520Y-22664261D01*
X94318520Y-22486779D01*
X94353144Y-22312708D01*
X94421064Y-22148736D01*
X94519667Y-22001166D01*
X94645166Y-21875667D01*
X94792736Y-21777064D01*
X94956708Y-21709144D01*
X95106008Y-21679447D01*
X95130778Y-21674520D01*
X95308262Y-21674520D01*
X95333032Y-21679447D01*
G37*
M02*
