G04 #@! TF.GenerationSoftware,KiCad,Pcbnew,(5.1.5)-3*
G04 #@! TF.CreationDate,2021-09-22T00:57:08-07:00*
G04 #@! TF.ProjectId,control_board,636f6e74-726f-46c5-9f62-6f6172642e6b,rev?*
G04 #@! TF.SameCoordinates,Original*
G04 #@! TF.FileFunction,Copper,L2,Inr*
G04 #@! TF.FilePolarity,Positive*
%FSLAX46Y46*%
G04 Gerber Fmt 4.6, Leading zero omitted, Abs format (unit mm)*
G04 Created by KiCad (PCBNEW (5.1.5)-3) date 2021-09-22 00:57:08*
%MOMM*%
%LPD*%
G04 APERTURE LIST*
%ADD10C,5.400000*%
%ADD11O,1.700000X1.700000*%
%ADD12R,1.700000X1.700000*%
%ADD13C,0.200000*%
%ADD14C,1.560000*%
%ADD15C,0.445000*%
%ADD16C,0.260000*%
%ADD17C,0.800000*%
%ADD18C,0.254000*%
G04 APERTURE END LIST*
D10*
X31568520Y-61357520D03*
X31568520Y-21357520D03*
X116568520Y-61357520D03*
X116568520Y-21357520D03*
D11*
X100299520Y-44927520D03*
X100299520Y-42387520D03*
X100299520Y-39847520D03*
X100299520Y-37307520D03*
X100299520Y-34767520D03*
X100299520Y-32227520D03*
X100299520Y-29687520D03*
D12*
X100299520Y-27147520D03*
D13*
X55553520Y-52742020D03*
X56553520Y-52742020D03*
X57553520Y-52742020D03*
X55553520Y-53742020D03*
X56553520Y-53742020D03*
X57553520Y-53742020D03*
X55553520Y-54742020D03*
X56553520Y-54742020D03*
X57553520Y-54742020D03*
D14*
X44408520Y-49004520D03*
X44408520Y-53804520D03*
D15*
X42258520Y-55154520D03*
D14*
X40108520Y-53804520D03*
X40108520Y-49004520D03*
D16*
X42258520Y-47654520D03*
D11*
X39149020Y-24236520D03*
D12*
X39149020Y-26776520D03*
D11*
X63596520Y-29306520D03*
X63596520Y-26766520D03*
D12*
X63596520Y-24226520D03*
D11*
X48229520Y-29306520D03*
X48229520Y-26766520D03*
D12*
X48229520Y-24226520D03*
D11*
X104109520Y-44927520D03*
X104109520Y-42387520D03*
X104109520Y-39847520D03*
X104109520Y-37307520D03*
X104109520Y-34767520D03*
X104109520Y-32227520D03*
X104109520Y-29687520D03*
D12*
X104109520Y-27147520D03*
D11*
X100299520Y-22575520D03*
X97759520Y-22575520D03*
X95219520Y-22575520D03*
X92679520Y-22575520D03*
X90139520Y-22575520D03*
X87599520Y-22575520D03*
X85059520Y-22575520D03*
D12*
X82519520Y-22575520D03*
D11*
X89822020Y-56357520D03*
X87282020Y-56357520D03*
X84742020Y-56357520D03*
X82202020Y-56357520D03*
X79662020Y-56357520D03*
X77122020Y-56357520D03*
D12*
X74582020Y-56357520D03*
D11*
X111348520Y-56357520D03*
X108808520Y-56357520D03*
X106268520Y-56357520D03*
X103728520Y-56357520D03*
X101188520Y-56357520D03*
X98648520Y-56357520D03*
X96108520Y-56357520D03*
D12*
X93568520Y-56357520D03*
D11*
X69629020Y-26830020D03*
X72169020Y-26830020D03*
X74709020Y-26830020D03*
D12*
X77249020Y-26830020D03*
D17*
X58303520Y-57478020D03*
X60144660Y-54991000D03*
X67279520Y-45435520D03*
X70180520Y-40589520D03*
X73248520Y-33243520D03*
X89456020Y-33068020D03*
X83851520Y-33178520D03*
X58008520Y-44292520D03*
X60739020Y-26766520D03*
X76420980Y-37625020D03*
X76423520Y-32291020D03*
X58008520Y-43276520D03*
X59024520Y-43276520D03*
X59024520Y-44292520D03*
X77249020Y-24480520D03*
X71343520Y-33243520D03*
X71283020Y-54513020D03*
X45372020Y-26893520D03*
X62946520Y-58404520D03*
X82075020Y-40292020D03*
X58580020Y-50134520D03*
X62580520Y-41371520D03*
X60485020Y-52992020D03*
X62898020Y-42324020D03*
X62395530Y-51907010D03*
X63215520Y-43530520D03*
X63406020Y-53246020D03*
X66263520Y-41904920D03*
X67208020Y-43086020D03*
X68417440Y-43906440D03*
X79852520Y-49245520D03*
X78709520Y-48737520D03*
X77566520Y-48356520D03*
X76360020Y-48039020D03*
X76360020Y-48039020D03*
X75407520Y-42387520D03*
X76423520Y-42387520D03*
X77566520Y-42387520D03*
X78709520Y-42387520D03*
X74391520Y-36736020D03*
X75280520Y-34386520D03*
X67437000Y-40640000D03*
X103982520Y-51658520D03*
X67673220Y-42146220D03*
X63596520Y-31592520D03*
X85313520Y-32862520D03*
D18*
G36*
X116824195Y-18022520D02*
G01*
X116240051Y-18022520D01*
X115595736Y-18150682D01*
X114988805Y-18402081D01*
X114442581Y-18767056D01*
X113978056Y-19231581D01*
X113613081Y-19777805D01*
X113361682Y-20384736D01*
X113233520Y-21029051D01*
X113233520Y-21685989D01*
X113361682Y-22330304D01*
X113613081Y-22937235D01*
X113978056Y-23483459D01*
X114442581Y-23947984D01*
X114988805Y-24312959D01*
X115595736Y-24564358D01*
X116240051Y-24692520D01*
X116896989Y-24692520D01*
X117541304Y-24564358D01*
X118148235Y-24312959D01*
X118694459Y-23947984D01*
X119158984Y-23483459D01*
X119523959Y-22937235D01*
X119775358Y-22330304D01*
X119903520Y-21685989D01*
X119903520Y-21129702D01*
X119926001Y-21343594D01*
X119926000Y-61308721D01*
X119903520Y-61537991D01*
X119903520Y-61029051D01*
X119775358Y-60384736D01*
X119523959Y-59777805D01*
X119158984Y-59231581D01*
X118694459Y-58767056D01*
X118148235Y-58402081D01*
X117541304Y-58150682D01*
X116896989Y-58022520D01*
X116240051Y-58022520D01*
X115595736Y-58150682D01*
X114988805Y-58402081D01*
X114442581Y-58767056D01*
X113978056Y-59231581D01*
X113613081Y-59777805D01*
X113361682Y-60384736D01*
X113233520Y-61029051D01*
X113233520Y-61685989D01*
X113361682Y-62330304D01*
X113613081Y-62937235D01*
X113978056Y-63483459D01*
X114442581Y-63947984D01*
X114988805Y-64312959D01*
X115595736Y-64564358D01*
X116183646Y-64681300D01*
X31591539Y-64744476D01*
X30911374Y-64677786D01*
X30287930Y-64489557D01*
X29712927Y-64183823D01*
X29208252Y-63772221D01*
X28793138Y-63270433D01*
X28483396Y-62697577D01*
X28393436Y-62406964D01*
X28613081Y-62937235D01*
X28978056Y-63483459D01*
X29442581Y-63947984D01*
X29988805Y-64312959D01*
X30595736Y-64564358D01*
X31240051Y-64692520D01*
X31896989Y-64692520D01*
X32541304Y-64564358D01*
X33148235Y-64312959D01*
X33694459Y-63947984D01*
X34158984Y-63483459D01*
X34523959Y-62937235D01*
X34775358Y-62330304D01*
X34903520Y-61685989D01*
X34903520Y-61029051D01*
X34775358Y-60384736D01*
X34523959Y-59777805D01*
X34158984Y-59231581D01*
X33694459Y-58767056D01*
X33148235Y-58402081D01*
X32541304Y-58150682D01*
X31896989Y-58022520D01*
X31240051Y-58022520D01*
X30595736Y-58150682D01*
X29988805Y-58402081D01*
X29442581Y-58767056D01*
X28978056Y-59231581D01*
X28613081Y-59777805D01*
X28361682Y-60384736D01*
X28233520Y-61029051D01*
X28233520Y-61530308D01*
X28219500Y-61396917D01*
X28219500Y-57376081D01*
X57268520Y-57376081D01*
X57268520Y-57579959D01*
X57308294Y-57779918D01*
X57386315Y-57968276D01*
X57499583Y-58137794D01*
X57643746Y-58281957D01*
X57813264Y-58395225D01*
X58001622Y-58473246D01*
X58201581Y-58513020D01*
X58405459Y-58513020D01*
X58605418Y-58473246D01*
X58793776Y-58395225D01*
X58963294Y-58281957D01*
X59107457Y-58137794D01*
X59220725Y-57968276D01*
X59298746Y-57779918D01*
X59338520Y-57579959D01*
X59338520Y-57376081D01*
X59298746Y-57176122D01*
X59220725Y-56987764D01*
X59107457Y-56818246D01*
X58963294Y-56674083D01*
X58793776Y-56560815D01*
X58605418Y-56482794D01*
X58405459Y-56443020D01*
X58201581Y-56443020D01*
X58001622Y-56482794D01*
X57813264Y-56560815D01*
X57643746Y-56674083D01*
X57499583Y-56818246D01*
X57386315Y-56987764D01*
X57308294Y-57176122D01*
X57268520Y-57376081D01*
X28219500Y-57376081D01*
X28219500Y-53665155D01*
X38693520Y-53665155D01*
X38693520Y-53943885D01*
X38747897Y-54217260D01*
X38854563Y-54474774D01*
X39009417Y-54706530D01*
X39206510Y-54903623D01*
X39438266Y-55058477D01*
X39695780Y-55165143D01*
X39969155Y-55219520D01*
X40247885Y-55219520D01*
X40521260Y-55165143D01*
X40750800Y-55070064D01*
X41401020Y-55070064D01*
X41401020Y-55238976D01*
X41433973Y-55404644D01*
X41498613Y-55560699D01*
X41592456Y-55701144D01*
X41711896Y-55820584D01*
X41852341Y-55914427D01*
X42008396Y-55979067D01*
X42174064Y-56012020D01*
X42342976Y-56012020D01*
X42508644Y-55979067D01*
X42664699Y-55914427D01*
X42805144Y-55820584D01*
X42924584Y-55701144D01*
X43018427Y-55560699D01*
X43083067Y-55404644D01*
X43116020Y-55238976D01*
X43116020Y-55070064D01*
X43083067Y-54904396D01*
X43018427Y-54748341D01*
X42924584Y-54607896D01*
X42805144Y-54488456D01*
X42664699Y-54394613D01*
X42508644Y-54329973D01*
X42342976Y-54297020D01*
X42174064Y-54297020D01*
X42008396Y-54329973D01*
X41852341Y-54394613D01*
X41711896Y-54488456D01*
X41592456Y-54607896D01*
X41498613Y-54748341D01*
X41433973Y-54904396D01*
X41401020Y-55070064D01*
X40750800Y-55070064D01*
X40778774Y-55058477D01*
X41010530Y-54903623D01*
X41207623Y-54706530D01*
X41362477Y-54474774D01*
X41469143Y-54217260D01*
X41523520Y-53943885D01*
X41523520Y-53665155D01*
X42993520Y-53665155D01*
X42993520Y-53943885D01*
X43047897Y-54217260D01*
X43154563Y-54474774D01*
X43309417Y-54706530D01*
X43506510Y-54903623D01*
X43738266Y-55058477D01*
X43995780Y-55165143D01*
X44269155Y-55219520D01*
X44547885Y-55219520D01*
X44821260Y-55165143D01*
X45078774Y-55058477D01*
X45310530Y-54903623D01*
X45507623Y-54706530D01*
X45662477Y-54474774D01*
X45769143Y-54217260D01*
X45823520Y-53943885D01*
X45823520Y-53665155D01*
X45769143Y-53391780D01*
X45662477Y-53134266D01*
X45507623Y-52902510D01*
X45310530Y-52705417D01*
X45256970Y-52669629D01*
X54818520Y-52669629D01*
X54818520Y-52814411D01*
X54846766Y-52956411D01*
X54902172Y-53090173D01*
X54982608Y-53210555D01*
X55014073Y-53242020D01*
X54982608Y-53273485D01*
X54902172Y-53393867D01*
X54846766Y-53527629D01*
X54818520Y-53669629D01*
X54818520Y-53814411D01*
X54846766Y-53956411D01*
X54902172Y-54090173D01*
X54982608Y-54210555D01*
X55014073Y-54242020D01*
X54982608Y-54273485D01*
X54902172Y-54393867D01*
X54846766Y-54527629D01*
X54818520Y-54669629D01*
X54818520Y-54814411D01*
X54846766Y-54956411D01*
X54902172Y-55090173D01*
X54982608Y-55210555D01*
X55084985Y-55312932D01*
X55205367Y-55393368D01*
X55339129Y-55448774D01*
X55481129Y-55477020D01*
X55625911Y-55477020D01*
X55767911Y-55448774D01*
X55901673Y-55393368D01*
X56022055Y-55312932D01*
X56053520Y-55281467D01*
X56084985Y-55312932D01*
X56205367Y-55393368D01*
X56339129Y-55448774D01*
X56481129Y-55477020D01*
X56625911Y-55477020D01*
X56767911Y-55448774D01*
X56901673Y-55393368D01*
X57022055Y-55312932D01*
X57053520Y-55281467D01*
X57084985Y-55312932D01*
X57205367Y-55393368D01*
X57339129Y-55448774D01*
X57481129Y-55477020D01*
X57625911Y-55477020D01*
X57767911Y-55448774D01*
X57901673Y-55393368D01*
X58022055Y-55312932D01*
X58124432Y-55210555D01*
X58204868Y-55090173D01*
X58260274Y-54956411D01*
X58273670Y-54889061D01*
X59109660Y-54889061D01*
X59109660Y-55092939D01*
X59149434Y-55292898D01*
X59227455Y-55481256D01*
X59340723Y-55650774D01*
X59484886Y-55794937D01*
X59654404Y-55908205D01*
X59842762Y-55986226D01*
X60042721Y-56026000D01*
X60246599Y-56026000D01*
X60446558Y-55986226D01*
X60634916Y-55908205D01*
X60804434Y-55794937D01*
X60948597Y-55650774D01*
X61061865Y-55481256D01*
X61139886Y-55292898D01*
X61179660Y-55092939D01*
X61179660Y-54889061D01*
X61139886Y-54689102D01*
X61061865Y-54500744D01*
X61001955Y-54411081D01*
X70248020Y-54411081D01*
X70248020Y-54614959D01*
X70287794Y-54814918D01*
X70365815Y-55003276D01*
X70479083Y-55172794D01*
X70623246Y-55316957D01*
X70792764Y-55430225D01*
X70981122Y-55508246D01*
X71181081Y-55548020D01*
X71384959Y-55548020D01*
X71584918Y-55508246D01*
X71586670Y-55507520D01*
X73093948Y-55507520D01*
X73093948Y-57207520D01*
X73106208Y-57332002D01*
X73142518Y-57451700D01*
X73201483Y-57562014D01*
X73280835Y-57658705D01*
X73377526Y-57738057D01*
X73487840Y-57797022D01*
X73607538Y-57833332D01*
X73732020Y-57845592D01*
X75432020Y-57845592D01*
X75556502Y-57833332D01*
X75676200Y-57797022D01*
X75786514Y-57738057D01*
X75883205Y-57658705D01*
X75962557Y-57562014D01*
X76021522Y-57451700D01*
X76043533Y-57379140D01*
X76175388Y-57510995D01*
X76418609Y-57673510D01*
X76688862Y-57785452D01*
X76975760Y-57842520D01*
X77268280Y-57842520D01*
X77555178Y-57785452D01*
X77825431Y-57673510D01*
X78068652Y-57510995D01*
X78275495Y-57304152D01*
X78392020Y-57129760D01*
X78508545Y-57304152D01*
X78715388Y-57510995D01*
X78958609Y-57673510D01*
X79228862Y-57785452D01*
X79515760Y-57842520D01*
X79808280Y-57842520D01*
X80095178Y-57785452D01*
X80365431Y-57673510D01*
X80608652Y-57510995D01*
X80815495Y-57304152D01*
X80932020Y-57129760D01*
X81048545Y-57304152D01*
X81255388Y-57510995D01*
X81498609Y-57673510D01*
X81768862Y-57785452D01*
X82055760Y-57842520D01*
X82348280Y-57842520D01*
X82635178Y-57785452D01*
X82905431Y-57673510D01*
X83148652Y-57510995D01*
X83355495Y-57304152D01*
X83472020Y-57129760D01*
X83588545Y-57304152D01*
X83795388Y-57510995D01*
X84038609Y-57673510D01*
X84308862Y-57785452D01*
X84595760Y-57842520D01*
X84888280Y-57842520D01*
X85175178Y-57785452D01*
X85445431Y-57673510D01*
X85688652Y-57510995D01*
X85895495Y-57304152D01*
X86012020Y-57129760D01*
X86128545Y-57304152D01*
X86335388Y-57510995D01*
X86578609Y-57673510D01*
X86848862Y-57785452D01*
X87135760Y-57842520D01*
X87428280Y-57842520D01*
X87715178Y-57785452D01*
X87985431Y-57673510D01*
X88228652Y-57510995D01*
X88435495Y-57304152D01*
X88552020Y-57129760D01*
X88668545Y-57304152D01*
X88875388Y-57510995D01*
X89118609Y-57673510D01*
X89388862Y-57785452D01*
X89675760Y-57842520D01*
X89968280Y-57842520D01*
X90255178Y-57785452D01*
X90525431Y-57673510D01*
X90768652Y-57510995D01*
X90975495Y-57304152D01*
X91138010Y-57060931D01*
X91249952Y-56790678D01*
X91307020Y-56503780D01*
X91307020Y-56211260D01*
X91249952Y-55924362D01*
X91138010Y-55654109D01*
X91040063Y-55507520D01*
X92080448Y-55507520D01*
X92080448Y-57207520D01*
X92092708Y-57332002D01*
X92129018Y-57451700D01*
X92187983Y-57562014D01*
X92267335Y-57658705D01*
X92364026Y-57738057D01*
X92474340Y-57797022D01*
X92594038Y-57833332D01*
X92718520Y-57845592D01*
X94418520Y-57845592D01*
X94543002Y-57833332D01*
X94662700Y-57797022D01*
X94773014Y-57738057D01*
X94869705Y-57658705D01*
X94949057Y-57562014D01*
X95008022Y-57451700D01*
X95030033Y-57379140D01*
X95161888Y-57510995D01*
X95405109Y-57673510D01*
X95675362Y-57785452D01*
X95962260Y-57842520D01*
X96254780Y-57842520D01*
X96541678Y-57785452D01*
X96811931Y-57673510D01*
X97055152Y-57510995D01*
X97261995Y-57304152D01*
X97378520Y-57129760D01*
X97495045Y-57304152D01*
X97701888Y-57510995D01*
X97945109Y-57673510D01*
X98215362Y-57785452D01*
X98502260Y-57842520D01*
X98794780Y-57842520D01*
X99081678Y-57785452D01*
X99351931Y-57673510D01*
X99595152Y-57510995D01*
X99801995Y-57304152D01*
X99918520Y-57129760D01*
X100035045Y-57304152D01*
X100241888Y-57510995D01*
X100485109Y-57673510D01*
X100755362Y-57785452D01*
X101042260Y-57842520D01*
X101334780Y-57842520D01*
X101621678Y-57785452D01*
X101891931Y-57673510D01*
X102135152Y-57510995D01*
X102341995Y-57304152D01*
X102458520Y-57129760D01*
X102575045Y-57304152D01*
X102781888Y-57510995D01*
X103025109Y-57673510D01*
X103295362Y-57785452D01*
X103582260Y-57842520D01*
X103874780Y-57842520D01*
X104161678Y-57785452D01*
X104431931Y-57673510D01*
X104675152Y-57510995D01*
X104881995Y-57304152D01*
X104998520Y-57129760D01*
X105115045Y-57304152D01*
X105321888Y-57510995D01*
X105565109Y-57673510D01*
X105835362Y-57785452D01*
X106122260Y-57842520D01*
X106414780Y-57842520D01*
X106701678Y-57785452D01*
X106971931Y-57673510D01*
X107215152Y-57510995D01*
X107421995Y-57304152D01*
X107538520Y-57129760D01*
X107655045Y-57304152D01*
X107861888Y-57510995D01*
X108105109Y-57673510D01*
X108375362Y-57785452D01*
X108662260Y-57842520D01*
X108954780Y-57842520D01*
X109241678Y-57785452D01*
X109511931Y-57673510D01*
X109755152Y-57510995D01*
X109961995Y-57304152D01*
X110078520Y-57129760D01*
X110195045Y-57304152D01*
X110401888Y-57510995D01*
X110645109Y-57673510D01*
X110915362Y-57785452D01*
X111202260Y-57842520D01*
X111494780Y-57842520D01*
X111781678Y-57785452D01*
X112051931Y-57673510D01*
X112295152Y-57510995D01*
X112501995Y-57304152D01*
X112664510Y-57060931D01*
X112776452Y-56790678D01*
X112833520Y-56503780D01*
X112833520Y-56211260D01*
X112776452Y-55924362D01*
X112664510Y-55654109D01*
X112501995Y-55410888D01*
X112295152Y-55204045D01*
X112051931Y-55041530D01*
X111781678Y-54929588D01*
X111494780Y-54872520D01*
X111202260Y-54872520D01*
X110915362Y-54929588D01*
X110645109Y-55041530D01*
X110401888Y-55204045D01*
X110195045Y-55410888D01*
X110078520Y-55585280D01*
X109961995Y-55410888D01*
X109755152Y-55204045D01*
X109511931Y-55041530D01*
X109241678Y-54929588D01*
X108954780Y-54872520D01*
X108662260Y-54872520D01*
X108375362Y-54929588D01*
X108105109Y-55041530D01*
X107861888Y-55204045D01*
X107655045Y-55410888D01*
X107538520Y-55585280D01*
X107421995Y-55410888D01*
X107215152Y-55204045D01*
X106971931Y-55041530D01*
X106701678Y-54929588D01*
X106414780Y-54872520D01*
X106122260Y-54872520D01*
X105835362Y-54929588D01*
X105565109Y-55041530D01*
X105321888Y-55204045D01*
X105115045Y-55410888D01*
X104998520Y-55585280D01*
X104881995Y-55410888D01*
X104675152Y-55204045D01*
X104431931Y-55041530D01*
X104161678Y-54929588D01*
X103874780Y-54872520D01*
X103582260Y-54872520D01*
X103295362Y-54929588D01*
X103025109Y-55041530D01*
X102781888Y-55204045D01*
X102575045Y-55410888D01*
X102458520Y-55585280D01*
X102341995Y-55410888D01*
X102135152Y-55204045D01*
X101891931Y-55041530D01*
X101621678Y-54929588D01*
X101334780Y-54872520D01*
X101042260Y-54872520D01*
X100755362Y-54929588D01*
X100485109Y-55041530D01*
X100241888Y-55204045D01*
X100035045Y-55410888D01*
X99918520Y-55585280D01*
X99801995Y-55410888D01*
X99595152Y-55204045D01*
X99351931Y-55041530D01*
X99081678Y-54929588D01*
X98794780Y-54872520D01*
X98502260Y-54872520D01*
X98215362Y-54929588D01*
X97945109Y-55041530D01*
X97701888Y-55204045D01*
X97495045Y-55410888D01*
X97378520Y-55585280D01*
X97261995Y-55410888D01*
X97055152Y-55204045D01*
X96811931Y-55041530D01*
X96541678Y-54929588D01*
X96254780Y-54872520D01*
X95962260Y-54872520D01*
X95675362Y-54929588D01*
X95405109Y-55041530D01*
X95161888Y-55204045D01*
X95030033Y-55335900D01*
X95008022Y-55263340D01*
X94949057Y-55153026D01*
X94869705Y-55056335D01*
X94773014Y-54976983D01*
X94662700Y-54918018D01*
X94543002Y-54881708D01*
X94418520Y-54869448D01*
X92718520Y-54869448D01*
X92594038Y-54881708D01*
X92474340Y-54918018D01*
X92364026Y-54976983D01*
X92267335Y-55056335D01*
X92187983Y-55153026D01*
X92129018Y-55263340D01*
X92092708Y-55383038D01*
X92080448Y-55507520D01*
X91040063Y-55507520D01*
X90975495Y-55410888D01*
X90768652Y-55204045D01*
X90525431Y-55041530D01*
X90255178Y-54929588D01*
X89968280Y-54872520D01*
X89675760Y-54872520D01*
X89388862Y-54929588D01*
X89118609Y-55041530D01*
X88875388Y-55204045D01*
X88668545Y-55410888D01*
X88552020Y-55585280D01*
X88435495Y-55410888D01*
X88228652Y-55204045D01*
X87985431Y-55041530D01*
X87715178Y-54929588D01*
X87428280Y-54872520D01*
X87135760Y-54872520D01*
X86848862Y-54929588D01*
X86578609Y-55041530D01*
X86335388Y-55204045D01*
X86128545Y-55410888D01*
X86012020Y-55585280D01*
X85895495Y-55410888D01*
X85688652Y-55204045D01*
X85445431Y-55041530D01*
X85175178Y-54929588D01*
X84888280Y-54872520D01*
X84595760Y-54872520D01*
X84308862Y-54929588D01*
X84038609Y-55041530D01*
X83795388Y-55204045D01*
X83588545Y-55410888D01*
X83472020Y-55585280D01*
X83355495Y-55410888D01*
X83148652Y-55204045D01*
X82905431Y-55041530D01*
X82635178Y-54929588D01*
X82348280Y-54872520D01*
X82055760Y-54872520D01*
X81768862Y-54929588D01*
X81498609Y-55041530D01*
X81255388Y-55204045D01*
X81048545Y-55410888D01*
X80932020Y-55585280D01*
X80815495Y-55410888D01*
X80608652Y-55204045D01*
X80365431Y-55041530D01*
X80095178Y-54929588D01*
X79808280Y-54872520D01*
X79515760Y-54872520D01*
X79228862Y-54929588D01*
X78958609Y-55041530D01*
X78715388Y-55204045D01*
X78508545Y-55410888D01*
X78392020Y-55585280D01*
X78275495Y-55410888D01*
X78068652Y-55204045D01*
X77825431Y-55041530D01*
X77555178Y-54929588D01*
X77268280Y-54872520D01*
X76975760Y-54872520D01*
X76688862Y-54929588D01*
X76418609Y-55041530D01*
X76175388Y-55204045D01*
X76043533Y-55335900D01*
X76021522Y-55263340D01*
X75962557Y-55153026D01*
X75883205Y-55056335D01*
X75786514Y-54976983D01*
X75676200Y-54918018D01*
X75556502Y-54881708D01*
X75432020Y-54869448D01*
X73732020Y-54869448D01*
X73607538Y-54881708D01*
X73487840Y-54918018D01*
X73377526Y-54976983D01*
X73280835Y-55056335D01*
X73201483Y-55153026D01*
X73142518Y-55263340D01*
X73106208Y-55383038D01*
X73093948Y-55507520D01*
X71586670Y-55507520D01*
X71773276Y-55430225D01*
X71942794Y-55316957D01*
X72086957Y-55172794D01*
X72200225Y-55003276D01*
X72278246Y-54814918D01*
X72318020Y-54614959D01*
X72318020Y-54411081D01*
X72278246Y-54211122D01*
X72200225Y-54022764D01*
X72086957Y-53853246D01*
X71942794Y-53709083D01*
X71773276Y-53595815D01*
X71584918Y-53517794D01*
X71384959Y-53478020D01*
X71181081Y-53478020D01*
X70981122Y-53517794D01*
X70792764Y-53595815D01*
X70623246Y-53709083D01*
X70479083Y-53853246D01*
X70365815Y-54022764D01*
X70287794Y-54211122D01*
X70248020Y-54411081D01*
X61001955Y-54411081D01*
X60948597Y-54331226D01*
X60804434Y-54187063D01*
X60634916Y-54073795D01*
X60521992Y-54027020D01*
X60586959Y-54027020D01*
X60786918Y-53987246D01*
X60975276Y-53909225D01*
X61144794Y-53795957D01*
X61288957Y-53651794D01*
X61402225Y-53482276D01*
X61480246Y-53293918D01*
X61520020Y-53093959D01*
X61520020Y-52890081D01*
X61480246Y-52690122D01*
X61402225Y-52501764D01*
X61288957Y-52332246D01*
X61144794Y-52188083D01*
X60975276Y-52074815D01*
X60786918Y-51996794D01*
X60586959Y-51957020D01*
X60383081Y-51957020D01*
X60183122Y-51996794D01*
X59994764Y-52074815D01*
X59825246Y-52188083D01*
X59681083Y-52332246D01*
X59567815Y-52501764D01*
X59489794Y-52690122D01*
X59450020Y-52890081D01*
X59450020Y-53093959D01*
X59489794Y-53293918D01*
X59567815Y-53482276D01*
X59681083Y-53651794D01*
X59825246Y-53795957D01*
X59994764Y-53909225D01*
X60107688Y-53956000D01*
X60042721Y-53956000D01*
X59842762Y-53995774D01*
X59654404Y-54073795D01*
X59484886Y-54187063D01*
X59340723Y-54331226D01*
X59227455Y-54500744D01*
X59149434Y-54689102D01*
X59109660Y-54889061D01*
X58273670Y-54889061D01*
X58288520Y-54814411D01*
X58288520Y-54669629D01*
X58260274Y-54527629D01*
X58204868Y-54393867D01*
X58124432Y-54273485D01*
X58092967Y-54242020D01*
X58124432Y-54210555D01*
X58204868Y-54090173D01*
X58260274Y-53956411D01*
X58288520Y-53814411D01*
X58288520Y-53669629D01*
X58260274Y-53527629D01*
X58204868Y-53393867D01*
X58124432Y-53273485D01*
X58092967Y-53242020D01*
X58124432Y-53210555D01*
X58204868Y-53090173D01*
X58260274Y-52956411D01*
X58288520Y-52814411D01*
X58288520Y-52669629D01*
X58260274Y-52527629D01*
X58204868Y-52393867D01*
X58124432Y-52273485D01*
X58022055Y-52171108D01*
X57901673Y-52090672D01*
X57767911Y-52035266D01*
X57625911Y-52007020D01*
X57481129Y-52007020D01*
X57339129Y-52035266D01*
X57205367Y-52090672D01*
X57084985Y-52171108D01*
X57053520Y-52202573D01*
X57022055Y-52171108D01*
X56901673Y-52090672D01*
X56767911Y-52035266D01*
X56625911Y-52007020D01*
X56481129Y-52007020D01*
X56339129Y-52035266D01*
X56205367Y-52090672D01*
X56084985Y-52171108D01*
X56053520Y-52202573D01*
X56022055Y-52171108D01*
X55901673Y-52090672D01*
X55767911Y-52035266D01*
X55625911Y-52007020D01*
X55481129Y-52007020D01*
X55339129Y-52035266D01*
X55205367Y-52090672D01*
X55084985Y-52171108D01*
X54982608Y-52273485D01*
X54902172Y-52393867D01*
X54846766Y-52527629D01*
X54818520Y-52669629D01*
X45256970Y-52669629D01*
X45078774Y-52550563D01*
X44821260Y-52443897D01*
X44547885Y-52389520D01*
X44269155Y-52389520D01*
X43995780Y-52443897D01*
X43738266Y-52550563D01*
X43506510Y-52705417D01*
X43309417Y-52902510D01*
X43154563Y-53134266D01*
X43047897Y-53391780D01*
X42993520Y-53665155D01*
X41523520Y-53665155D01*
X41469143Y-53391780D01*
X41362477Y-53134266D01*
X41207623Y-52902510D01*
X41010530Y-52705417D01*
X40778774Y-52550563D01*
X40521260Y-52443897D01*
X40247885Y-52389520D01*
X39969155Y-52389520D01*
X39695780Y-52443897D01*
X39438266Y-52550563D01*
X39206510Y-52705417D01*
X39009417Y-52902510D01*
X38854563Y-53134266D01*
X38747897Y-53391780D01*
X38693520Y-53665155D01*
X28219500Y-53665155D01*
X28219500Y-51805071D01*
X61360530Y-51805071D01*
X61360530Y-52008949D01*
X61400304Y-52208908D01*
X61478325Y-52397266D01*
X61591593Y-52566784D01*
X61735756Y-52710947D01*
X61905274Y-52824215D01*
X62093632Y-52902236D01*
X62293591Y-52942010D01*
X62411669Y-52942010D01*
X62410794Y-52944122D01*
X62371020Y-53144081D01*
X62371020Y-53347959D01*
X62410794Y-53547918D01*
X62488815Y-53736276D01*
X62602083Y-53905794D01*
X62746246Y-54049957D01*
X62915764Y-54163225D01*
X63104122Y-54241246D01*
X63304081Y-54281020D01*
X63507959Y-54281020D01*
X63707918Y-54241246D01*
X63896276Y-54163225D01*
X64065794Y-54049957D01*
X64209957Y-53905794D01*
X64323225Y-53736276D01*
X64401246Y-53547918D01*
X64441020Y-53347959D01*
X64441020Y-53144081D01*
X64401246Y-52944122D01*
X64323225Y-52755764D01*
X64209957Y-52586246D01*
X64065794Y-52442083D01*
X63896276Y-52328815D01*
X63707918Y-52250794D01*
X63507959Y-52211020D01*
X63389881Y-52211020D01*
X63390756Y-52208908D01*
X63430530Y-52008949D01*
X63430530Y-51805071D01*
X63390756Y-51605112D01*
X63370654Y-51556581D01*
X102947520Y-51556581D01*
X102947520Y-51760459D01*
X102987294Y-51960418D01*
X103065315Y-52148776D01*
X103178583Y-52318294D01*
X103322746Y-52462457D01*
X103492264Y-52575725D01*
X103680622Y-52653746D01*
X103880581Y-52693520D01*
X104084459Y-52693520D01*
X104284418Y-52653746D01*
X104472776Y-52575725D01*
X104642294Y-52462457D01*
X104786457Y-52318294D01*
X104899725Y-52148776D01*
X104977746Y-51960418D01*
X105017520Y-51760459D01*
X105017520Y-51556581D01*
X104977746Y-51356622D01*
X104899725Y-51168264D01*
X104786457Y-50998746D01*
X104642294Y-50854583D01*
X104472776Y-50741315D01*
X104284418Y-50663294D01*
X104084459Y-50623520D01*
X103880581Y-50623520D01*
X103680622Y-50663294D01*
X103492264Y-50741315D01*
X103322746Y-50854583D01*
X103178583Y-50998746D01*
X103065315Y-51168264D01*
X102987294Y-51356622D01*
X102947520Y-51556581D01*
X63370654Y-51556581D01*
X63312735Y-51416754D01*
X63199467Y-51247236D01*
X63055304Y-51103073D01*
X62885786Y-50989805D01*
X62697428Y-50911784D01*
X62497469Y-50872010D01*
X62293591Y-50872010D01*
X62093632Y-50911784D01*
X61905274Y-50989805D01*
X61735756Y-51103073D01*
X61591593Y-51247236D01*
X61478325Y-51416754D01*
X61400304Y-51605112D01*
X61360530Y-51805071D01*
X28219500Y-51805071D01*
X28219500Y-48865155D01*
X38693520Y-48865155D01*
X38693520Y-49143885D01*
X38747897Y-49417260D01*
X38854563Y-49674774D01*
X39009417Y-49906530D01*
X39206510Y-50103623D01*
X39438266Y-50258477D01*
X39695780Y-50365143D01*
X39969155Y-50419520D01*
X40247885Y-50419520D01*
X40521260Y-50365143D01*
X40778774Y-50258477D01*
X41010530Y-50103623D01*
X41207623Y-49906530D01*
X41362477Y-49674774D01*
X41469143Y-49417260D01*
X41523520Y-49143885D01*
X41523520Y-48865155D01*
X42993520Y-48865155D01*
X42993520Y-49143885D01*
X43047897Y-49417260D01*
X43154563Y-49674774D01*
X43309417Y-49906530D01*
X43506510Y-50103623D01*
X43738266Y-50258477D01*
X43995780Y-50365143D01*
X44269155Y-50419520D01*
X44547885Y-50419520D01*
X44821260Y-50365143D01*
X45078774Y-50258477D01*
X45310530Y-50103623D01*
X45381572Y-50032581D01*
X57545020Y-50032581D01*
X57545020Y-50236459D01*
X57584794Y-50436418D01*
X57662815Y-50624776D01*
X57776083Y-50794294D01*
X57920246Y-50938457D01*
X58089764Y-51051725D01*
X58278122Y-51129746D01*
X58478081Y-51169520D01*
X58681959Y-51169520D01*
X58881918Y-51129746D01*
X59070276Y-51051725D01*
X59239794Y-50938457D01*
X59383957Y-50794294D01*
X59497225Y-50624776D01*
X59575246Y-50436418D01*
X59615020Y-50236459D01*
X59615020Y-50032581D01*
X59575246Y-49832622D01*
X59497225Y-49644264D01*
X59383957Y-49474746D01*
X59239794Y-49330583D01*
X59070276Y-49217315D01*
X58881918Y-49139294D01*
X58681959Y-49099520D01*
X58478081Y-49099520D01*
X58278122Y-49139294D01*
X58089764Y-49217315D01*
X57920246Y-49330583D01*
X57776083Y-49474746D01*
X57662815Y-49644264D01*
X57584794Y-49832622D01*
X57545020Y-50032581D01*
X45381572Y-50032581D01*
X45507623Y-49906530D01*
X45662477Y-49674774D01*
X45769143Y-49417260D01*
X45823520Y-49143885D01*
X45823520Y-48865155D01*
X45769143Y-48591780D01*
X45662477Y-48334266D01*
X45507623Y-48102510D01*
X45342194Y-47937081D01*
X75325020Y-47937081D01*
X75325020Y-48140959D01*
X75364794Y-48340918D01*
X75442815Y-48529276D01*
X75556083Y-48698794D01*
X75700246Y-48842957D01*
X75869764Y-48956225D01*
X76058122Y-49034246D01*
X76258081Y-49074020D01*
X76461959Y-49074020D01*
X76661918Y-49034246D01*
X76750156Y-48997696D01*
X76762583Y-49016294D01*
X76906746Y-49160457D01*
X77076264Y-49273725D01*
X77264622Y-49351746D01*
X77464581Y-49391520D01*
X77668459Y-49391520D01*
X77868418Y-49351746D01*
X77873690Y-49349562D01*
X77905583Y-49397294D01*
X78049746Y-49541457D01*
X78219264Y-49654725D01*
X78407622Y-49732746D01*
X78607581Y-49772520D01*
X78811459Y-49772520D01*
X78942456Y-49746463D01*
X79048583Y-49905294D01*
X79192746Y-50049457D01*
X79362264Y-50162725D01*
X79550622Y-50240746D01*
X79750581Y-50280520D01*
X79954459Y-50280520D01*
X80154418Y-50240746D01*
X80342776Y-50162725D01*
X80512294Y-50049457D01*
X80656457Y-49905294D01*
X80769725Y-49735776D01*
X80847746Y-49547418D01*
X80887520Y-49347459D01*
X80887520Y-49143581D01*
X80847746Y-48943622D01*
X80769725Y-48755264D01*
X80656457Y-48585746D01*
X80512294Y-48441583D01*
X80342776Y-48328315D01*
X80154418Y-48250294D01*
X79954459Y-48210520D01*
X79750581Y-48210520D01*
X79619584Y-48236577D01*
X79513457Y-48077746D01*
X79369294Y-47933583D01*
X79199776Y-47820315D01*
X79011418Y-47742294D01*
X78811459Y-47702520D01*
X78607581Y-47702520D01*
X78407622Y-47742294D01*
X78402350Y-47744478D01*
X78370457Y-47696746D01*
X78226294Y-47552583D01*
X78056776Y-47439315D01*
X77868418Y-47361294D01*
X77668459Y-47321520D01*
X77464581Y-47321520D01*
X77264622Y-47361294D01*
X77176384Y-47397844D01*
X77163957Y-47379246D01*
X77019794Y-47235083D01*
X76850276Y-47121815D01*
X76661918Y-47043794D01*
X76461959Y-47004020D01*
X76258081Y-47004020D01*
X76058122Y-47043794D01*
X75869764Y-47121815D01*
X75700246Y-47235083D01*
X75556083Y-47379246D01*
X75442815Y-47548764D01*
X75364794Y-47737122D01*
X75325020Y-47937081D01*
X45342194Y-47937081D01*
X45310530Y-47905417D01*
X45078774Y-47750563D01*
X44821260Y-47643897D01*
X44547885Y-47589520D01*
X44269155Y-47589520D01*
X43995780Y-47643897D01*
X43738266Y-47750563D01*
X43506510Y-47905417D01*
X43309417Y-48102510D01*
X43154563Y-48334266D01*
X43047897Y-48591780D01*
X42993520Y-48865155D01*
X41523520Y-48865155D01*
X41469143Y-48591780D01*
X41362477Y-48334266D01*
X41207623Y-48102510D01*
X41010530Y-47905417D01*
X40778774Y-47750563D01*
X40521260Y-47643897D01*
X40247885Y-47589520D01*
X39969155Y-47589520D01*
X39695780Y-47643897D01*
X39438266Y-47750563D01*
X39206510Y-47905417D01*
X39009417Y-48102510D01*
X38854563Y-48334266D01*
X38747897Y-48591780D01*
X38693520Y-48865155D01*
X28219500Y-48865155D01*
X28219500Y-47579174D01*
X41493520Y-47579174D01*
X41493520Y-47729866D01*
X41522918Y-47877662D01*
X41580585Y-48016884D01*
X41664305Y-48142179D01*
X41770861Y-48248735D01*
X41896156Y-48332455D01*
X42035378Y-48390122D01*
X42183174Y-48419520D01*
X42333866Y-48419520D01*
X42481662Y-48390122D01*
X42620884Y-48332455D01*
X42746179Y-48248735D01*
X42852735Y-48142179D01*
X42936455Y-48016884D01*
X42994122Y-47877662D01*
X43023520Y-47729866D01*
X43023520Y-47579174D01*
X42994122Y-47431378D01*
X42936455Y-47292156D01*
X42852735Y-47166861D01*
X42746179Y-47060305D01*
X42620884Y-46976585D01*
X42481662Y-46918918D01*
X42333866Y-46889520D01*
X42183174Y-46889520D01*
X42035378Y-46918918D01*
X41896156Y-46976585D01*
X41770861Y-47060305D01*
X41664305Y-47166861D01*
X41580585Y-47292156D01*
X41522918Y-47431378D01*
X41493520Y-47579174D01*
X28219500Y-47579174D01*
X28219500Y-43174581D01*
X56973520Y-43174581D01*
X56973520Y-43378459D01*
X57013294Y-43578418D01*
X57091315Y-43766776D01*
X57103171Y-43784520D01*
X57091315Y-43802264D01*
X57013294Y-43990622D01*
X56973520Y-44190581D01*
X56973520Y-44394459D01*
X57013294Y-44594418D01*
X57091315Y-44782776D01*
X57204583Y-44952294D01*
X57348746Y-45096457D01*
X57518264Y-45209725D01*
X57706622Y-45287746D01*
X57906581Y-45327520D01*
X58110459Y-45327520D01*
X58310418Y-45287746D01*
X58498776Y-45209725D01*
X58516520Y-45197869D01*
X58534264Y-45209725D01*
X58722622Y-45287746D01*
X58922581Y-45327520D01*
X59126459Y-45327520D01*
X59326418Y-45287746D01*
X59514776Y-45209725D01*
X59684294Y-45096457D01*
X59828457Y-44952294D01*
X59941725Y-44782776D01*
X60019746Y-44594418D01*
X60059520Y-44394459D01*
X60059520Y-44190581D01*
X60019746Y-43990622D01*
X59941725Y-43802264D01*
X59929869Y-43784520D01*
X59941725Y-43766776D01*
X60019746Y-43578418D01*
X60059520Y-43378459D01*
X60059520Y-43174581D01*
X60019746Y-42974622D01*
X59941725Y-42786264D01*
X59828457Y-42616746D01*
X59684294Y-42472583D01*
X59514776Y-42359315D01*
X59326418Y-42281294D01*
X59126459Y-42241520D01*
X58922581Y-42241520D01*
X58722622Y-42281294D01*
X58534264Y-42359315D01*
X58516520Y-42371171D01*
X58498776Y-42359315D01*
X58310418Y-42281294D01*
X58110459Y-42241520D01*
X57906581Y-42241520D01*
X57706622Y-42281294D01*
X57518264Y-42359315D01*
X57348746Y-42472583D01*
X57204583Y-42616746D01*
X57091315Y-42786264D01*
X57013294Y-42974622D01*
X56973520Y-43174581D01*
X28219500Y-43174581D01*
X28219500Y-41269581D01*
X61545520Y-41269581D01*
X61545520Y-41473459D01*
X61585294Y-41673418D01*
X61663315Y-41861776D01*
X61776583Y-42031294D01*
X61880333Y-42135044D01*
X61863020Y-42222081D01*
X61863020Y-42425959D01*
X61902794Y-42625918D01*
X61980815Y-42814276D01*
X62094083Y-42983794D01*
X62238246Y-43127957D01*
X62256844Y-43140384D01*
X62220294Y-43228622D01*
X62180520Y-43428581D01*
X62180520Y-43632459D01*
X62220294Y-43832418D01*
X62298315Y-44020776D01*
X62411583Y-44190294D01*
X62555746Y-44334457D01*
X62725264Y-44447725D01*
X62913622Y-44525746D01*
X63113581Y-44565520D01*
X63317459Y-44565520D01*
X63517418Y-44525746D01*
X63705776Y-44447725D01*
X63875294Y-44334457D01*
X64019457Y-44190294D01*
X64132725Y-44020776D01*
X64210746Y-43832418D01*
X64250520Y-43632459D01*
X64250520Y-43428581D01*
X64210746Y-43228622D01*
X64132725Y-43040264D01*
X64019457Y-42870746D01*
X63875294Y-42726583D01*
X63856696Y-42714156D01*
X63893246Y-42625918D01*
X63933020Y-42425959D01*
X63933020Y-42222081D01*
X63893246Y-42022122D01*
X63815225Y-41833764D01*
X63794657Y-41802981D01*
X65228520Y-41802981D01*
X65228520Y-42006859D01*
X65268294Y-42206818D01*
X65346315Y-42395176D01*
X65459583Y-42564694D01*
X65603746Y-42708857D01*
X65773264Y-42822125D01*
X65961622Y-42900146D01*
X66161581Y-42939920D01*
X66181804Y-42939920D01*
X66173020Y-42984081D01*
X66173020Y-43187959D01*
X66212794Y-43387918D01*
X66290815Y-43576276D01*
X66404083Y-43745794D01*
X66548246Y-43889957D01*
X66717764Y-44003225D01*
X66906122Y-44081246D01*
X67106081Y-44121020D01*
X67309959Y-44121020D01*
X67401234Y-44102864D01*
X67422214Y-44208338D01*
X67500235Y-44396696D01*
X67521388Y-44428353D01*
X67381459Y-44400520D01*
X67177581Y-44400520D01*
X66977622Y-44440294D01*
X66789264Y-44518315D01*
X66619746Y-44631583D01*
X66475583Y-44775746D01*
X66362315Y-44945264D01*
X66284294Y-45133622D01*
X66244520Y-45333581D01*
X66244520Y-45537459D01*
X66284294Y-45737418D01*
X66362315Y-45925776D01*
X66475583Y-46095294D01*
X66619746Y-46239457D01*
X66789264Y-46352725D01*
X66977622Y-46430746D01*
X67177581Y-46470520D01*
X67381459Y-46470520D01*
X67581418Y-46430746D01*
X67769776Y-46352725D01*
X67939294Y-46239457D01*
X68083457Y-46095294D01*
X68196725Y-45925776D01*
X68274746Y-45737418D01*
X68314520Y-45537459D01*
X68314520Y-45333581D01*
X68274746Y-45133622D01*
X68196725Y-44945264D01*
X68175572Y-44913607D01*
X68315501Y-44941440D01*
X68519379Y-44941440D01*
X68719338Y-44901666D01*
X68907696Y-44823645D01*
X69077214Y-44710377D01*
X69221377Y-44566214D01*
X69334645Y-44396696D01*
X69412666Y-44208338D01*
X69452440Y-44008379D01*
X69452440Y-43804501D01*
X69412666Y-43604542D01*
X69334645Y-43416184D01*
X69221377Y-43246666D01*
X69077214Y-43102503D01*
X68907696Y-42989235D01*
X68719338Y-42911214D01*
X68519379Y-42871440D01*
X68411711Y-42871440D01*
X68477157Y-42805994D01*
X68590425Y-42636476D01*
X68668446Y-42448118D01*
X68700776Y-42285581D01*
X74372520Y-42285581D01*
X74372520Y-42489459D01*
X74412294Y-42689418D01*
X74490315Y-42877776D01*
X74603583Y-43047294D01*
X74747746Y-43191457D01*
X74917264Y-43304725D01*
X75105622Y-43382746D01*
X75305581Y-43422520D01*
X75509459Y-43422520D01*
X75709418Y-43382746D01*
X75897776Y-43304725D01*
X75915520Y-43292869D01*
X75933264Y-43304725D01*
X76121622Y-43382746D01*
X76321581Y-43422520D01*
X76525459Y-43422520D01*
X76725418Y-43382746D01*
X76913776Y-43304725D01*
X76995020Y-43250440D01*
X77076264Y-43304725D01*
X77264622Y-43382746D01*
X77464581Y-43422520D01*
X77668459Y-43422520D01*
X77868418Y-43382746D01*
X78056776Y-43304725D01*
X78138020Y-43250440D01*
X78219264Y-43304725D01*
X78407622Y-43382746D01*
X78607581Y-43422520D01*
X78811459Y-43422520D01*
X79011418Y-43382746D01*
X79199776Y-43304725D01*
X79369294Y-43191457D01*
X79513457Y-43047294D01*
X79626725Y-42877776D01*
X79704746Y-42689418D01*
X79744520Y-42489459D01*
X79744520Y-42285581D01*
X79704746Y-42085622D01*
X79626725Y-41897264D01*
X79513457Y-41727746D01*
X79369294Y-41583583D01*
X79199776Y-41470315D01*
X79011418Y-41392294D01*
X78811459Y-41352520D01*
X78607581Y-41352520D01*
X78407622Y-41392294D01*
X78219264Y-41470315D01*
X78138020Y-41524600D01*
X78056776Y-41470315D01*
X77868418Y-41392294D01*
X77668459Y-41352520D01*
X77464581Y-41352520D01*
X77264622Y-41392294D01*
X77076264Y-41470315D01*
X76995020Y-41524600D01*
X76913776Y-41470315D01*
X76725418Y-41392294D01*
X76525459Y-41352520D01*
X76321581Y-41352520D01*
X76121622Y-41392294D01*
X75933264Y-41470315D01*
X75915520Y-41482171D01*
X75897776Y-41470315D01*
X75709418Y-41392294D01*
X75509459Y-41352520D01*
X75305581Y-41352520D01*
X75105622Y-41392294D01*
X74917264Y-41470315D01*
X74747746Y-41583583D01*
X74603583Y-41727746D01*
X74490315Y-41897264D01*
X74412294Y-42085622D01*
X74372520Y-42285581D01*
X68700776Y-42285581D01*
X68708220Y-42248159D01*
X68708220Y-42044281D01*
X68668446Y-41844322D01*
X68590425Y-41655964D01*
X68477157Y-41486446D01*
X68332994Y-41342283D01*
X68249714Y-41286638D01*
X68354205Y-41130256D01*
X68432226Y-40941898D01*
X68472000Y-40741939D01*
X68472000Y-40538061D01*
X68461959Y-40487581D01*
X69145520Y-40487581D01*
X69145520Y-40691459D01*
X69185294Y-40891418D01*
X69263315Y-41079776D01*
X69376583Y-41249294D01*
X69520746Y-41393457D01*
X69690264Y-41506725D01*
X69878622Y-41584746D01*
X70078581Y-41624520D01*
X70282459Y-41624520D01*
X70482418Y-41584746D01*
X70670776Y-41506725D01*
X70840294Y-41393457D01*
X70984457Y-41249294D01*
X71097725Y-41079776D01*
X71175746Y-40891418D01*
X71215520Y-40691459D01*
X71215520Y-40487581D01*
X71175746Y-40287622D01*
X71097725Y-40099264D01*
X70984457Y-39929746D01*
X70840294Y-39785583D01*
X70670776Y-39672315D01*
X70482418Y-39594294D01*
X70282459Y-39554520D01*
X70078581Y-39554520D01*
X69878622Y-39594294D01*
X69690264Y-39672315D01*
X69520746Y-39785583D01*
X69376583Y-39929746D01*
X69263315Y-40099264D01*
X69185294Y-40287622D01*
X69145520Y-40487581D01*
X68461959Y-40487581D01*
X68432226Y-40338102D01*
X68354205Y-40149744D01*
X68240937Y-39980226D01*
X68096774Y-39836063D01*
X67927256Y-39722795D01*
X67738898Y-39644774D01*
X67538939Y-39605000D01*
X67335061Y-39605000D01*
X67135102Y-39644774D01*
X66946744Y-39722795D01*
X66777226Y-39836063D01*
X66633063Y-39980226D01*
X66519795Y-40149744D01*
X66441774Y-40338102D01*
X66402000Y-40538061D01*
X66402000Y-40741939D01*
X66430011Y-40882760D01*
X66365459Y-40869920D01*
X66161581Y-40869920D01*
X65961622Y-40909694D01*
X65773264Y-40987715D01*
X65603746Y-41100983D01*
X65459583Y-41245146D01*
X65346315Y-41414664D01*
X65268294Y-41603022D01*
X65228520Y-41802981D01*
X63794657Y-41802981D01*
X63701957Y-41664246D01*
X63598207Y-41560496D01*
X63615520Y-41473459D01*
X63615520Y-41269581D01*
X63575746Y-41069622D01*
X63497725Y-40881264D01*
X63384457Y-40711746D01*
X63240294Y-40567583D01*
X63070776Y-40454315D01*
X62882418Y-40376294D01*
X62682459Y-40336520D01*
X62478581Y-40336520D01*
X62278622Y-40376294D01*
X62090264Y-40454315D01*
X61920746Y-40567583D01*
X61776583Y-40711746D01*
X61663315Y-40881264D01*
X61585294Y-41069622D01*
X61545520Y-41269581D01*
X28219500Y-41269581D01*
X28219500Y-36634081D01*
X73356520Y-36634081D01*
X73356520Y-36837959D01*
X73396294Y-37037918D01*
X73474315Y-37226276D01*
X73587583Y-37395794D01*
X73731746Y-37539957D01*
X73901264Y-37653225D01*
X74089622Y-37731246D01*
X74289581Y-37771020D01*
X74493459Y-37771020D01*
X74693418Y-37731246D01*
X74881776Y-37653225D01*
X75051294Y-37539957D01*
X75068170Y-37523081D01*
X75385980Y-37523081D01*
X75385980Y-37726959D01*
X75425754Y-37926918D01*
X75503775Y-38115276D01*
X75617043Y-38284794D01*
X75761206Y-38428957D01*
X75930724Y-38542225D01*
X76119082Y-38620246D01*
X76319041Y-38660020D01*
X76522919Y-38660020D01*
X76722878Y-38620246D01*
X76911236Y-38542225D01*
X77080754Y-38428957D01*
X77224917Y-38284794D01*
X77338185Y-38115276D01*
X77416206Y-37926918D01*
X77455980Y-37726959D01*
X77455980Y-37523081D01*
X77416206Y-37323122D01*
X77338185Y-37134764D01*
X77224917Y-36965246D01*
X77080754Y-36821083D01*
X76911236Y-36707815D01*
X76722878Y-36629794D01*
X76522919Y-36590020D01*
X76319041Y-36590020D01*
X76119082Y-36629794D01*
X75930724Y-36707815D01*
X75761206Y-36821083D01*
X75617043Y-36965246D01*
X75503775Y-37134764D01*
X75425754Y-37323122D01*
X75385980Y-37523081D01*
X75068170Y-37523081D01*
X75195457Y-37395794D01*
X75308725Y-37226276D01*
X75386746Y-37037918D01*
X75426520Y-36837959D01*
X75426520Y-36634081D01*
X75402337Y-36512500D01*
X82613500Y-36512500D01*
X82613500Y-38735000D01*
X82615940Y-38759776D01*
X82623167Y-38783601D01*
X82634903Y-38805557D01*
X82650697Y-38824803D01*
X82669943Y-38840597D01*
X82691899Y-38852333D01*
X82715724Y-38859560D01*
X82740500Y-38862000D01*
X83820000Y-38862000D01*
X83820000Y-39814500D01*
X83822440Y-39839276D01*
X83829667Y-39863101D01*
X83841403Y-39885057D01*
X83857197Y-39904303D01*
X83876443Y-39920097D01*
X83898399Y-39931833D01*
X83922224Y-39939060D01*
X83947000Y-39941500D01*
X86106000Y-39941500D01*
X86106000Y-40449500D01*
X86108440Y-40474276D01*
X86115667Y-40498101D01*
X86127403Y-40520057D01*
X86143197Y-40539303D01*
X86162443Y-40555097D01*
X86184399Y-40566833D01*
X86208224Y-40574060D01*
X86233000Y-40576500D01*
X88773000Y-40576500D01*
X88797776Y-40574060D01*
X88821601Y-40566833D01*
X88843557Y-40555097D01*
X88862803Y-40539303D01*
X88878597Y-40520057D01*
X88890333Y-40498101D01*
X88897560Y-40474276D01*
X88900000Y-40449500D01*
X88900000Y-36512500D01*
X88897560Y-36487724D01*
X88890333Y-36463899D01*
X88878597Y-36441943D01*
X88862803Y-36422697D01*
X88843557Y-36406903D01*
X88821601Y-36395167D01*
X88797776Y-36387940D01*
X88773000Y-36385500D01*
X82740500Y-36385500D01*
X82715724Y-36387940D01*
X82691899Y-36395167D01*
X82669943Y-36406903D01*
X82650697Y-36422697D01*
X82634903Y-36441943D01*
X82623167Y-36463899D01*
X82615940Y-36487724D01*
X82613500Y-36512500D01*
X75402337Y-36512500D01*
X75386746Y-36434122D01*
X75308725Y-36245764D01*
X75195457Y-36076246D01*
X75051294Y-35932083D01*
X74881776Y-35818815D01*
X74693418Y-35740794D01*
X74493459Y-35701020D01*
X74289581Y-35701020D01*
X74089622Y-35740794D01*
X73901264Y-35818815D01*
X73731746Y-35932083D01*
X73587583Y-36076246D01*
X73474315Y-36245764D01*
X73396294Y-36434122D01*
X73356520Y-36634081D01*
X28219500Y-36634081D01*
X28219500Y-34284581D01*
X74245520Y-34284581D01*
X74245520Y-34488459D01*
X74285294Y-34688418D01*
X74363315Y-34876776D01*
X74476583Y-35046294D01*
X74620746Y-35190457D01*
X74790264Y-35303725D01*
X74978622Y-35381746D01*
X75178581Y-35421520D01*
X75382459Y-35421520D01*
X75582418Y-35381746D01*
X75770776Y-35303725D01*
X75940294Y-35190457D01*
X76084457Y-35046294D01*
X76197725Y-34876776D01*
X76275746Y-34688418D01*
X76315520Y-34488459D01*
X76315520Y-34284581D01*
X76275746Y-34084622D01*
X76197725Y-33896264D01*
X76084457Y-33726746D01*
X75940294Y-33582583D01*
X75770776Y-33469315D01*
X75582418Y-33391294D01*
X75382459Y-33351520D01*
X75178581Y-33351520D01*
X74978622Y-33391294D01*
X74790264Y-33469315D01*
X74620746Y-33582583D01*
X74476583Y-33726746D01*
X74363315Y-33896264D01*
X74285294Y-34084622D01*
X74245520Y-34284581D01*
X28219500Y-34284581D01*
X28219500Y-33141581D01*
X70308520Y-33141581D01*
X70308520Y-33345459D01*
X70348294Y-33545418D01*
X70426315Y-33733776D01*
X70539583Y-33903294D01*
X70683746Y-34047457D01*
X70853264Y-34160725D01*
X71041622Y-34238746D01*
X71241581Y-34278520D01*
X71445459Y-34278520D01*
X71645418Y-34238746D01*
X71833776Y-34160725D01*
X72003294Y-34047457D01*
X72147457Y-33903294D01*
X72260725Y-33733776D01*
X72296020Y-33648567D01*
X72331315Y-33733776D01*
X72444583Y-33903294D01*
X72588746Y-34047457D01*
X72758264Y-34160725D01*
X72946622Y-34238746D01*
X73146581Y-34278520D01*
X73350459Y-34278520D01*
X73550418Y-34238746D01*
X73738776Y-34160725D01*
X73908294Y-34047457D01*
X74052457Y-33903294D01*
X74165725Y-33733776D01*
X74243746Y-33545418D01*
X74283520Y-33345459D01*
X74283520Y-33141581D01*
X74243746Y-32941622D01*
X74165725Y-32753264D01*
X74052457Y-32583746D01*
X73908294Y-32439583D01*
X73738776Y-32326315D01*
X73550418Y-32248294D01*
X73350459Y-32208520D01*
X73146581Y-32208520D01*
X72946622Y-32248294D01*
X72758264Y-32326315D01*
X72588746Y-32439583D01*
X72444583Y-32583746D01*
X72331315Y-32753264D01*
X72296020Y-32838473D01*
X72260725Y-32753264D01*
X72147457Y-32583746D01*
X72003294Y-32439583D01*
X71833776Y-32326315D01*
X71645418Y-32248294D01*
X71445459Y-32208520D01*
X71241581Y-32208520D01*
X71041622Y-32248294D01*
X70853264Y-32326315D01*
X70683746Y-32439583D01*
X70539583Y-32583746D01*
X70426315Y-32753264D01*
X70348294Y-32941622D01*
X70308520Y-33141581D01*
X28219500Y-33141581D01*
X28219500Y-29160260D01*
X46744520Y-29160260D01*
X46744520Y-29452780D01*
X46801588Y-29739678D01*
X46913530Y-30009931D01*
X47076045Y-30253152D01*
X47282888Y-30459995D01*
X47526109Y-30622510D01*
X47796362Y-30734452D01*
X48083260Y-30791520D01*
X48375780Y-30791520D01*
X48662678Y-30734452D01*
X48932931Y-30622510D01*
X49176152Y-30459995D01*
X49382995Y-30253152D01*
X49545510Y-30009931D01*
X49657452Y-29739678D01*
X49714520Y-29452780D01*
X49714520Y-29160260D01*
X49657452Y-28873362D01*
X49545510Y-28603109D01*
X49382995Y-28359888D01*
X49176152Y-28153045D01*
X48993986Y-28031325D01*
X49110875Y-27961698D01*
X49327108Y-27766789D01*
X49501161Y-27533440D01*
X49626345Y-27270619D01*
X49670996Y-27123410D01*
X49549675Y-26893520D01*
X48356520Y-26893520D01*
X48356520Y-26913520D01*
X48102520Y-26913520D01*
X48102520Y-26893520D01*
X46909365Y-26893520D01*
X46788044Y-27123410D01*
X46832695Y-27270619D01*
X46957879Y-27533440D01*
X47131932Y-27766789D01*
X47348165Y-27961698D01*
X47465054Y-28031325D01*
X47282888Y-28153045D01*
X47076045Y-28359888D01*
X46913530Y-28603109D01*
X46801588Y-28873362D01*
X46744520Y-29160260D01*
X28219500Y-29160260D01*
X28219500Y-25926520D01*
X37660948Y-25926520D01*
X37660948Y-27626520D01*
X37673208Y-27751002D01*
X37709518Y-27870700D01*
X37768483Y-27981014D01*
X37847835Y-28077705D01*
X37944526Y-28157057D01*
X38054840Y-28216022D01*
X38174538Y-28252332D01*
X38299020Y-28264592D01*
X39999020Y-28264592D01*
X40123502Y-28252332D01*
X40243200Y-28216022D01*
X40353514Y-28157057D01*
X40450205Y-28077705D01*
X40529557Y-27981014D01*
X40588522Y-27870700D01*
X40624832Y-27751002D01*
X40637092Y-27626520D01*
X40637092Y-26664581D01*
X59704020Y-26664581D01*
X59704020Y-26868459D01*
X59743794Y-27068418D01*
X59821815Y-27256776D01*
X59935083Y-27426294D01*
X60079246Y-27570457D01*
X60248764Y-27683725D01*
X60437122Y-27761746D01*
X60637081Y-27801520D01*
X60840959Y-27801520D01*
X61040918Y-27761746D01*
X61229276Y-27683725D01*
X61398794Y-27570457D01*
X61542957Y-27426294D01*
X61656225Y-27256776D01*
X61734246Y-27068418D01*
X61774020Y-26868459D01*
X61774020Y-26664581D01*
X61734246Y-26464622D01*
X61656225Y-26276264D01*
X61542957Y-26106746D01*
X61398794Y-25962583D01*
X61229276Y-25849315D01*
X61040918Y-25771294D01*
X60840959Y-25731520D01*
X60637081Y-25731520D01*
X60437122Y-25771294D01*
X60248764Y-25849315D01*
X60079246Y-25962583D01*
X59935083Y-26106746D01*
X59821815Y-26276264D01*
X59743794Y-26464622D01*
X59704020Y-26664581D01*
X40637092Y-26664581D01*
X40637092Y-25926520D01*
X40624832Y-25802038D01*
X40588522Y-25682340D01*
X40529557Y-25572026D01*
X40450205Y-25475335D01*
X40353514Y-25395983D01*
X40243200Y-25337018D01*
X40170640Y-25315007D01*
X40302495Y-25183152D01*
X40465010Y-24939931D01*
X40576952Y-24669678D01*
X40634020Y-24382780D01*
X40634020Y-24090260D01*
X40576952Y-23803362D01*
X40465010Y-23533109D01*
X40360381Y-23376520D01*
X46741448Y-23376520D01*
X46741448Y-25076520D01*
X46753708Y-25201002D01*
X46790018Y-25320700D01*
X46848983Y-25431014D01*
X46928335Y-25527705D01*
X47025026Y-25607057D01*
X47135340Y-25666022D01*
X47215986Y-25690486D01*
X47131932Y-25766251D01*
X46957879Y-25999600D01*
X46832695Y-26262421D01*
X46788044Y-26409630D01*
X46909365Y-26639520D01*
X48102520Y-26639520D01*
X48102520Y-26619520D01*
X48356520Y-26619520D01*
X48356520Y-26639520D01*
X49549675Y-26639520D01*
X49670996Y-26409630D01*
X49626345Y-26262421D01*
X49501161Y-25999600D01*
X49327108Y-25766251D01*
X49243054Y-25690486D01*
X49323700Y-25666022D01*
X49434014Y-25607057D01*
X49530705Y-25527705D01*
X49610057Y-25431014D01*
X49669022Y-25320700D01*
X49705332Y-25201002D01*
X49717592Y-25076520D01*
X49717592Y-23376520D01*
X62108448Y-23376520D01*
X62108448Y-25076520D01*
X62120708Y-25201002D01*
X62157018Y-25320700D01*
X62215983Y-25431014D01*
X62295335Y-25527705D01*
X62392026Y-25607057D01*
X62502340Y-25666022D01*
X62574900Y-25688033D01*
X62443045Y-25819888D01*
X62280530Y-26063109D01*
X62168588Y-26333362D01*
X62111520Y-26620260D01*
X62111520Y-26912780D01*
X62168588Y-27199678D01*
X62280530Y-27469931D01*
X62443045Y-27713152D01*
X62649888Y-27919995D01*
X62824280Y-28036520D01*
X62649888Y-28153045D01*
X62443045Y-28359888D01*
X62280530Y-28603109D01*
X62168588Y-28873362D01*
X62111520Y-29160260D01*
X62111520Y-29452780D01*
X62168588Y-29739678D01*
X62280530Y-30009931D01*
X62443045Y-30253152D01*
X62649888Y-30459995D01*
X62893109Y-30622510D01*
X63073479Y-30697221D01*
X62936746Y-30788583D01*
X62792583Y-30932746D01*
X62679315Y-31102264D01*
X62601294Y-31290622D01*
X62561520Y-31490581D01*
X62561520Y-31694459D01*
X62601294Y-31894418D01*
X62679315Y-32082776D01*
X62792583Y-32252294D01*
X62936746Y-32396457D01*
X63106264Y-32509725D01*
X63294622Y-32587746D01*
X63494581Y-32627520D01*
X63698459Y-32627520D01*
X63898418Y-32587746D01*
X64086776Y-32509725D01*
X64256294Y-32396457D01*
X64400457Y-32252294D01*
X64442694Y-32189081D01*
X75388520Y-32189081D01*
X75388520Y-32392959D01*
X75428294Y-32592918D01*
X75506315Y-32781276D01*
X75619583Y-32950794D01*
X75763746Y-33094957D01*
X75933264Y-33208225D01*
X76121622Y-33286246D01*
X76321581Y-33326020D01*
X76525459Y-33326020D01*
X76725418Y-33286246D01*
X76913776Y-33208225D01*
X77083294Y-33094957D01*
X77101670Y-33076581D01*
X82816520Y-33076581D01*
X82816520Y-33280459D01*
X82856294Y-33480418D01*
X82934315Y-33668776D01*
X83047583Y-33838294D01*
X83191746Y-33982457D01*
X83361264Y-34095725D01*
X83549622Y-34173746D01*
X83749581Y-34213520D01*
X83953459Y-34213520D01*
X84153418Y-34173746D01*
X84341776Y-34095725D01*
X84511294Y-33982457D01*
X84655457Y-33838294D01*
X84734307Y-33720286D01*
X84823264Y-33779725D01*
X85011622Y-33857746D01*
X85211581Y-33897520D01*
X85415459Y-33897520D01*
X85615418Y-33857746D01*
X85803776Y-33779725D01*
X85973294Y-33666457D01*
X86117457Y-33522294D01*
X86230725Y-33352776D01*
X86308746Y-33164418D01*
X86348197Y-32966081D01*
X88421020Y-32966081D01*
X88421020Y-33169959D01*
X88460794Y-33369918D01*
X88538815Y-33558276D01*
X88652083Y-33727794D01*
X88796246Y-33871957D01*
X88965764Y-33985225D01*
X89154122Y-34063246D01*
X89354081Y-34103020D01*
X89557959Y-34103020D01*
X89757918Y-34063246D01*
X89946276Y-33985225D01*
X90115794Y-33871957D01*
X90259957Y-33727794D01*
X90373225Y-33558276D01*
X90451246Y-33369918D01*
X90491020Y-33169959D01*
X90491020Y-32966081D01*
X90451246Y-32766122D01*
X90373225Y-32577764D01*
X90259957Y-32408246D01*
X90115794Y-32264083D01*
X89946276Y-32150815D01*
X89757918Y-32072794D01*
X89557959Y-32033020D01*
X89354081Y-32033020D01*
X89154122Y-32072794D01*
X88965764Y-32150815D01*
X88796246Y-32264083D01*
X88652083Y-32408246D01*
X88538815Y-32577764D01*
X88460794Y-32766122D01*
X88421020Y-32966081D01*
X86348197Y-32966081D01*
X86348520Y-32964459D01*
X86348520Y-32760581D01*
X86308746Y-32560622D01*
X86230725Y-32372264D01*
X86117457Y-32202746D01*
X85973294Y-32058583D01*
X85803776Y-31945315D01*
X85615418Y-31867294D01*
X85415459Y-31827520D01*
X85211581Y-31827520D01*
X85011622Y-31867294D01*
X84823264Y-31945315D01*
X84653746Y-32058583D01*
X84509583Y-32202746D01*
X84430733Y-32320754D01*
X84341776Y-32261315D01*
X84153418Y-32183294D01*
X83953459Y-32143520D01*
X83749581Y-32143520D01*
X83549622Y-32183294D01*
X83361264Y-32261315D01*
X83191746Y-32374583D01*
X83047583Y-32518746D01*
X82934315Y-32688264D01*
X82856294Y-32876622D01*
X82816520Y-33076581D01*
X77101670Y-33076581D01*
X77227457Y-32950794D01*
X77340725Y-32781276D01*
X77418746Y-32592918D01*
X77458520Y-32392959D01*
X77458520Y-32189081D01*
X77418746Y-31989122D01*
X77340725Y-31800764D01*
X77227457Y-31631246D01*
X77083294Y-31487083D01*
X76913776Y-31373815D01*
X76725418Y-31295794D01*
X76525459Y-31256020D01*
X76321581Y-31256020D01*
X76121622Y-31295794D01*
X75933264Y-31373815D01*
X75763746Y-31487083D01*
X75619583Y-31631246D01*
X75506315Y-31800764D01*
X75428294Y-31989122D01*
X75388520Y-32189081D01*
X64442694Y-32189081D01*
X64513725Y-32082776D01*
X64591746Y-31894418D01*
X64631520Y-31694459D01*
X64631520Y-31490581D01*
X64591746Y-31290622D01*
X64513725Y-31102264D01*
X64400457Y-30932746D01*
X64256294Y-30788583D01*
X64119561Y-30697221D01*
X64299931Y-30622510D01*
X64543152Y-30459995D01*
X64749995Y-30253152D01*
X64912510Y-30009931D01*
X65024452Y-29739678D01*
X65081520Y-29452780D01*
X65081520Y-29160260D01*
X65024452Y-28873362D01*
X64912510Y-28603109D01*
X64749995Y-28359888D01*
X64543152Y-28153045D01*
X64368760Y-28036520D01*
X64543152Y-27919995D01*
X64749995Y-27713152D01*
X64912510Y-27469931D01*
X65024452Y-27199678D01*
X65081520Y-26912780D01*
X65081520Y-26683760D01*
X68144020Y-26683760D01*
X68144020Y-26976280D01*
X68201088Y-27263178D01*
X68313030Y-27533431D01*
X68475545Y-27776652D01*
X68682388Y-27983495D01*
X68925609Y-28146010D01*
X69195862Y-28257952D01*
X69482760Y-28315020D01*
X69775280Y-28315020D01*
X70062178Y-28257952D01*
X70332431Y-28146010D01*
X70575652Y-27983495D01*
X70782495Y-27776652D01*
X70899020Y-27602260D01*
X71015545Y-27776652D01*
X71222388Y-27983495D01*
X71465609Y-28146010D01*
X71735862Y-28257952D01*
X72022760Y-28315020D01*
X72315280Y-28315020D01*
X72602178Y-28257952D01*
X72872431Y-28146010D01*
X73115652Y-27983495D01*
X73322495Y-27776652D01*
X73439020Y-27602260D01*
X73555545Y-27776652D01*
X73762388Y-27983495D01*
X74005609Y-28146010D01*
X74275862Y-28257952D01*
X74562760Y-28315020D01*
X74855280Y-28315020D01*
X75142178Y-28257952D01*
X75412431Y-28146010D01*
X75655652Y-27983495D01*
X75787507Y-27851640D01*
X75809518Y-27924200D01*
X75868483Y-28034514D01*
X75947835Y-28131205D01*
X76044526Y-28210557D01*
X76154840Y-28269522D01*
X76274538Y-28305832D01*
X76399020Y-28318092D01*
X78099020Y-28318092D01*
X78223502Y-28305832D01*
X78343200Y-28269522D01*
X78453514Y-28210557D01*
X78550205Y-28131205D01*
X78629557Y-28034514D01*
X78688522Y-27924200D01*
X78724832Y-27804502D01*
X78737092Y-27680020D01*
X78737092Y-26297520D01*
X98811448Y-26297520D01*
X98811448Y-27997520D01*
X98823708Y-28122002D01*
X98860018Y-28241700D01*
X98918983Y-28352014D01*
X98998335Y-28448705D01*
X99095026Y-28528057D01*
X99205340Y-28587022D01*
X99277900Y-28609033D01*
X99146045Y-28740888D01*
X98983530Y-28984109D01*
X98871588Y-29254362D01*
X98814520Y-29541260D01*
X98814520Y-29833780D01*
X98871588Y-30120678D01*
X98983530Y-30390931D01*
X99146045Y-30634152D01*
X99352888Y-30840995D01*
X99527280Y-30957520D01*
X99352888Y-31074045D01*
X99146045Y-31280888D01*
X98983530Y-31524109D01*
X98871588Y-31794362D01*
X98814520Y-32081260D01*
X98814520Y-32373780D01*
X98871588Y-32660678D01*
X98983530Y-32930931D01*
X99146045Y-33174152D01*
X99352888Y-33380995D01*
X99527280Y-33497520D01*
X99352888Y-33614045D01*
X99146045Y-33820888D01*
X98983530Y-34064109D01*
X98871588Y-34334362D01*
X98814520Y-34621260D01*
X98814520Y-34913780D01*
X98871588Y-35200678D01*
X98983530Y-35470931D01*
X99146045Y-35714152D01*
X99352888Y-35920995D01*
X99527280Y-36037520D01*
X99352888Y-36154045D01*
X99146045Y-36360888D01*
X98983530Y-36604109D01*
X98871588Y-36874362D01*
X98814520Y-37161260D01*
X98814520Y-37453780D01*
X98871588Y-37740678D01*
X98983530Y-38010931D01*
X99146045Y-38254152D01*
X99352888Y-38460995D01*
X99527280Y-38577520D01*
X99352888Y-38694045D01*
X99146045Y-38900888D01*
X98983530Y-39144109D01*
X98871588Y-39414362D01*
X98814520Y-39701260D01*
X98814520Y-39993780D01*
X98871588Y-40280678D01*
X98983530Y-40550931D01*
X99146045Y-40794152D01*
X99352888Y-41000995D01*
X99527280Y-41117520D01*
X99352888Y-41234045D01*
X99146045Y-41440888D01*
X98983530Y-41684109D01*
X98871588Y-41954362D01*
X98814520Y-42241260D01*
X98814520Y-42533780D01*
X98871588Y-42820678D01*
X98983530Y-43090931D01*
X99146045Y-43334152D01*
X99352888Y-43540995D01*
X99527280Y-43657520D01*
X99352888Y-43774045D01*
X99146045Y-43980888D01*
X98983530Y-44224109D01*
X98871588Y-44494362D01*
X98814520Y-44781260D01*
X98814520Y-45073780D01*
X98871588Y-45360678D01*
X98983530Y-45630931D01*
X99146045Y-45874152D01*
X99352888Y-46080995D01*
X99596109Y-46243510D01*
X99866362Y-46355452D01*
X100153260Y-46412520D01*
X100445780Y-46412520D01*
X100732678Y-46355452D01*
X101002931Y-46243510D01*
X101246152Y-46080995D01*
X101452995Y-45874152D01*
X101615510Y-45630931D01*
X101727452Y-45360678D01*
X101784520Y-45073780D01*
X101784520Y-44781260D01*
X101727452Y-44494362D01*
X101615510Y-44224109D01*
X101452995Y-43980888D01*
X101246152Y-43774045D01*
X101071760Y-43657520D01*
X101246152Y-43540995D01*
X101452995Y-43334152D01*
X101615510Y-43090931D01*
X101727452Y-42820678D01*
X101784520Y-42533780D01*
X101784520Y-42241260D01*
X101727452Y-41954362D01*
X101615510Y-41684109D01*
X101452995Y-41440888D01*
X101246152Y-41234045D01*
X101071760Y-41117520D01*
X101246152Y-41000995D01*
X101452995Y-40794152D01*
X101615510Y-40550931D01*
X101727452Y-40280678D01*
X101784520Y-39993780D01*
X101784520Y-39701260D01*
X101727452Y-39414362D01*
X101615510Y-39144109D01*
X101452995Y-38900888D01*
X101246152Y-38694045D01*
X101071760Y-38577520D01*
X101246152Y-38460995D01*
X101452995Y-38254152D01*
X101615510Y-38010931D01*
X101727452Y-37740678D01*
X101784520Y-37453780D01*
X101784520Y-37161260D01*
X101727452Y-36874362D01*
X101615510Y-36604109D01*
X101452995Y-36360888D01*
X101246152Y-36154045D01*
X101071760Y-36037520D01*
X101246152Y-35920995D01*
X101452995Y-35714152D01*
X101615510Y-35470931D01*
X101727452Y-35200678D01*
X101784520Y-34913780D01*
X101784520Y-34621260D01*
X101727452Y-34334362D01*
X101615510Y-34064109D01*
X101452995Y-33820888D01*
X101246152Y-33614045D01*
X101071760Y-33497520D01*
X101246152Y-33380995D01*
X101452995Y-33174152D01*
X101615510Y-32930931D01*
X101727452Y-32660678D01*
X101784520Y-32373780D01*
X101784520Y-32081260D01*
X101727452Y-31794362D01*
X101615510Y-31524109D01*
X101452995Y-31280888D01*
X101246152Y-31074045D01*
X101071760Y-30957520D01*
X101246152Y-30840995D01*
X101452995Y-30634152D01*
X101615510Y-30390931D01*
X101727452Y-30120678D01*
X101784520Y-29833780D01*
X101784520Y-29541260D01*
X101727452Y-29254362D01*
X101615510Y-28984109D01*
X101452995Y-28740888D01*
X101321140Y-28609033D01*
X101393700Y-28587022D01*
X101504014Y-28528057D01*
X101600705Y-28448705D01*
X101680057Y-28352014D01*
X101739022Y-28241700D01*
X101775332Y-28122002D01*
X101787592Y-27997520D01*
X101787592Y-26297520D01*
X102621448Y-26297520D01*
X102621448Y-27997520D01*
X102633708Y-28122002D01*
X102670018Y-28241700D01*
X102728983Y-28352014D01*
X102808335Y-28448705D01*
X102905026Y-28528057D01*
X103015340Y-28587022D01*
X103087900Y-28609033D01*
X102956045Y-28740888D01*
X102793530Y-28984109D01*
X102681588Y-29254362D01*
X102624520Y-29541260D01*
X102624520Y-29833780D01*
X102681588Y-30120678D01*
X102793530Y-30390931D01*
X102956045Y-30634152D01*
X103162888Y-30840995D01*
X103337280Y-30957520D01*
X103162888Y-31074045D01*
X102956045Y-31280888D01*
X102793530Y-31524109D01*
X102681588Y-31794362D01*
X102624520Y-32081260D01*
X102624520Y-32373780D01*
X102681588Y-32660678D01*
X102793530Y-32930931D01*
X102956045Y-33174152D01*
X103162888Y-33380995D01*
X103337280Y-33497520D01*
X103162888Y-33614045D01*
X102956045Y-33820888D01*
X102793530Y-34064109D01*
X102681588Y-34334362D01*
X102624520Y-34621260D01*
X102624520Y-34913780D01*
X102681588Y-35200678D01*
X102793530Y-35470931D01*
X102956045Y-35714152D01*
X103162888Y-35920995D01*
X103337280Y-36037520D01*
X103162888Y-36154045D01*
X102956045Y-36360888D01*
X102793530Y-36604109D01*
X102681588Y-36874362D01*
X102624520Y-37161260D01*
X102624520Y-37453780D01*
X102681588Y-37740678D01*
X102793530Y-38010931D01*
X102956045Y-38254152D01*
X103162888Y-38460995D01*
X103337280Y-38577520D01*
X103162888Y-38694045D01*
X102956045Y-38900888D01*
X102793530Y-39144109D01*
X102681588Y-39414362D01*
X102624520Y-39701260D01*
X102624520Y-39993780D01*
X102681588Y-40280678D01*
X102793530Y-40550931D01*
X102956045Y-40794152D01*
X103162888Y-41000995D01*
X103337280Y-41117520D01*
X103162888Y-41234045D01*
X102956045Y-41440888D01*
X102793530Y-41684109D01*
X102681588Y-41954362D01*
X102624520Y-42241260D01*
X102624520Y-42533780D01*
X102681588Y-42820678D01*
X102793530Y-43090931D01*
X102956045Y-43334152D01*
X103162888Y-43540995D01*
X103337280Y-43657520D01*
X103162888Y-43774045D01*
X102956045Y-43980888D01*
X102793530Y-44224109D01*
X102681588Y-44494362D01*
X102624520Y-44781260D01*
X102624520Y-45073780D01*
X102681588Y-45360678D01*
X102793530Y-45630931D01*
X102956045Y-45874152D01*
X103162888Y-46080995D01*
X103406109Y-46243510D01*
X103676362Y-46355452D01*
X103963260Y-46412520D01*
X104255780Y-46412520D01*
X104542678Y-46355452D01*
X104812931Y-46243510D01*
X105056152Y-46080995D01*
X105262995Y-45874152D01*
X105425510Y-45630931D01*
X105537452Y-45360678D01*
X105594520Y-45073780D01*
X105594520Y-44781260D01*
X105537452Y-44494362D01*
X105425510Y-44224109D01*
X105262995Y-43980888D01*
X105056152Y-43774045D01*
X104881760Y-43657520D01*
X105056152Y-43540995D01*
X105262995Y-43334152D01*
X105425510Y-43090931D01*
X105537452Y-42820678D01*
X105594520Y-42533780D01*
X105594520Y-42241260D01*
X105537452Y-41954362D01*
X105425510Y-41684109D01*
X105262995Y-41440888D01*
X105056152Y-41234045D01*
X104881760Y-41117520D01*
X105056152Y-41000995D01*
X105262995Y-40794152D01*
X105425510Y-40550931D01*
X105537452Y-40280678D01*
X105594520Y-39993780D01*
X105594520Y-39701260D01*
X105537452Y-39414362D01*
X105425510Y-39144109D01*
X105262995Y-38900888D01*
X105056152Y-38694045D01*
X104881760Y-38577520D01*
X105056152Y-38460995D01*
X105262995Y-38254152D01*
X105425510Y-38010931D01*
X105537452Y-37740678D01*
X105594520Y-37453780D01*
X105594520Y-37161260D01*
X105537452Y-36874362D01*
X105425510Y-36604109D01*
X105262995Y-36360888D01*
X105056152Y-36154045D01*
X104881760Y-36037520D01*
X105056152Y-35920995D01*
X105262995Y-35714152D01*
X105425510Y-35470931D01*
X105537452Y-35200678D01*
X105594520Y-34913780D01*
X105594520Y-34621260D01*
X105537452Y-34334362D01*
X105425510Y-34064109D01*
X105262995Y-33820888D01*
X105056152Y-33614045D01*
X104881760Y-33497520D01*
X105056152Y-33380995D01*
X105262995Y-33174152D01*
X105425510Y-32930931D01*
X105537452Y-32660678D01*
X105594520Y-32373780D01*
X105594520Y-32081260D01*
X105537452Y-31794362D01*
X105425510Y-31524109D01*
X105262995Y-31280888D01*
X105056152Y-31074045D01*
X104881760Y-30957520D01*
X105056152Y-30840995D01*
X105262995Y-30634152D01*
X105425510Y-30390931D01*
X105537452Y-30120678D01*
X105594520Y-29833780D01*
X105594520Y-29541260D01*
X105537452Y-29254362D01*
X105425510Y-28984109D01*
X105262995Y-28740888D01*
X105131140Y-28609033D01*
X105203700Y-28587022D01*
X105314014Y-28528057D01*
X105410705Y-28448705D01*
X105490057Y-28352014D01*
X105549022Y-28241700D01*
X105585332Y-28122002D01*
X105597592Y-27997520D01*
X105597592Y-26297520D01*
X105585332Y-26173038D01*
X105549022Y-26053340D01*
X105490057Y-25943026D01*
X105410705Y-25846335D01*
X105314014Y-25766983D01*
X105203700Y-25708018D01*
X105084002Y-25671708D01*
X104959520Y-25659448D01*
X103259520Y-25659448D01*
X103135038Y-25671708D01*
X103015340Y-25708018D01*
X102905026Y-25766983D01*
X102808335Y-25846335D01*
X102728983Y-25943026D01*
X102670018Y-26053340D01*
X102633708Y-26173038D01*
X102621448Y-26297520D01*
X101787592Y-26297520D01*
X101775332Y-26173038D01*
X101739022Y-26053340D01*
X101680057Y-25943026D01*
X101600705Y-25846335D01*
X101504014Y-25766983D01*
X101393700Y-25708018D01*
X101274002Y-25671708D01*
X101149520Y-25659448D01*
X99449520Y-25659448D01*
X99325038Y-25671708D01*
X99205340Y-25708018D01*
X99095026Y-25766983D01*
X98998335Y-25846335D01*
X98918983Y-25943026D01*
X98860018Y-26053340D01*
X98823708Y-26173038D01*
X98811448Y-26297520D01*
X78737092Y-26297520D01*
X78737092Y-25980020D01*
X78724832Y-25855538D01*
X78688522Y-25735840D01*
X78629557Y-25625526D01*
X78550205Y-25528835D01*
X78453514Y-25449483D01*
X78343200Y-25390518D01*
X78223502Y-25354208D01*
X78099020Y-25341948D01*
X77822752Y-25341948D01*
X77908794Y-25284457D01*
X78052957Y-25140294D01*
X78166225Y-24970776D01*
X78244246Y-24782418D01*
X78284020Y-24582459D01*
X78284020Y-24378581D01*
X78244246Y-24178622D01*
X78166225Y-23990264D01*
X78052957Y-23820746D01*
X77908794Y-23676583D01*
X77739276Y-23563315D01*
X77550918Y-23485294D01*
X77350959Y-23445520D01*
X77147081Y-23445520D01*
X76947122Y-23485294D01*
X76758764Y-23563315D01*
X76589246Y-23676583D01*
X76445083Y-23820746D01*
X76331815Y-23990264D01*
X76253794Y-24178622D01*
X76214020Y-24378581D01*
X76214020Y-24582459D01*
X76253794Y-24782418D01*
X76331815Y-24970776D01*
X76445083Y-25140294D01*
X76589246Y-25284457D01*
X76675288Y-25341948D01*
X76399020Y-25341948D01*
X76274538Y-25354208D01*
X76154840Y-25390518D01*
X76044526Y-25449483D01*
X75947835Y-25528835D01*
X75868483Y-25625526D01*
X75809518Y-25735840D01*
X75787507Y-25808400D01*
X75655652Y-25676545D01*
X75412431Y-25514030D01*
X75142178Y-25402088D01*
X74855280Y-25345020D01*
X74562760Y-25345020D01*
X74275862Y-25402088D01*
X74005609Y-25514030D01*
X73762388Y-25676545D01*
X73555545Y-25883388D01*
X73439020Y-26057780D01*
X73322495Y-25883388D01*
X73115652Y-25676545D01*
X72872431Y-25514030D01*
X72602178Y-25402088D01*
X72315280Y-25345020D01*
X72022760Y-25345020D01*
X71735862Y-25402088D01*
X71465609Y-25514030D01*
X71222388Y-25676545D01*
X71015545Y-25883388D01*
X70899020Y-26057780D01*
X70782495Y-25883388D01*
X70575652Y-25676545D01*
X70332431Y-25514030D01*
X70062178Y-25402088D01*
X69775280Y-25345020D01*
X69482760Y-25345020D01*
X69195862Y-25402088D01*
X68925609Y-25514030D01*
X68682388Y-25676545D01*
X68475545Y-25883388D01*
X68313030Y-26126609D01*
X68201088Y-26396862D01*
X68144020Y-26683760D01*
X65081520Y-26683760D01*
X65081520Y-26620260D01*
X65024452Y-26333362D01*
X64912510Y-26063109D01*
X64749995Y-25819888D01*
X64618140Y-25688033D01*
X64690700Y-25666022D01*
X64801014Y-25607057D01*
X64897705Y-25527705D01*
X64977057Y-25431014D01*
X65036022Y-25320700D01*
X65072332Y-25201002D01*
X65084592Y-25076520D01*
X65084592Y-23376520D01*
X65072332Y-23252038D01*
X65036022Y-23132340D01*
X64977057Y-23022026D01*
X64897705Y-22925335D01*
X64801014Y-22845983D01*
X64690700Y-22787018D01*
X64571002Y-22750708D01*
X64446520Y-22738448D01*
X62746520Y-22738448D01*
X62622038Y-22750708D01*
X62502340Y-22787018D01*
X62392026Y-22845983D01*
X62295335Y-22925335D01*
X62215983Y-23022026D01*
X62157018Y-23132340D01*
X62120708Y-23252038D01*
X62108448Y-23376520D01*
X49717592Y-23376520D01*
X49705332Y-23252038D01*
X49669022Y-23132340D01*
X49610057Y-23022026D01*
X49530705Y-22925335D01*
X49434014Y-22845983D01*
X49323700Y-22787018D01*
X49204002Y-22750708D01*
X49079520Y-22738448D01*
X47379520Y-22738448D01*
X47255038Y-22750708D01*
X47135340Y-22787018D01*
X47025026Y-22845983D01*
X46928335Y-22925335D01*
X46848983Y-23022026D01*
X46790018Y-23132340D01*
X46753708Y-23252038D01*
X46741448Y-23376520D01*
X40360381Y-23376520D01*
X40302495Y-23289888D01*
X40095652Y-23083045D01*
X39852431Y-22920530D01*
X39582178Y-22808588D01*
X39295280Y-22751520D01*
X39002760Y-22751520D01*
X38715862Y-22808588D01*
X38445609Y-22920530D01*
X38202388Y-23083045D01*
X37995545Y-23289888D01*
X37833030Y-23533109D01*
X37721088Y-23803362D01*
X37664020Y-24090260D01*
X37664020Y-24382780D01*
X37721088Y-24669678D01*
X37833030Y-24939931D01*
X37995545Y-25183152D01*
X38127400Y-25315007D01*
X38054840Y-25337018D01*
X37944526Y-25395983D01*
X37847835Y-25475335D01*
X37768483Y-25572026D01*
X37709518Y-25682340D01*
X37673208Y-25802038D01*
X37660948Y-25926520D01*
X28219500Y-25926520D01*
X28219500Y-21363179D01*
X28233520Y-21220193D01*
X28233520Y-21685989D01*
X28361682Y-22330304D01*
X28613081Y-22937235D01*
X28978056Y-23483459D01*
X29442581Y-23947984D01*
X29988805Y-24312959D01*
X30595736Y-24564358D01*
X31240051Y-24692520D01*
X31896989Y-24692520D01*
X32541304Y-24564358D01*
X33148235Y-24312959D01*
X33694459Y-23947984D01*
X34158984Y-23483459D01*
X34523959Y-22937235D01*
X34775358Y-22330304D01*
X34895656Y-21725520D01*
X81031448Y-21725520D01*
X81031448Y-23425520D01*
X81043708Y-23550002D01*
X81080018Y-23669700D01*
X81138983Y-23780014D01*
X81218335Y-23876705D01*
X81315026Y-23956057D01*
X81425340Y-24015022D01*
X81545038Y-24051332D01*
X81669520Y-24063592D01*
X83369520Y-24063592D01*
X83494002Y-24051332D01*
X83613700Y-24015022D01*
X83724014Y-23956057D01*
X83820705Y-23876705D01*
X83900057Y-23780014D01*
X83959022Y-23669700D01*
X83981033Y-23597140D01*
X84112888Y-23728995D01*
X84356109Y-23891510D01*
X84626362Y-24003452D01*
X84913260Y-24060520D01*
X85205780Y-24060520D01*
X85492678Y-24003452D01*
X85762931Y-23891510D01*
X86006152Y-23728995D01*
X86212995Y-23522152D01*
X86329520Y-23347760D01*
X86446045Y-23522152D01*
X86652888Y-23728995D01*
X86896109Y-23891510D01*
X87166362Y-24003452D01*
X87453260Y-24060520D01*
X87745780Y-24060520D01*
X88032678Y-24003452D01*
X88302931Y-23891510D01*
X88546152Y-23728995D01*
X88752995Y-23522152D01*
X88869520Y-23347760D01*
X88986045Y-23522152D01*
X89192888Y-23728995D01*
X89436109Y-23891510D01*
X89706362Y-24003452D01*
X89993260Y-24060520D01*
X90285780Y-24060520D01*
X90572678Y-24003452D01*
X90842931Y-23891510D01*
X91086152Y-23728995D01*
X91292995Y-23522152D01*
X91409520Y-23347760D01*
X91526045Y-23522152D01*
X91732888Y-23728995D01*
X91976109Y-23891510D01*
X92246362Y-24003452D01*
X92533260Y-24060520D01*
X92825780Y-24060520D01*
X93112678Y-24003452D01*
X93382931Y-23891510D01*
X93626152Y-23728995D01*
X93832995Y-23522152D01*
X93949520Y-23347760D01*
X94066045Y-23522152D01*
X94272888Y-23728995D01*
X94516109Y-23891510D01*
X94786362Y-24003452D01*
X95073260Y-24060520D01*
X95365780Y-24060520D01*
X95652678Y-24003452D01*
X95922931Y-23891510D01*
X96166152Y-23728995D01*
X96372995Y-23522152D01*
X96489520Y-23347760D01*
X96606045Y-23522152D01*
X96812888Y-23728995D01*
X97056109Y-23891510D01*
X97326362Y-24003452D01*
X97613260Y-24060520D01*
X97905780Y-24060520D01*
X98192678Y-24003452D01*
X98462931Y-23891510D01*
X98706152Y-23728995D01*
X98912995Y-23522152D01*
X99029520Y-23347760D01*
X99146045Y-23522152D01*
X99352888Y-23728995D01*
X99596109Y-23891510D01*
X99866362Y-24003452D01*
X100153260Y-24060520D01*
X100445780Y-24060520D01*
X100732678Y-24003452D01*
X101002931Y-23891510D01*
X101246152Y-23728995D01*
X101452995Y-23522152D01*
X101615510Y-23278931D01*
X101727452Y-23008678D01*
X101784520Y-22721780D01*
X101784520Y-22429260D01*
X101727452Y-22142362D01*
X101615510Y-21872109D01*
X101452995Y-21628888D01*
X101246152Y-21422045D01*
X101002931Y-21259530D01*
X100732678Y-21147588D01*
X100445780Y-21090520D01*
X100153260Y-21090520D01*
X99866362Y-21147588D01*
X99596109Y-21259530D01*
X99352888Y-21422045D01*
X99146045Y-21628888D01*
X99029520Y-21803280D01*
X98912995Y-21628888D01*
X98706152Y-21422045D01*
X98462931Y-21259530D01*
X98192678Y-21147588D01*
X97905780Y-21090520D01*
X97613260Y-21090520D01*
X97326362Y-21147588D01*
X97056109Y-21259530D01*
X96812888Y-21422045D01*
X96606045Y-21628888D01*
X96489520Y-21803280D01*
X96372995Y-21628888D01*
X96166152Y-21422045D01*
X95922931Y-21259530D01*
X95652678Y-21147588D01*
X95365780Y-21090520D01*
X95073260Y-21090520D01*
X94786362Y-21147588D01*
X94516109Y-21259530D01*
X94272888Y-21422045D01*
X94066045Y-21628888D01*
X93949520Y-21803280D01*
X93832995Y-21628888D01*
X93626152Y-21422045D01*
X93382931Y-21259530D01*
X93112678Y-21147588D01*
X92825780Y-21090520D01*
X92533260Y-21090520D01*
X92246362Y-21147588D01*
X91976109Y-21259530D01*
X91732888Y-21422045D01*
X91526045Y-21628888D01*
X91409520Y-21803280D01*
X91292995Y-21628888D01*
X91086152Y-21422045D01*
X90842931Y-21259530D01*
X90572678Y-21147588D01*
X90285780Y-21090520D01*
X89993260Y-21090520D01*
X89706362Y-21147588D01*
X89436109Y-21259530D01*
X89192888Y-21422045D01*
X88986045Y-21628888D01*
X88869520Y-21803280D01*
X88752995Y-21628888D01*
X88546152Y-21422045D01*
X88302931Y-21259530D01*
X88032678Y-21147588D01*
X87745780Y-21090520D01*
X87453260Y-21090520D01*
X87166362Y-21147588D01*
X86896109Y-21259530D01*
X86652888Y-21422045D01*
X86446045Y-21628888D01*
X86329520Y-21803280D01*
X86212995Y-21628888D01*
X86006152Y-21422045D01*
X85762931Y-21259530D01*
X85492678Y-21147588D01*
X85205780Y-21090520D01*
X84913260Y-21090520D01*
X84626362Y-21147588D01*
X84356109Y-21259530D01*
X84112888Y-21422045D01*
X83981033Y-21553900D01*
X83959022Y-21481340D01*
X83900057Y-21371026D01*
X83820705Y-21274335D01*
X83724014Y-21194983D01*
X83613700Y-21136018D01*
X83494002Y-21099708D01*
X83369520Y-21087448D01*
X81669520Y-21087448D01*
X81545038Y-21099708D01*
X81425340Y-21136018D01*
X81315026Y-21194983D01*
X81218335Y-21274335D01*
X81138983Y-21371026D01*
X81080018Y-21481340D01*
X81043708Y-21601038D01*
X81031448Y-21725520D01*
X34895656Y-21725520D01*
X34903520Y-21685989D01*
X34903520Y-21029051D01*
X34775358Y-20384736D01*
X34523959Y-19777805D01*
X34158984Y-19231581D01*
X33694459Y-18767056D01*
X33148235Y-18402081D01*
X32541304Y-18150682D01*
X31896989Y-18022520D01*
X31310002Y-18022520D01*
X31562322Y-17996000D01*
X116553722Y-17996000D01*
X116824195Y-18022520D01*
G37*
X116824195Y-18022520D02*
X116240051Y-18022520D01*
X115595736Y-18150682D01*
X114988805Y-18402081D01*
X114442581Y-18767056D01*
X113978056Y-19231581D01*
X113613081Y-19777805D01*
X113361682Y-20384736D01*
X113233520Y-21029051D01*
X113233520Y-21685989D01*
X113361682Y-22330304D01*
X113613081Y-22937235D01*
X113978056Y-23483459D01*
X114442581Y-23947984D01*
X114988805Y-24312959D01*
X115595736Y-24564358D01*
X116240051Y-24692520D01*
X116896989Y-24692520D01*
X117541304Y-24564358D01*
X118148235Y-24312959D01*
X118694459Y-23947984D01*
X119158984Y-23483459D01*
X119523959Y-22937235D01*
X119775358Y-22330304D01*
X119903520Y-21685989D01*
X119903520Y-21129702D01*
X119926001Y-21343594D01*
X119926000Y-61308721D01*
X119903520Y-61537991D01*
X119903520Y-61029051D01*
X119775358Y-60384736D01*
X119523959Y-59777805D01*
X119158984Y-59231581D01*
X118694459Y-58767056D01*
X118148235Y-58402081D01*
X117541304Y-58150682D01*
X116896989Y-58022520D01*
X116240051Y-58022520D01*
X115595736Y-58150682D01*
X114988805Y-58402081D01*
X114442581Y-58767056D01*
X113978056Y-59231581D01*
X113613081Y-59777805D01*
X113361682Y-60384736D01*
X113233520Y-61029051D01*
X113233520Y-61685989D01*
X113361682Y-62330304D01*
X113613081Y-62937235D01*
X113978056Y-63483459D01*
X114442581Y-63947984D01*
X114988805Y-64312959D01*
X115595736Y-64564358D01*
X116183646Y-64681300D01*
X31591539Y-64744476D01*
X30911374Y-64677786D01*
X30287930Y-64489557D01*
X29712927Y-64183823D01*
X29208252Y-63772221D01*
X28793138Y-63270433D01*
X28483396Y-62697577D01*
X28393436Y-62406964D01*
X28613081Y-62937235D01*
X28978056Y-63483459D01*
X29442581Y-63947984D01*
X29988805Y-64312959D01*
X30595736Y-64564358D01*
X31240051Y-64692520D01*
X31896989Y-64692520D01*
X32541304Y-64564358D01*
X33148235Y-64312959D01*
X33694459Y-63947984D01*
X34158984Y-63483459D01*
X34523959Y-62937235D01*
X34775358Y-62330304D01*
X34903520Y-61685989D01*
X34903520Y-61029051D01*
X34775358Y-60384736D01*
X34523959Y-59777805D01*
X34158984Y-59231581D01*
X33694459Y-58767056D01*
X33148235Y-58402081D01*
X32541304Y-58150682D01*
X31896989Y-58022520D01*
X31240051Y-58022520D01*
X30595736Y-58150682D01*
X29988805Y-58402081D01*
X29442581Y-58767056D01*
X28978056Y-59231581D01*
X28613081Y-59777805D01*
X28361682Y-60384736D01*
X28233520Y-61029051D01*
X28233520Y-61530308D01*
X28219500Y-61396917D01*
X28219500Y-57376081D01*
X57268520Y-57376081D01*
X57268520Y-57579959D01*
X57308294Y-57779918D01*
X57386315Y-57968276D01*
X57499583Y-58137794D01*
X57643746Y-58281957D01*
X57813264Y-58395225D01*
X58001622Y-58473246D01*
X58201581Y-58513020D01*
X58405459Y-58513020D01*
X58605418Y-58473246D01*
X58793776Y-58395225D01*
X58963294Y-58281957D01*
X59107457Y-58137794D01*
X59220725Y-57968276D01*
X59298746Y-57779918D01*
X59338520Y-57579959D01*
X59338520Y-57376081D01*
X59298746Y-57176122D01*
X59220725Y-56987764D01*
X59107457Y-56818246D01*
X58963294Y-56674083D01*
X58793776Y-56560815D01*
X58605418Y-56482794D01*
X58405459Y-56443020D01*
X58201581Y-56443020D01*
X58001622Y-56482794D01*
X57813264Y-56560815D01*
X57643746Y-56674083D01*
X57499583Y-56818246D01*
X57386315Y-56987764D01*
X57308294Y-57176122D01*
X57268520Y-57376081D01*
X28219500Y-57376081D01*
X28219500Y-53665155D01*
X38693520Y-53665155D01*
X38693520Y-53943885D01*
X38747897Y-54217260D01*
X38854563Y-54474774D01*
X39009417Y-54706530D01*
X39206510Y-54903623D01*
X39438266Y-55058477D01*
X39695780Y-55165143D01*
X39969155Y-55219520D01*
X40247885Y-55219520D01*
X40521260Y-55165143D01*
X40750800Y-55070064D01*
X41401020Y-55070064D01*
X41401020Y-55238976D01*
X41433973Y-55404644D01*
X41498613Y-55560699D01*
X41592456Y-55701144D01*
X41711896Y-55820584D01*
X41852341Y-55914427D01*
X42008396Y-55979067D01*
X42174064Y-56012020D01*
X42342976Y-56012020D01*
X42508644Y-55979067D01*
X42664699Y-55914427D01*
X42805144Y-55820584D01*
X42924584Y-55701144D01*
X43018427Y-55560699D01*
X43083067Y-55404644D01*
X43116020Y-55238976D01*
X43116020Y-55070064D01*
X43083067Y-54904396D01*
X43018427Y-54748341D01*
X42924584Y-54607896D01*
X42805144Y-54488456D01*
X42664699Y-54394613D01*
X42508644Y-54329973D01*
X42342976Y-54297020D01*
X42174064Y-54297020D01*
X42008396Y-54329973D01*
X41852341Y-54394613D01*
X41711896Y-54488456D01*
X41592456Y-54607896D01*
X41498613Y-54748341D01*
X41433973Y-54904396D01*
X41401020Y-55070064D01*
X40750800Y-55070064D01*
X40778774Y-55058477D01*
X41010530Y-54903623D01*
X41207623Y-54706530D01*
X41362477Y-54474774D01*
X41469143Y-54217260D01*
X41523520Y-53943885D01*
X41523520Y-53665155D01*
X42993520Y-53665155D01*
X42993520Y-53943885D01*
X43047897Y-54217260D01*
X43154563Y-54474774D01*
X43309417Y-54706530D01*
X43506510Y-54903623D01*
X43738266Y-55058477D01*
X43995780Y-55165143D01*
X44269155Y-55219520D01*
X44547885Y-55219520D01*
X44821260Y-55165143D01*
X45078774Y-55058477D01*
X45310530Y-54903623D01*
X45507623Y-54706530D01*
X45662477Y-54474774D01*
X45769143Y-54217260D01*
X45823520Y-53943885D01*
X45823520Y-53665155D01*
X45769143Y-53391780D01*
X45662477Y-53134266D01*
X45507623Y-52902510D01*
X45310530Y-52705417D01*
X45256970Y-52669629D01*
X54818520Y-52669629D01*
X54818520Y-52814411D01*
X54846766Y-52956411D01*
X54902172Y-53090173D01*
X54982608Y-53210555D01*
X55014073Y-53242020D01*
X54982608Y-53273485D01*
X54902172Y-53393867D01*
X54846766Y-53527629D01*
X54818520Y-53669629D01*
X54818520Y-53814411D01*
X54846766Y-53956411D01*
X54902172Y-54090173D01*
X54982608Y-54210555D01*
X55014073Y-54242020D01*
X54982608Y-54273485D01*
X54902172Y-54393867D01*
X54846766Y-54527629D01*
X54818520Y-54669629D01*
X54818520Y-54814411D01*
X54846766Y-54956411D01*
X54902172Y-55090173D01*
X54982608Y-55210555D01*
X55084985Y-55312932D01*
X55205367Y-55393368D01*
X55339129Y-55448774D01*
X55481129Y-55477020D01*
X55625911Y-55477020D01*
X55767911Y-55448774D01*
X55901673Y-55393368D01*
X56022055Y-55312932D01*
X56053520Y-55281467D01*
X56084985Y-55312932D01*
X56205367Y-55393368D01*
X56339129Y-55448774D01*
X56481129Y-55477020D01*
X56625911Y-55477020D01*
X56767911Y-55448774D01*
X56901673Y-55393368D01*
X57022055Y-55312932D01*
X57053520Y-55281467D01*
X57084985Y-55312932D01*
X57205367Y-55393368D01*
X57339129Y-55448774D01*
X57481129Y-55477020D01*
X57625911Y-55477020D01*
X57767911Y-55448774D01*
X57901673Y-55393368D01*
X58022055Y-55312932D01*
X58124432Y-55210555D01*
X58204868Y-55090173D01*
X58260274Y-54956411D01*
X58273670Y-54889061D01*
X59109660Y-54889061D01*
X59109660Y-55092939D01*
X59149434Y-55292898D01*
X59227455Y-55481256D01*
X59340723Y-55650774D01*
X59484886Y-55794937D01*
X59654404Y-55908205D01*
X59842762Y-55986226D01*
X60042721Y-56026000D01*
X60246599Y-56026000D01*
X60446558Y-55986226D01*
X60634916Y-55908205D01*
X60804434Y-55794937D01*
X60948597Y-55650774D01*
X61061865Y-55481256D01*
X61139886Y-55292898D01*
X61179660Y-55092939D01*
X61179660Y-54889061D01*
X61139886Y-54689102D01*
X61061865Y-54500744D01*
X61001955Y-54411081D01*
X70248020Y-54411081D01*
X70248020Y-54614959D01*
X70287794Y-54814918D01*
X70365815Y-55003276D01*
X70479083Y-55172794D01*
X70623246Y-55316957D01*
X70792764Y-55430225D01*
X70981122Y-55508246D01*
X71181081Y-55548020D01*
X71384959Y-55548020D01*
X71584918Y-55508246D01*
X71586670Y-55507520D01*
X73093948Y-55507520D01*
X73093948Y-57207520D01*
X73106208Y-57332002D01*
X73142518Y-57451700D01*
X73201483Y-57562014D01*
X73280835Y-57658705D01*
X73377526Y-57738057D01*
X73487840Y-57797022D01*
X73607538Y-57833332D01*
X73732020Y-57845592D01*
X75432020Y-57845592D01*
X75556502Y-57833332D01*
X75676200Y-57797022D01*
X75786514Y-57738057D01*
X75883205Y-57658705D01*
X75962557Y-57562014D01*
X76021522Y-57451700D01*
X76043533Y-57379140D01*
X76175388Y-57510995D01*
X76418609Y-57673510D01*
X76688862Y-57785452D01*
X76975760Y-57842520D01*
X77268280Y-57842520D01*
X77555178Y-57785452D01*
X77825431Y-57673510D01*
X78068652Y-57510995D01*
X78275495Y-57304152D01*
X78392020Y-57129760D01*
X78508545Y-57304152D01*
X78715388Y-57510995D01*
X78958609Y-57673510D01*
X79228862Y-57785452D01*
X79515760Y-57842520D01*
X79808280Y-57842520D01*
X80095178Y-57785452D01*
X80365431Y-57673510D01*
X80608652Y-57510995D01*
X80815495Y-57304152D01*
X80932020Y-57129760D01*
X81048545Y-57304152D01*
X81255388Y-57510995D01*
X81498609Y-57673510D01*
X81768862Y-57785452D01*
X82055760Y-57842520D01*
X82348280Y-57842520D01*
X82635178Y-57785452D01*
X82905431Y-57673510D01*
X83148652Y-57510995D01*
X83355495Y-57304152D01*
X83472020Y-57129760D01*
X83588545Y-57304152D01*
X83795388Y-57510995D01*
X84038609Y-57673510D01*
X84308862Y-57785452D01*
X84595760Y-57842520D01*
X84888280Y-57842520D01*
X85175178Y-57785452D01*
X85445431Y-57673510D01*
X85688652Y-57510995D01*
X85895495Y-57304152D01*
X86012020Y-57129760D01*
X86128545Y-57304152D01*
X86335388Y-57510995D01*
X86578609Y-57673510D01*
X86848862Y-57785452D01*
X87135760Y-57842520D01*
X87428280Y-57842520D01*
X87715178Y-57785452D01*
X87985431Y-57673510D01*
X88228652Y-57510995D01*
X88435495Y-57304152D01*
X88552020Y-57129760D01*
X88668545Y-57304152D01*
X88875388Y-57510995D01*
X89118609Y-57673510D01*
X89388862Y-57785452D01*
X89675760Y-57842520D01*
X89968280Y-57842520D01*
X90255178Y-57785452D01*
X90525431Y-57673510D01*
X90768652Y-57510995D01*
X90975495Y-57304152D01*
X91138010Y-57060931D01*
X91249952Y-56790678D01*
X91307020Y-56503780D01*
X91307020Y-56211260D01*
X91249952Y-55924362D01*
X91138010Y-55654109D01*
X91040063Y-55507520D01*
X92080448Y-55507520D01*
X92080448Y-57207520D01*
X92092708Y-57332002D01*
X92129018Y-57451700D01*
X92187983Y-57562014D01*
X92267335Y-57658705D01*
X92364026Y-57738057D01*
X92474340Y-57797022D01*
X92594038Y-57833332D01*
X92718520Y-57845592D01*
X94418520Y-57845592D01*
X94543002Y-57833332D01*
X94662700Y-57797022D01*
X94773014Y-57738057D01*
X94869705Y-57658705D01*
X94949057Y-57562014D01*
X95008022Y-57451700D01*
X95030033Y-57379140D01*
X95161888Y-57510995D01*
X95405109Y-57673510D01*
X95675362Y-57785452D01*
X95962260Y-57842520D01*
X96254780Y-57842520D01*
X96541678Y-57785452D01*
X96811931Y-57673510D01*
X97055152Y-57510995D01*
X97261995Y-57304152D01*
X97378520Y-57129760D01*
X97495045Y-57304152D01*
X97701888Y-57510995D01*
X97945109Y-57673510D01*
X98215362Y-57785452D01*
X98502260Y-57842520D01*
X98794780Y-57842520D01*
X99081678Y-57785452D01*
X99351931Y-57673510D01*
X99595152Y-57510995D01*
X99801995Y-57304152D01*
X99918520Y-57129760D01*
X100035045Y-57304152D01*
X100241888Y-57510995D01*
X100485109Y-57673510D01*
X100755362Y-57785452D01*
X101042260Y-57842520D01*
X101334780Y-57842520D01*
X101621678Y-57785452D01*
X101891931Y-57673510D01*
X102135152Y-57510995D01*
X102341995Y-57304152D01*
X102458520Y-57129760D01*
X102575045Y-57304152D01*
X102781888Y-57510995D01*
X103025109Y-57673510D01*
X103295362Y-57785452D01*
X103582260Y-57842520D01*
X103874780Y-57842520D01*
X104161678Y-57785452D01*
X104431931Y-57673510D01*
X104675152Y-57510995D01*
X104881995Y-57304152D01*
X104998520Y-57129760D01*
X105115045Y-57304152D01*
X105321888Y-57510995D01*
X105565109Y-57673510D01*
X105835362Y-57785452D01*
X106122260Y-57842520D01*
X106414780Y-57842520D01*
X106701678Y-57785452D01*
X106971931Y-57673510D01*
X107215152Y-57510995D01*
X107421995Y-57304152D01*
X107538520Y-57129760D01*
X107655045Y-57304152D01*
X107861888Y-57510995D01*
X108105109Y-57673510D01*
X108375362Y-57785452D01*
X108662260Y-57842520D01*
X108954780Y-57842520D01*
X109241678Y-57785452D01*
X109511931Y-57673510D01*
X109755152Y-57510995D01*
X109961995Y-57304152D01*
X110078520Y-57129760D01*
X110195045Y-57304152D01*
X110401888Y-57510995D01*
X110645109Y-57673510D01*
X110915362Y-57785452D01*
X111202260Y-57842520D01*
X111494780Y-57842520D01*
X111781678Y-57785452D01*
X112051931Y-57673510D01*
X112295152Y-57510995D01*
X112501995Y-57304152D01*
X112664510Y-57060931D01*
X112776452Y-56790678D01*
X112833520Y-56503780D01*
X112833520Y-56211260D01*
X112776452Y-55924362D01*
X112664510Y-55654109D01*
X112501995Y-55410888D01*
X112295152Y-55204045D01*
X112051931Y-55041530D01*
X111781678Y-54929588D01*
X111494780Y-54872520D01*
X111202260Y-54872520D01*
X110915362Y-54929588D01*
X110645109Y-55041530D01*
X110401888Y-55204045D01*
X110195045Y-55410888D01*
X110078520Y-55585280D01*
X109961995Y-55410888D01*
X109755152Y-55204045D01*
X109511931Y-55041530D01*
X109241678Y-54929588D01*
X108954780Y-54872520D01*
X108662260Y-54872520D01*
X108375362Y-54929588D01*
X108105109Y-55041530D01*
X107861888Y-55204045D01*
X107655045Y-55410888D01*
X107538520Y-55585280D01*
X107421995Y-55410888D01*
X107215152Y-55204045D01*
X106971931Y-55041530D01*
X106701678Y-54929588D01*
X106414780Y-54872520D01*
X106122260Y-54872520D01*
X105835362Y-54929588D01*
X105565109Y-55041530D01*
X105321888Y-55204045D01*
X105115045Y-55410888D01*
X104998520Y-55585280D01*
X104881995Y-55410888D01*
X104675152Y-55204045D01*
X104431931Y-55041530D01*
X104161678Y-54929588D01*
X103874780Y-54872520D01*
X103582260Y-54872520D01*
X103295362Y-54929588D01*
X103025109Y-55041530D01*
X102781888Y-55204045D01*
X102575045Y-55410888D01*
X102458520Y-55585280D01*
X102341995Y-55410888D01*
X102135152Y-55204045D01*
X101891931Y-55041530D01*
X101621678Y-54929588D01*
X101334780Y-54872520D01*
X101042260Y-54872520D01*
X100755362Y-54929588D01*
X100485109Y-55041530D01*
X100241888Y-55204045D01*
X100035045Y-55410888D01*
X99918520Y-55585280D01*
X99801995Y-55410888D01*
X99595152Y-55204045D01*
X99351931Y-55041530D01*
X99081678Y-54929588D01*
X98794780Y-54872520D01*
X98502260Y-54872520D01*
X98215362Y-54929588D01*
X97945109Y-55041530D01*
X97701888Y-55204045D01*
X97495045Y-55410888D01*
X97378520Y-55585280D01*
X97261995Y-55410888D01*
X97055152Y-55204045D01*
X96811931Y-55041530D01*
X96541678Y-54929588D01*
X96254780Y-54872520D01*
X95962260Y-54872520D01*
X95675362Y-54929588D01*
X95405109Y-55041530D01*
X95161888Y-55204045D01*
X95030033Y-55335900D01*
X95008022Y-55263340D01*
X94949057Y-55153026D01*
X94869705Y-55056335D01*
X94773014Y-54976983D01*
X94662700Y-54918018D01*
X94543002Y-54881708D01*
X94418520Y-54869448D01*
X92718520Y-54869448D01*
X92594038Y-54881708D01*
X92474340Y-54918018D01*
X92364026Y-54976983D01*
X92267335Y-55056335D01*
X92187983Y-55153026D01*
X92129018Y-55263340D01*
X92092708Y-55383038D01*
X92080448Y-55507520D01*
X91040063Y-55507520D01*
X90975495Y-55410888D01*
X90768652Y-55204045D01*
X90525431Y-55041530D01*
X90255178Y-54929588D01*
X89968280Y-54872520D01*
X89675760Y-54872520D01*
X89388862Y-54929588D01*
X89118609Y-55041530D01*
X88875388Y-55204045D01*
X88668545Y-55410888D01*
X88552020Y-55585280D01*
X88435495Y-55410888D01*
X88228652Y-55204045D01*
X87985431Y-55041530D01*
X87715178Y-54929588D01*
X87428280Y-54872520D01*
X87135760Y-54872520D01*
X86848862Y-54929588D01*
X86578609Y-55041530D01*
X86335388Y-55204045D01*
X86128545Y-55410888D01*
X86012020Y-55585280D01*
X85895495Y-55410888D01*
X85688652Y-55204045D01*
X85445431Y-55041530D01*
X85175178Y-54929588D01*
X84888280Y-54872520D01*
X84595760Y-54872520D01*
X84308862Y-54929588D01*
X84038609Y-55041530D01*
X83795388Y-55204045D01*
X83588545Y-55410888D01*
X83472020Y-55585280D01*
X83355495Y-55410888D01*
X83148652Y-55204045D01*
X82905431Y-55041530D01*
X82635178Y-54929588D01*
X82348280Y-54872520D01*
X82055760Y-54872520D01*
X81768862Y-54929588D01*
X81498609Y-55041530D01*
X81255388Y-55204045D01*
X81048545Y-55410888D01*
X80932020Y-55585280D01*
X80815495Y-55410888D01*
X80608652Y-55204045D01*
X80365431Y-55041530D01*
X80095178Y-54929588D01*
X79808280Y-54872520D01*
X79515760Y-54872520D01*
X79228862Y-54929588D01*
X78958609Y-55041530D01*
X78715388Y-55204045D01*
X78508545Y-55410888D01*
X78392020Y-55585280D01*
X78275495Y-55410888D01*
X78068652Y-55204045D01*
X77825431Y-55041530D01*
X77555178Y-54929588D01*
X77268280Y-54872520D01*
X76975760Y-54872520D01*
X76688862Y-54929588D01*
X76418609Y-55041530D01*
X76175388Y-55204045D01*
X76043533Y-55335900D01*
X76021522Y-55263340D01*
X75962557Y-55153026D01*
X75883205Y-55056335D01*
X75786514Y-54976983D01*
X75676200Y-54918018D01*
X75556502Y-54881708D01*
X75432020Y-54869448D01*
X73732020Y-54869448D01*
X73607538Y-54881708D01*
X73487840Y-54918018D01*
X73377526Y-54976983D01*
X73280835Y-55056335D01*
X73201483Y-55153026D01*
X73142518Y-55263340D01*
X73106208Y-55383038D01*
X73093948Y-55507520D01*
X71586670Y-55507520D01*
X71773276Y-55430225D01*
X71942794Y-55316957D01*
X72086957Y-55172794D01*
X72200225Y-55003276D01*
X72278246Y-54814918D01*
X72318020Y-54614959D01*
X72318020Y-54411081D01*
X72278246Y-54211122D01*
X72200225Y-54022764D01*
X72086957Y-53853246D01*
X71942794Y-53709083D01*
X71773276Y-53595815D01*
X71584918Y-53517794D01*
X71384959Y-53478020D01*
X71181081Y-53478020D01*
X70981122Y-53517794D01*
X70792764Y-53595815D01*
X70623246Y-53709083D01*
X70479083Y-53853246D01*
X70365815Y-54022764D01*
X70287794Y-54211122D01*
X70248020Y-54411081D01*
X61001955Y-54411081D01*
X60948597Y-54331226D01*
X60804434Y-54187063D01*
X60634916Y-54073795D01*
X60521992Y-54027020D01*
X60586959Y-54027020D01*
X60786918Y-53987246D01*
X60975276Y-53909225D01*
X61144794Y-53795957D01*
X61288957Y-53651794D01*
X61402225Y-53482276D01*
X61480246Y-53293918D01*
X61520020Y-53093959D01*
X61520020Y-52890081D01*
X61480246Y-52690122D01*
X61402225Y-52501764D01*
X61288957Y-52332246D01*
X61144794Y-52188083D01*
X60975276Y-52074815D01*
X60786918Y-51996794D01*
X60586959Y-51957020D01*
X60383081Y-51957020D01*
X60183122Y-51996794D01*
X59994764Y-52074815D01*
X59825246Y-52188083D01*
X59681083Y-52332246D01*
X59567815Y-52501764D01*
X59489794Y-52690122D01*
X59450020Y-52890081D01*
X59450020Y-53093959D01*
X59489794Y-53293918D01*
X59567815Y-53482276D01*
X59681083Y-53651794D01*
X59825246Y-53795957D01*
X59994764Y-53909225D01*
X60107688Y-53956000D01*
X60042721Y-53956000D01*
X59842762Y-53995774D01*
X59654404Y-54073795D01*
X59484886Y-54187063D01*
X59340723Y-54331226D01*
X59227455Y-54500744D01*
X59149434Y-54689102D01*
X59109660Y-54889061D01*
X58273670Y-54889061D01*
X58288520Y-54814411D01*
X58288520Y-54669629D01*
X58260274Y-54527629D01*
X58204868Y-54393867D01*
X58124432Y-54273485D01*
X58092967Y-54242020D01*
X58124432Y-54210555D01*
X58204868Y-54090173D01*
X58260274Y-53956411D01*
X58288520Y-53814411D01*
X58288520Y-53669629D01*
X58260274Y-53527629D01*
X58204868Y-53393867D01*
X58124432Y-53273485D01*
X58092967Y-53242020D01*
X58124432Y-53210555D01*
X58204868Y-53090173D01*
X58260274Y-52956411D01*
X58288520Y-52814411D01*
X58288520Y-52669629D01*
X58260274Y-52527629D01*
X58204868Y-52393867D01*
X58124432Y-52273485D01*
X58022055Y-52171108D01*
X57901673Y-52090672D01*
X57767911Y-52035266D01*
X57625911Y-52007020D01*
X57481129Y-52007020D01*
X57339129Y-52035266D01*
X57205367Y-52090672D01*
X57084985Y-52171108D01*
X57053520Y-52202573D01*
X57022055Y-52171108D01*
X56901673Y-52090672D01*
X56767911Y-52035266D01*
X56625911Y-52007020D01*
X56481129Y-52007020D01*
X56339129Y-52035266D01*
X56205367Y-52090672D01*
X56084985Y-52171108D01*
X56053520Y-52202573D01*
X56022055Y-52171108D01*
X55901673Y-52090672D01*
X55767911Y-52035266D01*
X55625911Y-52007020D01*
X55481129Y-52007020D01*
X55339129Y-52035266D01*
X55205367Y-52090672D01*
X55084985Y-52171108D01*
X54982608Y-52273485D01*
X54902172Y-52393867D01*
X54846766Y-52527629D01*
X54818520Y-52669629D01*
X45256970Y-52669629D01*
X45078774Y-52550563D01*
X44821260Y-52443897D01*
X44547885Y-52389520D01*
X44269155Y-52389520D01*
X43995780Y-52443897D01*
X43738266Y-52550563D01*
X43506510Y-52705417D01*
X43309417Y-52902510D01*
X43154563Y-53134266D01*
X43047897Y-53391780D01*
X42993520Y-53665155D01*
X41523520Y-53665155D01*
X41469143Y-53391780D01*
X41362477Y-53134266D01*
X41207623Y-52902510D01*
X41010530Y-52705417D01*
X40778774Y-52550563D01*
X40521260Y-52443897D01*
X40247885Y-52389520D01*
X39969155Y-52389520D01*
X39695780Y-52443897D01*
X39438266Y-52550563D01*
X39206510Y-52705417D01*
X39009417Y-52902510D01*
X38854563Y-53134266D01*
X38747897Y-53391780D01*
X38693520Y-53665155D01*
X28219500Y-53665155D01*
X28219500Y-51805071D01*
X61360530Y-51805071D01*
X61360530Y-52008949D01*
X61400304Y-52208908D01*
X61478325Y-52397266D01*
X61591593Y-52566784D01*
X61735756Y-52710947D01*
X61905274Y-52824215D01*
X62093632Y-52902236D01*
X62293591Y-52942010D01*
X62411669Y-52942010D01*
X62410794Y-52944122D01*
X62371020Y-53144081D01*
X62371020Y-53347959D01*
X62410794Y-53547918D01*
X62488815Y-53736276D01*
X62602083Y-53905794D01*
X62746246Y-54049957D01*
X62915764Y-54163225D01*
X63104122Y-54241246D01*
X63304081Y-54281020D01*
X63507959Y-54281020D01*
X63707918Y-54241246D01*
X63896276Y-54163225D01*
X64065794Y-54049957D01*
X64209957Y-53905794D01*
X64323225Y-53736276D01*
X64401246Y-53547918D01*
X64441020Y-53347959D01*
X64441020Y-53144081D01*
X64401246Y-52944122D01*
X64323225Y-52755764D01*
X64209957Y-52586246D01*
X64065794Y-52442083D01*
X63896276Y-52328815D01*
X63707918Y-52250794D01*
X63507959Y-52211020D01*
X63389881Y-52211020D01*
X63390756Y-52208908D01*
X63430530Y-52008949D01*
X63430530Y-51805071D01*
X63390756Y-51605112D01*
X63370654Y-51556581D01*
X102947520Y-51556581D01*
X102947520Y-51760459D01*
X102987294Y-51960418D01*
X103065315Y-52148776D01*
X103178583Y-52318294D01*
X103322746Y-52462457D01*
X103492264Y-52575725D01*
X103680622Y-52653746D01*
X103880581Y-52693520D01*
X104084459Y-52693520D01*
X104284418Y-52653746D01*
X104472776Y-52575725D01*
X104642294Y-52462457D01*
X104786457Y-52318294D01*
X104899725Y-52148776D01*
X104977746Y-51960418D01*
X105017520Y-51760459D01*
X105017520Y-51556581D01*
X104977746Y-51356622D01*
X104899725Y-51168264D01*
X104786457Y-50998746D01*
X104642294Y-50854583D01*
X104472776Y-50741315D01*
X104284418Y-50663294D01*
X104084459Y-50623520D01*
X103880581Y-50623520D01*
X103680622Y-50663294D01*
X103492264Y-50741315D01*
X103322746Y-50854583D01*
X103178583Y-50998746D01*
X103065315Y-51168264D01*
X102987294Y-51356622D01*
X102947520Y-51556581D01*
X63370654Y-51556581D01*
X63312735Y-51416754D01*
X63199467Y-51247236D01*
X63055304Y-51103073D01*
X62885786Y-50989805D01*
X62697428Y-50911784D01*
X62497469Y-50872010D01*
X62293591Y-50872010D01*
X62093632Y-50911784D01*
X61905274Y-50989805D01*
X61735756Y-51103073D01*
X61591593Y-51247236D01*
X61478325Y-51416754D01*
X61400304Y-51605112D01*
X61360530Y-51805071D01*
X28219500Y-51805071D01*
X28219500Y-48865155D01*
X38693520Y-48865155D01*
X38693520Y-49143885D01*
X38747897Y-49417260D01*
X38854563Y-49674774D01*
X39009417Y-49906530D01*
X39206510Y-50103623D01*
X39438266Y-50258477D01*
X39695780Y-50365143D01*
X39969155Y-50419520D01*
X40247885Y-50419520D01*
X40521260Y-50365143D01*
X40778774Y-50258477D01*
X41010530Y-50103623D01*
X41207623Y-49906530D01*
X41362477Y-49674774D01*
X41469143Y-49417260D01*
X41523520Y-49143885D01*
X41523520Y-48865155D01*
X42993520Y-48865155D01*
X42993520Y-49143885D01*
X43047897Y-49417260D01*
X43154563Y-49674774D01*
X43309417Y-49906530D01*
X43506510Y-50103623D01*
X43738266Y-50258477D01*
X43995780Y-50365143D01*
X44269155Y-50419520D01*
X44547885Y-50419520D01*
X44821260Y-50365143D01*
X45078774Y-50258477D01*
X45310530Y-50103623D01*
X45381572Y-50032581D01*
X57545020Y-50032581D01*
X57545020Y-50236459D01*
X57584794Y-50436418D01*
X57662815Y-50624776D01*
X57776083Y-50794294D01*
X57920246Y-50938457D01*
X58089764Y-51051725D01*
X58278122Y-51129746D01*
X58478081Y-51169520D01*
X58681959Y-51169520D01*
X58881918Y-51129746D01*
X59070276Y-51051725D01*
X59239794Y-50938457D01*
X59383957Y-50794294D01*
X59497225Y-50624776D01*
X59575246Y-50436418D01*
X59615020Y-50236459D01*
X59615020Y-50032581D01*
X59575246Y-49832622D01*
X59497225Y-49644264D01*
X59383957Y-49474746D01*
X59239794Y-49330583D01*
X59070276Y-49217315D01*
X58881918Y-49139294D01*
X58681959Y-49099520D01*
X58478081Y-49099520D01*
X58278122Y-49139294D01*
X58089764Y-49217315D01*
X57920246Y-49330583D01*
X57776083Y-49474746D01*
X57662815Y-49644264D01*
X57584794Y-49832622D01*
X57545020Y-50032581D01*
X45381572Y-50032581D01*
X45507623Y-49906530D01*
X45662477Y-49674774D01*
X45769143Y-49417260D01*
X45823520Y-49143885D01*
X45823520Y-48865155D01*
X45769143Y-48591780D01*
X45662477Y-48334266D01*
X45507623Y-48102510D01*
X45342194Y-47937081D01*
X75325020Y-47937081D01*
X75325020Y-48140959D01*
X75364794Y-48340918D01*
X75442815Y-48529276D01*
X75556083Y-48698794D01*
X75700246Y-48842957D01*
X75869764Y-48956225D01*
X76058122Y-49034246D01*
X76258081Y-49074020D01*
X76461959Y-49074020D01*
X76661918Y-49034246D01*
X76750156Y-48997696D01*
X76762583Y-49016294D01*
X76906746Y-49160457D01*
X77076264Y-49273725D01*
X77264622Y-49351746D01*
X77464581Y-49391520D01*
X77668459Y-49391520D01*
X77868418Y-49351746D01*
X77873690Y-49349562D01*
X77905583Y-49397294D01*
X78049746Y-49541457D01*
X78219264Y-49654725D01*
X78407622Y-49732746D01*
X78607581Y-49772520D01*
X78811459Y-49772520D01*
X78942456Y-49746463D01*
X79048583Y-49905294D01*
X79192746Y-50049457D01*
X79362264Y-50162725D01*
X79550622Y-50240746D01*
X79750581Y-50280520D01*
X79954459Y-50280520D01*
X80154418Y-50240746D01*
X80342776Y-50162725D01*
X80512294Y-50049457D01*
X80656457Y-49905294D01*
X80769725Y-49735776D01*
X80847746Y-49547418D01*
X80887520Y-49347459D01*
X80887520Y-49143581D01*
X80847746Y-48943622D01*
X80769725Y-48755264D01*
X80656457Y-48585746D01*
X80512294Y-48441583D01*
X80342776Y-48328315D01*
X80154418Y-48250294D01*
X79954459Y-48210520D01*
X79750581Y-48210520D01*
X79619584Y-48236577D01*
X79513457Y-48077746D01*
X79369294Y-47933583D01*
X79199776Y-47820315D01*
X79011418Y-47742294D01*
X78811459Y-47702520D01*
X78607581Y-47702520D01*
X78407622Y-47742294D01*
X78402350Y-47744478D01*
X78370457Y-47696746D01*
X78226294Y-47552583D01*
X78056776Y-47439315D01*
X77868418Y-47361294D01*
X77668459Y-47321520D01*
X77464581Y-47321520D01*
X77264622Y-47361294D01*
X77176384Y-47397844D01*
X77163957Y-47379246D01*
X77019794Y-47235083D01*
X76850276Y-47121815D01*
X76661918Y-47043794D01*
X76461959Y-47004020D01*
X76258081Y-47004020D01*
X76058122Y-47043794D01*
X75869764Y-47121815D01*
X75700246Y-47235083D01*
X75556083Y-47379246D01*
X75442815Y-47548764D01*
X75364794Y-47737122D01*
X75325020Y-47937081D01*
X45342194Y-47937081D01*
X45310530Y-47905417D01*
X45078774Y-47750563D01*
X44821260Y-47643897D01*
X44547885Y-47589520D01*
X44269155Y-47589520D01*
X43995780Y-47643897D01*
X43738266Y-47750563D01*
X43506510Y-47905417D01*
X43309417Y-48102510D01*
X43154563Y-48334266D01*
X43047897Y-48591780D01*
X42993520Y-48865155D01*
X41523520Y-48865155D01*
X41469143Y-48591780D01*
X41362477Y-48334266D01*
X41207623Y-48102510D01*
X41010530Y-47905417D01*
X40778774Y-47750563D01*
X40521260Y-47643897D01*
X40247885Y-47589520D01*
X39969155Y-47589520D01*
X39695780Y-47643897D01*
X39438266Y-47750563D01*
X39206510Y-47905417D01*
X39009417Y-48102510D01*
X38854563Y-48334266D01*
X38747897Y-48591780D01*
X38693520Y-48865155D01*
X28219500Y-48865155D01*
X28219500Y-47579174D01*
X41493520Y-47579174D01*
X41493520Y-47729866D01*
X41522918Y-47877662D01*
X41580585Y-48016884D01*
X41664305Y-48142179D01*
X41770861Y-48248735D01*
X41896156Y-48332455D01*
X42035378Y-48390122D01*
X42183174Y-48419520D01*
X42333866Y-48419520D01*
X42481662Y-48390122D01*
X42620884Y-48332455D01*
X42746179Y-48248735D01*
X42852735Y-48142179D01*
X42936455Y-48016884D01*
X42994122Y-47877662D01*
X43023520Y-47729866D01*
X43023520Y-47579174D01*
X42994122Y-47431378D01*
X42936455Y-47292156D01*
X42852735Y-47166861D01*
X42746179Y-47060305D01*
X42620884Y-46976585D01*
X42481662Y-46918918D01*
X42333866Y-46889520D01*
X42183174Y-46889520D01*
X42035378Y-46918918D01*
X41896156Y-46976585D01*
X41770861Y-47060305D01*
X41664305Y-47166861D01*
X41580585Y-47292156D01*
X41522918Y-47431378D01*
X41493520Y-47579174D01*
X28219500Y-47579174D01*
X28219500Y-43174581D01*
X56973520Y-43174581D01*
X56973520Y-43378459D01*
X57013294Y-43578418D01*
X57091315Y-43766776D01*
X57103171Y-43784520D01*
X57091315Y-43802264D01*
X57013294Y-43990622D01*
X56973520Y-44190581D01*
X56973520Y-44394459D01*
X57013294Y-44594418D01*
X57091315Y-44782776D01*
X57204583Y-44952294D01*
X57348746Y-45096457D01*
X57518264Y-45209725D01*
X57706622Y-45287746D01*
X57906581Y-45327520D01*
X58110459Y-45327520D01*
X58310418Y-45287746D01*
X58498776Y-45209725D01*
X58516520Y-45197869D01*
X58534264Y-45209725D01*
X58722622Y-45287746D01*
X58922581Y-45327520D01*
X59126459Y-45327520D01*
X59326418Y-45287746D01*
X59514776Y-45209725D01*
X59684294Y-45096457D01*
X59828457Y-44952294D01*
X59941725Y-44782776D01*
X60019746Y-44594418D01*
X60059520Y-44394459D01*
X60059520Y-44190581D01*
X60019746Y-43990622D01*
X59941725Y-43802264D01*
X59929869Y-43784520D01*
X59941725Y-43766776D01*
X60019746Y-43578418D01*
X60059520Y-43378459D01*
X60059520Y-43174581D01*
X60019746Y-42974622D01*
X59941725Y-42786264D01*
X59828457Y-42616746D01*
X59684294Y-42472583D01*
X59514776Y-42359315D01*
X59326418Y-42281294D01*
X59126459Y-42241520D01*
X58922581Y-42241520D01*
X58722622Y-42281294D01*
X58534264Y-42359315D01*
X58516520Y-42371171D01*
X58498776Y-42359315D01*
X58310418Y-42281294D01*
X58110459Y-42241520D01*
X57906581Y-42241520D01*
X57706622Y-42281294D01*
X57518264Y-42359315D01*
X57348746Y-42472583D01*
X57204583Y-42616746D01*
X57091315Y-42786264D01*
X57013294Y-42974622D01*
X56973520Y-43174581D01*
X28219500Y-43174581D01*
X28219500Y-41269581D01*
X61545520Y-41269581D01*
X61545520Y-41473459D01*
X61585294Y-41673418D01*
X61663315Y-41861776D01*
X61776583Y-42031294D01*
X61880333Y-42135044D01*
X61863020Y-42222081D01*
X61863020Y-42425959D01*
X61902794Y-42625918D01*
X61980815Y-42814276D01*
X62094083Y-42983794D01*
X62238246Y-43127957D01*
X62256844Y-43140384D01*
X62220294Y-43228622D01*
X62180520Y-43428581D01*
X62180520Y-43632459D01*
X62220294Y-43832418D01*
X62298315Y-44020776D01*
X62411583Y-44190294D01*
X62555746Y-44334457D01*
X62725264Y-44447725D01*
X62913622Y-44525746D01*
X63113581Y-44565520D01*
X63317459Y-44565520D01*
X63517418Y-44525746D01*
X63705776Y-44447725D01*
X63875294Y-44334457D01*
X64019457Y-44190294D01*
X64132725Y-44020776D01*
X64210746Y-43832418D01*
X64250520Y-43632459D01*
X64250520Y-43428581D01*
X64210746Y-43228622D01*
X64132725Y-43040264D01*
X64019457Y-42870746D01*
X63875294Y-42726583D01*
X63856696Y-42714156D01*
X63893246Y-42625918D01*
X63933020Y-42425959D01*
X63933020Y-42222081D01*
X63893246Y-42022122D01*
X63815225Y-41833764D01*
X63794657Y-41802981D01*
X65228520Y-41802981D01*
X65228520Y-42006859D01*
X65268294Y-42206818D01*
X65346315Y-42395176D01*
X65459583Y-42564694D01*
X65603746Y-42708857D01*
X65773264Y-42822125D01*
X65961622Y-42900146D01*
X66161581Y-42939920D01*
X66181804Y-42939920D01*
X66173020Y-42984081D01*
X66173020Y-43187959D01*
X66212794Y-43387918D01*
X66290815Y-43576276D01*
X66404083Y-43745794D01*
X66548246Y-43889957D01*
X66717764Y-44003225D01*
X66906122Y-44081246D01*
X67106081Y-44121020D01*
X67309959Y-44121020D01*
X67401234Y-44102864D01*
X67422214Y-44208338D01*
X67500235Y-44396696D01*
X67521388Y-44428353D01*
X67381459Y-44400520D01*
X67177581Y-44400520D01*
X66977622Y-44440294D01*
X66789264Y-44518315D01*
X66619746Y-44631583D01*
X66475583Y-44775746D01*
X66362315Y-44945264D01*
X66284294Y-45133622D01*
X66244520Y-45333581D01*
X66244520Y-45537459D01*
X66284294Y-45737418D01*
X66362315Y-45925776D01*
X66475583Y-46095294D01*
X66619746Y-46239457D01*
X66789264Y-46352725D01*
X66977622Y-46430746D01*
X67177581Y-46470520D01*
X67381459Y-46470520D01*
X67581418Y-46430746D01*
X67769776Y-46352725D01*
X67939294Y-46239457D01*
X68083457Y-46095294D01*
X68196725Y-45925776D01*
X68274746Y-45737418D01*
X68314520Y-45537459D01*
X68314520Y-45333581D01*
X68274746Y-45133622D01*
X68196725Y-44945264D01*
X68175572Y-44913607D01*
X68315501Y-44941440D01*
X68519379Y-44941440D01*
X68719338Y-44901666D01*
X68907696Y-44823645D01*
X69077214Y-44710377D01*
X69221377Y-44566214D01*
X69334645Y-44396696D01*
X69412666Y-44208338D01*
X69452440Y-44008379D01*
X69452440Y-43804501D01*
X69412666Y-43604542D01*
X69334645Y-43416184D01*
X69221377Y-43246666D01*
X69077214Y-43102503D01*
X68907696Y-42989235D01*
X68719338Y-42911214D01*
X68519379Y-42871440D01*
X68411711Y-42871440D01*
X68477157Y-42805994D01*
X68590425Y-42636476D01*
X68668446Y-42448118D01*
X68700776Y-42285581D01*
X74372520Y-42285581D01*
X74372520Y-42489459D01*
X74412294Y-42689418D01*
X74490315Y-42877776D01*
X74603583Y-43047294D01*
X74747746Y-43191457D01*
X74917264Y-43304725D01*
X75105622Y-43382746D01*
X75305581Y-43422520D01*
X75509459Y-43422520D01*
X75709418Y-43382746D01*
X75897776Y-43304725D01*
X75915520Y-43292869D01*
X75933264Y-43304725D01*
X76121622Y-43382746D01*
X76321581Y-43422520D01*
X76525459Y-43422520D01*
X76725418Y-43382746D01*
X76913776Y-43304725D01*
X76995020Y-43250440D01*
X77076264Y-43304725D01*
X77264622Y-43382746D01*
X77464581Y-43422520D01*
X77668459Y-43422520D01*
X77868418Y-43382746D01*
X78056776Y-43304725D01*
X78138020Y-43250440D01*
X78219264Y-43304725D01*
X78407622Y-43382746D01*
X78607581Y-43422520D01*
X78811459Y-43422520D01*
X79011418Y-43382746D01*
X79199776Y-43304725D01*
X79369294Y-43191457D01*
X79513457Y-43047294D01*
X79626725Y-42877776D01*
X79704746Y-42689418D01*
X79744520Y-42489459D01*
X79744520Y-42285581D01*
X79704746Y-42085622D01*
X79626725Y-41897264D01*
X79513457Y-41727746D01*
X79369294Y-41583583D01*
X79199776Y-41470315D01*
X79011418Y-41392294D01*
X78811459Y-41352520D01*
X78607581Y-41352520D01*
X78407622Y-41392294D01*
X78219264Y-41470315D01*
X78138020Y-41524600D01*
X78056776Y-41470315D01*
X77868418Y-41392294D01*
X77668459Y-41352520D01*
X77464581Y-41352520D01*
X77264622Y-41392294D01*
X77076264Y-41470315D01*
X76995020Y-41524600D01*
X76913776Y-41470315D01*
X76725418Y-41392294D01*
X76525459Y-41352520D01*
X76321581Y-41352520D01*
X76121622Y-41392294D01*
X75933264Y-41470315D01*
X75915520Y-41482171D01*
X75897776Y-41470315D01*
X75709418Y-41392294D01*
X75509459Y-41352520D01*
X75305581Y-41352520D01*
X75105622Y-41392294D01*
X74917264Y-41470315D01*
X74747746Y-41583583D01*
X74603583Y-41727746D01*
X74490315Y-41897264D01*
X74412294Y-42085622D01*
X74372520Y-42285581D01*
X68700776Y-42285581D01*
X68708220Y-42248159D01*
X68708220Y-42044281D01*
X68668446Y-41844322D01*
X68590425Y-41655964D01*
X68477157Y-41486446D01*
X68332994Y-41342283D01*
X68249714Y-41286638D01*
X68354205Y-41130256D01*
X68432226Y-40941898D01*
X68472000Y-40741939D01*
X68472000Y-40538061D01*
X68461959Y-40487581D01*
X69145520Y-40487581D01*
X69145520Y-40691459D01*
X69185294Y-40891418D01*
X69263315Y-41079776D01*
X69376583Y-41249294D01*
X69520746Y-41393457D01*
X69690264Y-41506725D01*
X69878622Y-41584746D01*
X70078581Y-41624520D01*
X70282459Y-41624520D01*
X70482418Y-41584746D01*
X70670776Y-41506725D01*
X70840294Y-41393457D01*
X70984457Y-41249294D01*
X71097725Y-41079776D01*
X71175746Y-40891418D01*
X71215520Y-40691459D01*
X71215520Y-40487581D01*
X71175746Y-40287622D01*
X71097725Y-40099264D01*
X70984457Y-39929746D01*
X70840294Y-39785583D01*
X70670776Y-39672315D01*
X70482418Y-39594294D01*
X70282459Y-39554520D01*
X70078581Y-39554520D01*
X69878622Y-39594294D01*
X69690264Y-39672315D01*
X69520746Y-39785583D01*
X69376583Y-39929746D01*
X69263315Y-40099264D01*
X69185294Y-40287622D01*
X69145520Y-40487581D01*
X68461959Y-40487581D01*
X68432226Y-40338102D01*
X68354205Y-40149744D01*
X68240937Y-39980226D01*
X68096774Y-39836063D01*
X67927256Y-39722795D01*
X67738898Y-39644774D01*
X67538939Y-39605000D01*
X67335061Y-39605000D01*
X67135102Y-39644774D01*
X66946744Y-39722795D01*
X66777226Y-39836063D01*
X66633063Y-39980226D01*
X66519795Y-40149744D01*
X66441774Y-40338102D01*
X66402000Y-40538061D01*
X66402000Y-40741939D01*
X66430011Y-40882760D01*
X66365459Y-40869920D01*
X66161581Y-40869920D01*
X65961622Y-40909694D01*
X65773264Y-40987715D01*
X65603746Y-41100983D01*
X65459583Y-41245146D01*
X65346315Y-41414664D01*
X65268294Y-41603022D01*
X65228520Y-41802981D01*
X63794657Y-41802981D01*
X63701957Y-41664246D01*
X63598207Y-41560496D01*
X63615520Y-41473459D01*
X63615520Y-41269581D01*
X63575746Y-41069622D01*
X63497725Y-40881264D01*
X63384457Y-40711746D01*
X63240294Y-40567583D01*
X63070776Y-40454315D01*
X62882418Y-40376294D01*
X62682459Y-40336520D01*
X62478581Y-40336520D01*
X62278622Y-40376294D01*
X62090264Y-40454315D01*
X61920746Y-40567583D01*
X61776583Y-40711746D01*
X61663315Y-40881264D01*
X61585294Y-41069622D01*
X61545520Y-41269581D01*
X28219500Y-41269581D01*
X28219500Y-36634081D01*
X73356520Y-36634081D01*
X73356520Y-36837959D01*
X73396294Y-37037918D01*
X73474315Y-37226276D01*
X73587583Y-37395794D01*
X73731746Y-37539957D01*
X73901264Y-37653225D01*
X74089622Y-37731246D01*
X74289581Y-37771020D01*
X74493459Y-37771020D01*
X74693418Y-37731246D01*
X74881776Y-37653225D01*
X75051294Y-37539957D01*
X75068170Y-37523081D01*
X75385980Y-37523081D01*
X75385980Y-37726959D01*
X75425754Y-37926918D01*
X75503775Y-38115276D01*
X75617043Y-38284794D01*
X75761206Y-38428957D01*
X75930724Y-38542225D01*
X76119082Y-38620246D01*
X76319041Y-38660020D01*
X76522919Y-38660020D01*
X76722878Y-38620246D01*
X76911236Y-38542225D01*
X77080754Y-38428957D01*
X77224917Y-38284794D01*
X77338185Y-38115276D01*
X77416206Y-37926918D01*
X77455980Y-37726959D01*
X77455980Y-37523081D01*
X77416206Y-37323122D01*
X77338185Y-37134764D01*
X77224917Y-36965246D01*
X77080754Y-36821083D01*
X76911236Y-36707815D01*
X76722878Y-36629794D01*
X76522919Y-36590020D01*
X76319041Y-36590020D01*
X76119082Y-36629794D01*
X75930724Y-36707815D01*
X75761206Y-36821083D01*
X75617043Y-36965246D01*
X75503775Y-37134764D01*
X75425754Y-37323122D01*
X75385980Y-37523081D01*
X75068170Y-37523081D01*
X75195457Y-37395794D01*
X75308725Y-37226276D01*
X75386746Y-37037918D01*
X75426520Y-36837959D01*
X75426520Y-36634081D01*
X75402337Y-36512500D01*
X82613500Y-36512500D01*
X82613500Y-38735000D01*
X82615940Y-38759776D01*
X82623167Y-38783601D01*
X82634903Y-38805557D01*
X82650697Y-38824803D01*
X82669943Y-38840597D01*
X82691899Y-38852333D01*
X82715724Y-38859560D01*
X82740500Y-38862000D01*
X83820000Y-38862000D01*
X83820000Y-39814500D01*
X83822440Y-39839276D01*
X83829667Y-39863101D01*
X83841403Y-39885057D01*
X83857197Y-39904303D01*
X83876443Y-39920097D01*
X83898399Y-39931833D01*
X83922224Y-39939060D01*
X83947000Y-39941500D01*
X86106000Y-39941500D01*
X86106000Y-40449500D01*
X86108440Y-40474276D01*
X86115667Y-40498101D01*
X86127403Y-40520057D01*
X86143197Y-40539303D01*
X86162443Y-40555097D01*
X86184399Y-40566833D01*
X86208224Y-40574060D01*
X86233000Y-40576500D01*
X88773000Y-40576500D01*
X88797776Y-40574060D01*
X88821601Y-40566833D01*
X88843557Y-40555097D01*
X88862803Y-40539303D01*
X88878597Y-40520057D01*
X88890333Y-40498101D01*
X88897560Y-40474276D01*
X88900000Y-40449500D01*
X88900000Y-36512500D01*
X88897560Y-36487724D01*
X88890333Y-36463899D01*
X88878597Y-36441943D01*
X88862803Y-36422697D01*
X88843557Y-36406903D01*
X88821601Y-36395167D01*
X88797776Y-36387940D01*
X88773000Y-36385500D01*
X82740500Y-36385500D01*
X82715724Y-36387940D01*
X82691899Y-36395167D01*
X82669943Y-36406903D01*
X82650697Y-36422697D01*
X82634903Y-36441943D01*
X82623167Y-36463899D01*
X82615940Y-36487724D01*
X82613500Y-36512500D01*
X75402337Y-36512500D01*
X75386746Y-36434122D01*
X75308725Y-36245764D01*
X75195457Y-36076246D01*
X75051294Y-35932083D01*
X74881776Y-35818815D01*
X74693418Y-35740794D01*
X74493459Y-35701020D01*
X74289581Y-35701020D01*
X74089622Y-35740794D01*
X73901264Y-35818815D01*
X73731746Y-35932083D01*
X73587583Y-36076246D01*
X73474315Y-36245764D01*
X73396294Y-36434122D01*
X73356520Y-36634081D01*
X28219500Y-36634081D01*
X28219500Y-34284581D01*
X74245520Y-34284581D01*
X74245520Y-34488459D01*
X74285294Y-34688418D01*
X74363315Y-34876776D01*
X74476583Y-35046294D01*
X74620746Y-35190457D01*
X74790264Y-35303725D01*
X74978622Y-35381746D01*
X75178581Y-35421520D01*
X75382459Y-35421520D01*
X75582418Y-35381746D01*
X75770776Y-35303725D01*
X75940294Y-35190457D01*
X76084457Y-35046294D01*
X76197725Y-34876776D01*
X76275746Y-34688418D01*
X76315520Y-34488459D01*
X76315520Y-34284581D01*
X76275746Y-34084622D01*
X76197725Y-33896264D01*
X76084457Y-33726746D01*
X75940294Y-33582583D01*
X75770776Y-33469315D01*
X75582418Y-33391294D01*
X75382459Y-33351520D01*
X75178581Y-33351520D01*
X74978622Y-33391294D01*
X74790264Y-33469315D01*
X74620746Y-33582583D01*
X74476583Y-33726746D01*
X74363315Y-33896264D01*
X74285294Y-34084622D01*
X74245520Y-34284581D01*
X28219500Y-34284581D01*
X28219500Y-33141581D01*
X70308520Y-33141581D01*
X70308520Y-33345459D01*
X70348294Y-33545418D01*
X70426315Y-33733776D01*
X70539583Y-33903294D01*
X70683746Y-34047457D01*
X70853264Y-34160725D01*
X71041622Y-34238746D01*
X71241581Y-34278520D01*
X71445459Y-34278520D01*
X71645418Y-34238746D01*
X71833776Y-34160725D01*
X72003294Y-34047457D01*
X72147457Y-33903294D01*
X72260725Y-33733776D01*
X72296020Y-33648567D01*
X72331315Y-33733776D01*
X72444583Y-33903294D01*
X72588746Y-34047457D01*
X72758264Y-34160725D01*
X72946622Y-34238746D01*
X73146581Y-34278520D01*
X73350459Y-34278520D01*
X73550418Y-34238746D01*
X73738776Y-34160725D01*
X73908294Y-34047457D01*
X74052457Y-33903294D01*
X74165725Y-33733776D01*
X74243746Y-33545418D01*
X74283520Y-33345459D01*
X74283520Y-33141581D01*
X74243746Y-32941622D01*
X74165725Y-32753264D01*
X74052457Y-32583746D01*
X73908294Y-32439583D01*
X73738776Y-32326315D01*
X73550418Y-32248294D01*
X73350459Y-32208520D01*
X73146581Y-32208520D01*
X72946622Y-32248294D01*
X72758264Y-32326315D01*
X72588746Y-32439583D01*
X72444583Y-32583746D01*
X72331315Y-32753264D01*
X72296020Y-32838473D01*
X72260725Y-32753264D01*
X72147457Y-32583746D01*
X72003294Y-32439583D01*
X71833776Y-32326315D01*
X71645418Y-32248294D01*
X71445459Y-32208520D01*
X71241581Y-32208520D01*
X71041622Y-32248294D01*
X70853264Y-32326315D01*
X70683746Y-32439583D01*
X70539583Y-32583746D01*
X70426315Y-32753264D01*
X70348294Y-32941622D01*
X70308520Y-33141581D01*
X28219500Y-33141581D01*
X28219500Y-29160260D01*
X46744520Y-29160260D01*
X46744520Y-29452780D01*
X46801588Y-29739678D01*
X46913530Y-30009931D01*
X47076045Y-30253152D01*
X47282888Y-30459995D01*
X47526109Y-30622510D01*
X47796362Y-30734452D01*
X48083260Y-30791520D01*
X48375780Y-30791520D01*
X48662678Y-30734452D01*
X48932931Y-30622510D01*
X49176152Y-30459995D01*
X49382995Y-30253152D01*
X49545510Y-30009931D01*
X49657452Y-29739678D01*
X49714520Y-29452780D01*
X49714520Y-29160260D01*
X49657452Y-28873362D01*
X49545510Y-28603109D01*
X49382995Y-28359888D01*
X49176152Y-28153045D01*
X48993986Y-28031325D01*
X49110875Y-27961698D01*
X49327108Y-27766789D01*
X49501161Y-27533440D01*
X49626345Y-27270619D01*
X49670996Y-27123410D01*
X49549675Y-26893520D01*
X48356520Y-26893520D01*
X48356520Y-26913520D01*
X48102520Y-26913520D01*
X48102520Y-26893520D01*
X46909365Y-26893520D01*
X46788044Y-27123410D01*
X46832695Y-27270619D01*
X46957879Y-27533440D01*
X47131932Y-27766789D01*
X47348165Y-27961698D01*
X47465054Y-28031325D01*
X47282888Y-28153045D01*
X47076045Y-28359888D01*
X46913530Y-28603109D01*
X46801588Y-28873362D01*
X46744520Y-29160260D01*
X28219500Y-29160260D01*
X28219500Y-25926520D01*
X37660948Y-25926520D01*
X37660948Y-27626520D01*
X37673208Y-27751002D01*
X37709518Y-27870700D01*
X37768483Y-27981014D01*
X37847835Y-28077705D01*
X37944526Y-28157057D01*
X38054840Y-28216022D01*
X38174538Y-28252332D01*
X38299020Y-28264592D01*
X39999020Y-28264592D01*
X40123502Y-28252332D01*
X40243200Y-28216022D01*
X40353514Y-28157057D01*
X40450205Y-28077705D01*
X40529557Y-27981014D01*
X40588522Y-27870700D01*
X40624832Y-27751002D01*
X40637092Y-27626520D01*
X40637092Y-26664581D01*
X59704020Y-26664581D01*
X59704020Y-26868459D01*
X59743794Y-27068418D01*
X59821815Y-27256776D01*
X59935083Y-27426294D01*
X60079246Y-27570457D01*
X60248764Y-27683725D01*
X60437122Y-27761746D01*
X60637081Y-27801520D01*
X60840959Y-27801520D01*
X61040918Y-27761746D01*
X61229276Y-27683725D01*
X61398794Y-27570457D01*
X61542957Y-27426294D01*
X61656225Y-27256776D01*
X61734246Y-27068418D01*
X61774020Y-26868459D01*
X61774020Y-26664581D01*
X61734246Y-26464622D01*
X61656225Y-26276264D01*
X61542957Y-26106746D01*
X61398794Y-25962583D01*
X61229276Y-25849315D01*
X61040918Y-25771294D01*
X60840959Y-25731520D01*
X60637081Y-25731520D01*
X60437122Y-25771294D01*
X60248764Y-25849315D01*
X60079246Y-25962583D01*
X59935083Y-26106746D01*
X59821815Y-26276264D01*
X59743794Y-26464622D01*
X59704020Y-26664581D01*
X40637092Y-26664581D01*
X40637092Y-25926520D01*
X40624832Y-25802038D01*
X40588522Y-25682340D01*
X40529557Y-25572026D01*
X40450205Y-25475335D01*
X40353514Y-25395983D01*
X40243200Y-25337018D01*
X40170640Y-25315007D01*
X40302495Y-25183152D01*
X40465010Y-24939931D01*
X40576952Y-24669678D01*
X40634020Y-24382780D01*
X40634020Y-24090260D01*
X40576952Y-23803362D01*
X40465010Y-23533109D01*
X40360381Y-23376520D01*
X46741448Y-23376520D01*
X46741448Y-25076520D01*
X46753708Y-25201002D01*
X46790018Y-25320700D01*
X46848983Y-25431014D01*
X46928335Y-25527705D01*
X47025026Y-25607057D01*
X47135340Y-25666022D01*
X47215986Y-25690486D01*
X47131932Y-25766251D01*
X46957879Y-25999600D01*
X46832695Y-26262421D01*
X46788044Y-26409630D01*
X46909365Y-26639520D01*
X48102520Y-26639520D01*
X48102520Y-26619520D01*
X48356520Y-26619520D01*
X48356520Y-26639520D01*
X49549675Y-26639520D01*
X49670996Y-26409630D01*
X49626345Y-26262421D01*
X49501161Y-25999600D01*
X49327108Y-25766251D01*
X49243054Y-25690486D01*
X49323700Y-25666022D01*
X49434014Y-25607057D01*
X49530705Y-25527705D01*
X49610057Y-25431014D01*
X49669022Y-25320700D01*
X49705332Y-25201002D01*
X49717592Y-25076520D01*
X49717592Y-23376520D01*
X62108448Y-23376520D01*
X62108448Y-25076520D01*
X62120708Y-25201002D01*
X62157018Y-25320700D01*
X62215983Y-25431014D01*
X62295335Y-25527705D01*
X62392026Y-25607057D01*
X62502340Y-25666022D01*
X62574900Y-25688033D01*
X62443045Y-25819888D01*
X62280530Y-26063109D01*
X62168588Y-26333362D01*
X62111520Y-26620260D01*
X62111520Y-26912780D01*
X62168588Y-27199678D01*
X62280530Y-27469931D01*
X62443045Y-27713152D01*
X62649888Y-27919995D01*
X62824280Y-28036520D01*
X62649888Y-28153045D01*
X62443045Y-28359888D01*
X62280530Y-28603109D01*
X62168588Y-28873362D01*
X62111520Y-29160260D01*
X62111520Y-29452780D01*
X62168588Y-29739678D01*
X62280530Y-30009931D01*
X62443045Y-30253152D01*
X62649888Y-30459995D01*
X62893109Y-30622510D01*
X63073479Y-30697221D01*
X62936746Y-30788583D01*
X62792583Y-30932746D01*
X62679315Y-31102264D01*
X62601294Y-31290622D01*
X62561520Y-31490581D01*
X62561520Y-31694459D01*
X62601294Y-31894418D01*
X62679315Y-32082776D01*
X62792583Y-32252294D01*
X62936746Y-32396457D01*
X63106264Y-32509725D01*
X63294622Y-32587746D01*
X63494581Y-32627520D01*
X63698459Y-32627520D01*
X63898418Y-32587746D01*
X64086776Y-32509725D01*
X64256294Y-32396457D01*
X64400457Y-32252294D01*
X64442694Y-32189081D01*
X75388520Y-32189081D01*
X75388520Y-32392959D01*
X75428294Y-32592918D01*
X75506315Y-32781276D01*
X75619583Y-32950794D01*
X75763746Y-33094957D01*
X75933264Y-33208225D01*
X76121622Y-33286246D01*
X76321581Y-33326020D01*
X76525459Y-33326020D01*
X76725418Y-33286246D01*
X76913776Y-33208225D01*
X77083294Y-33094957D01*
X77101670Y-33076581D01*
X82816520Y-33076581D01*
X82816520Y-33280459D01*
X82856294Y-33480418D01*
X82934315Y-33668776D01*
X83047583Y-33838294D01*
X83191746Y-33982457D01*
X83361264Y-34095725D01*
X83549622Y-34173746D01*
X83749581Y-34213520D01*
X83953459Y-34213520D01*
X84153418Y-34173746D01*
X84341776Y-34095725D01*
X84511294Y-33982457D01*
X84655457Y-33838294D01*
X84734307Y-33720286D01*
X84823264Y-33779725D01*
X85011622Y-33857746D01*
X85211581Y-33897520D01*
X85415459Y-33897520D01*
X85615418Y-33857746D01*
X85803776Y-33779725D01*
X85973294Y-33666457D01*
X86117457Y-33522294D01*
X86230725Y-33352776D01*
X86308746Y-33164418D01*
X86348197Y-32966081D01*
X88421020Y-32966081D01*
X88421020Y-33169959D01*
X88460794Y-33369918D01*
X88538815Y-33558276D01*
X88652083Y-33727794D01*
X88796246Y-33871957D01*
X88965764Y-33985225D01*
X89154122Y-34063246D01*
X89354081Y-34103020D01*
X89557959Y-34103020D01*
X89757918Y-34063246D01*
X89946276Y-33985225D01*
X90115794Y-33871957D01*
X90259957Y-33727794D01*
X90373225Y-33558276D01*
X90451246Y-33369918D01*
X90491020Y-33169959D01*
X90491020Y-32966081D01*
X90451246Y-32766122D01*
X90373225Y-32577764D01*
X90259957Y-32408246D01*
X90115794Y-32264083D01*
X89946276Y-32150815D01*
X89757918Y-32072794D01*
X89557959Y-32033020D01*
X89354081Y-32033020D01*
X89154122Y-32072794D01*
X88965764Y-32150815D01*
X88796246Y-32264083D01*
X88652083Y-32408246D01*
X88538815Y-32577764D01*
X88460794Y-32766122D01*
X88421020Y-32966081D01*
X86348197Y-32966081D01*
X86348520Y-32964459D01*
X86348520Y-32760581D01*
X86308746Y-32560622D01*
X86230725Y-32372264D01*
X86117457Y-32202746D01*
X85973294Y-32058583D01*
X85803776Y-31945315D01*
X85615418Y-31867294D01*
X85415459Y-31827520D01*
X85211581Y-31827520D01*
X85011622Y-31867294D01*
X84823264Y-31945315D01*
X84653746Y-32058583D01*
X84509583Y-32202746D01*
X84430733Y-32320754D01*
X84341776Y-32261315D01*
X84153418Y-32183294D01*
X83953459Y-32143520D01*
X83749581Y-32143520D01*
X83549622Y-32183294D01*
X83361264Y-32261315D01*
X83191746Y-32374583D01*
X83047583Y-32518746D01*
X82934315Y-32688264D01*
X82856294Y-32876622D01*
X82816520Y-33076581D01*
X77101670Y-33076581D01*
X77227457Y-32950794D01*
X77340725Y-32781276D01*
X77418746Y-32592918D01*
X77458520Y-32392959D01*
X77458520Y-32189081D01*
X77418746Y-31989122D01*
X77340725Y-31800764D01*
X77227457Y-31631246D01*
X77083294Y-31487083D01*
X76913776Y-31373815D01*
X76725418Y-31295794D01*
X76525459Y-31256020D01*
X76321581Y-31256020D01*
X76121622Y-31295794D01*
X75933264Y-31373815D01*
X75763746Y-31487083D01*
X75619583Y-31631246D01*
X75506315Y-31800764D01*
X75428294Y-31989122D01*
X75388520Y-32189081D01*
X64442694Y-32189081D01*
X64513725Y-32082776D01*
X64591746Y-31894418D01*
X64631520Y-31694459D01*
X64631520Y-31490581D01*
X64591746Y-31290622D01*
X64513725Y-31102264D01*
X64400457Y-30932746D01*
X64256294Y-30788583D01*
X64119561Y-30697221D01*
X64299931Y-30622510D01*
X64543152Y-30459995D01*
X64749995Y-30253152D01*
X64912510Y-30009931D01*
X65024452Y-29739678D01*
X65081520Y-29452780D01*
X65081520Y-29160260D01*
X65024452Y-28873362D01*
X64912510Y-28603109D01*
X64749995Y-28359888D01*
X64543152Y-28153045D01*
X64368760Y-28036520D01*
X64543152Y-27919995D01*
X64749995Y-27713152D01*
X64912510Y-27469931D01*
X65024452Y-27199678D01*
X65081520Y-26912780D01*
X65081520Y-26683760D01*
X68144020Y-26683760D01*
X68144020Y-26976280D01*
X68201088Y-27263178D01*
X68313030Y-27533431D01*
X68475545Y-27776652D01*
X68682388Y-27983495D01*
X68925609Y-28146010D01*
X69195862Y-28257952D01*
X69482760Y-28315020D01*
X69775280Y-28315020D01*
X70062178Y-28257952D01*
X70332431Y-28146010D01*
X70575652Y-27983495D01*
X70782495Y-27776652D01*
X70899020Y-27602260D01*
X71015545Y-27776652D01*
X71222388Y-27983495D01*
X71465609Y-28146010D01*
X71735862Y-28257952D01*
X72022760Y-28315020D01*
X72315280Y-28315020D01*
X72602178Y-28257952D01*
X72872431Y-28146010D01*
X73115652Y-27983495D01*
X73322495Y-27776652D01*
X73439020Y-27602260D01*
X73555545Y-27776652D01*
X73762388Y-27983495D01*
X74005609Y-28146010D01*
X74275862Y-28257952D01*
X74562760Y-28315020D01*
X74855280Y-28315020D01*
X75142178Y-28257952D01*
X75412431Y-28146010D01*
X75655652Y-27983495D01*
X75787507Y-27851640D01*
X75809518Y-27924200D01*
X75868483Y-28034514D01*
X75947835Y-28131205D01*
X76044526Y-28210557D01*
X76154840Y-28269522D01*
X76274538Y-28305832D01*
X76399020Y-28318092D01*
X78099020Y-28318092D01*
X78223502Y-28305832D01*
X78343200Y-28269522D01*
X78453514Y-28210557D01*
X78550205Y-28131205D01*
X78629557Y-28034514D01*
X78688522Y-27924200D01*
X78724832Y-27804502D01*
X78737092Y-27680020D01*
X78737092Y-26297520D01*
X98811448Y-26297520D01*
X98811448Y-27997520D01*
X98823708Y-28122002D01*
X98860018Y-28241700D01*
X98918983Y-28352014D01*
X98998335Y-28448705D01*
X99095026Y-28528057D01*
X99205340Y-28587022D01*
X99277900Y-28609033D01*
X99146045Y-28740888D01*
X98983530Y-28984109D01*
X98871588Y-29254362D01*
X98814520Y-29541260D01*
X98814520Y-29833780D01*
X98871588Y-30120678D01*
X98983530Y-30390931D01*
X99146045Y-30634152D01*
X99352888Y-30840995D01*
X99527280Y-30957520D01*
X99352888Y-31074045D01*
X99146045Y-31280888D01*
X98983530Y-31524109D01*
X98871588Y-31794362D01*
X98814520Y-32081260D01*
X98814520Y-32373780D01*
X98871588Y-32660678D01*
X98983530Y-32930931D01*
X99146045Y-33174152D01*
X99352888Y-33380995D01*
X99527280Y-33497520D01*
X99352888Y-33614045D01*
X99146045Y-33820888D01*
X98983530Y-34064109D01*
X98871588Y-34334362D01*
X98814520Y-34621260D01*
X98814520Y-34913780D01*
X98871588Y-35200678D01*
X98983530Y-35470931D01*
X99146045Y-35714152D01*
X99352888Y-35920995D01*
X99527280Y-36037520D01*
X99352888Y-36154045D01*
X99146045Y-36360888D01*
X98983530Y-36604109D01*
X98871588Y-36874362D01*
X98814520Y-37161260D01*
X98814520Y-37453780D01*
X98871588Y-37740678D01*
X98983530Y-38010931D01*
X99146045Y-38254152D01*
X99352888Y-38460995D01*
X99527280Y-38577520D01*
X99352888Y-38694045D01*
X99146045Y-38900888D01*
X98983530Y-39144109D01*
X98871588Y-39414362D01*
X98814520Y-39701260D01*
X98814520Y-39993780D01*
X98871588Y-40280678D01*
X98983530Y-40550931D01*
X99146045Y-40794152D01*
X99352888Y-41000995D01*
X99527280Y-41117520D01*
X99352888Y-41234045D01*
X99146045Y-41440888D01*
X98983530Y-41684109D01*
X98871588Y-41954362D01*
X98814520Y-42241260D01*
X98814520Y-42533780D01*
X98871588Y-42820678D01*
X98983530Y-43090931D01*
X99146045Y-43334152D01*
X99352888Y-43540995D01*
X99527280Y-43657520D01*
X99352888Y-43774045D01*
X99146045Y-43980888D01*
X98983530Y-44224109D01*
X98871588Y-44494362D01*
X98814520Y-44781260D01*
X98814520Y-45073780D01*
X98871588Y-45360678D01*
X98983530Y-45630931D01*
X99146045Y-45874152D01*
X99352888Y-46080995D01*
X99596109Y-46243510D01*
X99866362Y-46355452D01*
X100153260Y-46412520D01*
X100445780Y-46412520D01*
X100732678Y-46355452D01*
X101002931Y-46243510D01*
X101246152Y-46080995D01*
X101452995Y-45874152D01*
X101615510Y-45630931D01*
X101727452Y-45360678D01*
X101784520Y-45073780D01*
X101784520Y-44781260D01*
X101727452Y-44494362D01*
X101615510Y-44224109D01*
X101452995Y-43980888D01*
X101246152Y-43774045D01*
X101071760Y-43657520D01*
X101246152Y-43540995D01*
X101452995Y-43334152D01*
X101615510Y-43090931D01*
X101727452Y-42820678D01*
X101784520Y-42533780D01*
X101784520Y-42241260D01*
X101727452Y-41954362D01*
X101615510Y-41684109D01*
X101452995Y-41440888D01*
X101246152Y-41234045D01*
X101071760Y-41117520D01*
X101246152Y-41000995D01*
X101452995Y-40794152D01*
X101615510Y-40550931D01*
X101727452Y-40280678D01*
X101784520Y-39993780D01*
X101784520Y-39701260D01*
X101727452Y-39414362D01*
X101615510Y-39144109D01*
X101452995Y-38900888D01*
X101246152Y-38694045D01*
X101071760Y-38577520D01*
X101246152Y-38460995D01*
X101452995Y-38254152D01*
X101615510Y-38010931D01*
X101727452Y-37740678D01*
X101784520Y-37453780D01*
X101784520Y-37161260D01*
X101727452Y-36874362D01*
X101615510Y-36604109D01*
X101452995Y-36360888D01*
X101246152Y-36154045D01*
X101071760Y-36037520D01*
X101246152Y-35920995D01*
X101452995Y-35714152D01*
X101615510Y-35470931D01*
X101727452Y-35200678D01*
X101784520Y-34913780D01*
X101784520Y-34621260D01*
X101727452Y-34334362D01*
X101615510Y-34064109D01*
X101452995Y-33820888D01*
X101246152Y-33614045D01*
X101071760Y-33497520D01*
X101246152Y-33380995D01*
X101452995Y-33174152D01*
X101615510Y-32930931D01*
X101727452Y-32660678D01*
X101784520Y-32373780D01*
X101784520Y-32081260D01*
X101727452Y-31794362D01*
X101615510Y-31524109D01*
X101452995Y-31280888D01*
X101246152Y-31074045D01*
X101071760Y-30957520D01*
X101246152Y-30840995D01*
X101452995Y-30634152D01*
X101615510Y-30390931D01*
X101727452Y-30120678D01*
X101784520Y-29833780D01*
X101784520Y-29541260D01*
X101727452Y-29254362D01*
X101615510Y-28984109D01*
X101452995Y-28740888D01*
X101321140Y-28609033D01*
X101393700Y-28587022D01*
X101504014Y-28528057D01*
X101600705Y-28448705D01*
X101680057Y-28352014D01*
X101739022Y-28241700D01*
X101775332Y-28122002D01*
X101787592Y-27997520D01*
X101787592Y-26297520D01*
X102621448Y-26297520D01*
X102621448Y-27997520D01*
X102633708Y-28122002D01*
X102670018Y-28241700D01*
X102728983Y-28352014D01*
X102808335Y-28448705D01*
X102905026Y-28528057D01*
X103015340Y-28587022D01*
X103087900Y-28609033D01*
X102956045Y-28740888D01*
X102793530Y-28984109D01*
X102681588Y-29254362D01*
X102624520Y-29541260D01*
X102624520Y-29833780D01*
X102681588Y-30120678D01*
X102793530Y-30390931D01*
X102956045Y-30634152D01*
X103162888Y-30840995D01*
X103337280Y-30957520D01*
X103162888Y-31074045D01*
X102956045Y-31280888D01*
X102793530Y-31524109D01*
X102681588Y-31794362D01*
X102624520Y-32081260D01*
X102624520Y-32373780D01*
X102681588Y-32660678D01*
X102793530Y-32930931D01*
X102956045Y-33174152D01*
X103162888Y-33380995D01*
X103337280Y-33497520D01*
X103162888Y-33614045D01*
X102956045Y-33820888D01*
X102793530Y-34064109D01*
X102681588Y-34334362D01*
X102624520Y-34621260D01*
X102624520Y-34913780D01*
X102681588Y-35200678D01*
X102793530Y-35470931D01*
X102956045Y-35714152D01*
X103162888Y-35920995D01*
X103337280Y-36037520D01*
X103162888Y-36154045D01*
X102956045Y-36360888D01*
X102793530Y-36604109D01*
X102681588Y-36874362D01*
X102624520Y-37161260D01*
X102624520Y-37453780D01*
X102681588Y-37740678D01*
X102793530Y-38010931D01*
X102956045Y-38254152D01*
X103162888Y-38460995D01*
X103337280Y-38577520D01*
X103162888Y-38694045D01*
X102956045Y-38900888D01*
X102793530Y-39144109D01*
X102681588Y-39414362D01*
X102624520Y-39701260D01*
X102624520Y-39993780D01*
X102681588Y-40280678D01*
X102793530Y-40550931D01*
X102956045Y-40794152D01*
X103162888Y-41000995D01*
X103337280Y-41117520D01*
X103162888Y-41234045D01*
X102956045Y-41440888D01*
X102793530Y-41684109D01*
X102681588Y-41954362D01*
X102624520Y-42241260D01*
X102624520Y-42533780D01*
X102681588Y-42820678D01*
X102793530Y-43090931D01*
X102956045Y-43334152D01*
X103162888Y-43540995D01*
X103337280Y-43657520D01*
X103162888Y-43774045D01*
X102956045Y-43980888D01*
X102793530Y-44224109D01*
X102681588Y-44494362D01*
X102624520Y-44781260D01*
X102624520Y-45073780D01*
X102681588Y-45360678D01*
X102793530Y-45630931D01*
X102956045Y-45874152D01*
X103162888Y-46080995D01*
X103406109Y-46243510D01*
X103676362Y-46355452D01*
X103963260Y-46412520D01*
X104255780Y-46412520D01*
X104542678Y-46355452D01*
X104812931Y-46243510D01*
X105056152Y-46080995D01*
X105262995Y-45874152D01*
X105425510Y-45630931D01*
X105537452Y-45360678D01*
X105594520Y-45073780D01*
X105594520Y-44781260D01*
X105537452Y-44494362D01*
X105425510Y-44224109D01*
X105262995Y-43980888D01*
X105056152Y-43774045D01*
X104881760Y-43657520D01*
X105056152Y-43540995D01*
X105262995Y-43334152D01*
X105425510Y-43090931D01*
X105537452Y-42820678D01*
X105594520Y-42533780D01*
X105594520Y-42241260D01*
X105537452Y-41954362D01*
X105425510Y-41684109D01*
X105262995Y-41440888D01*
X105056152Y-41234045D01*
X104881760Y-41117520D01*
X105056152Y-41000995D01*
X105262995Y-40794152D01*
X105425510Y-40550931D01*
X105537452Y-40280678D01*
X105594520Y-39993780D01*
X105594520Y-39701260D01*
X105537452Y-39414362D01*
X105425510Y-39144109D01*
X105262995Y-38900888D01*
X105056152Y-38694045D01*
X104881760Y-38577520D01*
X105056152Y-38460995D01*
X105262995Y-38254152D01*
X105425510Y-38010931D01*
X105537452Y-37740678D01*
X105594520Y-37453780D01*
X105594520Y-37161260D01*
X105537452Y-36874362D01*
X105425510Y-36604109D01*
X105262995Y-36360888D01*
X105056152Y-36154045D01*
X104881760Y-36037520D01*
X105056152Y-35920995D01*
X105262995Y-35714152D01*
X105425510Y-35470931D01*
X105537452Y-35200678D01*
X105594520Y-34913780D01*
X105594520Y-34621260D01*
X105537452Y-34334362D01*
X105425510Y-34064109D01*
X105262995Y-33820888D01*
X105056152Y-33614045D01*
X104881760Y-33497520D01*
X105056152Y-33380995D01*
X105262995Y-33174152D01*
X105425510Y-32930931D01*
X105537452Y-32660678D01*
X105594520Y-32373780D01*
X105594520Y-32081260D01*
X105537452Y-31794362D01*
X105425510Y-31524109D01*
X105262995Y-31280888D01*
X105056152Y-31074045D01*
X104881760Y-30957520D01*
X105056152Y-30840995D01*
X105262995Y-30634152D01*
X105425510Y-30390931D01*
X105537452Y-30120678D01*
X105594520Y-29833780D01*
X105594520Y-29541260D01*
X105537452Y-29254362D01*
X105425510Y-28984109D01*
X105262995Y-28740888D01*
X105131140Y-28609033D01*
X105203700Y-28587022D01*
X105314014Y-28528057D01*
X105410705Y-28448705D01*
X105490057Y-28352014D01*
X105549022Y-28241700D01*
X105585332Y-28122002D01*
X105597592Y-27997520D01*
X105597592Y-26297520D01*
X105585332Y-26173038D01*
X105549022Y-26053340D01*
X105490057Y-25943026D01*
X105410705Y-25846335D01*
X105314014Y-25766983D01*
X105203700Y-25708018D01*
X105084002Y-25671708D01*
X104959520Y-25659448D01*
X103259520Y-25659448D01*
X103135038Y-25671708D01*
X103015340Y-25708018D01*
X102905026Y-25766983D01*
X102808335Y-25846335D01*
X102728983Y-25943026D01*
X102670018Y-26053340D01*
X102633708Y-26173038D01*
X102621448Y-26297520D01*
X101787592Y-26297520D01*
X101775332Y-26173038D01*
X101739022Y-26053340D01*
X101680057Y-25943026D01*
X101600705Y-25846335D01*
X101504014Y-25766983D01*
X101393700Y-25708018D01*
X101274002Y-25671708D01*
X101149520Y-25659448D01*
X99449520Y-25659448D01*
X99325038Y-25671708D01*
X99205340Y-25708018D01*
X99095026Y-25766983D01*
X98998335Y-25846335D01*
X98918983Y-25943026D01*
X98860018Y-26053340D01*
X98823708Y-26173038D01*
X98811448Y-26297520D01*
X78737092Y-26297520D01*
X78737092Y-25980020D01*
X78724832Y-25855538D01*
X78688522Y-25735840D01*
X78629557Y-25625526D01*
X78550205Y-25528835D01*
X78453514Y-25449483D01*
X78343200Y-25390518D01*
X78223502Y-25354208D01*
X78099020Y-25341948D01*
X77822752Y-25341948D01*
X77908794Y-25284457D01*
X78052957Y-25140294D01*
X78166225Y-24970776D01*
X78244246Y-24782418D01*
X78284020Y-24582459D01*
X78284020Y-24378581D01*
X78244246Y-24178622D01*
X78166225Y-23990264D01*
X78052957Y-23820746D01*
X77908794Y-23676583D01*
X77739276Y-23563315D01*
X77550918Y-23485294D01*
X77350959Y-23445520D01*
X77147081Y-23445520D01*
X76947122Y-23485294D01*
X76758764Y-23563315D01*
X76589246Y-23676583D01*
X76445083Y-23820746D01*
X76331815Y-23990264D01*
X76253794Y-24178622D01*
X76214020Y-24378581D01*
X76214020Y-24582459D01*
X76253794Y-24782418D01*
X76331815Y-24970776D01*
X76445083Y-25140294D01*
X76589246Y-25284457D01*
X76675288Y-25341948D01*
X76399020Y-25341948D01*
X76274538Y-25354208D01*
X76154840Y-25390518D01*
X76044526Y-25449483D01*
X75947835Y-25528835D01*
X75868483Y-25625526D01*
X75809518Y-25735840D01*
X75787507Y-25808400D01*
X75655652Y-25676545D01*
X75412431Y-25514030D01*
X75142178Y-25402088D01*
X74855280Y-25345020D01*
X74562760Y-25345020D01*
X74275862Y-25402088D01*
X74005609Y-25514030D01*
X73762388Y-25676545D01*
X73555545Y-25883388D01*
X73439020Y-26057780D01*
X73322495Y-25883388D01*
X73115652Y-25676545D01*
X72872431Y-25514030D01*
X72602178Y-25402088D01*
X72315280Y-25345020D01*
X72022760Y-25345020D01*
X71735862Y-25402088D01*
X71465609Y-25514030D01*
X71222388Y-25676545D01*
X71015545Y-25883388D01*
X70899020Y-26057780D01*
X70782495Y-25883388D01*
X70575652Y-25676545D01*
X70332431Y-25514030D01*
X70062178Y-25402088D01*
X69775280Y-25345020D01*
X69482760Y-25345020D01*
X69195862Y-25402088D01*
X68925609Y-25514030D01*
X68682388Y-25676545D01*
X68475545Y-25883388D01*
X68313030Y-26126609D01*
X68201088Y-26396862D01*
X68144020Y-26683760D01*
X65081520Y-26683760D01*
X65081520Y-26620260D01*
X65024452Y-26333362D01*
X64912510Y-26063109D01*
X64749995Y-25819888D01*
X64618140Y-25688033D01*
X64690700Y-25666022D01*
X64801014Y-25607057D01*
X64897705Y-25527705D01*
X64977057Y-25431014D01*
X65036022Y-25320700D01*
X65072332Y-25201002D01*
X65084592Y-25076520D01*
X65084592Y-23376520D01*
X65072332Y-23252038D01*
X65036022Y-23132340D01*
X64977057Y-23022026D01*
X64897705Y-22925335D01*
X64801014Y-22845983D01*
X64690700Y-22787018D01*
X64571002Y-22750708D01*
X64446520Y-22738448D01*
X62746520Y-22738448D01*
X62622038Y-22750708D01*
X62502340Y-22787018D01*
X62392026Y-22845983D01*
X62295335Y-22925335D01*
X62215983Y-23022026D01*
X62157018Y-23132340D01*
X62120708Y-23252038D01*
X62108448Y-23376520D01*
X49717592Y-23376520D01*
X49705332Y-23252038D01*
X49669022Y-23132340D01*
X49610057Y-23022026D01*
X49530705Y-22925335D01*
X49434014Y-22845983D01*
X49323700Y-22787018D01*
X49204002Y-22750708D01*
X49079520Y-22738448D01*
X47379520Y-22738448D01*
X47255038Y-22750708D01*
X47135340Y-22787018D01*
X47025026Y-22845983D01*
X46928335Y-22925335D01*
X46848983Y-23022026D01*
X46790018Y-23132340D01*
X46753708Y-23252038D01*
X46741448Y-23376520D01*
X40360381Y-23376520D01*
X40302495Y-23289888D01*
X40095652Y-23083045D01*
X39852431Y-22920530D01*
X39582178Y-22808588D01*
X39295280Y-22751520D01*
X39002760Y-22751520D01*
X38715862Y-22808588D01*
X38445609Y-22920530D01*
X38202388Y-23083045D01*
X37995545Y-23289888D01*
X37833030Y-23533109D01*
X37721088Y-23803362D01*
X37664020Y-24090260D01*
X37664020Y-24382780D01*
X37721088Y-24669678D01*
X37833030Y-24939931D01*
X37995545Y-25183152D01*
X38127400Y-25315007D01*
X38054840Y-25337018D01*
X37944526Y-25395983D01*
X37847835Y-25475335D01*
X37768483Y-25572026D01*
X37709518Y-25682340D01*
X37673208Y-25802038D01*
X37660948Y-25926520D01*
X28219500Y-25926520D01*
X28219500Y-21363179D01*
X28233520Y-21220193D01*
X28233520Y-21685989D01*
X28361682Y-22330304D01*
X28613081Y-22937235D01*
X28978056Y-23483459D01*
X29442581Y-23947984D01*
X29988805Y-24312959D01*
X30595736Y-24564358D01*
X31240051Y-24692520D01*
X31896989Y-24692520D01*
X32541304Y-24564358D01*
X33148235Y-24312959D01*
X33694459Y-23947984D01*
X34158984Y-23483459D01*
X34523959Y-22937235D01*
X34775358Y-22330304D01*
X34895656Y-21725520D01*
X81031448Y-21725520D01*
X81031448Y-23425520D01*
X81043708Y-23550002D01*
X81080018Y-23669700D01*
X81138983Y-23780014D01*
X81218335Y-23876705D01*
X81315026Y-23956057D01*
X81425340Y-24015022D01*
X81545038Y-24051332D01*
X81669520Y-24063592D01*
X83369520Y-24063592D01*
X83494002Y-24051332D01*
X83613700Y-24015022D01*
X83724014Y-23956057D01*
X83820705Y-23876705D01*
X83900057Y-23780014D01*
X83959022Y-23669700D01*
X83981033Y-23597140D01*
X84112888Y-23728995D01*
X84356109Y-23891510D01*
X84626362Y-24003452D01*
X84913260Y-24060520D01*
X85205780Y-24060520D01*
X85492678Y-24003452D01*
X85762931Y-23891510D01*
X86006152Y-23728995D01*
X86212995Y-23522152D01*
X86329520Y-23347760D01*
X86446045Y-23522152D01*
X86652888Y-23728995D01*
X86896109Y-23891510D01*
X87166362Y-24003452D01*
X87453260Y-24060520D01*
X87745780Y-24060520D01*
X88032678Y-24003452D01*
X88302931Y-23891510D01*
X88546152Y-23728995D01*
X88752995Y-23522152D01*
X88869520Y-23347760D01*
X88986045Y-23522152D01*
X89192888Y-23728995D01*
X89436109Y-23891510D01*
X89706362Y-24003452D01*
X89993260Y-24060520D01*
X90285780Y-24060520D01*
X90572678Y-24003452D01*
X90842931Y-23891510D01*
X91086152Y-23728995D01*
X91292995Y-23522152D01*
X91409520Y-23347760D01*
X91526045Y-23522152D01*
X91732888Y-23728995D01*
X91976109Y-23891510D01*
X92246362Y-24003452D01*
X92533260Y-24060520D01*
X92825780Y-24060520D01*
X93112678Y-24003452D01*
X93382931Y-23891510D01*
X93626152Y-23728995D01*
X93832995Y-23522152D01*
X93949520Y-23347760D01*
X94066045Y-23522152D01*
X94272888Y-23728995D01*
X94516109Y-23891510D01*
X94786362Y-24003452D01*
X95073260Y-24060520D01*
X95365780Y-24060520D01*
X95652678Y-24003452D01*
X95922931Y-23891510D01*
X96166152Y-23728995D01*
X96372995Y-23522152D01*
X96489520Y-23347760D01*
X96606045Y-23522152D01*
X96812888Y-23728995D01*
X97056109Y-23891510D01*
X97326362Y-24003452D01*
X97613260Y-24060520D01*
X97905780Y-24060520D01*
X98192678Y-24003452D01*
X98462931Y-23891510D01*
X98706152Y-23728995D01*
X98912995Y-23522152D01*
X99029520Y-23347760D01*
X99146045Y-23522152D01*
X99352888Y-23728995D01*
X99596109Y-23891510D01*
X99866362Y-24003452D01*
X100153260Y-24060520D01*
X100445780Y-24060520D01*
X100732678Y-24003452D01*
X101002931Y-23891510D01*
X101246152Y-23728995D01*
X101452995Y-23522152D01*
X101615510Y-23278931D01*
X101727452Y-23008678D01*
X101784520Y-22721780D01*
X101784520Y-22429260D01*
X101727452Y-22142362D01*
X101615510Y-21872109D01*
X101452995Y-21628888D01*
X101246152Y-21422045D01*
X101002931Y-21259530D01*
X100732678Y-21147588D01*
X100445780Y-21090520D01*
X100153260Y-21090520D01*
X99866362Y-21147588D01*
X99596109Y-21259530D01*
X99352888Y-21422045D01*
X99146045Y-21628888D01*
X99029520Y-21803280D01*
X98912995Y-21628888D01*
X98706152Y-21422045D01*
X98462931Y-21259530D01*
X98192678Y-21147588D01*
X97905780Y-21090520D01*
X97613260Y-21090520D01*
X97326362Y-21147588D01*
X97056109Y-21259530D01*
X96812888Y-21422045D01*
X96606045Y-21628888D01*
X96489520Y-21803280D01*
X96372995Y-21628888D01*
X96166152Y-21422045D01*
X95922931Y-21259530D01*
X95652678Y-21147588D01*
X95365780Y-21090520D01*
X95073260Y-21090520D01*
X94786362Y-21147588D01*
X94516109Y-21259530D01*
X94272888Y-21422045D01*
X94066045Y-21628888D01*
X93949520Y-21803280D01*
X93832995Y-21628888D01*
X93626152Y-21422045D01*
X93382931Y-21259530D01*
X93112678Y-21147588D01*
X92825780Y-21090520D01*
X92533260Y-21090520D01*
X92246362Y-21147588D01*
X91976109Y-21259530D01*
X91732888Y-21422045D01*
X91526045Y-21628888D01*
X91409520Y-21803280D01*
X91292995Y-21628888D01*
X91086152Y-21422045D01*
X90842931Y-21259530D01*
X90572678Y-21147588D01*
X90285780Y-21090520D01*
X89993260Y-21090520D01*
X89706362Y-21147588D01*
X89436109Y-21259530D01*
X89192888Y-21422045D01*
X88986045Y-21628888D01*
X88869520Y-21803280D01*
X88752995Y-21628888D01*
X88546152Y-21422045D01*
X88302931Y-21259530D01*
X88032678Y-21147588D01*
X87745780Y-21090520D01*
X87453260Y-21090520D01*
X87166362Y-21147588D01*
X86896109Y-21259530D01*
X86652888Y-21422045D01*
X86446045Y-21628888D01*
X86329520Y-21803280D01*
X86212995Y-21628888D01*
X86006152Y-21422045D01*
X85762931Y-21259530D01*
X85492678Y-21147588D01*
X85205780Y-21090520D01*
X84913260Y-21090520D01*
X84626362Y-21147588D01*
X84356109Y-21259530D01*
X84112888Y-21422045D01*
X83981033Y-21553900D01*
X83959022Y-21481340D01*
X83900057Y-21371026D01*
X83820705Y-21274335D01*
X83724014Y-21194983D01*
X83613700Y-21136018D01*
X83494002Y-21099708D01*
X83369520Y-21087448D01*
X81669520Y-21087448D01*
X81545038Y-21099708D01*
X81425340Y-21136018D01*
X81315026Y-21194983D01*
X81218335Y-21274335D01*
X81138983Y-21371026D01*
X81080018Y-21481340D01*
X81043708Y-21601038D01*
X81031448Y-21725520D01*
X34895656Y-21725520D01*
X34903520Y-21685989D01*
X34903520Y-21029051D01*
X34775358Y-20384736D01*
X34523959Y-19777805D01*
X34158984Y-19231581D01*
X33694459Y-18767056D01*
X33148235Y-18402081D01*
X32541304Y-18150682D01*
X31896989Y-18022520D01*
X31310002Y-18022520D01*
X31562322Y-17996000D01*
X116553722Y-17996000D01*
X116824195Y-18022520D01*
M02*
