%FSLAX45Y45*%
G04 Gerber Fmt 4.5, Leading zero omitted, Abs format (unit mm)*
G04 Created by KiCad (PCBNEW (5.1.5)-3) date 2021-09-22 00:57:14*
%MOMM*%
%LPD*%
G04 APERTURE LIST*
%TA.AperFunction,Profile*%
%ADD10C,0.050000*%
%TD*%
%ADD11C,0.200000*%
%ADD12C,0.300000*%
G04 APERTURE END LIST*
D10*
X3155950Y-6540450D02*
G75*
G02X2755950Y-6140450I0J400000D01*
G01*
X11658600Y-1733600D02*
G75*
G02X12058600Y-2133600I0J-400000D01*
G01*
X2755900Y-2133600D02*
G75*
G02X3155950Y-1733550I400050J0D01*
G01*
X12058600Y-6134100D02*
G75*
G02X11658600Y-6534100I-400000J0D01*
G01*
X12058600Y-6134100D02*
X12058600Y-2133600D01*
X3155950Y-6540450D02*
X11658600Y-6534100D01*
X2755950Y-2133600D02*
X2755950Y-6140450D01*
X11658600Y-1733600D02*
X3155950Y-1733600D01*
D11*
X5545352Y-5264202D02*
X5565352Y-5284202D01*
X5565352Y-5264202D02*
X5545352Y-5284202D01*
X5545352Y-5364202D02*
X5565352Y-5384202D01*
X5565352Y-5364202D02*
X5545352Y-5384202D01*
X5545352Y-5464202D02*
X5565352Y-5484202D01*
X5565352Y-5464202D02*
X5545352Y-5484202D01*
X5645352Y-5264202D02*
X5665352Y-5284202D01*
X5665352Y-5264202D02*
X5645352Y-5284202D01*
X5645352Y-5364202D02*
X5665352Y-5384202D01*
X5665352Y-5364202D02*
X5645352Y-5384202D01*
X5645352Y-5464202D02*
X5665352Y-5484202D01*
X5665352Y-5464202D02*
X5645352Y-5484202D01*
X5745352Y-5264202D02*
X5765352Y-5284202D01*
X5765352Y-5264202D02*
X5745352Y-5284202D01*
X5745352Y-5364202D02*
X5765352Y-5384202D01*
X5765352Y-5364202D02*
X5745352Y-5384202D01*
X5745352Y-5464202D02*
X5765352Y-5484202D01*
X5765352Y-5464202D02*
X5745352Y-5484202D01*
X4557202Y-2689352D02*
G75*
G03X4557202Y-2689352I-20000J0D01*
G01*
X5820852Y-4327652D02*
G75*
G03X5820852Y-4327652I-20000J0D01*
G01*
X5820852Y-4429252D02*
G75*
G03X5820852Y-4429252I-20000J0D01*
G01*
X5850352Y-5747802D02*
G75*
G03X5850352Y-5747802I-20000J0D01*
G01*
X5878002Y-5013452D02*
G75*
G03X5878002Y-5013452I-20000J0D01*
G01*
X5922452Y-4327652D02*
G75*
G03X5922452Y-4327652I-20000J0D01*
G01*
X5922452Y-4429252D02*
G75*
G03X5922452Y-4429252I-20000J0D01*
G01*
X6034466Y-5499100D02*
G75*
G03X6034466Y-5499100I-20000J0D01*
G01*
X6068502Y-5299202D02*
G75*
G03X6068502Y-5299202I-20000J0D01*
G01*
X6093902Y-2676652D02*
G75*
G03X6093902Y-2676652I-20000J0D01*
G01*
X6259553Y-5190701D02*
G75*
G03X6259553Y-5190701I-20000J0D01*
G01*
X6278052Y-4137152D02*
G75*
G03X6278052Y-4137152I-20000J0D01*
G01*
X6309802Y-4232402D02*
G75*
G03X6309802Y-4232402I-20000J0D01*
G01*
X6314652Y-5840452D02*
G75*
G03X6314652Y-5840452I-20000J0D01*
G01*
X6341552Y-4353052D02*
G75*
G03X6341552Y-4353052I-20000J0D01*
G01*
X6360602Y-5324602D02*
G75*
G03X6360602Y-5324602I-20000J0D01*
G01*
X6379652Y-3159252D02*
G75*
G03X6379652Y-3159252I-20000J0D01*
G01*
X6646352Y-4190492D02*
G75*
G03X6646352Y-4190492I-20000J0D01*
G01*
X6740802Y-4308602D02*
G75*
G03X6740802Y-4308602I-20000J0D01*
G01*
X6747952Y-4543552D02*
G75*
G03X6747952Y-4543552I-20000J0D01*
G01*
X6763700Y-4064000D02*
G75*
G03X6763700Y-4064000I-20000J0D01*
G01*
X6787322Y-4214622D02*
G75*
G03X6787322Y-4214622I-20000J0D01*
G01*
X6861744Y-4390644D02*
G75*
G03X6861744Y-4390644I-20000J0D01*
G01*
X7038052Y-4058952D02*
G75*
G03X7038052Y-4058952I-20000J0D01*
G01*
X7148302Y-5451302D02*
G75*
G03X7148302Y-5451302I-20000J0D01*
G01*
X7154352Y-3324352D02*
G75*
G03X7154352Y-3324352I-20000J0D01*
G01*
X7344852Y-3324352D02*
G75*
G03X7344852Y-3324352I-20000J0D01*
G01*
X7459152Y-3673602D02*
G75*
G03X7459152Y-3673602I-20000J0D01*
G01*
X7548052Y-3438652D02*
G75*
G03X7548052Y-3438652I-20000J0D01*
G01*
X7560752Y-4238752D02*
G75*
G03X7560752Y-4238752I-20000J0D01*
G01*
X7656002Y-4803902D02*
G75*
G03X7656002Y-4803902I-20000J0D01*
G01*
X7656002Y-4803902D02*
G75*
G03X7656002Y-4803902I-20000J0D01*
G01*
X7662098Y-3762502D02*
G75*
G03X7662098Y-3762502I-20000J0D01*
G01*
X7662352Y-3229102D02*
G75*
G03X7662352Y-3229102I-20000J0D01*
G01*
X7662352Y-4238752D02*
G75*
G03X7662352Y-4238752I-20000J0D01*
G01*
X7744902Y-2448052D02*
G75*
G03X7744902Y-2448052I-20000J0D01*
G01*
X7776652Y-4238752D02*
G75*
G03X7776652Y-4238752I-20000J0D01*
G01*
X7776652Y-4835652D02*
G75*
G03X7776652Y-4835652I-20000J0D01*
G01*
X7890952Y-4238752D02*
G75*
G03X7890952Y-4238752I-20000J0D01*
G01*
X7890952Y-4873752D02*
G75*
G03X7890952Y-4873752I-20000J0D01*
G01*
X8005252Y-4924552D02*
G75*
G03X8005252Y-4924552I-20000J0D01*
G01*
X8227502Y-4029202D02*
G75*
G03X8227502Y-4029202I-20000J0D01*
G01*
X8405152Y-3317852D02*
G75*
G03X8405152Y-3317852I-20000J0D01*
G01*
X8551352Y-3286252D02*
G75*
G03X8551352Y-3286252I-20000J0D01*
G01*
X8965602Y-3306802D02*
G75*
G03X8965602Y-3306802I-20000J0D01*
G01*
X10418252Y-5165852D02*
G75*
G03X10418252Y-5165852I-20000J0D01*
G01*
X4225852Y-4739452D02*
X4225852Y-4791452D01*
X4199852Y-4765452D02*
X4251852Y-4765452D01*
X4257319Y-5546919D02*
X4257319Y-5483985D01*
X4194385Y-5483985D01*
X4194385Y-5546919D01*
X4257319Y-5546919D01*
X3914902Y-2473652D02*
X3964902Y-2423652D01*
X3914902Y-2373652D01*
X3864902Y-2423652D01*
X3914902Y-2473652D01*
X3914902Y-2727652D02*
X3964902Y-2677652D01*
X3914902Y-2627652D01*
X3864902Y-2677652D01*
X3914902Y-2727652D01*
X9356852Y-5685752D02*
X9406852Y-5635752D01*
X9356852Y-5585752D01*
X9306852Y-5635752D01*
X9356852Y-5685752D01*
X9610852Y-5685752D02*
X9660852Y-5635752D01*
X9610852Y-5585752D01*
X9560852Y-5635752D01*
X9610852Y-5685752D01*
X9864852Y-5685752D02*
X9914852Y-5635752D01*
X9864852Y-5585752D01*
X9814852Y-5635752D01*
X9864852Y-5685752D01*
X10118852Y-5685752D02*
X10168852Y-5635752D01*
X10118852Y-5585752D01*
X10068852Y-5635752D01*
X10118852Y-5685752D01*
X10372852Y-5685752D02*
X10422852Y-5635752D01*
X10372852Y-5585752D01*
X10322852Y-5635752D01*
X10372852Y-5685752D01*
X10626852Y-5685752D02*
X10676852Y-5635752D01*
X10626852Y-5585752D01*
X10576852Y-5635752D01*
X10626852Y-5685752D01*
X10880852Y-5685752D02*
X10930852Y-5635752D01*
X10880852Y-5585752D01*
X10830852Y-5635752D01*
X10880852Y-5685752D01*
X11134852Y-5685752D02*
X11184852Y-5635752D01*
X11134852Y-5585752D01*
X11084852Y-5635752D01*
X11134852Y-5685752D01*
X10410952Y-2764752D02*
X10460952Y-2714752D01*
X10410952Y-2664752D01*
X10360952Y-2714752D01*
X10410952Y-2764752D01*
X10410952Y-3018752D02*
X10460952Y-2968752D01*
X10410952Y-2918752D01*
X10360952Y-2968752D01*
X10410952Y-3018752D01*
X10410952Y-3272752D02*
X10460952Y-3222752D01*
X10410952Y-3172752D01*
X10360952Y-3222752D01*
X10410952Y-3272752D01*
X10410952Y-3526752D02*
X10460952Y-3476752D01*
X10410952Y-3426752D01*
X10360952Y-3476752D01*
X10410952Y-3526752D01*
X10410952Y-3780752D02*
X10460952Y-3730752D01*
X10410952Y-3680752D01*
X10360952Y-3730752D01*
X10410952Y-3780752D01*
X10410952Y-4034752D02*
X10460952Y-3984752D01*
X10410952Y-3934752D01*
X10360952Y-3984752D01*
X10410952Y-4034752D01*
X10410952Y-4288752D02*
X10460952Y-4238752D01*
X10410952Y-4188752D01*
X10360952Y-4238752D01*
X10410952Y-4288752D01*
X10410952Y-4542752D02*
X10460952Y-4492752D01*
X10410952Y-4442752D01*
X10360952Y-4492752D01*
X10410952Y-4542752D01*
X10029952Y-2764752D02*
X10079952Y-2714752D01*
X10029952Y-2664752D01*
X9979952Y-2714752D01*
X10029952Y-2764752D01*
X10029952Y-3018752D02*
X10079952Y-2968752D01*
X10029952Y-2918752D01*
X9979952Y-2968752D01*
X10029952Y-3018752D01*
X10029952Y-3272752D02*
X10079952Y-3222752D01*
X10029952Y-3172752D01*
X9979952Y-3222752D01*
X10029952Y-3272752D01*
X10029952Y-3526752D02*
X10079952Y-3476752D01*
X10029952Y-3426752D01*
X9979952Y-3476752D01*
X10029952Y-3526752D01*
X10029952Y-3780752D02*
X10079952Y-3730752D01*
X10029952Y-3680752D01*
X9979952Y-3730752D01*
X10029952Y-3780752D01*
X10029952Y-4034752D02*
X10079952Y-3984752D01*
X10029952Y-3934752D01*
X9979952Y-3984752D01*
X10029952Y-4034752D01*
X10029952Y-4288752D02*
X10079952Y-4238752D01*
X10029952Y-4188752D01*
X9979952Y-4238752D01*
X10029952Y-4288752D01*
X10029952Y-4542752D02*
X10079952Y-4492752D01*
X10029952Y-4442752D01*
X9979952Y-4492752D01*
X10029952Y-4542752D01*
X8251952Y-2307552D02*
X8301952Y-2257552D01*
X8251952Y-2207552D01*
X8201952Y-2257552D01*
X8251952Y-2307552D01*
X8505952Y-2307552D02*
X8555952Y-2257552D01*
X8505952Y-2207552D01*
X8455952Y-2257552D01*
X8505952Y-2307552D01*
X8759952Y-2307552D02*
X8809952Y-2257552D01*
X8759952Y-2207552D01*
X8709952Y-2257552D01*
X8759952Y-2307552D01*
X9013952Y-2307552D02*
X9063952Y-2257552D01*
X9013952Y-2207552D01*
X8963952Y-2257552D01*
X9013952Y-2307552D01*
X9267952Y-2307552D02*
X9317952Y-2257552D01*
X9267952Y-2207552D01*
X9217952Y-2257552D01*
X9267952Y-2307552D01*
X9521952Y-2307552D02*
X9571952Y-2257552D01*
X9521952Y-2207552D01*
X9471952Y-2257552D01*
X9521952Y-2307552D01*
X9775952Y-2307552D02*
X9825952Y-2257552D01*
X9775952Y-2207552D01*
X9725952Y-2257552D01*
X9775952Y-2307552D01*
X10029952Y-2307552D02*
X10079952Y-2257552D01*
X10029952Y-2207552D01*
X9979952Y-2257552D01*
X10029952Y-2307552D01*
X6962902Y-2733002D02*
X7012902Y-2683002D01*
X6962902Y-2633002D01*
X6912902Y-2683002D01*
X6962902Y-2733002D01*
X7216902Y-2733002D02*
X7266902Y-2683002D01*
X7216902Y-2633002D01*
X7166902Y-2683002D01*
X7216902Y-2733002D01*
X7470902Y-2733002D02*
X7520902Y-2683002D01*
X7470902Y-2633002D01*
X7420902Y-2683002D01*
X7470902Y-2733002D01*
X7724902Y-2733002D02*
X7774902Y-2683002D01*
X7724902Y-2633002D01*
X7674902Y-2683002D01*
X7724902Y-2733002D01*
X6359652Y-2472652D02*
X6409652Y-2422652D01*
X6359652Y-2372652D01*
X6309652Y-2422652D01*
X6359652Y-2472652D01*
X6359652Y-2726652D02*
X6409652Y-2676652D01*
X6359652Y-2626652D01*
X6309652Y-2676652D01*
X6359652Y-2726652D01*
X6359652Y-2980652D02*
X6409652Y-2930652D01*
X6359652Y-2880652D01*
X6309652Y-2930652D01*
X6359652Y-2980652D01*
X7458202Y-5685752D02*
X7508202Y-5635752D01*
X7458202Y-5585752D01*
X7408202Y-5635752D01*
X7458202Y-5685752D01*
X7712202Y-5685752D02*
X7762202Y-5635752D01*
X7712202Y-5585752D01*
X7662202Y-5635752D01*
X7712202Y-5685752D01*
X7966202Y-5685752D02*
X8016202Y-5635752D01*
X7966202Y-5585752D01*
X7916202Y-5635752D01*
X7966202Y-5685752D01*
X8220202Y-5685752D02*
X8270202Y-5635752D01*
X8220202Y-5585752D01*
X8170202Y-5635752D01*
X8220202Y-5685752D01*
X8474202Y-5685752D02*
X8524202Y-5635752D01*
X8474202Y-5585752D01*
X8424202Y-5635752D01*
X8474202Y-5685752D01*
X8728202Y-5685752D02*
X8778202Y-5635752D01*
X8728202Y-5585752D01*
X8678202Y-5635752D01*
X8728202Y-5685752D01*
X8982202Y-5685752D02*
X9032202Y-5635752D01*
X8982202Y-5585752D01*
X8932202Y-5635752D01*
X8982202Y-5685752D01*
X4822952Y-2472652D02*
X4872952Y-2422652D01*
X4822952Y-2372652D01*
X4772952Y-2422652D01*
X4822952Y-2472652D01*
X4822952Y-2726652D02*
X4872952Y-2676652D01*
X4822952Y-2626652D01*
X4772952Y-2676652D01*
X4822952Y-2726652D01*
X4822952Y-2980652D02*
X4872952Y-2930652D01*
X4822952Y-2880652D01*
X4772952Y-2930652D01*
X4822952Y-2980652D01*
X3958852Y-4848452D02*
X4062852Y-4952452D01*
X4062852Y-4848452D02*
X3958852Y-4952452D01*
X4062852Y-4900452D02*
G75*
G03X4062852Y-4900452I-52000J0D01*
G01*
X3958852Y-5328452D02*
X4062852Y-5432452D01*
X4062852Y-5328452D02*
X3958852Y-5432452D01*
X4062852Y-5380452D02*
G75*
G03X4062852Y-5380452I-52000J0D01*
G01*
X4388852Y-4848452D02*
X4492852Y-4952452D01*
X4492852Y-4848452D02*
X4388852Y-4952452D01*
X4492852Y-4900452D02*
G75*
G03X4492852Y-4900452I-52000J0D01*
G01*
X4388852Y-5328452D02*
X4492852Y-5432452D01*
X4492852Y-5328452D02*
X4388852Y-5432452D01*
X4492852Y-5380452D02*
G75*
G03X4492852Y-5380452I-52000J0D01*
G01*
X3021852Y-6000752D02*
X3291852Y-6270752D01*
X3291852Y-6000752D02*
X3021852Y-6270752D01*
X3156852Y-6000752D02*
X3156852Y-6270752D01*
X3021852Y-6135752D02*
X3291852Y-6135752D01*
X11521852Y-2000752D02*
X11791852Y-2270752D01*
X11791852Y-2000752D02*
X11521852Y-2270752D01*
X11656852Y-2000752D02*
X11656852Y-2270752D01*
X11521852Y-2135752D02*
X11791852Y-2135752D01*
X11521852Y-6000752D02*
X11791852Y-6270752D01*
X11791852Y-6000752D02*
X11521852Y-6270752D01*
X11656852Y-6000752D02*
X11656852Y-6270752D01*
X11521852Y-6135752D02*
X11791852Y-6135752D01*
X3021852Y-2000752D02*
X3291852Y-2270752D01*
X3291852Y-2000752D02*
X3021852Y-2270752D01*
X3156852Y-2000752D02*
X3156852Y-2270752D01*
X3021852Y-2135752D02*
X3291852Y-2135752D01*
D12*
X3039828Y-7008664D02*
X3039828Y-6708664D01*
X3111257Y-6708664D01*
X3154114Y-6722950D01*
X3182686Y-6751521D01*
X3196971Y-6780093D01*
X3211257Y-6837236D01*
X3211257Y-6880093D01*
X3196971Y-6937236D01*
X3182686Y-6965807D01*
X3154114Y-6994379D01*
X3111257Y-7008664D01*
X3039828Y-7008664D01*
X3339828Y-7008664D02*
X3339828Y-6808664D01*
X3339828Y-6865807D02*
X3354114Y-6837236D01*
X3368400Y-6822950D01*
X3396971Y-6808664D01*
X3425543Y-6808664D01*
X3525543Y-7008664D02*
X3525543Y-6808664D01*
X3525543Y-6708664D02*
X3511257Y-6722950D01*
X3525543Y-6737236D01*
X3539828Y-6722950D01*
X3525543Y-6708664D01*
X3525543Y-6737236D01*
X3711257Y-7008664D02*
X3682686Y-6994379D01*
X3668400Y-6965807D01*
X3668400Y-6708664D01*
X3868400Y-7008664D02*
X3839828Y-6994379D01*
X3825543Y-6965807D01*
X3825543Y-6708664D01*
X4211257Y-7008664D02*
X4211257Y-6708664D01*
X4311257Y-6922950D01*
X4411257Y-6708664D01*
X4411257Y-7008664D01*
X4682686Y-7008664D02*
X4682686Y-6851521D01*
X4668400Y-6822950D01*
X4639828Y-6808664D01*
X4582686Y-6808664D01*
X4554114Y-6822950D01*
X4682686Y-6994379D02*
X4654114Y-7008664D01*
X4582686Y-7008664D01*
X4554114Y-6994379D01*
X4539828Y-6965807D01*
X4539828Y-6937236D01*
X4554114Y-6908664D01*
X4582686Y-6894379D01*
X4654114Y-6894379D01*
X4682686Y-6880093D01*
X4825543Y-6808664D02*
X4825543Y-7108664D01*
X4825543Y-6822950D02*
X4854114Y-6808664D01*
X4911257Y-6808664D01*
X4939828Y-6822950D01*
X4954114Y-6837236D01*
X4968400Y-6865807D01*
X4968400Y-6951521D01*
X4954114Y-6980093D01*
X4939828Y-6994379D01*
X4911257Y-7008664D01*
X4854114Y-7008664D01*
X4825543Y-6994379D01*
X5096971Y-6980093D02*
X5111257Y-6994379D01*
X5096971Y-7008664D01*
X5082686Y-6994379D01*
X5096971Y-6980093D01*
X5096971Y-7008664D01*
X5096971Y-6822950D02*
X5111257Y-6837236D01*
X5096971Y-6851521D01*
X5082686Y-6837236D01*
X5096971Y-6822950D01*
X5096971Y-6851521D01*
X2733400Y-7492950D02*
X2753400Y-7512950D01*
X2753400Y-7492950D02*
X2733400Y-7512950D01*
X3096971Y-7338664D02*
X3125543Y-7338664D01*
X3154114Y-7352950D01*
X3168400Y-7367236D01*
X3182686Y-7395807D01*
X3196971Y-7452950D01*
X3196971Y-7524379D01*
X3182686Y-7581521D01*
X3168400Y-7610093D01*
X3154114Y-7624379D01*
X3125543Y-7638664D01*
X3096971Y-7638664D01*
X3068400Y-7624379D01*
X3054114Y-7610093D01*
X3039828Y-7581521D01*
X3025543Y-7524379D01*
X3025543Y-7452950D01*
X3039828Y-7395807D01*
X3054114Y-7367236D01*
X3068400Y-7352950D01*
X3096971Y-7338664D01*
X3325543Y-7610093D02*
X3339828Y-7624379D01*
X3325543Y-7638664D01*
X3311257Y-7624379D01*
X3325543Y-7610093D01*
X3325543Y-7638664D01*
X3454114Y-7367236D02*
X3468400Y-7352950D01*
X3496971Y-7338664D01*
X3568400Y-7338664D01*
X3596971Y-7352950D01*
X3611257Y-7367236D01*
X3625543Y-7395807D01*
X3625543Y-7424379D01*
X3611257Y-7467236D01*
X3439828Y-7638664D01*
X3625543Y-7638664D01*
X3811257Y-7338664D02*
X3839828Y-7338664D01*
X3868400Y-7352950D01*
X3882686Y-7367236D01*
X3896971Y-7395807D01*
X3911257Y-7452950D01*
X3911257Y-7524379D01*
X3896971Y-7581521D01*
X3882686Y-7610093D01*
X3868400Y-7624379D01*
X3839828Y-7638664D01*
X3811257Y-7638664D01*
X3782686Y-7624379D01*
X3768400Y-7610093D01*
X3754114Y-7581521D01*
X3739828Y-7524379D01*
X3739828Y-7452950D01*
X3754114Y-7395807D01*
X3768400Y-7367236D01*
X3782686Y-7352950D01*
X3811257Y-7338664D01*
X4039828Y-7638664D02*
X4039828Y-7438664D01*
X4039828Y-7467236D02*
X4054114Y-7452950D01*
X4082686Y-7438664D01*
X4125543Y-7438664D01*
X4154114Y-7452950D01*
X4168400Y-7481521D01*
X4168400Y-7638664D01*
X4168400Y-7481521D02*
X4182686Y-7452950D01*
X4211257Y-7438664D01*
X4254114Y-7438664D01*
X4282686Y-7452950D01*
X4296971Y-7481521D01*
X4296971Y-7638664D01*
X4439828Y-7638664D02*
X4439828Y-7438664D01*
X4439828Y-7467236D02*
X4454114Y-7452950D01*
X4482686Y-7438664D01*
X4525543Y-7438664D01*
X4554114Y-7452950D01*
X4568400Y-7481521D01*
X4568400Y-7638664D01*
X4568400Y-7481521D02*
X4582686Y-7452950D01*
X4611257Y-7438664D01*
X4654114Y-7438664D01*
X4682686Y-7452950D01*
X4696971Y-7481521D01*
X4696971Y-7638664D01*
X5282686Y-7324379D02*
X5025543Y-7710093D01*
X5668400Y-7338664D02*
X5696971Y-7338664D01*
X5725543Y-7352950D01*
X5739828Y-7367236D01*
X5754114Y-7395807D01*
X5768400Y-7452950D01*
X5768400Y-7524379D01*
X5754114Y-7581521D01*
X5739828Y-7610093D01*
X5725543Y-7624379D01*
X5696971Y-7638664D01*
X5668400Y-7638664D01*
X5639828Y-7624379D01*
X5625543Y-7610093D01*
X5611257Y-7581521D01*
X5596971Y-7524379D01*
X5596971Y-7452950D01*
X5611257Y-7395807D01*
X5625543Y-7367236D01*
X5639828Y-7352950D01*
X5668400Y-7338664D01*
X5896971Y-7610093D02*
X5911257Y-7624379D01*
X5896971Y-7638664D01*
X5882686Y-7624379D01*
X5896971Y-7610093D01*
X5896971Y-7638664D01*
X6096971Y-7338664D02*
X6125543Y-7338664D01*
X6154114Y-7352950D01*
X6168400Y-7367236D01*
X6182686Y-7395807D01*
X6196971Y-7452950D01*
X6196971Y-7524379D01*
X6182686Y-7581521D01*
X6168400Y-7610093D01*
X6154114Y-7624379D01*
X6125543Y-7638664D01*
X6096971Y-7638664D01*
X6068400Y-7624379D01*
X6054114Y-7610093D01*
X6039828Y-7581521D01*
X6025543Y-7524379D01*
X6025543Y-7452950D01*
X6039828Y-7395807D01*
X6054114Y-7367236D01*
X6068400Y-7352950D01*
X6096971Y-7338664D01*
X6382686Y-7338664D02*
X6411257Y-7338664D01*
X6439828Y-7352950D01*
X6454114Y-7367236D01*
X6468400Y-7395807D01*
X6482686Y-7452950D01*
X6482686Y-7524379D01*
X6468400Y-7581521D01*
X6454114Y-7610093D01*
X6439828Y-7624379D01*
X6411257Y-7638664D01*
X6382686Y-7638664D01*
X6354114Y-7624379D01*
X6339828Y-7610093D01*
X6325543Y-7581521D01*
X6311257Y-7524379D01*
X6311257Y-7452950D01*
X6325543Y-7395807D01*
X6339828Y-7367236D01*
X6354114Y-7352950D01*
X6382686Y-7338664D01*
X6654114Y-7467236D02*
X6625543Y-7452950D01*
X6611257Y-7438664D01*
X6596971Y-7410093D01*
X6596971Y-7395807D01*
X6611257Y-7367236D01*
X6625543Y-7352950D01*
X6654114Y-7338664D01*
X6711257Y-7338664D01*
X6739828Y-7352950D01*
X6754114Y-7367236D01*
X6768400Y-7395807D01*
X6768400Y-7410093D01*
X6754114Y-7438664D01*
X6739828Y-7452950D01*
X6711257Y-7467236D01*
X6654114Y-7467236D01*
X6625543Y-7481521D01*
X6611257Y-7495807D01*
X6596971Y-7524379D01*
X6596971Y-7581521D01*
X6611257Y-7610093D01*
X6625543Y-7624379D01*
X6654114Y-7638664D01*
X6711257Y-7638664D01*
X6739828Y-7624379D01*
X6754114Y-7610093D01*
X6768400Y-7581521D01*
X6768400Y-7524379D01*
X6754114Y-7495807D01*
X6739828Y-7481521D01*
X6711257Y-7467236D01*
X6882686Y-7338664D02*
X6882686Y-7395807D01*
X6996971Y-7338664D02*
X6996971Y-7395807D01*
X7439828Y-7752950D02*
X7425543Y-7738664D01*
X7396971Y-7695807D01*
X7382686Y-7667236D01*
X7368400Y-7624379D01*
X7354114Y-7552950D01*
X7354114Y-7495807D01*
X7368400Y-7424379D01*
X7382686Y-7381521D01*
X7396971Y-7352950D01*
X7425543Y-7310093D01*
X7439828Y-7295807D01*
X7568400Y-7638664D02*
X7625543Y-7638664D01*
X7654114Y-7624379D01*
X7668400Y-7610093D01*
X7696971Y-7567236D01*
X7711257Y-7510093D01*
X7711257Y-7395807D01*
X7696971Y-7367236D01*
X7682686Y-7352950D01*
X7654114Y-7338664D01*
X7596971Y-7338664D01*
X7568400Y-7352950D01*
X7554114Y-7367236D01*
X7539828Y-7395807D01*
X7539828Y-7467236D01*
X7554114Y-7495807D01*
X7568400Y-7510093D01*
X7596971Y-7524379D01*
X7654114Y-7524379D01*
X7682686Y-7510093D01*
X7696971Y-7495807D01*
X7711257Y-7467236D01*
X8068400Y-7638664D02*
X8068400Y-7338664D01*
X8196971Y-7638664D02*
X8196971Y-7481521D01*
X8182686Y-7452950D01*
X8154114Y-7438664D01*
X8111257Y-7438664D01*
X8082686Y-7452950D01*
X8068400Y-7467236D01*
X8382686Y-7638664D02*
X8354114Y-7624379D01*
X8339828Y-7610093D01*
X8325543Y-7581521D01*
X8325543Y-7495807D01*
X8339828Y-7467236D01*
X8354114Y-7452950D01*
X8382686Y-7438664D01*
X8425543Y-7438664D01*
X8454114Y-7452950D01*
X8468400Y-7467236D01*
X8482686Y-7495807D01*
X8482686Y-7581521D01*
X8468400Y-7610093D01*
X8454114Y-7624379D01*
X8425543Y-7638664D01*
X8382686Y-7638664D01*
X8654114Y-7638664D02*
X8625543Y-7624379D01*
X8611257Y-7595807D01*
X8611257Y-7338664D01*
X8882686Y-7624379D02*
X8854114Y-7638664D01*
X8796971Y-7638664D01*
X8768400Y-7624379D01*
X8754114Y-7595807D01*
X8754114Y-7481521D01*
X8768400Y-7452950D01*
X8796971Y-7438664D01*
X8854114Y-7438664D01*
X8882686Y-7452950D01*
X8896971Y-7481521D01*
X8896971Y-7510093D01*
X8754114Y-7538664D01*
X9011257Y-7624379D02*
X9039828Y-7638664D01*
X9096971Y-7638664D01*
X9125543Y-7624379D01*
X9139828Y-7595807D01*
X9139828Y-7581521D01*
X9125543Y-7552950D01*
X9096971Y-7538664D01*
X9054114Y-7538664D01*
X9025543Y-7524379D01*
X9011257Y-7495807D01*
X9011257Y-7481521D01*
X9025543Y-7452950D01*
X9054114Y-7438664D01*
X9096971Y-7438664D01*
X9125543Y-7452950D01*
X9239828Y-7752950D02*
X9254114Y-7738664D01*
X9282686Y-7695807D01*
X9296971Y-7667236D01*
X9311257Y-7624379D01*
X9325543Y-7552950D01*
X9325543Y-7495807D01*
X9311257Y-7424379D01*
X9296971Y-7381521D01*
X9282686Y-7352950D01*
X9254114Y-7310093D01*
X9239828Y-7295807D01*
X2753400Y-7898950D02*
G75*
G03X2753400Y-7898950I-20000J0D01*
G01*
X3096971Y-7734664D02*
X3125543Y-7734664D01*
X3154114Y-7748950D01*
X3168400Y-7763236D01*
X3182686Y-7791807D01*
X3196971Y-7848950D01*
X3196971Y-7920379D01*
X3182686Y-7977521D01*
X3168400Y-8006093D01*
X3154114Y-8020379D01*
X3125543Y-8034664D01*
X3096971Y-8034664D01*
X3068400Y-8020379D01*
X3054114Y-8006093D01*
X3039828Y-7977521D01*
X3025543Y-7920379D01*
X3025543Y-7848950D01*
X3039828Y-7791807D01*
X3054114Y-7763236D01*
X3068400Y-7748950D01*
X3096971Y-7734664D01*
X3325543Y-8006093D02*
X3339828Y-8020379D01*
X3325543Y-8034664D01*
X3311257Y-8020379D01*
X3325543Y-8006093D01*
X3325543Y-8034664D01*
X3596971Y-7834664D02*
X3596971Y-8034664D01*
X3525543Y-7720379D02*
X3454114Y-7934664D01*
X3639828Y-7934664D01*
X3811257Y-7734664D02*
X3839828Y-7734664D01*
X3868400Y-7748950D01*
X3882686Y-7763236D01*
X3896971Y-7791807D01*
X3911257Y-7848950D01*
X3911257Y-7920379D01*
X3896971Y-7977521D01*
X3882686Y-8006093D01*
X3868400Y-8020379D01*
X3839828Y-8034664D01*
X3811257Y-8034664D01*
X3782686Y-8020379D01*
X3768400Y-8006093D01*
X3754114Y-7977521D01*
X3739828Y-7920379D01*
X3739828Y-7848950D01*
X3754114Y-7791807D01*
X3768400Y-7763236D01*
X3782686Y-7748950D01*
X3811257Y-7734664D01*
X4039828Y-8034664D02*
X4039828Y-7834664D01*
X4039828Y-7863236D02*
X4054114Y-7848950D01*
X4082686Y-7834664D01*
X4125543Y-7834664D01*
X4154114Y-7848950D01*
X4168400Y-7877521D01*
X4168400Y-8034664D01*
X4168400Y-7877521D02*
X4182686Y-7848950D01*
X4211257Y-7834664D01*
X4254114Y-7834664D01*
X4282686Y-7848950D01*
X4296971Y-7877521D01*
X4296971Y-8034664D01*
X4439828Y-8034664D02*
X4439828Y-7834664D01*
X4439828Y-7863236D02*
X4454114Y-7848950D01*
X4482686Y-7834664D01*
X4525543Y-7834664D01*
X4554114Y-7848950D01*
X4568400Y-7877521D01*
X4568400Y-8034664D01*
X4568400Y-7877521D02*
X4582686Y-7848950D01*
X4611257Y-7834664D01*
X4654114Y-7834664D01*
X4682686Y-7848950D01*
X4696971Y-7877521D01*
X4696971Y-8034664D01*
X5282686Y-7720379D02*
X5025543Y-8106093D01*
X5668400Y-7734664D02*
X5696971Y-7734664D01*
X5725543Y-7748950D01*
X5739828Y-7763236D01*
X5754114Y-7791807D01*
X5768400Y-7848950D01*
X5768400Y-7920379D01*
X5754114Y-7977521D01*
X5739828Y-8006093D01*
X5725543Y-8020379D01*
X5696971Y-8034664D01*
X5668400Y-8034664D01*
X5639828Y-8020379D01*
X5625543Y-8006093D01*
X5611257Y-7977521D01*
X5596971Y-7920379D01*
X5596971Y-7848950D01*
X5611257Y-7791807D01*
X5625543Y-7763236D01*
X5639828Y-7748950D01*
X5668400Y-7734664D01*
X5896971Y-8006093D02*
X5911257Y-8020379D01*
X5896971Y-8034664D01*
X5882686Y-8020379D01*
X5896971Y-8006093D01*
X5896971Y-8034664D01*
X6096971Y-7734664D02*
X6125543Y-7734664D01*
X6154114Y-7748950D01*
X6168400Y-7763236D01*
X6182686Y-7791807D01*
X6196971Y-7848950D01*
X6196971Y-7920379D01*
X6182686Y-7977521D01*
X6168400Y-8006093D01*
X6154114Y-8020379D01*
X6125543Y-8034664D01*
X6096971Y-8034664D01*
X6068400Y-8020379D01*
X6054114Y-8006093D01*
X6039828Y-7977521D01*
X6025543Y-7920379D01*
X6025543Y-7848950D01*
X6039828Y-7791807D01*
X6054114Y-7763236D01*
X6068400Y-7748950D01*
X6096971Y-7734664D01*
X6482686Y-8034664D02*
X6311257Y-8034664D01*
X6396971Y-8034664D02*
X6396971Y-7734664D01*
X6368400Y-7777521D01*
X6339828Y-7806093D01*
X6311257Y-7820379D01*
X6739828Y-7734664D02*
X6682686Y-7734664D01*
X6654114Y-7748950D01*
X6639828Y-7763236D01*
X6611257Y-7806093D01*
X6596971Y-7863236D01*
X6596971Y-7977521D01*
X6611257Y-8006093D01*
X6625543Y-8020379D01*
X6654114Y-8034664D01*
X6711257Y-8034664D01*
X6739828Y-8020379D01*
X6754114Y-8006093D01*
X6768400Y-7977521D01*
X6768400Y-7906093D01*
X6754114Y-7877521D01*
X6739828Y-7863236D01*
X6711257Y-7848950D01*
X6654114Y-7848950D01*
X6625543Y-7863236D01*
X6611257Y-7877521D01*
X6596971Y-7906093D01*
X6882686Y-7734664D02*
X6882686Y-7791807D01*
X6996971Y-7734664D02*
X6996971Y-7791807D01*
X7439828Y-8148950D02*
X7425543Y-8134664D01*
X7396971Y-8091807D01*
X7382686Y-8063236D01*
X7368400Y-8020379D01*
X7354114Y-7948950D01*
X7354114Y-7891807D01*
X7368400Y-7820379D01*
X7382686Y-7777521D01*
X7396971Y-7748950D01*
X7425543Y-7706093D01*
X7439828Y-7691807D01*
X7682686Y-7834664D02*
X7682686Y-8034664D01*
X7611257Y-7720379D02*
X7539828Y-7934664D01*
X7725543Y-7934664D01*
X7968400Y-7734664D02*
X7911257Y-7734664D01*
X7882686Y-7748950D01*
X7868400Y-7763236D01*
X7839828Y-7806093D01*
X7825543Y-7863236D01*
X7825543Y-7977521D01*
X7839828Y-8006093D01*
X7854114Y-8020379D01*
X7882686Y-8034664D01*
X7939828Y-8034664D01*
X7968400Y-8020379D01*
X7982686Y-8006093D01*
X7996971Y-7977521D01*
X7996971Y-7906093D01*
X7982686Y-7877521D01*
X7968400Y-7863236D01*
X7939828Y-7848950D01*
X7882686Y-7848950D01*
X7854114Y-7863236D01*
X7839828Y-7877521D01*
X7825543Y-7906093D01*
X8354114Y-8034664D02*
X8354114Y-7734664D01*
X8482686Y-8034664D02*
X8482686Y-7877521D01*
X8468400Y-7848950D01*
X8439828Y-7834664D01*
X8396971Y-7834664D01*
X8368400Y-7848950D01*
X8354114Y-7863236D01*
X8668400Y-8034664D02*
X8639828Y-8020379D01*
X8625543Y-8006093D01*
X8611257Y-7977521D01*
X8611257Y-7891807D01*
X8625543Y-7863236D01*
X8639828Y-7848950D01*
X8668400Y-7834664D01*
X8711257Y-7834664D01*
X8739828Y-7848950D01*
X8754114Y-7863236D01*
X8768400Y-7891807D01*
X8768400Y-7977521D01*
X8754114Y-8006093D01*
X8739828Y-8020379D01*
X8711257Y-8034664D01*
X8668400Y-8034664D01*
X8939828Y-8034664D02*
X8911257Y-8020379D01*
X8896971Y-7991807D01*
X8896971Y-7734664D01*
X9168400Y-8020379D02*
X9139828Y-8034664D01*
X9082686Y-8034664D01*
X9054114Y-8020379D01*
X9039828Y-7991807D01*
X9039828Y-7877521D01*
X9054114Y-7848950D01*
X9082686Y-7834664D01*
X9139828Y-7834664D01*
X9168400Y-7848950D01*
X9182686Y-7877521D01*
X9182686Y-7906093D01*
X9039828Y-7934664D01*
X9296971Y-8020379D02*
X9325543Y-8034664D01*
X9382686Y-8034664D01*
X9411257Y-8020379D01*
X9425543Y-7991807D01*
X9425543Y-7977521D01*
X9411257Y-7948950D01*
X9382686Y-7934664D01*
X9339828Y-7934664D01*
X9311257Y-7920379D01*
X9296971Y-7891807D01*
X9296971Y-7877521D01*
X9311257Y-7848950D01*
X9339828Y-7834664D01*
X9382686Y-7834664D01*
X9411257Y-7848950D01*
X9525543Y-8148950D02*
X9539828Y-8134664D01*
X9568400Y-8091807D01*
X9582686Y-8063236D01*
X9596971Y-8020379D01*
X9611257Y-7948950D01*
X9611257Y-7891807D01*
X9596971Y-7820379D01*
X9582686Y-7777521D01*
X9568400Y-7748950D01*
X9539828Y-7706093D01*
X9525543Y-7691807D01*
X2727400Y-8268950D02*
X2727400Y-8320950D01*
X2701400Y-8294950D02*
X2753400Y-8294950D01*
X3096971Y-8130664D02*
X3125543Y-8130664D01*
X3154114Y-8144950D01*
X3168400Y-8159236D01*
X3182686Y-8187807D01*
X3196971Y-8244950D01*
X3196971Y-8316379D01*
X3182686Y-8373521D01*
X3168400Y-8402093D01*
X3154114Y-8416379D01*
X3125543Y-8430664D01*
X3096971Y-8430664D01*
X3068400Y-8416379D01*
X3054114Y-8402093D01*
X3039828Y-8373521D01*
X3025543Y-8316379D01*
X3025543Y-8244950D01*
X3039828Y-8187807D01*
X3054114Y-8159236D01*
X3068400Y-8144950D01*
X3096971Y-8130664D01*
X3325543Y-8402093D02*
X3339828Y-8416379D01*
X3325543Y-8430664D01*
X3311257Y-8416379D01*
X3325543Y-8402093D01*
X3325543Y-8430664D01*
X3611257Y-8130664D02*
X3468400Y-8130664D01*
X3454114Y-8273521D01*
X3468400Y-8259236D01*
X3496971Y-8244950D01*
X3568400Y-8244950D01*
X3596971Y-8259236D01*
X3611257Y-8273521D01*
X3625543Y-8302093D01*
X3625543Y-8373521D01*
X3611257Y-8402093D01*
X3596971Y-8416379D01*
X3568400Y-8430664D01*
X3496971Y-8430664D01*
X3468400Y-8416379D01*
X3454114Y-8402093D01*
X3739828Y-8159236D02*
X3754114Y-8144950D01*
X3782686Y-8130664D01*
X3854114Y-8130664D01*
X3882686Y-8144950D01*
X3896971Y-8159236D01*
X3911257Y-8187807D01*
X3911257Y-8216379D01*
X3896971Y-8259236D01*
X3725543Y-8430664D01*
X3911257Y-8430664D01*
X4039828Y-8430664D02*
X4039828Y-8230664D01*
X4039828Y-8259236D02*
X4054114Y-8244950D01*
X4082686Y-8230664D01*
X4125543Y-8230664D01*
X4154114Y-8244950D01*
X4168400Y-8273521D01*
X4168400Y-8430664D01*
X4168400Y-8273521D02*
X4182686Y-8244950D01*
X4211257Y-8230664D01*
X4254114Y-8230664D01*
X4282686Y-8244950D01*
X4296971Y-8273521D01*
X4296971Y-8430664D01*
X4439828Y-8430664D02*
X4439828Y-8230664D01*
X4439828Y-8259236D02*
X4454114Y-8244950D01*
X4482686Y-8230664D01*
X4525543Y-8230664D01*
X4554114Y-8244950D01*
X4568400Y-8273521D01*
X4568400Y-8430664D01*
X4568400Y-8273521D02*
X4582686Y-8244950D01*
X4611257Y-8230664D01*
X4654114Y-8230664D01*
X4682686Y-8244950D01*
X4696971Y-8273521D01*
X4696971Y-8430664D01*
X5282686Y-8116379D02*
X5025543Y-8502093D01*
X5668400Y-8130664D02*
X5696971Y-8130664D01*
X5725543Y-8144950D01*
X5739828Y-8159236D01*
X5754114Y-8187807D01*
X5768400Y-8244950D01*
X5768400Y-8316379D01*
X5754114Y-8373521D01*
X5739828Y-8402093D01*
X5725543Y-8416379D01*
X5696971Y-8430664D01*
X5668400Y-8430664D01*
X5639828Y-8416379D01*
X5625543Y-8402093D01*
X5611257Y-8373521D01*
X5596971Y-8316379D01*
X5596971Y-8244950D01*
X5611257Y-8187807D01*
X5625543Y-8159236D01*
X5639828Y-8144950D01*
X5668400Y-8130664D01*
X5896971Y-8402093D02*
X5911257Y-8416379D01*
X5896971Y-8430664D01*
X5882686Y-8416379D01*
X5896971Y-8402093D01*
X5896971Y-8430664D01*
X6096971Y-8130664D02*
X6125543Y-8130664D01*
X6154114Y-8144950D01*
X6168400Y-8159236D01*
X6182686Y-8187807D01*
X6196971Y-8244950D01*
X6196971Y-8316379D01*
X6182686Y-8373521D01*
X6168400Y-8402093D01*
X6154114Y-8416379D01*
X6125543Y-8430664D01*
X6096971Y-8430664D01*
X6068400Y-8416379D01*
X6054114Y-8402093D01*
X6039828Y-8373521D01*
X6025543Y-8316379D01*
X6025543Y-8244950D01*
X6039828Y-8187807D01*
X6054114Y-8159236D01*
X6068400Y-8144950D01*
X6096971Y-8130664D01*
X6311257Y-8159236D02*
X6325543Y-8144950D01*
X6354114Y-8130664D01*
X6425543Y-8130664D01*
X6454114Y-8144950D01*
X6468400Y-8159236D01*
X6482686Y-8187807D01*
X6482686Y-8216379D01*
X6468400Y-8259236D01*
X6296971Y-8430664D01*
X6482686Y-8430664D01*
X6668400Y-8130664D02*
X6696971Y-8130664D01*
X6725543Y-8144950D01*
X6739828Y-8159236D01*
X6754114Y-8187807D01*
X6768400Y-8244950D01*
X6768400Y-8316379D01*
X6754114Y-8373521D01*
X6739828Y-8402093D01*
X6725543Y-8416379D01*
X6696971Y-8430664D01*
X6668400Y-8430664D01*
X6639828Y-8416379D01*
X6625543Y-8402093D01*
X6611257Y-8373521D01*
X6596971Y-8316379D01*
X6596971Y-8244950D01*
X6611257Y-8187807D01*
X6625543Y-8159236D01*
X6639828Y-8144950D01*
X6668400Y-8130664D01*
X6882686Y-8130664D02*
X6882686Y-8187807D01*
X6996971Y-8130664D02*
X6996971Y-8187807D01*
X7439828Y-8544950D02*
X7425543Y-8530664D01*
X7396971Y-8487807D01*
X7382686Y-8459236D01*
X7368400Y-8416379D01*
X7354114Y-8344950D01*
X7354114Y-8287807D01*
X7368400Y-8216379D01*
X7382686Y-8173521D01*
X7396971Y-8144950D01*
X7425543Y-8102093D01*
X7439828Y-8087807D01*
X7711257Y-8430664D02*
X7539828Y-8430664D01*
X7625543Y-8430664D02*
X7625543Y-8130664D01*
X7596971Y-8173521D01*
X7568400Y-8202093D01*
X7539828Y-8216379D01*
X8068400Y-8430664D02*
X8068400Y-8130664D01*
X8196971Y-8430664D02*
X8196971Y-8273521D01*
X8182686Y-8244950D01*
X8154114Y-8230664D01*
X8111257Y-8230664D01*
X8082686Y-8244950D01*
X8068400Y-8259236D01*
X8382686Y-8430664D02*
X8354114Y-8416379D01*
X8339828Y-8402093D01*
X8325543Y-8373521D01*
X8325543Y-8287807D01*
X8339828Y-8259236D01*
X8354114Y-8244950D01*
X8382686Y-8230664D01*
X8425543Y-8230664D01*
X8454114Y-8244950D01*
X8468400Y-8259236D01*
X8482686Y-8287807D01*
X8482686Y-8373521D01*
X8468400Y-8402093D01*
X8454114Y-8416379D01*
X8425543Y-8430664D01*
X8382686Y-8430664D01*
X8654114Y-8430664D02*
X8625543Y-8416379D01*
X8611257Y-8387807D01*
X8611257Y-8130664D01*
X8882686Y-8416379D02*
X8854114Y-8430664D01*
X8796971Y-8430664D01*
X8768400Y-8416379D01*
X8754114Y-8387807D01*
X8754114Y-8273521D01*
X8768400Y-8244950D01*
X8796971Y-8230664D01*
X8854114Y-8230664D01*
X8882686Y-8244950D01*
X8896971Y-8273521D01*
X8896971Y-8302093D01*
X8754114Y-8330664D01*
X8996971Y-8544950D02*
X9011257Y-8530664D01*
X9039828Y-8487807D01*
X9054114Y-8459236D01*
X9068400Y-8416379D01*
X9082686Y-8344950D01*
X9082686Y-8287807D01*
X9068400Y-8216379D01*
X9054114Y-8173521D01*
X9039828Y-8144950D01*
X9011257Y-8102093D01*
X8996971Y-8087807D01*
X2740367Y-8722417D02*
X2740367Y-8659484D01*
X2677433Y-8659484D01*
X2677433Y-8722417D01*
X2740367Y-8722417D01*
X3096971Y-8526664D02*
X3125543Y-8526664D01*
X3154114Y-8540950D01*
X3168400Y-8555236D01*
X3182686Y-8583807D01*
X3196971Y-8640950D01*
X3196971Y-8712379D01*
X3182686Y-8769522D01*
X3168400Y-8798093D01*
X3154114Y-8812379D01*
X3125543Y-8826664D01*
X3096971Y-8826664D01*
X3068400Y-8812379D01*
X3054114Y-8798093D01*
X3039828Y-8769522D01*
X3025543Y-8712379D01*
X3025543Y-8640950D01*
X3039828Y-8583807D01*
X3054114Y-8555236D01*
X3068400Y-8540950D01*
X3096971Y-8526664D01*
X3325543Y-8798093D02*
X3339828Y-8812379D01*
X3325543Y-8826664D01*
X3311257Y-8812379D01*
X3325543Y-8798093D01*
X3325543Y-8826664D01*
X3511257Y-8655236D02*
X3482686Y-8640950D01*
X3468400Y-8626664D01*
X3454114Y-8598093D01*
X3454114Y-8583807D01*
X3468400Y-8555236D01*
X3482686Y-8540950D01*
X3511257Y-8526664D01*
X3568400Y-8526664D01*
X3596971Y-8540950D01*
X3611257Y-8555236D01*
X3625543Y-8583807D01*
X3625543Y-8598093D01*
X3611257Y-8626664D01*
X3596971Y-8640950D01*
X3568400Y-8655236D01*
X3511257Y-8655236D01*
X3482686Y-8669522D01*
X3468400Y-8683807D01*
X3454114Y-8712379D01*
X3454114Y-8769522D01*
X3468400Y-8798093D01*
X3482686Y-8812379D01*
X3511257Y-8826664D01*
X3568400Y-8826664D01*
X3596971Y-8812379D01*
X3611257Y-8798093D01*
X3625543Y-8769522D01*
X3625543Y-8712379D01*
X3611257Y-8683807D01*
X3596971Y-8669522D01*
X3568400Y-8655236D01*
X3768400Y-8826664D02*
X3825543Y-8826664D01*
X3854114Y-8812379D01*
X3868400Y-8798093D01*
X3896971Y-8755236D01*
X3911257Y-8698093D01*
X3911257Y-8583807D01*
X3896971Y-8555236D01*
X3882686Y-8540950D01*
X3854114Y-8526664D01*
X3796971Y-8526664D01*
X3768400Y-8540950D01*
X3754114Y-8555236D01*
X3739828Y-8583807D01*
X3739828Y-8655236D01*
X3754114Y-8683807D01*
X3768400Y-8698093D01*
X3796971Y-8712379D01*
X3854114Y-8712379D01*
X3882686Y-8698093D01*
X3896971Y-8683807D01*
X3911257Y-8655236D01*
X4039828Y-8826664D02*
X4039828Y-8626664D01*
X4039828Y-8655236D02*
X4054114Y-8640950D01*
X4082686Y-8626664D01*
X4125543Y-8626664D01*
X4154114Y-8640950D01*
X4168400Y-8669522D01*
X4168400Y-8826664D01*
X4168400Y-8669522D02*
X4182686Y-8640950D01*
X4211257Y-8626664D01*
X4254114Y-8626664D01*
X4282686Y-8640950D01*
X4296971Y-8669522D01*
X4296971Y-8826664D01*
X4439828Y-8826664D02*
X4439828Y-8626664D01*
X4439828Y-8655236D02*
X4454114Y-8640950D01*
X4482686Y-8626664D01*
X4525543Y-8626664D01*
X4554114Y-8640950D01*
X4568400Y-8669522D01*
X4568400Y-8826664D01*
X4568400Y-8669522D02*
X4582686Y-8640950D01*
X4611257Y-8626664D01*
X4654114Y-8626664D01*
X4682686Y-8640950D01*
X4696971Y-8669522D01*
X4696971Y-8826664D01*
X5282686Y-8512379D02*
X5025543Y-8898093D01*
X5668400Y-8526664D02*
X5696971Y-8526664D01*
X5725543Y-8540950D01*
X5739828Y-8555236D01*
X5754114Y-8583807D01*
X5768400Y-8640950D01*
X5768400Y-8712379D01*
X5754114Y-8769522D01*
X5739828Y-8798093D01*
X5725543Y-8812379D01*
X5696971Y-8826664D01*
X5668400Y-8826664D01*
X5639828Y-8812379D01*
X5625543Y-8798093D01*
X5611257Y-8769522D01*
X5596971Y-8712379D01*
X5596971Y-8640950D01*
X5611257Y-8583807D01*
X5625543Y-8555236D01*
X5639828Y-8540950D01*
X5668400Y-8526664D01*
X5896971Y-8798093D02*
X5911257Y-8812379D01*
X5896971Y-8826664D01*
X5882686Y-8812379D01*
X5896971Y-8798093D01*
X5896971Y-8826664D01*
X6096971Y-8526664D02*
X6125543Y-8526664D01*
X6154114Y-8540950D01*
X6168400Y-8555236D01*
X6182686Y-8583807D01*
X6196971Y-8640950D01*
X6196971Y-8712379D01*
X6182686Y-8769522D01*
X6168400Y-8798093D01*
X6154114Y-8812379D01*
X6125543Y-8826664D01*
X6096971Y-8826664D01*
X6068400Y-8812379D01*
X6054114Y-8798093D01*
X6039828Y-8769522D01*
X6025543Y-8712379D01*
X6025543Y-8640950D01*
X6039828Y-8583807D01*
X6054114Y-8555236D01*
X6068400Y-8540950D01*
X6096971Y-8526664D01*
X6296971Y-8526664D02*
X6482686Y-8526664D01*
X6382686Y-8640950D01*
X6425543Y-8640950D01*
X6454114Y-8655236D01*
X6468400Y-8669522D01*
X6482686Y-8698093D01*
X6482686Y-8769522D01*
X6468400Y-8798093D01*
X6454114Y-8812379D01*
X6425543Y-8826664D01*
X6339828Y-8826664D01*
X6311257Y-8812379D01*
X6296971Y-8798093D01*
X6754114Y-8526664D02*
X6611257Y-8526664D01*
X6596971Y-8669522D01*
X6611257Y-8655236D01*
X6639828Y-8640950D01*
X6711257Y-8640950D01*
X6739828Y-8655236D01*
X6754114Y-8669522D01*
X6768400Y-8698093D01*
X6768400Y-8769522D01*
X6754114Y-8798093D01*
X6739828Y-8812379D01*
X6711257Y-8826664D01*
X6639828Y-8826664D01*
X6611257Y-8812379D01*
X6596971Y-8798093D01*
X6882686Y-8526664D02*
X6882686Y-8583807D01*
X6996971Y-8526664D02*
X6996971Y-8583807D01*
X7439828Y-8940950D02*
X7425543Y-8926664D01*
X7396971Y-8883807D01*
X7382686Y-8855236D01*
X7368400Y-8812379D01*
X7354114Y-8740950D01*
X7354114Y-8683807D01*
X7368400Y-8612379D01*
X7382686Y-8569522D01*
X7396971Y-8540950D01*
X7425543Y-8498093D01*
X7439828Y-8483807D01*
X7711257Y-8826664D02*
X7539828Y-8826664D01*
X7625543Y-8826664D02*
X7625543Y-8526664D01*
X7596971Y-8569522D01*
X7568400Y-8598093D01*
X7539828Y-8612379D01*
X8068400Y-8826664D02*
X8068400Y-8526664D01*
X8196971Y-8826664D02*
X8196971Y-8669522D01*
X8182686Y-8640950D01*
X8154114Y-8626664D01*
X8111257Y-8626664D01*
X8082686Y-8640950D01*
X8068400Y-8655236D01*
X8382686Y-8826664D02*
X8354114Y-8812379D01*
X8339828Y-8798093D01*
X8325543Y-8769522D01*
X8325543Y-8683807D01*
X8339828Y-8655236D01*
X8354114Y-8640950D01*
X8382686Y-8626664D01*
X8425543Y-8626664D01*
X8454114Y-8640950D01*
X8468400Y-8655236D01*
X8482686Y-8683807D01*
X8482686Y-8769522D01*
X8468400Y-8798093D01*
X8454114Y-8812379D01*
X8425543Y-8826664D01*
X8382686Y-8826664D01*
X8654114Y-8826664D02*
X8625543Y-8812379D01*
X8611257Y-8783807D01*
X8611257Y-8526664D01*
X8882686Y-8812379D02*
X8854114Y-8826664D01*
X8796971Y-8826664D01*
X8768400Y-8812379D01*
X8754114Y-8783807D01*
X8754114Y-8669522D01*
X8768400Y-8640950D01*
X8796971Y-8626664D01*
X8854114Y-8626664D01*
X8882686Y-8640950D01*
X8896971Y-8669522D01*
X8896971Y-8698093D01*
X8754114Y-8726664D01*
X8996971Y-8940950D02*
X9011257Y-8926664D01*
X9039828Y-8883807D01*
X9054114Y-8855236D01*
X9068400Y-8812379D01*
X9082686Y-8740950D01*
X9082686Y-8683807D01*
X9068400Y-8612379D01*
X9054114Y-8569522D01*
X9039828Y-8540950D01*
X9011257Y-8498093D01*
X8996971Y-8483807D01*
X2703400Y-9136950D02*
X2753400Y-9086950D01*
X2703400Y-9036950D01*
X2653400Y-9086950D01*
X2703400Y-9136950D01*
X3196971Y-9222664D02*
X3025543Y-9222664D01*
X3111257Y-9222664D02*
X3111257Y-8922664D01*
X3082686Y-8965522D01*
X3054114Y-8994093D01*
X3025543Y-9008379D01*
X3325543Y-9194093D02*
X3339828Y-9208379D01*
X3325543Y-9222664D01*
X3311257Y-9208379D01*
X3325543Y-9194093D01*
X3325543Y-9222664D01*
X3525543Y-8922664D02*
X3554114Y-8922664D01*
X3582686Y-8936950D01*
X3596971Y-8951236D01*
X3611257Y-8979807D01*
X3625543Y-9036950D01*
X3625543Y-9108379D01*
X3611257Y-9165522D01*
X3596971Y-9194093D01*
X3582686Y-9208379D01*
X3554114Y-9222664D01*
X3525543Y-9222664D01*
X3496971Y-9208379D01*
X3482686Y-9194093D01*
X3468400Y-9165522D01*
X3454114Y-9108379D01*
X3454114Y-9036950D01*
X3468400Y-8979807D01*
X3482686Y-8951236D01*
X3496971Y-8936950D01*
X3525543Y-8922664D01*
X3811257Y-8922664D02*
X3839828Y-8922664D01*
X3868400Y-8936950D01*
X3882686Y-8951236D01*
X3896971Y-8979807D01*
X3911257Y-9036950D01*
X3911257Y-9108379D01*
X3896971Y-9165522D01*
X3882686Y-9194093D01*
X3868400Y-9208379D01*
X3839828Y-9222664D01*
X3811257Y-9222664D01*
X3782686Y-9208379D01*
X3768400Y-9194093D01*
X3754114Y-9165522D01*
X3739828Y-9108379D01*
X3739828Y-9036950D01*
X3754114Y-8979807D01*
X3768400Y-8951236D01*
X3782686Y-8936950D01*
X3811257Y-8922664D01*
X4039828Y-9222664D02*
X4039828Y-9022664D01*
X4039828Y-9051236D02*
X4054114Y-9036950D01*
X4082686Y-9022664D01*
X4125543Y-9022664D01*
X4154114Y-9036950D01*
X4168400Y-9065522D01*
X4168400Y-9222664D01*
X4168400Y-9065522D02*
X4182686Y-9036950D01*
X4211257Y-9022664D01*
X4254114Y-9022664D01*
X4282686Y-9036950D01*
X4296971Y-9065522D01*
X4296971Y-9222664D01*
X4439828Y-9222664D02*
X4439828Y-9022664D01*
X4439828Y-9051236D02*
X4454114Y-9036950D01*
X4482686Y-9022664D01*
X4525543Y-9022664D01*
X4554114Y-9036950D01*
X4568400Y-9065522D01*
X4568400Y-9222664D01*
X4568400Y-9065522D02*
X4582686Y-9036950D01*
X4611257Y-9022664D01*
X4654114Y-9022664D01*
X4682686Y-9036950D01*
X4696971Y-9065522D01*
X4696971Y-9222664D01*
X5282686Y-8908379D02*
X5025543Y-9294093D01*
X5668400Y-8922664D02*
X5696971Y-8922664D01*
X5725543Y-8936950D01*
X5739828Y-8951236D01*
X5754114Y-8979807D01*
X5768400Y-9036950D01*
X5768400Y-9108379D01*
X5754114Y-9165522D01*
X5739828Y-9194093D01*
X5725543Y-9208379D01*
X5696971Y-9222664D01*
X5668400Y-9222664D01*
X5639828Y-9208379D01*
X5625543Y-9194093D01*
X5611257Y-9165522D01*
X5596971Y-9108379D01*
X5596971Y-9036950D01*
X5611257Y-8979807D01*
X5625543Y-8951236D01*
X5639828Y-8936950D01*
X5668400Y-8922664D01*
X5896971Y-9194093D02*
X5911257Y-9208379D01*
X5896971Y-9222664D01*
X5882686Y-9208379D01*
X5896971Y-9194093D01*
X5896971Y-9222664D01*
X6096971Y-8922664D02*
X6125543Y-8922664D01*
X6154114Y-8936950D01*
X6168400Y-8951236D01*
X6182686Y-8979807D01*
X6196971Y-9036950D01*
X6196971Y-9108379D01*
X6182686Y-9165522D01*
X6168400Y-9194093D01*
X6154114Y-9208379D01*
X6125543Y-9222664D01*
X6096971Y-9222664D01*
X6068400Y-9208379D01*
X6054114Y-9194093D01*
X6039828Y-9165522D01*
X6025543Y-9108379D01*
X6025543Y-9036950D01*
X6039828Y-8979807D01*
X6054114Y-8951236D01*
X6068400Y-8936950D01*
X6096971Y-8922664D01*
X6296971Y-8922664D02*
X6482686Y-8922664D01*
X6382686Y-9036950D01*
X6425543Y-9036950D01*
X6454114Y-9051236D01*
X6468400Y-9065522D01*
X6482686Y-9094093D01*
X6482686Y-9165522D01*
X6468400Y-9194093D01*
X6454114Y-9208379D01*
X6425543Y-9222664D01*
X6339828Y-9222664D01*
X6311257Y-9208379D01*
X6296971Y-9194093D01*
X6625543Y-9222664D02*
X6682686Y-9222664D01*
X6711257Y-9208379D01*
X6725543Y-9194093D01*
X6754114Y-9151236D01*
X6768400Y-9094093D01*
X6768400Y-8979807D01*
X6754114Y-8951236D01*
X6739828Y-8936950D01*
X6711257Y-8922664D01*
X6654114Y-8922664D01*
X6625543Y-8936950D01*
X6611257Y-8951236D01*
X6596971Y-8979807D01*
X6596971Y-9051236D01*
X6611257Y-9079807D01*
X6625543Y-9094093D01*
X6654114Y-9108379D01*
X6711257Y-9108379D01*
X6739828Y-9094093D01*
X6754114Y-9079807D01*
X6768400Y-9051236D01*
X6882686Y-8922664D02*
X6882686Y-8979807D01*
X6996971Y-8922664D02*
X6996971Y-8979807D01*
X7439828Y-9336950D02*
X7425543Y-9322664D01*
X7396971Y-9279807D01*
X7382686Y-9251236D01*
X7368400Y-9208379D01*
X7354114Y-9136950D01*
X7354114Y-9079807D01*
X7368400Y-9008379D01*
X7382686Y-8965522D01*
X7396971Y-8936950D01*
X7425543Y-8894093D01*
X7439828Y-8879807D01*
X7696971Y-8922664D02*
X7554114Y-8922664D01*
X7539828Y-9065522D01*
X7554114Y-9051236D01*
X7582686Y-9036950D01*
X7654114Y-9036950D01*
X7682686Y-9051236D01*
X7696971Y-9065522D01*
X7711257Y-9094093D01*
X7711257Y-9165522D01*
X7696971Y-9194093D01*
X7682686Y-9208379D01*
X7654114Y-9222664D01*
X7582686Y-9222664D01*
X7554114Y-9208379D01*
X7539828Y-9194093D01*
X7996971Y-9222664D02*
X7825543Y-9222664D01*
X7911257Y-9222664D02*
X7911257Y-8922664D01*
X7882686Y-8965522D01*
X7854114Y-8994093D01*
X7825543Y-9008379D01*
X8354114Y-9222664D02*
X8354114Y-8922664D01*
X8482686Y-9222664D02*
X8482686Y-9065522D01*
X8468400Y-9036950D01*
X8439828Y-9022664D01*
X8396971Y-9022664D01*
X8368400Y-9036950D01*
X8354114Y-9051236D01*
X8668400Y-9222664D02*
X8639828Y-9208379D01*
X8625543Y-9194093D01*
X8611257Y-9165522D01*
X8611257Y-9079807D01*
X8625543Y-9051236D01*
X8639828Y-9036950D01*
X8668400Y-9022664D01*
X8711257Y-9022664D01*
X8739828Y-9036950D01*
X8754114Y-9051236D01*
X8768400Y-9079807D01*
X8768400Y-9165522D01*
X8754114Y-9194093D01*
X8739828Y-9208379D01*
X8711257Y-9222664D01*
X8668400Y-9222664D01*
X8939828Y-9222664D02*
X8911257Y-9208379D01*
X8896971Y-9179807D01*
X8896971Y-8922664D01*
X9168400Y-9208379D02*
X9139828Y-9222664D01*
X9082686Y-9222664D01*
X9054114Y-9208379D01*
X9039828Y-9179807D01*
X9039828Y-9065522D01*
X9054114Y-9036950D01*
X9082686Y-9022664D01*
X9139828Y-9022664D01*
X9168400Y-9036950D01*
X9182686Y-9065522D01*
X9182686Y-9094093D01*
X9039828Y-9122664D01*
X9296971Y-9208379D02*
X9325543Y-9222664D01*
X9382686Y-9222664D01*
X9411257Y-9208379D01*
X9425543Y-9179807D01*
X9425543Y-9165522D01*
X9411257Y-9136950D01*
X9382686Y-9122664D01*
X9339828Y-9122664D01*
X9311257Y-9108379D01*
X9296971Y-9079807D01*
X9296971Y-9065522D01*
X9311257Y-9036950D01*
X9339828Y-9022664D01*
X9382686Y-9022664D01*
X9411257Y-9036950D01*
X9525543Y-9336950D02*
X9539828Y-9322664D01*
X9568400Y-9279807D01*
X9582686Y-9251236D01*
X9596971Y-9208379D01*
X9611257Y-9136950D01*
X9611257Y-9079807D01*
X9596971Y-9008379D01*
X9582686Y-8965522D01*
X9568400Y-8936950D01*
X9539828Y-8894093D01*
X9525543Y-8879807D01*
X2649400Y-9430950D02*
X2753400Y-9534950D01*
X2753400Y-9430950D02*
X2649400Y-9534950D01*
X2753400Y-9482950D02*
G75*
G03X2753400Y-9482950I-52000J0D01*
G01*
X3196971Y-9618664D02*
X3025543Y-9618664D01*
X3111257Y-9618664D02*
X3111257Y-9318664D01*
X3082686Y-9361522D01*
X3054114Y-9390093D01*
X3025543Y-9404379D01*
X3325543Y-9590093D02*
X3339828Y-9604379D01*
X3325543Y-9618664D01*
X3311257Y-9604379D01*
X3325543Y-9590093D01*
X3325543Y-9618664D01*
X3525543Y-9318664D02*
X3554114Y-9318664D01*
X3582686Y-9332950D01*
X3596971Y-9347236D01*
X3611257Y-9375807D01*
X3625543Y-9432950D01*
X3625543Y-9504379D01*
X3611257Y-9561522D01*
X3596971Y-9590093D01*
X3582686Y-9604379D01*
X3554114Y-9618664D01*
X3525543Y-9618664D01*
X3496971Y-9604379D01*
X3482686Y-9590093D01*
X3468400Y-9561522D01*
X3454114Y-9504379D01*
X3454114Y-9432950D01*
X3468400Y-9375807D01*
X3482686Y-9347236D01*
X3496971Y-9332950D01*
X3525543Y-9318664D01*
X3882686Y-9418664D02*
X3882686Y-9618664D01*
X3811257Y-9304379D02*
X3739828Y-9518664D01*
X3925543Y-9518664D01*
X4039828Y-9618664D02*
X4039828Y-9418664D01*
X4039828Y-9447236D02*
X4054114Y-9432950D01*
X4082686Y-9418664D01*
X4125543Y-9418664D01*
X4154114Y-9432950D01*
X4168400Y-9461522D01*
X4168400Y-9618664D01*
X4168400Y-9461522D02*
X4182686Y-9432950D01*
X4211257Y-9418664D01*
X4254114Y-9418664D01*
X4282686Y-9432950D01*
X4296971Y-9461522D01*
X4296971Y-9618664D01*
X4439828Y-9618664D02*
X4439828Y-9418664D01*
X4439828Y-9447236D02*
X4454114Y-9432950D01*
X4482686Y-9418664D01*
X4525543Y-9418664D01*
X4554114Y-9432950D01*
X4568400Y-9461522D01*
X4568400Y-9618664D01*
X4568400Y-9461522D02*
X4582686Y-9432950D01*
X4611257Y-9418664D01*
X4654114Y-9418664D01*
X4682686Y-9432950D01*
X4696971Y-9461522D01*
X4696971Y-9618664D01*
X5282686Y-9304379D02*
X5025543Y-9690093D01*
X5668400Y-9318664D02*
X5696971Y-9318664D01*
X5725543Y-9332950D01*
X5739828Y-9347236D01*
X5754114Y-9375807D01*
X5768400Y-9432950D01*
X5768400Y-9504379D01*
X5754114Y-9561522D01*
X5739828Y-9590093D01*
X5725543Y-9604379D01*
X5696971Y-9618664D01*
X5668400Y-9618664D01*
X5639828Y-9604379D01*
X5625543Y-9590093D01*
X5611257Y-9561522D01*
X5596971Y-9504379D01*
X5596971Y-9432950D01*
X5611257Y-9375807D01*
X5625543Y-9347236D01*
X5639828Y-9332950D01*
X5668400Y-9318664D01*
X5896971Y-9590093D02*
X5911257Y-9604379D01*
X5896971Y-9618664D01*
X5882686Y-9604379D01*
X5896971Y-9590093D01*
X5896971Y-9618664D01*
X6096971Y-9318664D02*
X6125543Y-9318664D01*
X6154114Y-9332950D01*
X6168400Y-9347236D01*
X6182686Y-9375807D01*
X6196971Y-9432950D01*
X6196971Y-9504379D01*
X6182686Y-9561522D01*
X6168400Y-9590093D01*
X6154114Y-9604379D01*
X6125543Y-9618664D01*
X6096971Y-9618664D01*
X6068400Y-9604379D01*
X6054114Y-9590093D01*
X6039828Y-9561522D01*
X6025543Y-9504379D01*
X6025543Y-9432950D01*
X6039828Y-9375807D01*
X6054114Y-9347236D01*
X6068400Y-9332950D01*
X6096971Y-9318664D01*
X6454114Y-9418664D02*
X6454114Y-9618664D01*
X6382686Y-9304379D02*
X6311257Y-9518664D01*
X6496971Y-9518664D01*
X6768400Y-9618664D02*
X6596971Y-9618664D01*
X6682686Y-9618664D02*
X6682686Y-9318664D01*
X6654114Y-9361522D01*
X6625543Y-9390093D01*
X6596971Y-9404379D01*
X6882686Y-9318664D02*
X6882686Y-9375807D01*
X6996971Y-9318664D02*
X6996971Y-9375807D01*
X7439828Y-9732950D02*
X7425543Y-9718664D01*
X7396971Y-9675807D01*
X7382686Y-9647236D01*
X7368400Y-9604379D01*
X7354114Y-9532950D01*
X7354114Y-9475807D01*
X7368400Y-9404379D01*
X7382686Y-9361522D01*
X7396971Y-9332950D01*
X7425543Y-9290093D01*
X7439828Y-9275807D01*
X7682686Y-9418664D02*
X7682686Y-9618664D01*
X7611257Y-9304379D02*
X7539828Y-9518664D01*
X7725543Y-9518664D01*
X8068400Y-9618664D02*
X8068400Y-9318664D01*
X8196971Y-9618664D02*
X8196971Y-9461522D01*
X8182686Y-9432950D01*
X8154114Y-9418664D01*
X8111257Y-9418664D01*
X8082686Y-9432950D01*
X8068400Y-9447236D01*
X8382686Y-9618664D02*
X8354114Y-9604379D01*
X8339828Y-9590093D01*
X8325543Y-9561522D01*
X8325543Y-9475807D01*
X8339828Y-9447236D01*
X8354114Y-9432950D01*
X8382686Y-9418664D01*
X8425543Y-9418664D01*
X8454114Y-9432950D01*
X8468400Y-9447236D01*
X8482686Y-9475807D01*
X8482686Y-9561522D01*
X8468400Y-9590093D01*
X8454114Y-9604379D01*
X8425543Y-9618664D01*
X8382686Y-9618664D01*
X8654114Y-9618664D02*
X8625543Y-9604379D01*
X8611257Y-9575807D01*
X8611257Y-9318664D01*
X8882686Y-9604379D02*
X8854114Y-9618664D01*
X8796971Y-9618664D01*
X8768400Y-9604379D01*
X8754114Y-9575807D01*
X8754114Y-9461522D01*
X8768400Y-9432950D01*
X8796971Y-9418664D01*
X8854114Y-9418664D01*
X8882686Y-9432950D01*
X8896971Y-9461522D01*
X8896971Y-9490093D01*
X8754114Y-9518664D01*
X9011257Y-9604379D02*
X9039828Y-9618664D01*
X9096971Y-9618664D01*
X9125543Y-9604379D01*
X9139828Y-9575807D01*
X9139828Y-9561522D01*
X9125543Y-9532950D01*
X9096971Y-9518664D01*
X9054114Y-9518664D01*
X9025543Y-9504379D01*
X9011257Y-9475807D01*
X9011257Y-9461522D01*
X9025543Y-9432950D01*
X9054114Y-9418664D01*
X9096971Y-9418664D01*
X9125543Y-9432950D01*
X9239828Y-9732950D02*
X9254114Y-9718664D01*
X9282686Y-9675807D01*
X9296971Y-9647236D01*
X9311257Y-9604379D01*
X9325543Y-9532950D01*
X9325543Y-9475807D01*
X9311257Y-9404379D01*
X9296971Y-9361522D01*
X9282686Y-9332950D01*
X9254114Y-9290093D01*
X9239828Y-9275807D01*
X2483400Y-9743950D02*
X2753400Y-10013950D01*
X2753400Y-9743950D02*
X2483400Y-10013950D01*
X2618400Y-9743950D02*
X2618400Y-10013950D01*
X2483400Y-9878950D02*
X2753400Y-9878950D01*
X3025543Y-9743236D02*
X3039828Y-9728950D01*
X3068400Y-9714664D01*
X3139828Y-9714664D01*
X3168400Y-9728950D01*
X3182686Y-9743236D01*
X3196971Y-9771807D01*
X3196971Y-9800379D01*
X3182686Y-9843236D01*
X3011257Y-10014664D01*
X3196971Y-10014664D01*
X3325543Y-9986093D02*
X3339828Y-10000379D01*
X3325543Y-10014664D01*
X3311257Y-10000379D01*
X3325543Y-9986093D01*
X3325543Y-10014664D01*
X3439828Y-9714664D02*
X3639828Y-9714664D01*
X3511257Y-10014664D01*
X3811257Y-9714664D02*
X3839828Y-9714664D01*
X3868400Y-9728950D01*
X3882686Y-9743236D01*
X3896971Y-9771807D01*
X3911257Y-9828950D01*
X3911257Y-9900379D01*
X3896971Y-9957522D01*
X3882686Y-9986093D01*
X3868400Y-10000379D01*
X3839828Y-10014664D01*
X3811257Y-10014664D01*
X3782686Y-10000379D01*
X3768400Y-9986093D01*
X3754114Y-9957522D01*
X3739828Y-9900379D01*
X3739828Y-9828950D01*
X3754114Y-9771807D01*
X3768400Y-9743236D01*
X3782686Y-9728950D01*
X3811257Y-9714664D01*
X4039828Y-10014664D02*
X4039828Y-9814664D01*
X4039828Y-9843236D02*
X4054114Y-9828950D01*
X4082686Y-9814664D01*
X4125543Y-9814664D01*
X4154114Y-9828950D01*
X4168400Y-9857522D01*
X4168400Y-10014664D01*
X4168400Y-9857522D02*
X4182686Y-9828950D01*
X4211257Y-9814664D01*
X4254114Y-9814664D01*
X4282686Y-9828950D01*
X4296971Y-9857522D01*
X4296971Y-10014664D01*
X4439828Y-10014664D02*
X4439828Y-9814664D01*
X4439828Y-9843236D02*
X4454114Y-9828950D01*
X4482686Y-9814664D01*
X4525543Y-9814664D01*
X4554114Y-9828950D01*
X4568400Y-9857522D01*
X4568400Y-10014664D01*
X4568400Y-9857522D02*
X4582686Y-9828950D01*
X4611257Y-9814664D01*
X4654114Y-9814664D01*
X4682686Y-9828950D01*
X4696971Y-9857522D01*
X4696971Y-10014664D01*
X5282686Y-9700379D02*
X5025543Y-10086093D01*
X5668400Y-9714664D02*
X5696971Y-9714664D01*
X5725543Y-9728950D01*
X5739828Y-9743236D01*
X5754114Y-9771807D01*
X5768400Y-9828950D01*
X5768400Y-9900379D01*
X5754114Y-9957522D01*
X5739828Y-9986093D01*
X5725543Y-10000379D01*
X5696971Y-10014664D01*
X5668400Y-10014664D01*
X5639828Y-10000379D01*
X5625543Y-9986093D01*
X5611257Y-9957522D01*
X5596971Y-9900379D01*
X5596971Y-9828950D01*
X5611257Y-9771807D01*
X5625543Y-9743236D01*
X5639828Y-9728950D01*
X5668400Y-9714664D01*
X5896971Y-9986093D02*
X5911257Y-10000379D01*
X5896971Y-10014664D01*
X5882686Y-10000379D01*
X5896971Y-9986093D01*
X5896971Y-10014664D01*
X6196971Y-10014664D02*
X6025543Y-10014664D01*
X6111257Y-10014664D02*
X6111257Y-9714664D01*
X6082686Y-9757522D01*
X6054114Y-9786093D01*
X6025543Y-9800379D01*
X6382686Y-9714664D02*
X6411257Y-9714664D01*
X6439828Y-9728950D01*
X6454114Y-9743236D01*
X6468400Y-9771807D01*
X6482686Y-9828950D01*
X6482686Y-9900379D01*
X6468400Y-9957522D01*
X6454114Y-9986093D01*
X6439828Y-10000379D01*
X6411257Y-10014664D01*
X6382686Y-10014664D01*
X6354114Y-10000379D01*
X6339828Y-9986093D01*
X6325543Y-9957522D01*
X6311257Y-9900379D01*
X6311257Y-9828950D01*
X6325543Y-9771807D01*
X6339828Y-9743236D01*
X6354114Y-9728950D01*
X6382686Y-9714664D01*
X6739828Y-9714664D02*
X6682686Y-9714664D01*
X6654114Y-9728950D01*
X6639828Y-9743236D01*
X6611257Y-9786093D01*
X6596971Y-9843236D01*
X6596971Y-9957522D01*
X6611257Y-9986093D01*
X6625543Y-10000379D01*
X6654114Y-10014664D01*
X6711257Y-10014664D01*
X6739828Y-10000379D01*
X6754114Y-9986093D01*
X6768400Y-9957522D01*
X6768400Y-9886093D01*
X6754114Y-9857522D01*
X6739828Y-9843236D01*
X6711257Y-9828950D01*
X6654114Y-9828950D01*
X6625543Y-9843236D01*
X6611257Y-9857522D01*
X6596971Y-9886093D01*
X6882686Y-9714664D02*
X6882686Y-9771807D01*
X6996971Y-9714664D02*
X6996971Y-9771807D01*
X7439828Y-10128950D02*
X7425543Y-10114664D01*
X7396971Y-10071807D01*
X7382686Y-10043236D01*
X7368400Y-10000379D01*
X7354114Y-9928950D01*
X7354114Y-9871807D01*
X7368400Y-9800379D01*
X7382686Y-9757522D01*
X7396971Y-9728950D01*
X7425543Y-9686093D01*
X7439828Y-9671807D01*
X7682686Y-9814664D02*
X7682686Y-10014664D01*
X7611257Y-9700379D02*
X7539828Y-9914664D01*
X7725543Y-9914664D01*
X8068400Y-10014664D02*
X8068400Y-9714664D01*
X8196971Y-10014664D02*
X8196971Y-9857522D01*
X8182686Y-9828950D01*
X8154114Y-9814664D01*
X8111257Y-9814664D01*
X8082686Y-9828950D01*
X8068400Y-9843236D01*
X8382686Y-10014664D02*
X8354114Y-10000379D01*
X8339828Y-9986093D01*
X8325543Y-9957522D01*
X8325543Y-9871807D01*
X8339828Y-9843236D01*
X8354114Y-9828950D01*
X8382686Y-9814664D01*
X8425543Y-9814664D01*
X8454114Y-9828950D01*
X8468400Y-9843236D01*
X8482686Y-9871807D01*
X8482686Y-9957522D01*
X8468400Y-9986093D01*
X8454114Y-10000379D01*
X8425543Y-10014664D01*
X8382686Y-10014664D01*
X8654114Y-10014664D02*
X8625543Y-10000379D01*
X8611257Y-9971807D01*
X8611257Y-9714664D01*
X8882686Y-10000379D02*
X8854114Y-10014664D01*
X8796971Y-10014664D01*
X8768400Y-10000379D01*
X8754114Y-9971807D01*
X8754114Y-9857522D01*
X8768400Y-9828950D01*
X8796971Y-9814664D01*
X8854114Y-9814664D01*
X8882686Y-9828950D01*
X8896971Y-9857522D01*
X8896971Y-9886093D01*
X8754114Y-9914664D01*
X9011257Y-10000379D02*
X9039828Y-10014664D01*
X9096971Y-10014664D01*
X9125543Y-10000379D01*
X9139828Y-9971807D01*
X9139828Y-9957522D01*
X9125543Y-9928950D01*
X9096971Y-9914664D01*
X9054114Y-9914664D01*
X9025543Y-9900379D01*
X9011257Y-9871807D01*
X9011257Y-9857522D01*
X9025543Y-9828950D01*
X9054114Y-9814664D01*
X9096971Y-9814664D01*
X9125543Y-9828950D01*
X9239828Y-10128950D02*
X9254114Y-10114664D01*
X9282686Y-10071807D01*
X9296971Y-10043236D01*
X9311257Y-10000379D01*
X9325543Y-9928950D01*
X9325543Y-9871807D01*
X9311257Y-9800379D01*
X9296971Y-9757522D01*
X9282686Y-9728950D01*
X9254114Y-9686093D01*
X9239828Y-9671807D01*
M02*
