G04 #@! TF.GenerationSoftware,KiCad,Pcbnew,(5.1.5)-3*
G04 #@! TF.CreationDate,2021-09-22T00:57:08-07:00*
G04 #@! TF.ProjectId,control_board,636f6e74-726f-46c5-9f62-6f6172642e6b,rev?*
G04 #@! TF.SameCoordinates,Original*
G04 #@! TF.FileFunction,Paste,Top*
G04 #@! TF.FilePolarity,Positive*
%FSLAX46Y46*%
G04 Gerber Fmt 4.6, Leading zero omitted, Abs format (unit mm)*
G04 Created by KiCad (PCBNEW (5.1.5)-3) date 2021-09-22 00:57:08*
%MOMM*%
%LPD*%
G04 APERTURE LIST*
%ADD10C,0.100000*%
%ADD11R,0.260000X0.200000*%
%ADD12R,1.800000X1.000000*%
%ADD13R,1.060000X0.650000*%
%ADD14R,0.850000X0.280000*%
%ADD15R,0.280000X0.850000*%
%ADD16R,3.450000X3.450000*%
%ADD17R,0.870000X0.300000*%
%ADD18R,0.200000X0.260000*%
%ADD19R,2.200000X1.840000*%
%ADD20R,1.000000X1.500000*%
%ADD21R,1.000000X1.800000*%
G04 APERTURE END LIST*
D10*
G36*
X46760191Y-34628573D02*
G01*
X46781426Y-34631723D01*
X46802250Y-34636939D01*
X46822462Y-34644171D01*
X46841868Y-34653350D01*
X46860281Y-34664386D01*
X46877524Y-34677174D01*
X46893430Y-34691590D01*
X46907846Y-34707496D01*
X46920634Y-34724739D01*
X46931670Y-34743152D01*
X46940849Y-34762558D01*
X46948081Y-34782770D01*
X46953297Y-34803594D01*
X46956447Y-34824829D01*
X46957500Y-34846270D01*
X46957500Y-35358770D01*
X46956447Y-35380211D01*
X46953297Y-35401446D01*
X46948081Y-35422270D01*
X46940849Y-35442482D01*
X46931670Y-35461888D01*
X46920634Y-35480301D01*
X46907846Y-35497544D01*
X46893430Y-35513450D01*
X46877524Y-35527866D01*
X46860281Y-35540654D01*
X46841868Y-35551690D01*
X46822462Y-35560869D01*
X46802250Y-35568101D01*
X46781426Y-35573317D01*
X46760191Y-35576467D01*
X46738750Y-35577520D01*
X46301250Y-35577520D01*
X46279809Y-35576467D01*
X46258574Y-35573317D01*
X46237750Y-35568101D01*
X46217538Y-35560869D01*
X46198132Y-35551690D01*
X46179719Y-35540654D01*
X46162476Y-35527866D01*
X46146570Y-35513450D01*
X46132154Y-35497544D01*
X46119366Y-35480301D01*
X46108330Y-35461888D01*
X46099151Y-35442482D01*
X46091919Y-35422270D01*
X46086703Y-35401446D01*
X46083553Y-35380211D01*
X46082500Y-35358770D01*
X46082500Y-34846270D01*
X46083553Y-34824829D01*
X46086703Y-34803594D01*
X46091919Y-34782770D01*
X46099151Y-34762558D01*
X46108330Y-34743152D01*
X46119366Y-34724739D01*
X46132154Y-34707496D01*
X46146570Y-34691590D01*
X46162476Y-34677174D01*
X46179719Y-34664386D01*
X46198132Y-34653350D01*
X46217538Y-34644171D01*
X46237750Y-34636939D01*
X46258574Y-34631723D01*
X46279809Y-34628573D01*
X46301250Y-34627520D01*
X46738750Y-34627520D01*
X46760191Y-34628573D01*
G37*
G36*
X48335191Y-34628573D02*
G01*
X48356426Y-34631723D01*
X48377250Y-34636939D01*
X48397462Y-34644171D01*
X48416868Y-34653350D01*
X48435281Y-34664386D01*
X48452524Y-34677174D01*
X48468430Y-34691590D01*
X48482846Y-34707496D01*
X48495634Y-34724739D01*
X48506670Y-34743152D01*
X48515849Y-34762558D01*
X48523081Y-34782770D01*
X48528297Y-34803594D01*
X48531447Y-34824829D01*
X48532500Y-34846270D01*
X48532500Y-35358770D01*
X48531447Y-35380211D01*
X48528297Y-35401446D01*
X48523081Y-35422270D01*
X48515849Y-35442482D01*
X48506670Y-35461888D01*
X48495634Y-35480301D01*
X48482846Y-35497544D01*
X48468430Y-35513450D01*
X48452524Y-35527866D01*
X48435281Y-35540654D01*
X48416868Y-35551690D01*
X48397462Y-35560869D01*
X48377250Y-35568101D01*
X48356426Y-35573317D01*
X48335191Y-35576467D01*
X48313750Y-35577520D01*
X47876250Y-35577520D01*
X47854809Y-35576467D01*
X47833574Y-35573317D01*
X47812750Y-35568101D01*
X47792538Y-35560869D01*
X47773132Y-35551690D01*
X47754719Y-35540654D01*
X47737476Y-35527866D01*
X47721570Y-35513450D01*
X47707154Y-35497544D01*
X47694366Y-35480301D01*
X47683330Y-35461888D01*
X47674151Y-35442482D01*
X47666919Y-35422270D01*
X47661703Y-35401446D01*
X47658553Y-35380211D01*
X47657500Y-35358770D01*
X47657500Y-34846270D01*
X47658553Y-34824829D01*
X47661703Y-34803594D01*
X47666919Y-34782770D01*
X47674151Y-34762558D01*
X47683330Y-34743152D01*
X47694366Y-34724739D01*
X47707154Y-34707496D01*
X47721570Y-34691590D01*
X47737476Y-34677174D01*
X47754719Y-34664386D01*
X47773132Y-34653350D01*
X47792538Y-34644171D01*
X47812750Y-34636939D01*
X47833574Y-34631723D01*
X47854809Y-34628573D01*
X47876250Y-34627520D01*
X48313750Y-34627520D01*
X48335191Y-34628573D01*
G37*
G36*
X63841191Y-34069553D02*
G01*
X63862426Y-34072703D01*
X63883250Y-34077919D01*
X63903462Y-34085151D01*
X63922868Y-34094330D01*
X63941281Y-34105366D01*
X63958524Y-34118154D01*
X63974430Y-34132570D01*
X63988846Y-34148476D01*
X64001634Y-34165719D01*
X64012670Y-34184132D01*
X64021849Y-34203538D01*
X64029081Y-34223750D01*
X64034297Y-34244574D01*
X64037447Y-34265809D01*
X64038500Y-34287250D01*
X64038500Y-34724750D01*
X64037447Y-34746191D01*
X64034297Y-34767426D01*
X64029081Y-34788250D01*
X64021849Y-34808462D01*
X64012670Y-34827868D01*
X64001634Y-34846281D01*
X63988846Y-34863524D01*
X63974430Y-34879430D01*
X63958524Y-34893846D01*
X63941281Y-34906634D01*
X63922868Y-34917670D01*
X63903462Y-34926849D01*
X63883250Y-34934081D01*
X63862426Y-34939297D01*
X63841191Y-34942447D01*
X63819750Y-34943500D01*
X63307250Y-34943500D01*
X63285809Y-34942447D01*
X63264574Y-34939297D01*
X63243750Y-34934081D01*
X63223538Y-34926849D01*
X63204132Y-34917670D01*
X63185719Y-34906634D01*
X63168476Y-34893846D01*
X63152570Y-34879430D01*
X63138154Y-34863524D01*
X63125366Y-34846281D01*
X63114330Y-34827868D01*
X63105151Y-34808462D01*
X63097919Y-34788250D01*
X63092703Y-34767426D01*
X63089553Y-34746191D01*
X63088500Y-34724750D01*
X63088500Y-34287250D01*
X63089553Y-34265809D01*
X63092703Y-34244574D01*
X63097919Y-34223750D01*
X63105151Y-34203538D01*
X63114330Y-34184132D01*
X63125366Y-34165719D01*
X63138154Y-34148476D01*
X63152570Y-34132570D01*
X63168476Y-34118154D01*
X63185719Y-34105366D01*
X63204132Y-34094330D01*
X63223538Y-34085151D01*
X63243750Y-34077919D01*
X63264574Y-34072703D01*
X63285809Y-34069553D01*
X63307250Y-34068500D01*
X63819750Y-34068500D01*
X63841191Y-34069553D01*
G37*
G36*
X63841191Y-32494553D02*
G01*
X63862426Y-32497703D01*
X63883250Y-32502919D01*
X63903462Y-32510151D01*
X63922868Y-32519330D01*
X63941281Y-32530366D01*
X63958524Y-32543154D01*
X63974430Y-32557570D01*
X63988846Y-32573476D01*
X64001634Y-32590719D01*
X64012670Y-32609132D01*
X64021849Y-32628538D01*
X64029081Y-32648750D01*
X64034297Y-32669574D01*
X64037447Y-32690809D01*
X64038500Y-32712250D01*
X64038500Y-33149750D01*
X64037447Y-33171191D01*
X64034297Y-33192426D01*
X64029081Y-33213250D01*
X64021849Y-33233462D01*
X64012670Y-33252868D01*
X64001634Y-33271281D01*
X63988846Y-33288524D01*
X63974430Y-33304430D01*
X63958524Y-33318846D01*
X63941281Y-33331634D01*
X63922868Y-33342670D01*
X63903462Y-33351849D01*
X63883250Y-33359081D01*
X63862426Y-33364297D01*
X63841191Y-33367447D01*
X63819750Y-33368500D01*
X63307250Y-33368500D01*
X63285809Y-33367447D01*
X63264574Y-33364297D01*
X63243750Y-33359081D01*
X63223538Y-33351849D01*
X63204132Y-33342670D01*
X63185719Y-33331634D01*
X63168476Y-33318846D01*
X63152570Y-33304430D01*
X63138154Y-33288524D01*
X63125366Y-33271281D01*
X63114330Y-33252868D01*
X63105151Y-33233462D01*
X63097919Y-33213250D01*
X63092703Y-33192426D01*
X63089553Y-33171191D01*
X63088500Y-33149750D01*
X63088500Y-32712250D01*
X63089553Y-32690809D01*
X63092703Y-32669574D01*
X63097919Y-32648750D01*
X63105151Y-32628538D01*
X63114330Y-32609132D01*
X63125366Y-32590719D01*
X63138154Y-32573476D01*
X63152570Y-32557570D01*
X63168476Y-32543154D01*
X63185719Y-32530366D01*
X63204132Y-32519330D01*
X63223538Y-32510151D01*
X63243750Y-32502919D01*
X63264574Y-32497703D01*
X63285809Y-32494553D01*
X63307250Y-32493500D01*
X63819750Y-32493500D01*
X63841191Y-32494553D01*
G37*
G36*
X48537691Y-40546553D02*
G01*
X48558926Y-40549703D01*
X48579750Y-40554919D01*
X48599962Y-40562151D01*
X48619368Y-40571330D01*
X48637781Y-40582366D01*
X48655024Y-40595154D01*
X48670930Y-40609570D01*
X48685346Y-40625476D01*
X48698134Y-40642719D01*
X48709170Y-40661132D01*
X48718349Y-40680538D01*
X48725581Y-40700750D01*
X48730797Y-40721574D01*
X48733947Y-40742809D01*
X48735000Y-40764250D01*
X48735000Y-41201750D01*
X48733947Y-41223191D01*
X48730797Y-41244426D01*
X48725581Y-41265250D01*
X48718349Y-41285462D01*
X48709170Y-41304868D01*
X48698134Y-41323281D01*
X48685346Y-41340524D01*
X48670930Y-41356430D01*
X48655024Y-41370846D01*
X48637781Y-41383634D01*
X48619368Y-41394670D01*
X48599962Y-41403849D01*
X48579750Y-41411081D01*
X48558926Y-41416297D01*
X48537691Y-41419447D01*
X48516250Y-41420500D01*
X48003750Y-41420500D01*
X47982309Y-41419447D01*
X47961074Y-41416297D01*
X47940250Y-41411081D01*
X47920038Y-41403849D01*
X47900632Y-41394670D01*
X47882219Y-41383634D01*
X47864976Y-41370846D01*
X47849070Y-41356430D01*
X47834654Y-41340524D01*
X47821866Y-41323281D01*
X47810830Y-41304868D01*
X47801651Y-41285462D01*
X47794419Y-41265250D01*
X47789203Y-41244426D01*
X47786053Y-41223191D01*
X47785000Y-41201750D01*
X47785000Y-40764250D01*
X47786053Y-40742809D01*
X47789203Y-40721574D01*
X47794419Y-40700750D01*
X47801651Y-40680538D01*
X47810830Y-40661132D01*
X47821866Y-40642719D01*
X47834654Y-40625476D01*
X47849070Y-40609570D01*
X47864976Y-40595154D01*
X47882219Y-40582366D01*
X47900632Y-40571330D01*
X47920038Y-40562151D01*
X47940250Y-40554919D01*
X47961074Y-40549703D01*
X47982309Y-40546553D01*
X48003750Y-40545500D01*
X48516250Y-40545500D01*
X48537691Y-40546553D01*
G37*
G36*
X48537691Y-38971553D02*
G01*
X48558926Y-38974703D01*
X48579750Y-38979919D01*
X48599962Y-38987151D01*
X48619368Y-38996330D01*
X48637781Y-39007366D01*
X48655024Y-39020154D01*
X48670930Y-39034570D01*
X48685346Y-39050476D01*
X48698134Y-39067719D01*
X48709170Y-39086132D01*
X48718349Y-39105538D01*
X48725581Y-39125750D01*
X48730797Y-39146574D01*
X48733947Y-39167809D01*
X48735000Y-39189250D01*
X48735000Y-39626750D01*
X48733947Y-39648191D01*
X48730797Y-39669426D01*
X48725581Y-39690250D01*
X48718349Y-39710462D01*
X48709170Y-39729868D01*
X48698134Y-39748281D01*
X48685346Y-39765524D01*
X48670930Y-39781430D01*
X48655024Y-39795846D01*
X48637781Y-39808634D01*
X48619368Y-39819670D01*
X48599962Y-39828849D01*
X48579750Y-39836081D01*
X48558926Y-39841297D01*
X48537691Y-39844447D01*
X48516250Y-39845500D01*
X48003750Y-39845500D01*
X47982309Y-39844447D01*
X47961074Y-39841297D01*
X47940250Y-39836081D01*
X47920038Y-39828849D01*
X47900632Y-39819670D01*
X47882219Y-39808634D01*
X47864976Y-39795846D01*
X47849070Y-39781430D01*
X47834654Y-39765524D01*
X47821866Y-39748281D01*
X47810830Y-39729868D01*
X47801651Y-39710462D01*
X47794419Y-39690250D01*
X47789203Y-39669426D01*
X47786053Y-39648191D01*
X47785000Y-39626750D01*
X47785000Y-39189250D01*
X47786053Y-39167809D01*
X47789203Y-39146574D01*
X47794419Y-39125750D01*
X47801651Y-39105538D01*
X47810830Y-39086132D01*
X47821866Y-39067719D01*
X47834654Y-39050476D01*
X47849070Y-39034570D01*
X47864976Y-39020154D01*
X47882219Y-39007366D01*
X47900632Y-38996330D01*
X47920038Y-38987151D01*
X47940250Y-38979919D01*
X47961074Y-38974703D01*
X47982309Y-38971553D01*
X48003750Y-38970500D01*
X48516250Y-38970500D01*
X48537691Y-38971553D01*
G37*
G36*
X66262871Y-38249881D02*
G01*
X66270152Y-38250961D01*
X66277291Y-38252749D01*
X66284221Y-38255229D01*
X66290875Y-38258376D01*
X66297188Y-38262160D01*
X66303099Y-38266544D01*
X66308553Y-38271487D01*
X66313496Y-38276941D01*
X66317880Y-38282852D01*
X66321664Y-38289165D01*
X66324811Y-38295819D01*
X66327291Y-38302749D01*
X66329079Y-38309888D01*
X66330159Y-38317169D01*
X66330520Y-38324520D01*
X66330520Y-39649520D01*
X66330159Y-39656871D01*
X66329079Y-39664152D01*
X66327291Y-39671291D01*
X66324811Y-39678221D01*
X66321664Y-39684875D01*
X66317880Y-39691188D01*
X66313496Y-39697099D01*
X66308553Y-39702553D01*
X66303099Y-39707496D01*
X66297188Y-39711880D01*
X66290875Y-39715664D01*
X66284221Y-39718811D01*
X66277291Y-39721291D01*
X66270152Y-39723079D01*
X66262871Y-39724159D01*
X66255520Y-39724520D01*
X66105520Y-39724520D01*
X66098169Y-39724159D01*
X66090888Y-39723079D01*
X66083749Y-39721291D01*
X66076819Y-39718811D01*
X66070165Y-39715664D01*
X66063852Y-39711880D01*
X66057941Y-39707496D01*
X66052487Y-39702553D01*
X66047544Y-39697099D01*
X66043160Y-39691188D01*
X66039376Y-39684875D01*
X66036229Y-39678221D01*
X66033749Y-39671291D01*
X66031961Y-39664152D01*
X66030881Y-39656871D01*
X66030520Y-39649520D01*
X66030520Y-38324520D01*
X66030881Y-38317169D01*
X66031961Y-38309888D01*
X66033749Y-38302749D01*
X66036229Y-38295819D01*
X66039376Y-38289165D01*
X66043160Y-38282852D01*
X66047544Y-38276941D01*
X66052487Y-38271487D01*
X66057941Y-38266544D01*
X66063852Y-38262160D01*
X66070165Y-38258376D01*
X66076819Y-38255229D01*
X66083749Y-38252749D01*
X66090888Y-38250961D01*
X66098169Y-38249881D01*
X66105520Y-38249520D01*
X66255520Y-38249520D01*
X66262871Y-38249881D01*
G37*
G36*
X66762871Y-38249881D02*
G01*
X66770152Y-38250961D01*
X66777291Y-38252749D01*
X66784221Y-38255229D01*
X66790875Y-38258376D01*
X66797188Y-38262160D01*
X66803099Y-38266544D01*
X66808553Y-38271487D01*
X66813496Y-38276941D01*
X66817880Y-38282852D01*
X66821664Y-38289165D01*
X66824811Y-38295819D01*
X66827291Y-38302749D01*
X66829079Y-38309888D01*
X66830159Y-38317169D01*
X66830520Y-38324520D01*
X66830520Y-39649520D01*
X66830159Y-39656871D01*
X66829079Y-39664152D01*
X66827291Y-39671291D01*
X66824811Y-39678221D01*
X66821664Y-39684875D01*
X66817880Y-39691188D01*
X66813496Y-39697099D01*
X66808553Y-39702553D01*
X66803099Y-39707496D01*
X66797188Y-39711880D01*
X66790875Y-39715664D01*
X66784221Y-39718811D01*
X66777291Y-39721291D01*
X66770152Y-39723079D01*
X66762871Y-39724159D01*
X66755520Y-39724520D01*
X66605520Y-39724520D01*
X66598169Y-39724159D01*
X66590888Y-39723079D01*
X66583749Y-39721291D01*
X66576819Y-39718811D01*
X66570165Y-39715664D01*
X66563852Y-39711880D01*
X66557941Y-39707496D01*
X66552487Y-39702553D01*
X66547544Y-39697099D01*
X66543160Y-39691188D01*
X66539376Y-39684875D01*
X66536229Y-39678221D01*
X66533749Y-39671291D01*
X66531961Y-39664152D01*
X66530881Y-39656871D01*
X66530520Y-39649520D01*
X66530520Y-38324520D01*
X66530881Y-38317169D01*
X66531961Y-38309888D01*
X66533749Y-38302749D01*
X66536229Y-38295819D01*
X66539376Y-38289165D01*
X66543160Y-38282852D01*
X66547544Y-38276941D01*
X66552487Y-38271487D01*
X66557941Y-38266544D01*
X66563852Y-38262160D01*
X66570165Y-38258376D01*
X66576819Y-38255229D01*
X66583749Y-38252749D01*
X66590888Y-38250961D01*
X66598169Y-38249881D01*
X66605520Y-38249520D01*
X66755520Y-38249520D01*
X66762871Y-38249881D01*
G37*
G36*
X67262871Y-38249881D02*
G01*
X67270152Y-38250961D01*
X67277291Y-38252749D01*
X67284221Y-38255229D01*
X67290875Y-38258376D01*
X67297188Y-38262160D01*
X67303099Y-38266544D01*
X67308553Y-38271487D01*
X67313496Y-38276941D01*
X67317880Y-38282852D01*
X67321664Y-38289165D01*
X67324811Y-38295819D01*
X67327291Y-38302749D01*
X67329079Y-38309888D01*
X67330159Y-38317169D01*
X67330520Y-38324520D01*
X67330520Y-39649520D01*
X67330159Y-39656871D01*
X67329079Y-39664152D01*
X67327291Y-39671291D01*
X67324811Y-39678221D01*
X67321664Y-39684875D01*
X67317880Y-39691188D01*
X67313496Y-39697099D01*
X67308553Y-39702553D01*
X67303099Y-39707496D01*
X67297188Y-39711880D01*
X67290875Y-39715664D01*
X67284221Y-39718811D01*
X67277291Y-39721291D01*
X67270152Y-39723079D01*
X67262871Y-39724159D01*
X67255520Y-39724520D01*
X67105520Y-39724520D01*
X67098169Y-39724159D01*
X67090888Y-39723079D01*
X67083749Y-39721291D01*
X67076819Y-39718811D01*
X67070165Y-39715664D01*
X67063852Y-39711880D01*
X67057941Y-39707496D01*
X67052487Y-39702553D01*
X67047544Y-39697099D01*
X67043160Y-39691188D01*
X67039376Y-39684875D01*
X67036229Y-39678221D01*
X67033749Y-39671291D01*
X67031961Y-39664152D01*
X67030881Y-39656871D01*
X67030520Y-39649520D01*
X67030520Y-38324520D01*
X67030881Y-38317169D01*
X67031961Y-38309888D01*
X67033749Y-38302749D01*
X67036229Y-38295819D01*
X67039376Y-38289165D01*
X67043160Y-38282852D01*
X67047544Y-38276941D01*
X67052487Y-38271487D01*
X67057941Y-38266544D01*
X67063852Y-38262160D01*
X67070165Y-38258376D01*
X67076819Y-38255229D01*
X67083749Y-38252749D01*
X67090888Y-38250961D01*
X67098169Y-38249881D01*
X67105520Y-38249520D01*
X67255520Y-38249520D01*
X67262871Y-38249881D01*
G37*
G36*
X67762871Y-38249881D02*
G01*
X67770152Y-38250961D01*
X67777291Y-38252749D01*
X67784221Y-38255229D01*
X67790875Y-38258376D01*
X67797188Y-38262160D01*
X67803099Y-38266544D01*
X67808553Y-38271487D01*
X67813496Y-38276941D01*
X67817880Y-38282852D01*
X67821664Y-38289165D01*
X67824811Y-38295819D01*
X67827291Y-38302749D01*
X67829079Y-38309888D01*
X67830159Y-38317169D01*
X67830520Y-38324520D01*
X67830520Y-39649520D01*
X67830159Y-39656871D01*
X67829079Y-39664152D01*
X67827291Y-39671291D01*
X67824811Y-39678221D01*
X67821664Y-39684875D01*
X67817880Y-39691188D01*
X67813496Y-39697099D01*
X67808553Y-39702553D01*
X67803099Y-39707496D01*
X67797188Y-39711880D01*
X67790875Y-39715664D01*
X67784221Y-39718811D01*
X67777291Y-39721291D01*
X67770152Y-39723079D01*
X67762871Y-39724159D01*
X67755520Y-39724520D01*
X67605520Y-39724520D01*
X67598169Y-39724159D01*
X67590888Y-39723079D01*
X67583749Y-39721291D01*
X67576819Y-39718811D01*
X67570165Y-39715664D01*
X67563852Y-39711880D01*
X67557941Y-39707496D01*
X67552487Y-39702553D01*
X67547544Y-39697099D01*
X67543160Y-39691188D01*
X67539376Y-39684875D01*
X67536229Y-39678221D01*
X67533749Y-39671291D01*
X67531961Y-39664152D01*
X67530881Y-39656871D01*
X67530520Y-39649520D01*
X67530520Y-38324520D01*
X67530881Y-38317169D01*
X67531961Y-38309888D01*
X67533749Y-38302749D01*
X67536229Y-38295819D01*
X67539376Y-38289165D01*
X67543160Y-38282852D01*
X67547544Y-38276941D01*
X67552487Y-38271487D01*
X67557941Y-38266544D01*
X67563852Y-38262160D01*
X67570165Y-38258376D01*
X67576819Y-38255229D01*
X67583749Y-38252749D01*
X67590888Y-38250961D01*
X67598169Y-38249881D01*
X67605520Y-38249520D01*
X67755520Y-38249520D01*
X67762871Y-38249881D01*
G37*
G36*
X68262871Y-38249881D02*
G01*
X68270152Y-38250961D01*
X68277291Y-38252749D01*
X68284221Y-38255229D01*
X68290875Y-38258376D01*
X68297188Y-38262160D01*
X68303099Y-38266544D01*
X68308553Y-38271487D01*
X68313496Y-38276941D01*
X68317880Y-38282852D01*
X68321664Y-38289165D01*
X68324811Y-38295819D01*
X68327291Y-38302749D01*
X68329079Y-38309888D01*
X68330159Y-38317169D01*
X68330520Y-38324520D01*
X68330520Y-39649520D01*
X68330159Y-39656871D01*
X68329079Y-39664152D01*
X68327291Y-39671291D01*
X68324811Y-39678221D01*
X68321664Y-39684875D01*
X68317880Y-39691188D01*
X68313496Y-39697099D01*
X68308553Y-39702553D01*
X68303099Y-39707496D01*
X68297188Y-39711880D01*
X68290875Y-39715664D01*
X68284221Y-39718811D01*
X68277291Y-39721291D01*
X68270152Y-39723079D01*
X68262871Y-39724159D01*
X68255520Y-39724520D01*
X68105520Y-39724520D01*
X68098169Y-39724159D01*
X68090888Y-39723079D01*
X68083749Y-39721291D01*
X68076819Y-39718811D01*
X68070165Y-39715664D01*
X68063852Y-39711880D01*
X68057941Y-39707496D01*
X68052487Y-39702553D01*
X68047544Y-39697099D01*
X68043160Y-39691188D01*
X68039376Y-39684875D01*
X68036229Y-39678221D01*
X68033749Y-39671291D01*
X68031961Y-39664152D01*
X68030881Y-39656871D01*
X68030520Y-39649520D01*
X68030520Y-38324520D01*
X68030881Y-38317169D01*
X68031961Y-38309888D01*
X68033749Y-38302749D01*
X68036229Y-38295819D01*
X68039376Y-38289165D01*
X68043160Y-38282852D01*
X68047544Y-38276941D01*
X68052487Y-38271487D01*
X68057941Y-38266544D01*
X68063852Y-38262160D01*
X68070165Y-38258376D01*
X68076819Y-38255229D01*
X68083749Y-38252749D01*
X68090888Y-38250961D01*
X68098169Y-38249881D01*
X68105520Y-38249520D01*
X68255520Y-38249520D01*
X68262871Y-38249881D01*
G37*
G36*
X68762871Y-38249881D02*
G01*
X68770152Y-38250961D01*
X68777291Y-38252749D01*
X68784221Y-38255229D01*
X68790875Y-38258376D01*
X68797188Y-38262160D01*
X68803099Y-38266544D01*
X68808553Y-38271487D01*
X68813496Y-38276941D01*
X68817880Y-38282852D01*
X68821664Y-38289165D01*
X68824811Y-38295819D01*
X68827291Y-38302749D01*
X68829079Y-38309888D01*
X68830159Y-38317169D01*
X68830520Y-38324520D01*
X68830520Y-39649520D01*
X68830159Y-39656871D01*
X68829079Y-39664152D01*
X68827291Y-39671291D01*
X68824811Y-39678221D01*
X68821664Y-39684875D01*
X68817880Y-39691188D01*
X68813496Y-39697099D01*
X68808553Y-39702553D01*
X68803099Y-39707496D01*
X68797188Y-39711880D01*
X68790875Y-39715664D01*
X68784221Y-39718811D01*
X68777291Y-39721291D01*
X68770152Y-39723079D01*
X68762871Y-39724159D01*
X68755520Y-39724520D01*
X68605520Y-39724520D01*
X68598169Y-39724159D01*
X68590888Y-39723079D01*
X68583749Y-39721291D01*
X68576819Y-39718811D01*
X68570165Y-39715664D01*
X68563852Y-39711880D01*
X68557941Y-39707496D01*
X68552487Y-39702553D01*
X68547544Y-39697099D01*
X68543160Y-39691188D01*
X68539376Y-39684875D01*
X68536229Y-39678221D01*
X68533749Y-39671291D01*
X68531961Y-39664152D01*
X68530881Y-39656871D01*
X68530520Y-39649520D01*
X68530520Y-38324520D01*
X68530881Y-38317169D01*
X68531961Y-38309888D01*
X68533749Y-38302749D01*
X68536229Y-38295819D01*
X68539376Y-38289165D01*
X68543160Y-38282852D01*
X68547544Y-38276941D01*
X68552487Y-38271487D01*
X68557941Y-38266544D01*
X68563852Y-38262160D01*
X68570165Y-38258376D01*
X68576819Y-38255229D01*
X68583749Y-38252749D01*
X68590888Y-38250961D01*
X68598169Y-38249881D01*
X68605520Y-38249520D01*
X68755520Y-38249520D01*
X68762871Y-38249881D01*
G37*
G36*
X69262871Y-38249881D02*
G01*
X69270152Y-38250961D01*
X69277291Y-38252749D01*
X69284221Y-38255229D01*
X69290875Y-38258376D01*
X69297188Y-38262160D01*
X69303099Y-38266544D01*
X69308553Y-38271487D01*
X69313496Y-38276941D01*
X69317880Y-38282852D01*
X69321664Y-38289165D01*
X69324811Y-38295819D01*
X69327291Y-38302749D01*
X69329079Y-38309888D01*
X69330159Y-38317169D01*
X69330520Y-38324520D01*
X69330520Y-39649520D01*
X69330159Y-39656871D01*
X69329079Y-39664152D01*
X69327291Y-39671291D01*
X69324811Y-39678221D01*
X69321664Y-39684875D01*
X69317880Y-39691188D01*
X69313496Y-39697099D01*
X69308553Y-39702553D01*
X69303099Y-39707496D01*
X69297188Y-39711880D01*
X69290875Y-39715664D01*
X69284221Y-39718811D01*
X69277291Y-39721291D01*
X69270152Y-39723079D01*
X69262871Y-39724159D01*
X69255520Y-39724520D01*
X69105520Y-39724520D01*
X69098169Y-39724159D01*
X69090888Y-39723079D01*
X69083749Y-39721291D01*
X69076819Y-39718811D01*
X69070165Y-39715664D01*
X69063852Y-39711880D01*
X69057941Y-39707496D01*
X69052487Y-39702553D01*
X69047544Y-39697099D01*
X69043160Y-39691188D01*
X69039376Y-39684875D01*
X69036229Y-39678221D01*
X69033749Y-39671291D01*
X69031961Y-39664152D01*
X69030881Y-39656871D01*
X69030520Y-39649520D01*
X69030520Y-38324520D01*
X69030881Y-38317169D01*
X69031961Y-38309888D01*
X69033749Y-38302749D01*
X69036229Y-38295819D01*
X69039376Y-38289165D01*
X69043160Y-38282852D01*
X69047544Y-38276941D01*
X69052487Y-38271487D01*
X69057941Y-38266544D01*
X69063852Y-38262160D01*
X69070165Y-38258376D01*
X69076819Y-38255229D01*
X69083749Y-38252749D01*
X69090888Y-38250961D01*
X69098169Y-38249881D01*
X69105520Y-38249520D01*
X69255520Y-38249520D01*
X69262871Y-38249881D01*
G37*
G36*
X69762871Y-38249881D02*
G01*
X69770152Y-38250961D01*
X69777291Y-38252749D01*
X69784221Y-38255229D01*
X69790875Y-38258376D01*
X69797188Y-38262160D01*
X69803099Y-38266544D01*
X69808553Y-38271487D01*
X69813496Y-38276941D01*
X69817880Y-38282852D01*
X69821664Y-38289165D01*
X69824811Y-38295819D01*
X69827291Y-38302749D01*
X69829079Y-38309888D01*
X69830159Y-38317169D01*
X69830520Y-38324520D01*
X69830520Y-39649520D01*
X69830159Y-39656871D01*
X69829079Y-39664152D01*
X69827291Y-39671291D01*
X69824811Y-39678221D01*
X69821664Y-39684875D01*
X69817880Y-39691188D01*
X69813496Y-39697099D01*
X69808553Y-39702553D01*
X69803099Y-39707496D01*
X69797188Y-39711880D01*
X69790875Y-39715664D01*
X69784221Y-39718811D01*
X69777291Y-39721291D01*
X69770152Y-39723079D01*
X69762871Y-39724159D01*
X69755520Y-39724520D01*
X69605520Y-39724520D01*
X69598169Y-39724159D01*
X69590888Y-39723079D01*
X69583749Y-39721291D01*
X69576819Y-39718811D01*
X69570165Y-39715664D01*
X69563852Y-39711880D01*
X69557941Y-39707496D01*
X69552487Y-39702553D01*
X69547544Y-39697099D01*
X69543160Y-39691188D01*
X69539376Y-39684875D01*
X69536229Y-39678221D01*
X69533749Y-39671291D01*
X69531961Y-39664152D01*
X69530881Y-39656871D01*
X69530520Y-39649520D01*
X69530520Y-38324520D01*
X69530881Y-38317169D01*
X69531961Y-38309888D01*
X69533749Y-38302749D01*
X69536229Y-38295819D01*
X69539376Y-38289165D01*
X69543160Y-38282852D01*
X69547544Y-38276941D01*
X69552487Y-38271487D01*
X69557941Y-38266544D01*
X69563852Y-38262160D01*
X69570165Y-38258376D01*
X69576819Y-38255229D01*
X69583749Y-38252749D01*
X69590888Y-38250961D01*
X69598169Y-38249881D01*
X69605520Y-38249520D01*
X69755520Y-38249520D01*
X69762871Y-38249881D01*
G37*
G36*
X70262871Y-38249881D02*
G01*
X70270152Y-38250961D01*
X70277291Y-38252749D01*
X70284221Y-38255229D01*
X70290875Y-38258376D01*
X70297188Y-38262160D01*
X70303099Y-38266544D01*
X70308553Y-38271487D01*
X70313496Y-38276941D01*
X70317880Y-38282852D01*
X70321664Y-38289165D01*
X70324811Y-38295819D01*
X70327291Y-38302749D01*
X70329079Y-38309888D01*
X70330159Y-38317169D01*
X70330520Y-38324520D01*
X70330520Y-39649520D01*
X70330159Y-39656871D01*
X70329079Y-39664152D01*
X70327291Y-39671291D01*
X70324811Y-39678221D01*
X70321664Y-39684875D01*
X70317880Y-39691188D01*
X70313496Y-39697099D01*
X70308553Y-39702553D01*
X70303099Y-39707496D01*
X70297188Y-39711880D01*
X70290875Y-39715664D01*
X70284221Y-39718811D01*
X70277291Y-39721291D01*
X70270152Y-39723079D01*
X70262871Y-39724159D01*
X70255520Y-39724520D01*
X70105520Y-39724520D01*
X70098169Y-39724159D01*
X70090888Y-39723079D01*
X70083749Y-39721291D01*
X70076819Y-39718811D01*
X70070165Y-39715664D01*
X70063852Y-39711880D01*
X70057941Y-39707496D01*
X70052487Y-39702553D01*
X70047544Y-39697099D01*
X70043160Y-39691188D01*
X70039376Y-39684875D01*
X70036229Y-39678221D01*
X70033749Y-39671291D01*
X70031961Y-39664152D01*
X70030881Y-39656871D01*
X70030520Y-39649520D01*
X70030520Y-38324520D01*
X70030881Y-38317169D01*
X70031961Y-38309888D01*
X70033749Y-38302749D01*
X70036229Y-38295819D01*
X70039376Y-38289165D01*
X70043160Y-38282852D01*
X70047544Y-38276941D01*
X70052487Y-38271487D01*
X70057941Y-38266544D01*
X70063852Y-38262160D01*
X70070165Y-38258376D01*
X70076819Y-38255229D01*
X70083749Y-38252749D01*
X70090888Y-38250961D01*
X70098169Y-38249881D01*
X70105520Y-38249520D01*
X70255520Y-38249520D01*
X70262871Y-38249881D01*
G37*
G36*
X70762871Y-38249881D02*
G01*
X70770152Y-38250961D01*
X70777291Y-38252749D01*
X70784221Y-38255229D01*
X70790875Y-38258376D01*
X70797188Y-38262160D01*
X70803099Y-38266544D01*
X70808553Y-38271487D01*
X70813496Y-38276941D01*
X70817880Y-38282852D01*
X70821664Y-38289165D01*
X70824811Y-38295819D01*
X70827291Y-38302749D01*
X70829079Y-38309888D01*
X70830159Y-38317169D01*
X70830520Y-38324520D01*
X70830520Y-39649520D01*
X70830159Y-39656871D01*
X70829079Y-39664152D01*
X70827291Y-39671291D01*
X70824811Y-39678221D01*
X70821664Y-39684875D01*
X70817880Y-39691188D01*
X70813496Y-39697099D01*
X70808553Y-39702553D01*
X70803099Y-39707496D01*
X70797188Y-39711880D01*
X70790875Y-39715664D01*
X70784221Y-39718811D01*
X70777291Y-39721291D01*
X70770152Y-39723079D01*
X70762871Y-39724159D01*
X70755520Y-39724520D01*
X70605520Y-39724520D01*
X70598169Y-39724159D01*
X70590888Y-39723079D01*
X70583749Y-39721291D01*
X70576819Y-39718811D01*
X70570165Y-39715664D01*
X70563852Y-39711880D01*
X70557941Y-39707496D01*
X70552487Y-39702553D01*
X70547544Y-39697099D01*
X70543160Y-39691188D01*
X70539376Y-39684875D01*
X70536229Y-39678221D01*
X70533749Y-39671291D01*
X70531961Y-39664152D01*
X70530881Y-39656871D01*
X70530520Y-39649520D01*
X70530520Y-38324520D01*
X70530881Y-38317169D01*
X70531961Y-38309888D01*
X70533749Y-38302749D01*
X70536229Y-38295819D01*
X70539376Y-38289165D01*
X70543160Y-38282852D01*
X70547544Y-38276941D01*
X70552487Y-38271487D01*
X70557941Y-38266544D01*
X70563852Y-38262160D01*
X70570165Y-38258376D01*
X70576819Y-38255229D01*
X70583749Y-38252749D01*
X70590888Y-38250961D01*
X70598169Y-38249881D01*
X70605520Y-38249520D01*
X70755520Y-38249520D01*
X70762871Y-38249881D01*
G37*
G36*
X71262871Y-38249881D02*
G01*
X71270152Y-38250961D01*
X71277291Y-38252749D01*
X71284221Y-38255229D01*
X71290875Y-38258376D01*
X71297188Y-38262160D01*
X71303099Y-38266544D01*
X71308553Y-38271487D01*
X71313496Y-38276941D01*
X71317880Y-38282852D01*
X71321664Y-38289165D01*
X71324811Y-38295819D01*
X71327291Y-38302749D01*
X71329079Y-38309888D01*
X71330159Y-38317169D01*
X71330520Y-38324520D01*
X71330520Y-39649520D01*
X71330159Y-39656871D01*
X71329079Y-39664152D01*
X71327291Y-39671291D01*
X71324811Y-39678221D01*
X71321664Y-39684875D01*
X71317880Y-39691188D01*
X71313496Y-39697099D01*
X71308553Y-39702553D01*
X71303099Y-39707496D01*
X71297188Y-39711880D01*
X71290875Y-39715664D01*
X71284221Y-39718811D01*
X71277291Y-39721291D01*
X71270152Y-39723079D01*
X71262871Y-39724159D01*
X71255520Y-39724520D01*
X71105520Y-39724520D01*
X71098169Y-39724159D01*
X71090888Y-39723079D01*
X71083749Y-39721291D01*
X71076819Y-39718811D01*
X71070165Y-39715664D01*
X71063852Y-39711880D01*
X71057941Y-39707496D01*
X71052487Y-39702553D01*
X71047544Y-39697099D01*
X71043160Y-39691188D01*
X71039376Y-39684875D01*
X71036229Y-39678221D01*
X71033749Y-39671291D01*
X71031961Y-39664152D01*
X71030881Y-39656871D01*
X71030520Y-39649520D01*
X71030520Y-38324520D01*
X71030881Y-38317169D01*
X71031961Y-38309888D01*
X71033749Y-38302749D01*
X71036229Y-38295819D01*
X71039376Y-38289165D01*
X71043160Y-38282852D01*
X71047544Y-38276941D01*
X71052487Y-38271487D01*
X71057941Y-38266544D01*
X71063852Y-38262160D01*
X71070165Y-38258376D01*
X71076819Y-38255229D01*
X71083749Y-38252749D01*
X71090888Y-38250961D01*
X71098169Y-38249881D01*
X71105520Y-38249520D01*
X71255520Y-38249520D01*
X71262871Y-38249881D01*
G37*
G36*
X71762871Y-38249881D02*
G01*
X71770152Y-38250961D01*
X71777291Y-38252749D01*
X71784221Y-38255229D01*
X71790875Y-38258376D01*
X71797188Y-38262160D01*
X71803099Y-38266544D01*
X71808553Y-38271487D01*
X71813496Y-38276941D01*
X71817880Y-38282852D01*
X71821664Y-38289165D01*
X71824811Y-38295819D01*
X71827291Y-38302749D01*
X71829079Y-38309888D01*
X71830159Y-38317169D01*
X71830520Y-38324520D01*
X71830520Y-39649520D01*
X71830159Y-39656871D01*
X71829079Y-39664152D01*
X71827291Y-39671291D01*
X71824811Y-39678221D01*
X71821664Y-39684875D01*
X71817880Y-39691188D01*
X71813496Y-39697099D01*
X71808553Y-39702553D01*
X71803099Y-39707496D01*
X71797188Y-39711880D01*
X71790875Y-39715664D01*
X71784221Y-39718811D01*
X71777291Y-39721291D01*
X71770152Y-39723079D01*
X71762871Y-39724159D01*
X71755520Y-39724520D01*
X71605520Y-39724520D01*
X71598169Y-39724159D01*
X71590888Y-39723079D01*
X71583749Y-39721291D01*
X71576819Y-39718811D01*
X71570165Y-39715664D01*
X71563852Y-39711880D01*
X71557941Y-39707496D01*
X71552487Y-39702553D01*
X71547544Y-39697099D01*
X71543160Y-39691188D01*
X71539376Y-39684875D01*
X71536229Y-39678221D01*
X71533749Y-39671291D01*
X71531961Y-39664152D01*
X71530881Y-39656871D01*
X71530520Y-39649520D01*
X71530520Y-38324520D01*
X71530881Y-38317169D01*
X71531961Y-38309888D01*
X71533749Y-38302749D01*
X71536229Y-38295819D01*
X71539376Y-38289165D01*
X71543160Y-38282852D01*
X71547544Y-38276941D01*
X71552487Y-38271487D01*
X71557941Y-38266544D01*
X71563852Y-38262160D01*
X71570165Y-38258376D01*
X71576819Y-38255229D01*
X71583749Y-38252749D01*
X71590888Y-38250961D01*
X71598169Y-38249881D01*
X71605520Y-38249520D01*
X71755520Y-38249520D01*
X71762871Y-38249881D01*
G37*
G36*
X73762871Y-40249881D02*
G01*
X73770152Y-40250961D01*
X73777291Y-40252749D01*
X73784221Y-40255229D01*
X73790875Y-40258376D01*
X73797188Y-40262160D01*
X73803099Y-40266544D01*
X73808553Y-40271487D01*
X73813496Y-40276941D01*
X73817880Y-40282852D01*
X73821664Y-40289165D01*
X73824811Y-40295819D01*
X73827291Y-40302749D01*
X73829079Y-40309888D01*
X73830159Y-40317169D01*
X73830520Y-40324520D01*
X73830520Y-40474520D01*
X73830159Y-40481871D01*
X73829079Y-40489152D01*
X73827291Y-40496291D01*
X73824811Y-40503221D01*
X73821664Y-40509875D01*
X73817880Y-40516188D01*
X73813496Y-40522099D01*
X73808553Y-40527553D01*
X73803099Y-40532496D01*
X73797188Y-40536880D01*
X73790875Y-40540664D01*
X73784221Y-40543811D01*
X73777291Y-40546291D01*
X73770152Y-40548079D01*
X73762871Y-40549159D01*
X73755520Y-40549520D01*
X72430520Y-40549520D01*
X72423169Y-40549159D01*
X72415888Y-40548079D01*
X72408749Y-40546291D01*
X72401819Y-40543811D01*
X72395165Y-40540664D01*
X72388852Y-40536880D01*
X72382941Y-40532496D01*
X72377487Y-40527553D01*
X72372544Y-40522099D01*
X72368160Y-40516188D01*
X72364376Y-40509875D01*
X72361229Y-40503221D01*
X72358749Y-40496291D01*
X72356961Y-40489152D01*
X72355881Y-40481871D01*
X72355520Y-40474520D01*
X72355520Y-40324520D01*
X72355881Y-40317169D01*
X72356961Y-40309888D01*
X72358749Y-40302749D01*
X72361229Y-40295819D01*
X72364376Y-40289165D01*
X72368160Y-40282852D01*
X72372544Y-40276941D01*
X72377487Y-40271487D01*
X72382941Y-40266544D01*
X72388852Y-40262160D01*
X72395165Y-40258376D01*
X72401819Y-40255229D01*
X72408749Y-40252749D01*
X72415888Y-40250961D01*
X72423169Y-40249881D01*
X72430520Y-40249520D01*
X73755520Y-40249520D01*
X73762871Y-40249881D01*
G37*
G36*
X73762871Y-40749881D02*
G01*
X73770152Y-40750961D01*
X73777291Y-40752749D01*
X73784221Y-40755229D01*
X73790875Y-40758376D01*
X73797188Y-40762160D01*
X73803099Y-40766544D01*
X73808553Y-40771487D01*
X73813496Y-40776941D01*
X73817880Y-40782852D01*
X73821664Y-40789165D01*
X73824811Y-40795819D01*
X73827291Y-40802749D01*
X73829079Y-40809888D01*
X73830159Y-40817169D01*
X73830520Y-40824520D01*
X73830520Y-40974520D01*
X73830159Y-40981871D01*
X73829079Y-40989152D01*
X73827291Y-40996291D01*
X73824811Y-41003221D01*
X73821664Y-41009875D01*
X73817880Y-41016188D01*
X73813496Y-41022099D01*
X73808553Y-41027553D01*
X73803099Y-41032496D01*
X73797188Y-41036880D01*
X73790875Y-41040664D01*
X73784221Y-41043811D01*
X73777291Y-41046291D01*
X73770152Y-41048079D01*
X73762871Y-41049159D01*
X73755520Y-41049520D01*
X72430520Y-41049520D01*
X72423169Y-41049159D01*
X72415888Y-41048079D01*
X72408749Y-41046291D01*
X72401819Y-41043811D01*
X72395165Y-41040664D01*
X72388852Y-41036880D01*
X72382941Y-41032496D01*
X72377487Y-41027553D01*
X72372544Y-41022099D01*
X72368160Y-41016188D01*
X72364376Y-41009875D01*
X72361229Y-41003221D01*
X72358749Y-40996291D01*
X72356961Y-40989152D01*
X72355881Y-40981871D01*
X72355520Y-40974520D01*
X72355520Y-40824520D01*
X72355881Y-40817169D01*
X72356961Y-40809888D01*
X72358749Y-40802749D01*
X72361229Y-40795819D01*
X72364376Y-40789165D01*
X72368160Y-40782852D01*
X72372544Y-40776941D01*
X72377487Y-40771487D01*
X72382941Y-40766544D01*
X72388852Y-40762160D01*
X72395165Y-40758376D01*
X72401819Y-40755229D01*
X72408749Y-40752749D01*
X72415888Y-40750961D01*
X72423169Y-40749881D01*
X72430520Y-40749520D01*
X73755520Y-40749520D01*
X73762871Y-40749881D01*
G37*
G36*
X73762871Y-41249881D02*
G01*
X73770152Y-41250961D01*
X73777291Y-41252749D01*
X73784221Y-41255229D01*
X73790875Y-41258376D01*
X73797188Y-41262160D01*
X73803099Y-41266544D01*
X73808553Y-41271487D01*
X73813496Y-41276941D01*
X73817880Y-41282852D01*
X73821664Y-41289165D01*
X73824811Y-41295819D01*
X73827291Y-41302749D01*
X73829079Y-41309888D01*
X73830159Y-41317169D01*
X73830520Y-41324520D01*
X73830520Y-41474520D01*
X73830159Y-41481871D01*
X73829079Y-41489152D01*
X73827291Y-41496291D01*
X73824811Y-41503221D01*
X73821664Y-41509875D01*
X73817880Y-41516188D01*
X73813496Y-41522099D01*
X73808553Y-41527553D01*
X73803099Y-41532496D01*
X73797188Y-41536880D01*
X73790875Y-41540664D01*
X73784221Y-41543811D01*
X73777291Y-41546291D01*
X73770152Y-41548079D01*
X73762871Y-41549159D01*
X73755520Y-41549520D01*
X72430520Y-41549520D01*
X72423169Y-41549159D01*
X72415888Y-41548079D01*
X72408749Y-41546291D01*
X72401819Y-41543811D01*
X72395165Y-41540664D01*
X72388852Y-41536880D01*
X72382941Y-41532496D01*
X72377487Y-41527553D01*
X72372544Y-41522099D01*
X72368160Y-41516188D01*
X72364376Y-41509875D01*
X72361229Y-41503221D01*
X72358749Y-41496291D01*
X72356961Y-41489152D01*
X72355881Y-41481871D01*
X72355520Y-41474520D01*
X72355520Y-41324520D01*
X72355881Y-41317169D01*
X72356961Y-41309888D01*
X72358749Y-41302749D01*
X72361229Y-41295819D01*
X72364376Y-41289165D01*
X72368160Y-41282852D01*
X72372544Y-41276941D01*
X72377487Y-41271487D01*
X72382941Y-41266544D01*
X72388852Y-41262160D01*
X72395165Y-41258376D01*
X72401819Y-41255229D01*
X72408749Y-41252749D01*
X72415888Y-41250961D01*
X72423169Y-41249881D01*
X72430520Y-41249520D01*
X73755520Y-41249520D01*
X73762871Y-41249881D01*
G37*
G36*
X73762871Y-41749881D02*
G01*
X73770152Y-41750961D01*
X73777291Y-41752749D01*
X73784221Y-41755229D01*
X73790875Y-41758376D01*
X73797188Y-41762160D01*
X73803099Y-41766544D01*
X73808553Y-41771487D01*
X73813496Y-41776941D01*
X73817880Y-41782852D01*
X73821664Y-41789165D01*
X73824811Y-41795819D01*
X73827291Y-41802749D01*
X73829079Y-41809888D01*
X73830159Y-41817169D01*
X73830520Y-41824520D01*
X73830520Y-41974520D01*
X73830159Y-41981871D01*
X73829079Y-41989152D01*
X73827291Y-41996291D01*
X73824811Y-42003221D01*
X73821664Y-42009875D01*
X73817880Y-42016188D01*
X73813496Y-42022099D01*
X73808553Y-42027553D01*
X73803099Y-42032496D01*
X73797188Y-42036880D01*
X73790875Y-42040664D01*
X73784221Y-42043811D01*
X73777291Y-42046291D01*
X73770152Y-42048079D01*
X73762871Y-42049159D01*
X73755520Y-42049520D01*
X72430520Y-42049520D01*
X72423169Y-42049159D01*
X72415888Y-42048079D01*
X72408749Y-42046291D01*
X72401819Y-42043811D01*
X72395165Y-42040664D01*
X72388852Y-42036880D01*
X72382941Y-42032496D01*
X72377487Y-42027553D01*
X72372544Y-42022099D01*
X72368160Y-42016188D01*
X72364376Y-42009875D01*
X72361229Y-42003221D01*
X72358749Y-41996291D01*
X72356961Y-41989152D01*
X72355881Y-41981871D01*
X72355520Y-41974520D01*
X72355520Y-41824520D01*
X72355881Y-41817169D01*
X72356961Y-41809888D01*
X72358749Y-41802749D01*
X72361229Y-41795819D01*
X72364376Y-41789165D01*
X72368160Y-41782852D01*
X72372544Y-41776941D01*
X72377487Y-41771487D01*
X72382941Y-41766544D01*
X72388852Y-41762160D01*
X72395165Y-41758376D01*
X72401819Y-41755229D01*
X72408749Y-41752749D01*
X72415888Y-41750961D01*
X72423169Y-41749881D01*
X72430520Y-41749520D01*
X73755520Y-41749520D01*
X73762871Y-41749881D01*
G37*
G36*
X73762871Y-42249881D02*
G01*
X73770152Y-42250961D01*
X73777291Y-42252749D01*
X73784221Y-42255229D01*
X73790875Y-42258376D01*
X73797188Y-42262160D01*
X73803099Y-42266544D01*
X73808553Y-42271487D01*
X73813496Y-42276941D01*
X73817880Y-42282852D01*
X73821664Y-42289165D01*
X73824811Y-42295819D01*
X73827291Y-42302749D01*
X73829079Y-42309888D01*
X73830159Y-42317169D01*
X73830520Y-42324520D01*
X73830520Y-42474520D01*
X73830159Y-42481871D01*
X73829079Y-42489152D01*
X73827291Y-42496291D01*
X73824811Y-42503221D01*
X73821664Y-42509875D01*
X73817880Y-42516188D01*
X73813496Y-42522099D01*
X73808553Y-42527553D01*
X73803099Y-42532496D01*
X73797188Y-42536880D01*
X73790875Y-42540664D01*
X73784221Y-42543811D01*
X73777291Y-42546291D01*
X73770152Y-42548079D01*
X73762871Y-42549159D01*
X73755520Y-42549520D01*
X72430520Y-42549520D01*
X72423169Y-42549159D01*
X72415888Y-42548079D01*
X72408749Y-42546291D01*
X72401819Y-42543811D01*
X72395165Y-42540664D01*
X72388852Y-42536880D01*
X72382941Y-42532496D01*
X72377487Y-42527553D01*
X72372544Y-42522099D01*
X72368160Y-42516188D01*
X72364376Y-42509875D01*
X72361229Y-42503221D01*
X72358749Y-42496291D01*
X72356961Y-42489152D01*
X72355881Y-42481871D01*
X72355520Y-42474520D01*
X72355520Y-42324520D01*
X72355881Y-42317169D01*
X72356961Y-42309888D01*
X72358749Y-42302749D01*
X72361229Y-42295819D01*
X72364376Y-42289165D01*
X72368160Y-42282852D01*
X72372544Y-42276941D01*
X72377487Y-42271487D01*
X72382941Y-42266544D01*
X72388852Y-42262160D01*
X72395165Y-42258376D01*
X72401819Y-42255229D01*
X72408749Y-42252749D01*
X72415888Y-42250961D01*
X72423169Y-42249881D01*
X72430520Y-42249520D01*
X73755520Y-42249520D01*
X73762871Y-42249881D01*
G37*
G36*
X73762871Y-42749881D02*
G01*
X73770152Y-42750961D01*
X73777291Y-42752749D01*
X73784221Y-42755229D01*
X73790875Y-42758376D01*
X73797188Y-42762160D01*
X73803099Y-42766544D01*
X73808553Y-42771487D01*
X73813496Y-42776941D01*
X73817880Y-42782852D01*
X73821664Y-42789165D01*
X73824811Y-42795819D01*
X73827291Y-42802749D01*
X73829079Y-42809888D01*
X73830159Y-42817169D01*
X73830520Y-42824520D01*
X73830520Y-42974520D01*
X73830159Y-42981871D01*
X73829079Y-42989152D01*
X73827291Y-42996291D01*
X73824811Y-43003221D01*
X73821664Y-43009875D01*
X73817880Y-43016188D01*
X73813496Y-43022099D01*
X73808553Y-43027553D01*
X73803099Y-43032496D01*
X73797188Y-43036880D01*
X73790875Y-43040664D01*
X73784221Y-43043811D01*
X73777291Y-43046291D01*
X73770152Y-43048079D01*
X73762871Y-43049159D01*
X73755520Y-43049520D01*
X72430520Y-43049520D01*
X72423169Y-43049159D01*
X72415888Y-43048079D01*
X72408749Y-43046291D01*
X72401819Y-43043811D01*
X72395165Y-43040664D01*
X72388852Y-43036880D01*
X72382941Y-43032496D01*
X72377487Y-43027553D01*
X72372544Y-43022099D01*
X72368160Y-43016188D01*
X72364376Y-43009875D01*
X72361229Y-43003221D01*
X72358749Y-42996291D01*
X72356961Y-42989152D01*
X72355881Y-42981871D01*
X72355520Y-42974520D01*
X72355520Y-42824520D01*
X72355881Y-42817169D01*
X72356961Y-42809888D01*
X72358749Y-42802749D01*
X72361229Y-42795819D01*
X72364376Y-42789165D01*
X72368160Y-42782852D01*
X72372544Y-42776941D01*
X72377487Y-42771487D01*
X72382941Y-42766544D01*
X72388852Y-42762160D01*
X72395165Y-42758376D01*
X72401819Y-42755229D01*
X72408749Y-42752749D01*
X72415888Y-42750961D01*
X72423169Y-42749881D01*
X72430520Y-42749520D01*
X73755520Y-42749520D01*
X73762871Y-42749881D01*
G37*
G36*
X73762871Y-43249881D02*
G01*
X73770152Y-43250961D01*
X73777291Y-43252749D01*
X73784221Y-43255229D01*
X73790875Y-43258376D01*
X73797188Y-43262160D01*
X73803099Y-43266544D01*
X73808553Y-43271487D01*
X73813496Y-43276941D01*
X73817880Y-43282852D01*
X73821664Y-43289165D01*
X73824811Y-43295819D01*
X73827291Y-43302749D01*
X73829079Y-43309888D01*
X73830159Y-43317169D01*
X73830520Y-43324520D01*
X73830520Y-43474520D01*
X73830159Y-43481871D01*
X73829079Y-43489152D01*
X73827291Y-43496291D01*
X73824811Y-43503221D01*
X73821664Y-43509875D01*
X73817880Y-43516188D01*
X73813496Y-43522099D01*
X73808553Y-43527553D01*
X73803099Y-43532496D01*
X73797188Y-43536880D01*
X73790875Y-43540664D01*
X73784221Y-43543811D01*
X73777291Y-43546291D01*
X73770152Y-43548079D01*
X73762871Y-43549159D01*
X73755520Y-43549520D01*
X72430520Y-43549520D01*
X72423169Y-43549159D01*
X72415888Y-43548079D01*
X72408749Y-43546291D01*
X72401819Y-43543811D01*
X72395165Y-43540664D01*
X72388852Y-43536880D01*
X72382941Y-43532496D01*
X72377487Y-43527553D01*
X72372544Y-43522099D01*
X72368160Y-43516188D01*
X72364376Y-43509875D01*
X72361229Y-43503221D01*
X72358749Y-43496291D01*
X72356961Y-43489152D01*
X72355881Y-43481871D01*
X72355520Y-43474520D01*
X72355520Y-43324520D01*
X72355881Y-43317169D01*
X72356961Y-43309888D01*
X72358749Y-43302749D01*
X72361229Y-43295819D01*
X72364376Y-43289165D01*
X72368160Y-43282852D01*
X72372544Y-43276941D01*
X72377487Y-43271487D01*
X72382941Y-43266544D01*
X72388852Y-43262160D01*
X72395165Y-43258376D01*
X72401819Y-43255229D01*
X72408749Y-43252749D01*
X72415888Y-43250961D01*
X72423169Y-43249881D01*
X72430520Y-43249520D01*
X73755520Y-43249520D01*
X73762871Y-43249881D01*
G37*
G36*
X73762871Y-43749881D02*
G01*
X73770152Y-43750961D01*
X73777291Y-43752749D01*
X73784221Y-43755229D01*
X73790875Y-43758376D01*
X73797188Y-43762160D01*
X73803099Y-43766544D01*
X73808553Y-43771487D01*
X73813496Y-43776941D01*
X73817880Y-43782852D01*
X73821664Y-43789165D01*
X73824811Y-43795819D01*
X73827291Y-43802749D01*
X73829079Y-43809888D01*
X73830159Y-43817169D01*
X73830520Y-43824520D01*
X73830520Y-43974520D01*
X73830159Y-43981871D01*
X73829079Y-43989152D01*
X73827291Y-43996291D01*
X73824811Y-44003221D01*
X73821664Y-44009875D01*
X73817880Y-44016188D01*
X73813496Y-44022099D01*
X73808553Y-44027553D01*
X73803099Y-44032496D01*
X73797188Y-44036880D01*
X73790875Y-44040664D01*
X73784221Y-44043811D01*
X73777291Y-44046291D01*
X73770152Y-44048079D01*
X73762871Y-44049159D01*
X73755520Y-44049520D01*
X72430520Y-44049520D01*
X72423169Y-44049159D01*
X72415888Y-44048079D01*
X72408749Y-44046291D01*
X72401819Y-44043811D01*
X72395165Y-44040664D01*
X72388852Y-44036880D01*
X72382941Y-44032496D01*
X72377487Y-44027553D01*
X72372544Y-44022099D01*
X72368160Y-44016188D01*
X72364376Y-44009875D01*
X72361229Y-44003221D01*
X72358749Y-43996291D01*
X72356961Y-43989152D01*
X72355881Y-43981871D01*
X72355520Y-43974520D01*
X72355520Y-43824520D01*
X72355881Y-43817169D01*
X72356961Y-43809888D01*
X72358749Y-43802749D01*
X72361229Y-43795819D01*
X72364376Y-43789165D01*
X72368160Y-43782852D01*
X72372544Y-43776941D01*
X72377487Y-43771487D01*
X72382941Y-43766544D01*
X72388852Y-43762160D01*
X72395165Y-43758376D01*
X72401819Y-43755229D01*
X72408749Y-43752749D01*
X72415888Y-43750961D01*
X72423169Y-43749881D01*
X72430520Y-43749520D01*
X73755520Y-43749520D01*
X73762871Y-43749881D01*
G37*
G36*
X73762871Y-44249881D02*
G01*
X73770152Y-44250961D01*
X73777291Y-44252749D01*
X73784221Y-44255229D01*
X73790875Y-44258376D01*
X73797188Y-44262160D01*
X73803099Y-44266544D01*
X73808553Y-44271487D01*
X73813496Y-44276941D01*
X73817880Y-44282852D01*
X73821664Y-44289165D01*
X73824811Y-44295819D01*
X73827291Y-44302749D01*
X73829079Y-44309888D01*
X73830159Y-44317169D01*
X73830520Y-44324520D01*
X73830520Y-44474520D01*
X73830159Y-44481871D01*
X73829079Y-44489152D01*
X73827291Y-44496291D01*
X73824811Y-44503221D01*
X73821664Y-44509875D01*
X73817880Y-44516188D01*
X73813496Y-44522099D01*
X73808553Y-44527553D01*
X73803099Y-44532496D01*
X73797188Y-44536880D01*
X73790875Y-44540664D01*
X73784221Y-44543811D01*
X73777291Y-44546291D01*
X73770152Y-44548079D01*
X73762871Y-44549159D01*
X73755520Y-44549520D01*
X72430520Y-44549520D01*
X72423169Y-44549159D01*
X72415888Y-44548079D01*
X72408749Y-44546291D01*
X72401819Y-44543811D01*
X72395165Y-44540664D01*
X72388852Y-44536880D01*
X72382941Y-44532496D01*
X72377487Y-44527553D01*
X72372544Y-44522099D01*
X72368160Y-44516188D01*
X72364376Y-44509875D01*
X72361229Y-44503221D01*
X72358749Y-44496291D01*
X72356961Y-44489152D01*
X72355881Y-44481871D01*
X72355520Y-44474520D01*
X72355520Y-44324520D01*
X72355881Y-44317169D01*
X72356961Y-44309888D01*
X72358749Y-44302749D01*
X72361229Y-44295819D01*
X72364376Y-44289165D01*
X72368160Y-44282852D01*
X72372544Y-44276941D01*
X72377487Y-44271487D01*
X72382941Y-44266544D01*
X72388852Y-44262160D01*
X72395165Y-44258376D01*
X72401819Y-44255229D01*
X72408749Y-44252749D01*
X72415888Y-44250961D01*
X72423169Y-44249881D01*
X72430520Y-44249520D01*
X73755520Y-44249520D01*
X73762871Y-44249881D01*
G37*
G36*
X73762871Y-44749881D02*
G01*
X73770152Y-44750961D01*
X73777291Y-44752749D01*
X73784221Y-44755229D01*
X73790875Y-44758376D01*
X73797188Y-44762160D01*
X73803099Y-44766544D01*
X73808553Y-44771487D01*
X73813496Y-44776941D01*
X73817880Y-44782852D01*
X73821664Y-44789165D01*
X73824811Y-44795819D01*
X73827291Y-44802749D01*
X73829079Y-44809888D01*
X73830159Y-44817169D01*
X73830520Y-44824520D01*
X73830520Y-44974520D01*
X73830159Y-44981871D01*
X73829079Y-44989152D01*
X73827291Y-44996291D01*
X73824811Y-45003221D01*
X73821664Y-45009875D01*
X73817880Y-45016188D01*
X73813496Y-45022099D01*
X73808553Y-45027553D01*
X73803099Y-45032496D01*
X73797188Y-45036880D01*
X73790875Y-45040664D01*
X73784221Y-45043811D01*
X73777291Y-45046291D01*
X73770152Y-45048079D01*
X73762871Y-45049159D01*
X73755520Y-45049520D01*
X72430520Y-45049520D01*
X72423169Y-45049159D01*
X72415888Y-45048079D01*
X72408749Y-45046291D01*
X72401819Y-45043811D01*
X72395165Y-45040664D01*
X72388852Y-45036880D01*
X72382941Y-45032496D01*
X72377487Y-45027553D01*
X72372544Y-45022099D01*
X72368160Y-45016188D01*
X72364376Y-45009875D01*
X72361229Y-45003221D01*
X72358749Y-44996291D01*
X72356961Y-44989152D01*
X72355881Y-44981871D01*
X72355520Y-44974520D01*
X72355520Y-44824520D01*
X72355881Y-44817169D01*
X72356961Y-44809888D01*
X72358749Y-44802749D01*
X72361229Y-44795819D01*
X72364376Y-44789165D01*
X72368160Y-44782852D01*
X72372544Y-44776941D01*
X72377487Y-44771487D01*
X72382941Y-44766544D01*
X72388852Y-44762160D01*
X72395165Y-44758376D01*
X72401819Y-44755229D01*
X72408749Y-44752749D01*
X72415888Y-44750961D01*
X72423169Y-44749881D01*
X72430520Y-44749520D01*
X73755520Y-44749520D01*
X73762871Y-44749881D01*
G37*
G36*
X73762871Y-45249881D02*
G01*
X73770152Y-45250961D01*
X73777291Y-45252749D01*
X73784221Y-45255229D01*
X73790875Y-45258376D01*
X73797188Y-45262160D01*
X73803099Y-45266544D01*
X73808553Y-45271487D01*
X73813496Y-45276941D01*
X73817880Y-45282852D01*
X73821664Y-45289165D01*
X73824811Y-45295819D01*
X73827291Y-45302749D01*
X73829079Y-45309888D01*
X73830159Y-45317169D01*
X73830520Y-45324520D01*
X73830520Y-45474520D01*
X73830159Y-45481871D01*
X73829079Y-45489152D01*
X73827291Y-45496291D01*
X73824811Y-45503221D01*
X73821664Y-45509875D01*
X73817880Y-45516188D01*
X73813496Y-45522099D01*
X73808553Y-45527553D01*
X73803099Y-45532496D01*
X73797188Y-45536880D01*
X73790875Y-45540664D01*
X73784221Y-45543811D01*
X73777291Y-45546291D01*
X73770152Y-45548079D01*
X73762871Y-45549159D01*
X73755520Y-45549520D01*
X72430520Y-45549520D01*
X72423169Y-45549159D01*
X72415888Y-45548079D01*
X72408749Y-45546291D01*
X72401819Y-45543811D01*
X72395165Y-45540664D01*
X72388852Y-45536880D01*
X72382941Y-45532496D01*
X72377487Y-45527553D01*
X72372544Y-45522099D01*
X72368160Y-45516188D01*
X72364376Y-45509875D01*
X72361229Y-45503221D01*
X72358749Y-45496291D01*
X72356961Y-45489152D01*
X72355881Y-45481871D01*
X72355520Y-45474520D01*
X72355520Y-45324520D01*
X72355881Y-45317169D01*
X72356961Y-45309888D01*
X72358749Y-45302749D01*
X72361229Y-45295819D01*
X72364376Y-45289165D01*
X72368160Y-45282852D01*
X72372544Y-45276941D01*
X72377487Y-45271487D01*
X72382941Y-45266544D01*
X72388852Y-45262160D01*
X72395165Y-45258376D01*
X72401819Y-45255229D01*
X72408749Y-45252749D01*
X72415888Y-45250961D01*
X72423169Y-45249881D01*
X72430520Y-45249520D01*
X73755520Y-45249520D01*
X73762871Y-45249881D01*
G37*
G36*
X73762871Y-45749881D02*
G01*
X73770152Y-45750961D01*
X73777291Y-45752749D01*
X73784221Y-45755229D01*
X73790875Y-45758376D01*
X73797188Y-45762160D01*
X73803099Y-45766544D01*
X73808553Y-45771487D01*
X73813496Y-45776941D01*
X73817880Y-45782852D01*
X73821664Y-45789165D01*
X73824811Y-45795819D01*
X73827291Y-45802749D01*
X73829079Y-45809888D01*
X73830159Y-45817169D01*
X73830520Y-45824520D01*
X73830520Y-45974520D01*
X73830159Y-45981871D01*
X73829079Y-45989152D01*
X73827291Y-45996291D01*
X73824811Y-46003221D01*
X73821664Y-46009875D01*
X73817880Y-46016188D01*
X73813496Y-46022099D01*
X73808553Y-46027553D01*
X73803099Y-46032496D01*
X73797188Y-46036880D01*
X73790875Y-46040664D01*
X73784221Y-46043811D01*
X73777291Y-46046291D01*
X73770152Y-46048079D01*
X73762871Y-46049159D01*
X73755520Y-46049520D01*
X72430520Y-46049520D01*
X72423169Y-46049159D01*
X72415888Y-46048079D01*
X72408749Y-46046291D01*
X72401819Y-46043811D01*
X72395165Y-46040664D01*
X72388852Y-46036880D01*
X72382941Y-46032496D01*
X72377487Y-46027553D01*
X72372544Y-46022099D01*
X72368160Y-46016188D01*
X72364376Y-46009875D01*
X72361229Y-46003221D01*
X72358749Y-45996291D01*
X72356961Y-45989152D01*
X72355881Y-45981871D01*
X72355520Y-45974520D01*
X72355520Y-45824520D01*
X72355881Y-45817169D01*
X72356961Y-45809888D01*
X72358749Y-45802749D01*
X72361229Y-45795819D01*
X72364376Y-45789165D01*
X72368160Y-45782852D01*
X72372544Y-45776941D01*
X72377487Y-45771487D01*
X72382941Y-45766544D01*
X72388852Y-45762160D01*
X72395165Y-45758376D01*
X72401819Y-45755229D01*
X72408749Y-45752749D01*
X72415888Y-45750961D01*
X72423169Y-45749881D01*
X72430520Y-45749520D01*
X73755520Y-45749520D01*
X73762871Y-45749881D01*
G37*
G36*
X71762871Y-46574881D02*
G01*
X71770152Y-46575961D01*
X71777291Y-46577749D01*
X71784221Y-46580229D01*
X71790875Y-46583376D01*
X71797188Y-46587160D01*
X71803099Y-46591544D01*
X71808553Y-46596487D01*
X71813496Y-46601941D01*
X71817880Y-46607852D01*
X71821664Y-46614165D01*
X71824811Y-46620819D01*
X71827291Y-46627749D01*
X71829079Y-46634888D01*
X71830159Y-46642169D01*
X71830520Y-46649520D01*
X71830520Y-47974520D01*
X71830159Y-47981871D01*
X71829079Y-47989152D01*
X71827291Y-47996291D01*
X71824811Y-48003221D01*
X71821664Y-48009875D01*
X71817880Y-48016188D01*
X71813496Y-48022099D01*
X71808553Y-48027553D01*
X71803099Y-48032496D01*
X71797188Y-48036880D01*
X71790875Y-48040664D01*
X71784221Y-48043811D01*
X71777291Y-48046291D01*
X71770152Y-48048079D01*
X71762871Y-48049159D01*
X71755520Y-48049520D01*
X71605520Y-48049520D01*
X71598169Y-48049159D01*
X71590888Y-48048079D01*
X71583749Y-48046291D01*
X71576819Y-48043811D01*
X71570165Y-48040664D01*
X71563852Y-48036880D01*
X71557941Y-48032496D01*
X71552487Y-48027553D01*
X71547544Y-48022099D01*
X71543160Y-48016188D01*
X71539376Y-48009875D01*
X71536229Y-48003221D01*
X71533749Y-47996291D01*
X71531961Y-47989152D01*
X71530881Y-47981871D01*
X71530520Y-47974520D01*
X71530520Y-46649520D01*
X71530881Y-46642169D01*
X71531961Y-46634888D01*
X71533749Y-46627749D01*
X71536229Y-46620819D01*
X71539376Y-46614165D01*
X71543160Y-46607852D01*
X71547544Y-46601941D01*
X71552487Y-46596487D01*
X71557941Y-46591544D01*
X71563852Y-46587160D01*
X71570165Y-46583376D01*
X71576819Y-46580229D01*
X71583749Y-46577749D01*
X71590888Y-46575961D01*
X71598169Y-46574881D01*
X71605520Y-46574520D01*
X71755520Y-46574520D01*
X71762871Y-46574881D01*
G37*
G36*
X71262871Y-46574881D02*
G01*
X71270152Y-46575961D01*
X71277291Y-46577749D01*
X71284221Y-46580229D01*
X71290875Y-46583376D01*
X71297188Y-46587160D01*
X71303099Y-46591544D01*
X71308553Y-46596487D01*
X71313496Y-46601941D01*
X71317880Y-46607852D01*
X71321664Y-46614165D01*
X71324811Y-46620819D01*
X71327291Y-46627749D01*
X71329079Y-46634888D01*
X71330159Y-46642169D01*
X71330520Y-46649520D01*
X71330520Y-47974520D01*
X71330159Y-47981871D01*
X71329079Y-47989152D01*
X71327291Y-47996291D01*
X71324811Y-48003221D01*
X71321664Y-48009875D01*
X71317880Y-48016188D01*
X71313496Y-48022099D01*
X71308553Y-48027553D01*
X71303099Y-48032496D01*
X71297188Y-48036880D01*
X71290875Y-48040664D01*
X71284221Y-48043811D01*
X71277291Y-48046291D01*
X71270152Y-48048079D01*
X71262871Y-48049159D01*
X71255520Y-48049520D01*
X71105520Y-48049520D01*
X71098169Y-48049159D01*
X71090888Y-48048079D01*
X71083749Y-48046291D01*
X71076819Y-48043811D01*
X71070165Y-48040664D01*
X71063852Y-48036880D01*
X71057941Y-48032496D01*
X71052487Y-48027553D01*
X71047544Y-48022099D01*
X71043160Y-48016188D01*
X71039376Y-48009875D01*
X71036229Y-48003221D01*
X71033749Y-47996291D01*
X71031961Y-47989152D01*
X71030881Y-47981871D01*
X71030520Y-47974520D01*
X71030520Y-46649520D01*
X71030881Y-46642169D01*
X71031961Y-46634888D01*
X71033749Y-46627749D01*
X71036229Y-46620819D01*
X71039376Y-46614165D01*
X71043160Y-46607852D01*
X71047544Y-46601941D01*
X71052487Y-46596487D01*
X71057941Y-46591544D01*
X71063852Y-46587160D01*
X71070165Y-46583376D01*
X71076819Y-46580229D01*
X71083749Y-46577749D01*
X71090888Y-46575961D01*
X71098169Y-46574881D01*
X71105520Y-46574520D01*
X71255520Y-46574520D01*
X71262871Y-46574881D01*
G37*
G36*
X70762871Y-46574881D02*
G01*
X70770152Y-46575961D01*
X70777291Y-46577749D01*
X70784221Y-46580229D01*
X70790875Y-46583376D01*
X70797188Y-46587160D01*
X70803099Y-46591544D01*
X70808553Y-46596487D01*
X70813496Y-46601941D01*
X70817880Y-46607852D01*
X70821664Y-46614165D01*
X70824811Y-46620819D01*
X70827291Y-46627749D01*
X70829079Y-46634888D01*
X70830159Y-46642169D01*
X70830520Y-46649520D01*
X70830520Y-47974520D01*
X70830159Y-47981871D01*
X70829079Y-47989152D01*
X70827291Y-47996291D01*
X70824811Y-48003221D01*
X70821664Y-48009875D01*
X70817880Y-48016188D01*
X70813496Y-48022099D01*
X70808553Y-48027553D01*
X70803099Y-48032496D01*
X70797188Y-48036880D01*
X70790875Y-48040664D01*
X70784221Y-48043811D01*
X70777291Y-48046291D01*
X70770152Y-48048079D01*
X70762871Y-48049159D01*
X70755520Y-48049520D01*
X70605520Y-48049520D01*
X70598169Y-48049159D01*
X70590888Y-48048079D01*
X70583749Y-48046291D01*
X70576819Y-48043811D01*
X70570165Y-48040664D01*
X70563852Y-48036880D01*
X70557941Y-48032496D01*
X70552487Y-48027553D01*
X70547544Y-48022099D01*
X70543160Y-48016188D01*
X70539376Y-48009875D01*
X70536229Y-48003221D01*
X70533749Y-47996291D01*
X70531961Y-47989152D01*
X70530881Y-47981871D01*
X70530520Y-47974520D01*
X70530520Y-46649520D01*
X70530881Y-46642169D01*
X70531961Y-46634888D01*
X70533749Y-46627749D01*
X70536229Y-46620819D01*
X70539376Y-46614165D01*
X70543160Y-46607852D01*
X70547544Y-46601941D01*
X70552487Y-46596487D01*
X70557941Y-46591544D01*
X70563852Y-46587160D01*
X70570165Y-46583376D01*
X70576819Y-46580229D01*
X70583749Y-46577749D01*
X70590888Y-46575961D01*
X70598169Y-46574881D01*
X70605520Y-46574520D01*
X70755520Y-46574520D01*
X70762871Y-46574881D01*
G37*
G36*
X70262871Y-46574881D02*
G01*
X70270152Y-46575961D01*
X70277291Y-46577749D01*
X70284221Y-46580229D01*
X70290875Y-46583376D01*
X70297188Y-46587160D01*
X70303099Y-46591544D01*
X70308553Y-46596487D01*
X70313496Y-46601941D01*
X70317880Y-46607852D01*
X70321664Y-46614165D01*
X70324811Y-46620819D01*
X70327291Y-46627749D01*
X70329079Y-46634888D01*
X70330159Y-46642169D01*
X70330520Y-46649520D01*
X70330520Y-47974520D01*
X70330159Y-47981871D01*
X70329079Y-47989152D01*
X70327291Y-47996291D01*
X70324811Y-48003221D01*
X70321664Y-48009875D01*
X70317880Y-48016188D01*
X70313496Y-48022099D01*
X70308553Y-48027553D01*
X70303099Y-48032496D01*
X70297188Y-48036880D01*
X70290875Y-48040664D01*
X70284221Y-48043811D01*
X70277291Y-48046291D01*
X70270152Y-48048079D01*
X70262871Y-48049159D01*
X70255520Y-48049520D01*
X70105520Y-48049520D01*
X70098169Y-48049159D01*
X70090888Y-48048079D01*
X70083749Y-48046291D01*
X70076819Y-48043811D01*
X70070165Y-48040664D01*
X70063852Y-48036880D01*
X70057941Y-48032496D01*
X70052487Y-48027553D01*
X70047544Y-48022099D01*
X70043160Y-48016188D01*
X70039376Y-48009875D01*
X70036229Y-48003221D01*
X70033749Y-47996291D01*
X70031961Y-47989152D01*
X70030881Y-47981871D01*
X70030520Y-47974520D01*
X70030520Y-46649520D01*
X70030881Y-46642169D01*
X70031961Y-46634888D01*
X70033749Y-46627749D01*
X70036229Y-46620819D01*
X70039376Y-46614165D01*
X70043160Y-46607852D01*
X70047544Y-46601941D01*
X70052487Y-46596487D01*
X70057941Y-46591544D01*
X70063852Y-46587160D01*
X70070165Y-46583376D01*
X70076819Y-46580229D01*
X70083749Y-46577749D01*
X70090888Y-46575961D01*
X70098169Y-46574881D01*
X70105520Y-46574520D01*
X70255520Y-46574520D01*
X70262871Y-46574881D01*
G37*
G36*
X69762871Y-46574881D02*
G01*
X69770152Y-46575961D01*
X69777291Y-46577749D01*
X69784221Y-46580229D01*
X69790875Y-46583376D01*
X69797188Y-46587160D01*
X69803099Y-46591544D01*
X69808553Y-46596487D01*
X69813496Y-46601941D01*
X69817880Y-46607852D01*
X69821664Y-46614165D01*
X69824811Y-46620819D01*
X69827291Y-46627749D01*
X69829079Y-46634888D01*
X69830159Y-46642169D01*
X69830520Y-46649520D01*
X69830520Y-47974520D01*
X69830159Y-47981871D01*
X69829079Y-47989152D01*
X69827291Y-47996291D01*
X69824811Y-48003221D01*
X69821664Y-48009875D01*
X69817880Y-48016188D01*
X69813496Y-48022099D01*
X69808553Y-48027553D01*
X69803099Y-48032496D01*
X69797188Y-48036880D01*
X69790875Y-48040664D01*
X69784221Y-48043811D01*
X69777291Y-48046291D01*
X69770152Y-48048079D01*
X69762871Y-48049159D01*
X69755520Y-48049520D01*
X69605520Y-48049520D01*
X69598169Y-48049159D01*
X69590888Y-48048079D01*
X69583749Y-48046291D01*
X69576819Y-48043811D01*
X69570165Y-48040664D01*
X69563852Y-48036880D01*
X69557941Y-48032496D01*
X69552487Y-48027553D01*
X69547544Y-48022099D01*
X69543160Y-48016188D01*
X69539376Y-48009875D01*
X69536229Y-48003221D01*
X69533749Y-47996291D01*
X69531961Y-47989152D01*
X69530881Y-47981871D01*
X69530520Y-47974520D01*
X69530520Y-46649520D01*
X69530881Y-46642169D01*
X69531961Y-46634888D01*
X69533749Y-46627749D01*
X69536229Y-46620819D01*
X69539376Y-46614165D01*
X69543160Y-46607852D01*
X69547544Y-46601941D01*
X69552487Y-46596487D01*
X69557941Y-46591544D01*
X69563852Y-46587160D01*
X69570165Y-46583376D01*
X69576819Y-46580229D01*
X69583749Y-46577749D01*
X69590888Y-46575961D01*
X69598169Y-46574881D01*
X69605520Y-46574520D01*
X69755520Y-46574520D01*
X69762871Y-46574881D01*
G37*
G36*
X69262871Y-46574881D02*
G01*
X69270152Y-46575961D01*
X69277291Y-46577749D01*
X69284221Y-46580229D01*
X69290875Y-46583376D01*
X69297188Y-46587160D01*
X69303099Y-46591544D01*
X69308553Y-46596487D01*
X69313496Y-46601941D01*
X69317880Y-46607852D01*
X69321664Y-46614165D01*
X69324811Y-46620819D01*
X69327291Y-46627749D01*
X69329079Y-46634888D01*
X69330159Y-46642169D01*
X69330520Y-46649520D01*
X69330520Y-47974520D01*
X69330159Y-47981871D01*
X69329079Y-47989152D01*
X69327291Y-47996291D01*
X69324811Y-48003221D01*
X69321664Y-48009875D01*
X69317880Y-48016188D01*
X69313496Y-48022099D01*
X69308553Y-48027553D01*
X69303099Y-48032496D01*
X69297188Y-48036880D01*
X69290875Y-48040664D01*
X69284221Y-48043811D01*
X69277291Y-48046291D01*
X69270152Y-48048079D01*
X69262871Y-48049159D01*
X69255520Y-48049520D01*
X69105520Y-48049520D01*
X69098169Y-48049159D01*
X69090888Y-48048079D01*
X69083749Y-48046291D01*
X69076819Y-48043811D01*
X69070165Y-48040664D01*
X69063852Y-48036880D01*
X69057941Y-48032496D01*
X69052487Y-48027553D01*
X69047544Y-48022099D01*
X69043160Y-48016188D01*
X69039376Y-48009875D01*
X69036229Y-48003221D01*
X69033749Y-47996291D01*
X69031961Y-47989152D01*
X69030881Y-47981871D01*
X69030520Y-47974520D01*
X69030520Y-46649520D01*
X69030881Y-46642169D01*
X69031961Y-46634888D01*
X69033749Y-46627749D01*
X69036229Y-46620819D01*
X69039376Y-46614165D01*
X69043160Y-46607852D01*
X69047544Y-46601941D01*
X69052487Y-46596487D01*
X69057941Y-46591544D01*
X69063852Y-46587160D01*
X69070165Y-46583376D01*
X69076819Y-46580229D01*
X69083749Y-46577749D01*
X69090888Y-46575961D01*
X69098169Y-46574881D01*
X69105520Y-46574520D01*
X69255520Y-46574520D01*
X69262871Y-46574881D01*
G37*
G36*
X68762871Y-46574881D02*
G01*
X68770152Y-46575961D01*
X68777291Y-46577749D01*
X68784221Y-46580229D01*
X68790875Y-46583376D01*
X68797188Y-46587160D01*
X68803099Y-46591544D01*
X68808553Y-46596487D01*
X68813496Y-46601941D01*
X68817880Y-46607852D01*
X68821664Y-46614165D01*
X68824811Y-46620819D01*
X68827291Y-46627749D01*
X68829079Y-46634888D01*
X68830159Y-46642169D01*
X68830520Y-46649520D01*
X68830520Y-47974520D01*
X68830159Y-47981871D01*
X68829079Y-47989152D01*
X68827291Y-47996291D01*
X68824811Y-48003221D01*
X68821664Y-48009875D01*
X68817880Y-48016188D01*
X68813496Y-48022099D01*
X68808553Y-48027553D01*
X68803099Y-48032496D01*
X68797188Y-48036880D01*
X68790875Y-48040664D01*
X68784221Y-48043811D01*
X68777291Y-48046291D01*
X68770152Y-48048079D01*
X68762871Y-48049159D01*
X68755520Y-48049520D01*
X68605520Y-48049520D01*
X68598169Y-48049159D01*
X68590888Y-48048079D01*
X68583749Y-48046291D01*
X68576819Y-48043811D01*
X68570165Y-48040664D01*
X68563852Y-48036880D01*
X68557941Y-48032496D01*
X68552487Y-48027553D01*
X68547544Y-48022099D01*
X68543160Y-48016188D01*
X68539376Y-48009875D01*
X68536229Y-48003221D01*
X68533749Y-47996291D01*
X68531961Y-47989152D01*
X68530881Y-47981871D01*
X68530520Y-47974520D01*
X68530520Y-46649520D01*
X68530881Y-46642169D01*
X68531961Y-46634888D01*
X68533749Y-46627749D01*
X68536229Y-46620819D01*
X68539376Y-46614165D01*
X68543160Y-46607852D01*
X68547544Y-46601941D01*
X68552487Y-46596487D01*
X68557941Y-46591544D01*
X68563852Y-46587160D01*
X68570165Y-46583376D01*
X68576819Y-46580229D01*
X68583749Y-46577749D01*
X68590888Y-46575961D01*
X68598169Y-46574881D01*
X68605520Y-46574520D01*
X68755520Y-46574520D01*
X68762871Y-46574881D01*
G37*
G36*
X68262871Y-46574881D02*
G01*
X68270152Y-46575961D01*
X68277291Y-46577749D01*
X68284221Y-46580229D01*
X68290875Y-46583376D01*
X68297188Y-46587160D01*
X68303099Y-46591544D01*
X68308553Y-46596487D01*
X68313496Y-46601941D01*
X68317880Y-46607852D01*
X68321664Y-46614165D01*
X68324811Y-46620819D01*
X68327291Y-46627749D01*
X68329079Y-46634888D01*
X68330159Y-46642169D01*
X68330520Y-46649520D01*
X68330520Y-47974520D01*
X68330159Y-47981871D01*
X68329079Y-47989152D01*
X68327291Y-47996291D01*
X68324811Y-48003221D01*
X68321664Y-48009875D01*
X68317880Y-48016188D01*
X68313496Y-48022099D01*
X68308553Y-48027553D01*
X68303099Y-48032496D01*
X68297188Y-48036880D01*
X68290875Y-48040664D01*
X68284221Y-48043811D01*
X68277291Y-48046291D01*
X68270152Y-48048079D01*
X68262871Y-48049159D01*
X68255520Y-48049520D01*
X68105520Y-48049520D01*
X68098169Y-48049159D01*
X68090888Y-48048079D01*
X68083749Y-48046291D01*
X68076819Y-48043811D01*
X68070165Y-48040664D01*
X68063852Y-48036880D01*
X68057941Y-48032496D01*
X68052487Y-48027553D01*
X68047544Y-48022099D01*
X68043160Y-48016188D01*
X68039376Y-48009875D01*
X68036229Y-48003221D01*
X68033749Y-47996291D01*
X68031961Y-47989152D01*
X68030881Y-47981871D01*
X68030520Y-47974520D01*
X68030520Y-46649520D01*
X68030881Y-46642169D01*
X68031961Y-46634888D01*
X68033749Y-46627749D01*
X68036229Y-46620819D01*
X68039376Y-46614165D01*
X68043160Y-46607852D01*
X68047544Y-46601941D01*
X68052487Y-46596487D01*
X68057941Y-46591544D01*
X68063852Y-46587160D01*
X68070165Y-46583376D01*
X68076819Y-46580229D01*
X68083749Y-46577749D01*
X68090888Y-46575961D01*
X68098169Y-46574881D01*
X68105520Y-46574520D01*
X68255520Y-46574520D01*
X68262871Y-46574881D01*
G37*
G36*
X67762871Y-46574881D02*
G01*
X67770152Y-46575961D01*
X67777291Y-46577749D01*
X67784221Y-46580229D01*
X67790875Y-46583376D01*
X67797188Y-46587160D01*
X67803099Y-46591544D01*
X67808553Y-46596487D01*
X67813496Y-46601941D01*
X67817880Y-46607852D01*
X67821664Y-46614165D01*
X67824811Y-46620819D01*
X67827291Y-46627749D01*
X67829079Y-46634888D01*
X67830159Y-46642169D01*
X67830520Y-46649520D01*
X67830520Y-47974520D01*
X67830159Y-47981871D01*
X67829079Y-47989152D01*
X67827291Y-47996291D01*
X67824811Y-48003221D01*
X67821664Y-48009875D01*
X67817880Y-48016188D01*
X67813496Y-48022099D01*
X67808553Y-48027553D01*
X67803099Y-48032496D01*
X67797188Y-48036880D01*
X67790875Y-48040664D01*
X67784221Y-48043811D01*
X67777291Y-48046291D01*
X67770152Y-48048079D01*
X67762871Y-48049159D01*
X67755520Y-48049520D01*
X67605520Y-48049520D01*
X67598169Y-48049159D01*
X67590888Y-48048079D01*
X67583749Y-48046291D01*
X67576819Y-48043811D01*
X67570165Y-48040664D01*
X67563852Y-48036880D01*
X67557941Y-48032496D01*
X67552487Y-48027553D01*
X67547544Y-48022099D01*
X67543160Y-48016188D01*
X67539376Y-48009875D01*
X67536229Y-48003221D01*
X67533749Y-47996291D01*
X67531961Y-47989152D01*
X67530881Y-47981871D01*
X67530520Y-47974520D01*
X67530520Y-46649520D01*
X67530881Y-46642169D01*
X67531961Y-46634888D01*
X67533749Y-46627749D01*
X67536229Y-46620819D01*
X67539376Y-46614165D01*
X67543160Y-46607852D01*
X67547544Y-46601941D01*
X67552487Y-46596487D01*
X67557941Y-46591544D01*
X67563852Y-46587160D01*
X67570165Y-46583376D01*
X67576819Y-46580229D01*
X67583749Y-46577749D01*
X67590888Y-46575961D01*
X67598169Y-46574881D01*
X67605520Y-46574520D01*
X67755520Y-46574520D01*
X67762871Y-46574881D01*
G37*
G36*
X67262871Y-46574881D02*
G01*
X67270152Y-46575961D01*
X67277291Y-46577749D01*
X67284221Y-46580229D01*
X67290875Y-46583376D01*
X67297188Y-46587160D01*
X67303099Y-46591544D01*
X67308553Y-46596487D01*
X67313496Y-46601941D01*
X67317880Y-46607852D01*
X67321664Y-46614165D01*
X67324811Y-46620819D01*
X67327291Y-46627749D01*
X67329079Y-46634888D01*
X67330159Y-46642169D01*
X67330520Y-46649520D01*
X67330520Y-47974520D01*
X67330159Y-47981871D01*
X67329079Y-47989152D01*
X67327291Y-47996291D01*
X67324811Y-48003221D01*
X67321664Y-48009875D01*
X67317880Y-48016188D01*
X67313496Y-48022099D01*
X67308553Y-48027553D01*
X67303099Y-48032496D01*
X67297188Y-48036880D01*
X67290875Y-48040664D01*
X67284221Y-48043811D01*
X67277291Y-48046291D01*
X67270152Y-48048079D01*
X67262871Y-48049159D01*
X67255520Y-48049520D01*
X67105520Y-48049520D01*
X67098169Y-48049159D01*
X67090888Y-48048079D01*
X67083749Y-48046291D01*
X67076819Y-48043811D01*
X67070165Y-48040664D01*
X67063852Y-48036880D01*
X67057941Y-48032496D01*
X67052487Y-48027553D01*
X67047544Y-48022099D01*
X67043160Y-48016188D01*
X67039376Y-48009875D01*
X67036229Y-48003221D01*
X67033749Y-47996291D01*
X67031961Y-47989152D01*
X67030881Y-47981871D01*
X67030520Y-47974520D01*
X67030520Y-46649520D01*
X67030881Y-46642169D01*
X67031961Y-46634888D01*
X67033749Y-46627749D01*
X67036229Y-46620819D01*
X67039376Y-46614165D01*
X67043160Y-46607852D01*
X67047544Y-46601941D01*
X67052487Y-46596487D01*
X67057941Y-46591544D01*
X67063852Y-46587160D01*
X67070165Y-46583376D01*
X67076819Y-46580229D01*
X67083749Y-46577749D01*
X67090888Y-46575961D01*
X67098169Y-46574881D01*
X67105520Y-46574520D01*
X67255520Y-46574520D01*
X67262871Y-46574881D01*
G37*
G36*
X66762871Y-46574881D02*
G01*
X66770152Y-46575961D01*
X66777291Y-46577749D01*
X66784221Y-46580229D01*
X66790875Y-46583376D01*
X66797188Y-46587160D01*
X66803099Y-46591544D01*
X66808553Y-46596487D01*
X66813496Y-46601941D01*
X66817880Y-46607852D01*
X66821664Y-46614165D01*
X66824811Y-46620819D01*
X66827291Y-46627749D01*
X66829079Y-46634888D01*
X66830159Y-46642169D01*
X66830520Y-46649520D01*
X66830520Y-47974520D01*
X66830159Y-47981871D01*
X66829079Y-47989152D01*
X66827291Y-47996291D01*
X66824811Y-48003221D01*
X66821664Y-48009875D01*
X66817880Y-48016188D01*
X66813496Y-48022099D01*
X66808553Y-48027553D01*
X66803099Y-48032496D01*
X66797188Y-48036880D01*
X66790875Y-48040664D01*
X66784221Y-48043811D01*
X66777291Y-48046291D01*
X66770152Y-48048079D01*
X66762871Y-48049159D01*
X66755520Y-48049520D01*
X66605520Y-48049520D01*
X66598169Y-48049159D01*
X66590888Y-48048079D01*
X66583749Y-48046291D01*
X66576819Y-48043811D01*
X66570165Y-48040664D01*
X66563852Y-48036880D01*
X66557941Y-48032496D01*
X66552487Y-48027553D01*
X66547544Y-48022099D01*
X66543160Y-48016188D01*
X66539376Y-48009875D01*
X66536229Y-48003221D01*
X66533749Y-47996291D01*
X66531961Y-47989152D01*
X66530881Y-47981871D01*
X66530520Y-47974520D01*
X66530520Y-46649520D01*
X66530881Y-46642169D01*
X66531961Y-46634888D01*
X66533749Y-46627749D01*
X66536229Y-46620819D01*
X66539376Y-46614165D01*
X66543160Y-46607852D01*
X66547544Y-46601941D01*
X66552487Y-46596487D01*
X66557941Y-46591544D01*
X66563852Y-46587160D01*
X66570165Y-46583376D01*
X66576819Y-46580229D01*
X66583749Y-46577749D01*
X66590888Y-46575961D01*
X66598169Y-46574881D01*
X66605520Y-46574520D01*
X66755520Y-46574520D01*
X66762871Y-46574881D01*
G37*
G36*
X66262871Y-46574881D02*
G01*
X66270152Y-46575961D01*
X66277291Y-46577749D01*
X66284221Y-46580229D01*
X66290875Y-46583376D01*
X66297188Y-46587160D01*
X66303099Y-46591544D01*
X66308553Y-46596487D01*
X66313496Y-46601941D01*
X66317880Y-46607852D01*
X66321664Y-46614165D01*
X66324811Y-46620819D01*
X66327291Y-46627749D01*
X66329079Y-46634888D01*
X66330159Y-46642169D01*
X66330520Y-46649520D01*
X66330520Y-47974520D01*
X66330159Y-47981871D01*
X66329079Y-47989152D01*
X66327291Y-47996291D01*
X66324811Y-48003221D01*
X66321664Y-48009875D01*
X66317880Y-48016188D01*
X66313496Y-48022099D01*
X66308553Y-48027553D01*
X66303099Y-48032496D01*
X66297188Y-48036880D01*
X66290875Y-48040664D01*
X66284221Y-48043811D01*
X66277291Y-48046291D01*
X66270152Y-48048079D01*
X66262871Y-48049159D01*
X66255520Y-48049520D01*
X66105520Y-48049520D01*
X66098169Y-48049159D01*
X66090888Y-48048079D01*
X66083749Y-48046291D01*
X66076819Y-48043811D01*
X66070165Y-48040664D01*
X66063852Y-48036880D01*
X66057941Y-48032496D01*
X66052487Y-48027553D01*
X66047544Y-48022099D01*
X66043160Y-48016188D01*
X66039376Y-48009875D01*
X66036229Y-48003221D01*
X66033749Y-47996291D01*
X66031961Y-47989152D01*
X66030881Y-47981871D01*
X66030520Y-47974520D01*
X66030520Y-46649520D01*
X66030881Y-46642169D01*
X66031961Y-46634888D01*
X66033749Y-46627749D01*
X66036229Y-46620819D01*
X66039376Y-46614165D01*
X66043160Y-46607852D01*
X66047544Y-46601941D01*
X66052487Y-46596487D01*
X66057941Y-46591544D01*
X66063852Y-46587160D01*
X66070165Y-46583376D01*
X66076819Y-46580229D01*
X66083749Y-46577749D01*
X66090888Y-46575961D01*
X66098169Y-46574881D01*
X66105520Y-46574520D01*
X66255520Y-46574520D01*
X66262871Y-46574881D01*
G37*
G36*
X65437871Y-45749881D02*
G01*
X65445152Y-45750961D01*
X65452291Y-45752749D01*
X65459221Y-45755229D01*
X65465875Y-45758376D01*
X65472188Y-45762160D01*
X65478099Y-45766544D01*
X65483553Y-45771487D01*
X65488496Y-45776941D01*
X65492880Y-45782852D01*
X65496664Y-45789165D01*
X65499811Y-45795819D01*
X65502291Y-45802749D01*
X65504079Y-45809888D01*
X65505159Y-45817169D01*
X65505520Y-45824520D01*
X65505520Y-45974520D01*
X65505159Y-45981871D01*
X65504079Y-45989152D01*
X65502291Y-45996291D01*
X65499811Y-46003221D01*
X65496664Y-46009875D01*
X65492880Y-46016188D01*
X65488496Y-46022099D01*
X65483553Y-46027553D01*
X65478099Y-46032496D01*
X65472188Y-46036880D01*
X65465875Y-46040664D01*
X65459221Y-46043811D01*
X65452291Y-46046291D01*
X65445152Y-46048079D01*
X65437871Y-46049159D01*
X65430520Y-46049520D01*
X64105520Y-46049520D01*
X64098169Y-46049159D01*
X64090888Y-46048079D01*
X64083749Y-46046291D01*
X64076819Y-46043811D01*
X64070165Y-46040664D01*
X64063852Y-46036880D01*
X64057941Y-46032496D01*
X64052487Y-46027553D01*
X64047544Y-46022099D01*
X64043160Y-46016188D01*
X64039376Y-46009875D01*
X64036229Y-46003221D01*
X64033749Y-45996291D01*
X64031961Y-45989152D01*
X64030881Y-45981871D01*
X64030520Y-45974520D01*
X64030520Y-45824520D01*
X64030881Y-45817169D01*
X64031961Y-45809888D01*
X64033749Y-45802749D01*
X64036229Y-45795819D01*
X64039376Y-45789165D01*
X64043160Y-45782852D01*
X64047544Y-45776941D01*
X64052487Y-45771487D01*
X64057941Y-45766544D01*
X64063852Y-45762160D01*
X64070165Y-45758376D01*
X64076819Y-45755229D01*
X64083749Y-45752749D01*
X64090888Y-45750961D01*
X64098169Y-45749881D01*
X64105520Y-45749520D01*
X65430520Y-45749520D01*
X65437871Y-45749881D01*
G37*
G36*
X65437871Y-45249881D02*
G01*
X65445152Y-45250961D01*
X65452291Y-45252749D01*
X65459221Y-45255229D01*
X65465875Y-45258376D01*
X65472188Y-45262160D01*
X65478099Y-45266544D01*
X65483553Y-45271487D01*
X65488496Y-45276941D01*
X65492880Y-45282852D01*
X65496664Y-45289165D01*
X65499811Y-45295819D01*
X65502291Y-45302749D01*
X65504079Y-45309888D01*
X65505159Y-45317169D01*
X65505520Y-45324520D01*
X65505520Y-45474520D01*
X65505159Y-45481871D01*
X65504079Y-45489152D01*
X65502291Y-45496291D01*
X65499811Y-45503221D01*
X65496664Y-45509875D01*
X65492880Y-45516188D01*
X65488496Y-45522099D01*
X65483553Y-45527553D01*
X65478099Y-45532496D01*
X65472188Y-45536880D01*
X65465875Y-45540664D01*
X65459221Y-45543811D01*
X65452291Y-45546291D01*
X65445152Y-45548079D01*
X65437871Y-45549159D01*
X65430520Y-45549520D01*
X64105520Y-45549520D01*
X64098169Y-45549159D01*
X64090888Y-45548079D01*
X64083749Y-45546291D01*
X64076819Y-45543811D01*
X64070165Y-45540664D01*
X64063852Y-45536880D01*
X64057941Y-45532496D01*
X64052487Y-45527553D01*
X64047544Y-45522099D01*
X64043160Y-45516188D01*
X64039376Y-45509875D01*
X64036229Y-45503221D01*
X64033749Y-45496291D01*
X64031961Y-45489152D01*
X64030881Y-45481871D01*
X64030520Y-45474520D01*
X64030520Y-45324520D01*
X64030881Y-45317169D01*
X64031961Y-45309888D01*
X64033749Y-45302749D01*
X64036229Y-45295819D01*
X64039376Y-45289165D01*
X64043160Y-45282852D01*
X64047544Y-45276941D01*
X64052487Y-45271487D01*
X64057941Y-45266544D01*
X64063852Y-45262160D01*
X64070165Y-45258376D01*
X64076819Y-45255229D01*
X64083749Y-45252749D01*
X64090888Y-45250961D01*
X64098169Y-45249881D01*
X64105520Y-45249520D01*
X65430520Y-45249520D01*
X65437871Y-45249881D01*
G37*
G36*
X65437871Y-44749881D02*
G01*
X65445152Y-44750961D01*
X65452291Y-44752749D01*
X65459221Y-44755229D01*
X65465875Y-44758376D01*
X65472188Y-44762160D01*
X65478099Y-44766544D01*
X65483553Y-44771487D01*
X65488496Y-44776941D01*
X65492880Y-44782852D01*
X65496664Y-44789165D01*
X65499811Y-44795819D01*
X65502291Y-44802749D01*
X65504079Y-44809888D01*
X65505159Y-44817169D01*
X65505520Y-44824520D01*
X65505520Y-44974520D01*
X65505159Y-44981871D01*
X65504079Y-44989152D01*
X65502291Y-44996291D01*
X65499811Y-45003221D01*
X65496664Y-45009875D01*
X65492880Y-45016188D01*
X65488496Y-45022099D01*
X65483553Y-45027553D01*
X65478099Y-45032496D01*
X65472188Y-45036880D01*
X65465875Y-45040664D01*
X65459221Y-45043811D01*
X65452291Y-45046291D01*
X65445152Y-45048079D01*
X65437871Y-45049159D01*
X65430520Y-45049520D01*
X64105520Y-45049520D01*
X64098169Y-45049159D01*
X64090888Y-45048079D01*
X64083749Y-45046291D01*
X64076819Y-45043811D01*
X64070165Y-45040664D01*
X64063852Y-45036880D01*
X64057941Y-45032496D01*
X64052487Y-45027553D01*
X64047544Y-45022099D01*
X64043160Y-45016188D01*
X64039376Y-45009875D01*
X64036229Y-45003221D01*
X64033749Y-44996291D01*
X64031961Y-44989152D01*
X64030881Y-44981871D01*
X64030520Y-44974520D01*
X64030520Y-44824520D01*
X64030881Y-44817169D01*
X64031961Y-44809888D01*
X64033749Y-44802749D01*
X64036229Y-44795819D01*
X64039376Y-44789165D01*
X64043160Y-44782852D01*
X64047544Y-44776941D01*
X64052487Y-44771487D01*
X64057941Y-44766544D01*
X64063852Y-44762160D01*
X64070165Y-44758376D01*
X64076819Y-44755229D01*
X64083749Y-44752749D01*
X64090888Y-44750961D01*
X64098169Y-44749881D01*
X64105520Y-44749520D01*
X65430520Y-44749520D01*
X65437871Y-44749881D01*
G37*
G36*
X65437871Y-44249881D02*
G01*
X65445152Y-44250961D01*
X65452291Y-44252749D01*
X65459221Y-44255229D01*
X65465875Y-44258376D01*
X65472188Y-44262160D01*
X65478099Y-44266544D01*
X65483553Y-44271487D01*
X65488496Y-44276941D01*
X65492880Y-44282852D01*
X65496664Y-44289165D01*
X65499811Y-44295819D01*
X65502291Y-44302749D01*
X65504079Y-44309888D01*
X65505159Y-44317169D01*
X65505520Y-44324520D01*
X65505520Y-44474520D01*
X65505159Y-44481871D01*
X65504079Y-44489152D01*
X65502291Y-44496291D01*
X65499811Y-44503221D01*
X65496664Y-44509875D01*
X65492880Y-44516188D01*
X65488496Y-44522099D01*
X65483553Y-44527553D01*
X65478099Y-44532496D01*
X65472188Y-44536880D01*
X65465875Y-44540664D01*
X65459221Y-44543811D01*
X65452291Y-44546291D01*
X65445152Y-44548079D01*
X65437871Y-44549159D01*
X65430520Y-44549520D01*
X64105520Y-44549520D01*
X64098169Y-44549159D01*
X64090888Y-44548079D01*
X64083749Y-44546291D01*
X64076819Y-44543811D01*
X64070165Y-44540664D01*
X64063852Y-44536880D01*
X64057941Y-44532496D01*
X64052487Y-44527553D01*
X64047544Y-44522099D01*
X64043160Y-44516188D01*
X64039376Y-44509875D01*
X64036229Y-44503221D01*
X64033749Y-44496291D01*
X64031961Y-44489152D01*
X64030881Y-44481871D01*
X64030520Y-44474520D01*
X64030520Y-44324520D01*
X64030881Y-44317169D01*
X64031961Y-44309888D01*
X64033749Y-44302749D01*
X64036229Y-44295819D01*
X64039376Y-44289165D01*
X64043160Y-44282852D01*
X64047544Y-44276941D01*
X64052487Y-44271487D01*
X64057941Y-44266544D01*
X64063852Y-44262160D01*
X64070165Y-44258376D01*
X64076819Y-44255229D01*
X64083749Y-44252749D01*
X64090888Y-44250961D01*
X64098169Y-44249881D01*
X64105520Y-44249520D01*
X65430520Y-44249520D01*
X65437871Y-44249881D01*
G37*
G36*
X65437871Y-43749881D02*
G01*
X65445152Y-43750961D01*
X65452291Y-43752749D01*
X65459221Y-43755229D01*
X65465875Y-43758376D01*
X65472188Y-43762160D01*
X65478099Y-43766544D01*
X65483553Y-43771487D01*
X65488496Y-43776941D01*
X65492880Y-43782852D01*
X65496664Y-43789165D01*
X65499811Y-43795819D01*
X65502291Y-43802749D01*
X65504079Y-43809888D01*
X65505159Y-43817169D01*
X65505520Y-43824520D01*
X65505520Y-43974520D01*
X65505159Y-43981871D01*
X65504079Y-43989152D01*
X65502291Y-43996291D01*
X65499811Y-44003221D01*
X65496664Y-44009875D01*
X65492880Y-44016188D01*
X65488496Y-44022099D01*
X65483553Y-44027553D01*
X65478099Y-44032496D01*
X65472188Y-44036880D01*
X65465875Y-44040664D01*
X65459221Y-44043811D01*
X65452291Y-44046291D01*
X65445152Y-44048079D01*
X65437871Y-44049159D01*
X65430520Y-44049520D01*
X64105520Y-44049520D01*
X64098169Y-44049159D01*
X64090888Y-44048079D01*
X64083749Y-44046291D01*
X64076819Y-44043811D01*
X64070165Y-44040664D01*
X64063852Y-44036880D01*
X64057941Y-44032496D01*
X64052487Y-44027553D01*
X64047544Y-44022099D01*
X64043160Y-44016188D01*
X64039376Y-44009875D01*
X64036229Y-44003221D01*
X64033749Y-43996291D01*
X64031961Y-43989152D01*
X64030881Y-43981871D01*
X64030520Y-43974520D01*
X64030520Y-43824520D01*
X64030881Y-43817169D01*
X64031961Y-43809888D01*
X64033749Y-43802749D01*
X64036229Y-43795819D01*
X64039376Y-43789165D01*
X64043160Y-43782852D01*
X64047544Y-43776941D01*
X64052487Y-43771487D01*
X64057941Y-43766544D01*
X64063852Y-43762160D01*
X64070165Y-43758376D01*
X64076819Y-43755229D01*
X64083749Y-43752749D01*
X64090888Y-43750961D01*
X64098169Y-43749881D01*
X64105520Y-43749520D01*
X65430520Y-43749520D01*
X65437871Y-43749881D01*
G37*
G36*
X65437871Y-43249881D02*
G01*
X65445152Y-43250961D01*
X65452291Y-43252749D01*
X65459221Y-43255229D01*
X65465875Y-43258376D01*
X65472188Y-43262160D01*
X65478099Y-43266544D01*
X65483553Y-43271487D01*
X65488496Y-43276941D01*
X65492880Y-43282852D01*
X65496664Y-43289165D01*
X65499811Y-43295819D01*
X65502291Y-43302749D01*
X65504079Y-43309888D01*
X65505159Y-43317169D01*
X65505520Y-43324520D01*
X65505520Y-43474520D01*
X65505159Y-43481871D01*
X65504079Y-43489152D01*
X65502291Y-43496291D01*
X65499811Y-43503221D01*
X65496664Y-43509875D01*
X65492880Y-43516188D01*
X65488496Y-43522099D01*
X65483553Y-43527553D01*
X65478099Y-43532496D01*
X65472188Y-43536880D01*
X65465875Y-43540664D01*
X65459221Y-43543811D01*
X65452291Y-43546291D01*
X65445152Y-43548079D01*
X65437871Y-43549159D01*
X65430520Y-43549520D01*
X64105520Y-43549520D01*
X64098169Y-43549159D01*
X64090888Y-43548079D01*
X64083749Y-43546291D01*
X64076819Y-43543811D01*
X64070165Y-43540664D01*
X64063852Y-43536880D01*
X64057941Y-43532496D01*
X64052487Y-43527553D01*
X64047544Y-43522099D01*
X64043160Y-43516188D01*
X64039376Y-43509875D01*
X64036229Y-43503221D01*
X64033749Y-43496291D01*
X64031961Y-43489152D01*
X64030881Y-43481871D01*
X64030520Y-43474520D01*
X64030520Y-43324520D01*
X64030881Y-43317169D01*
X64031961Y-43309888D01*
X64033749Y-43302749D01*
X64036229Y-43295819D01*
X64039376Y-43289165D01*
X64043160Y-43282852D01*
X64047544Y-43276941D01*
X64052487Y-43271487D01*
X64057941Y-43266544D01*
X64063852Y-43262160D01*
X64070165Y-43258376D01*
X64076819Y-43255229D01*
X64083749Y-43252749D01*
X64090888Y-43250961D01*
X64098169Y-43249881D01*
X64105520Y-43249520D01*
X65430520Y-43249520D01*
X65437871Y-43249881D01*
G37*
G36*
X65437871Y-42749881D02*
G01*
X65445152Y-42750961D01*
X65452291Y-42752749D01*
X65459221Y-42755229D01*
X65465875Y-42758376D01*
X65472188Y-42762160D01*
X65478099Y-42766544D01*
X65483553Y-42771487D01*
X65488496Y-42776941D01*
X65492880Y-42782852D01*
X65496664Y-42789165D01*
X65499811Y-42795819D01*
X65502291Y-42802749D01*
X65504079Y-42809888D01*
X65505159Y-42817169D01*
X65505520Y-42824520D01*
X65505520Y-42974520D01*
X65505159Y-42981871D01*
X65504079Y-42989152D01*
X65502291Y-42996291D01*
X65499811Y-43003221D01*
X65496664Y-43009875D01*
X65492880Y-43016188D01*
X65488496Y-43022099D01*
X65483553Y-43027553D01*
X65478099Y-43032496D01*
X65472188Y-43036880D01*
X65465875Y-43040664D01*
X65459221Y-43043811D01*
X65452291Y-43046291D01*
X65445152Y-43048079D01*
X65437871Y-43049159D01*
X65430520Y-43049520D01*
X64105520Y-43049520D01*
X64098169Y-43049159D01*
X64090888Y-43048079D01*
X64083749Y-43046291D01*
X64076819Y-43043811D01*
X64070165Y-43040664D01*
X64063852Y-43036880D01*
X64057941Y-43032496D01*
X64052487Y-43027553D01*
X64047544Y-43022099D01*
X64043160Y-43016188D01*
X64039376Y-43009875D01*
X64036229Y-43003221D01*
X64033749Y-42996291D01*
X64031961Y-42989152D01*
X64030881Y-42981871D01*
X64030520Y-42974520D01*
X64030520Y-42824520D01*
X64030881Y-42817169D01*
X64031961Y-42809888D01*
X64033749Y-42802749D01*
X64036229Y-42795819D01*
X64039376Y-42789165D01*
X64043160Y-42782852D01*
X64047544Y-42776941D01*
X64052487Y-42771487D01*
X64057941Y-42766544D01*
X64063852Y-42762160D01*
X64070165Y-42758376D01*
X64076819Y-42755229D01*
X64083749Y-42752749D01*
X64090888Y-42750961D01*
X64098169Y-42749881D01*
X64105520Y-42749520D01*
X65430520Y-42749520D01*
X65437871Y-42749881D01*
G37*
G36*
X65437871Y-42249881D02*
G01*
X65445152Y-42250961D01*
X65452291Y-42252749D01*
X65459221Y-42255229D01*
X65465875Y-42258376D01*
X65472188Y-42262160D01*
X65478099Y-42266544D01*
X65483553Y-42271487D01*
X65488496Y-42276941D01*
X65492880Y-42282852D01*
X65496664Y-42289165D01*
X65499811Y-42295819D01*
X65502291Y-42302749D01*
X65504079Y-42309888D01*
X65505159Y-42317169D01*
X65505520Y-42324520D01*
X65505520Y-42474520D01*
X65505159Y-42481871D01*
X65504079Y-42489152D01*
X65502291Y-42496291D01*
X65499811Y-42503221D01*
X65496664Y-42509875D01*
X65492880Y-42516188D01*
X65488496Y-42522099D01*
X65483553Y-42527553D01*
X65478099Y-42532496D01*
X65472188Y-42536880D01*
X65465875Y-42540664D01*
X65459221Y-42543811D01*
X65452291Y-42546291D01*
X65445152Y-42548079D01*
X65437871Y-42549159D01*
X65430520Y-42549520D01*
X64105520Y-42549520D01*
X64098169Y-42549159D01*
X64090888Y-42548079D01*
X64083749Y-42546291D01*
X64076819Y-42543811D01*
X64070165Y-42540664D01*
X64063852Y-42536880D01*
X64057941Y-42532496D01*
X64052487Y-42527553D01*
X64047544Y-42522099D01*
X64043160Y-42516188D01*
X64039376Y-42509875D01*
X64036229Y-42503221D01*
X64033749Y-42496291D01*
X64031961Y-42489152D01*
X64030881Y-42481871D01*
X64030520Y-42474520D01*
X64030520Y-42324520D01*
X64030881Y-42317169D01*
X64031961Y-42309888D01*
X64033749Y-42302749D01*
X64036229Y-42295819D01*
X64039376Y-42289165D01*
X64043160Y-42282852D01*
X64047544Y-42276941D01*
X64052487Y-42271487D01*
X64057941Y-42266544D01*
X64063852Y-42262160D01*
X64070165Y-42258376D01*
X64076819Y-42255229D01*
X64083749Y-42252749D01*
X64090888Y-42250961D01*
X64098169Y-42249881D01*
X64105520Y-42249520D01*
X65430520Y-42249520D01*
X65437871Y-42249881D01*
G37*
G36*
X65437871Y-41749881D02*
G01*
X65445152Y-41750961D01*
X65452291Y-41752749D01*
X65459221Y-41755229D01*
X65465875Y-41758376D01*
X65472188Y-41762160D01*
X65478099Y-41766544D01*
X65483553Y-41771487D01*
X65488496Y-41776941D01*
X65492880Y-41782852D01*
X65496664Y-41789165D01*
X65499811Y-41795819D01*
X65502291Y-41802749D01*
X65504079Y-41809888D01*
X65505159Y-41817169D01*
X65505520Y-41824520D01*
X65505520Y-41974520D01*
X65505159Y-41981871D01*
X65504079Y-41989152D01*
X65502291Y-41996291D01*
X65499811Y-42003221D01*
X65496664Y-42009875D01*
X65492880Y-42016188D01*
X65488496Y-42022099D01*
X65483553Y-42027553D01*
X65478099Y-42032496D01*
X65472188Y-42036880D01*
X65465875Y-42040664D01*
X65459221Y-42043811D01*
X65452291Y-42046291D01*
X65445152Y-42048079D01*
X65437871Y-42049159D01*
X65430520Y-42049520D01*
X64105520Y-42049520D01*
X64098169Y-42049159D01*
X64090888Y-42048079D01*
X64083749Y-42046291D01*
X64076819Y-42043811D01*
X64070165Y-42040664D01*
X64063852Y-42036880D01*
X64057941Y-42032496D01*
X64052487Y-42027553D01*
X64047544Y-42022099D01*
X64043160Y-42016188D01*
X64039376Y-42009875D01*
X64036229Y-42003221D01*
X64033749Y-41996291D01*
X64031961Y-41989152D01*
X64030881Y-41981871D01*
X64030520Y-41974520D01*
X64030520Y-41824520D01*
X64030881Y-41817169D01*
X64031961Y-41809888D01*
X64033749Y-41802749D01*
X64036229Y-41795819D01*
X64039376Y-41789165D01*
X64043160Y-41782852D01*
X64047544Y-41776941D01*
X64052487Y-41771487D01*
X64057941Y-41766544D01*
X64063852Y-41762160D01*
X64070165Y-41758376D01*
X64076819Y-41755229D01*
X64083749Y-41752749D01*
X64090888Y-41750961D01*
X64098169Y-41749881D01*
X64105520Y-41749520D01*
X65430520Y-41749520D01*
X65437871Y-41749881D01*
G37*
G36*
X65437871Y-41249881D02*
G01*
X65445152Y-41250961D01*
X65452291Y-41252749D01*
X65459221Y-41255229D01*
X65465875Y-41258376D01*
X65472188Y-41262160D01*
X65478099Y-41266544D01*
X65483553Y-41271487D01*
X65488496Y-41276941D01*
X65492880Y-41282852D01*
X65496664Y-41289165D01*
X65499811Y-41295819D01*
X65502291Y-41302749D01*
X65504079Y-41309888D01*
X65505159Y-41317169D01*
X65505520Y-41324520D01*
X65505520Y-41474520D01*
X65505159Y-41481871D01*
X65504079Y-41489152D01*
X65502291Y-41496291D01*
X65499811Y-41503221D01*
X65496664Y-41509875D01*
X65492880Y-41516188D01*
X65488496Y-41522099D01*
X65483553Y-41527553D01*
X65478099Y-41532496D01*
X65472188Y-41536880D01*
X65465875Y-41540664D01*
X65459221Y-41543811D01*
X65452291Y-41546291D01*
X65445152Y-41548079D01*
X65437871Y-41549159D01*
X65430520Y-41549520D01*
X64105520Y-41549520D01*
X64098169Y-41549159D01*
X64090888Y-41548079D01*
X64083749Y-41546291D01*
X64076819Y-41543811D01*
X64070165Y-41540664D01*
X64063852Y-41536880D01*
X64057941Y-41532496D01*
X64052487Y-41527553D01*
X64047544Y-41522099D01*
X64043160Y-41516188D01*
X64039376Y-41509875D01*
X64036229Y-41503221D01*
X64033749Y-41496291D01*
X64031961Y-41489152D01*
X64030881Y-41481871D01*
X64030520Y-41474520D01*
X64030520Y-41324520D01*
X64030881Y-41317169D01*
X64031961Y-41309888D01*
X64033749Y-41302749D01*
X64036229Y-41295819D01*
X64039376Y-41289165D01*
X64043160Y-41282852D01*
X64047544Y-41276941D01*
X64052487Y-41271487D01*
X64057941Y-41266544D01*
X64063852Y-41262160D01*
X64070165Y-41258376D01*
X64076819Y-41255229D01*
X64083749Y-41252749D01*
X64090888Y-41250961D01*
X64098169Y-41249881D01*
X64105520Y-41249520D01*
X65430520Y-41249520D01*
X65437871Y-41249881D01*
G37*
G36*
X65437871Y-40749881D02*
G01*
X65445152Y-40750961D01*
X65452291Y-40752749D01*
X65459221Y-40755229D01*
X65465875Y-40758376D01*
X65472188Y-40762160D01*
X65478099Y-40766544D01*
X65483553Y-40771487D01*
X65488496Y-40776941D01*
X65492880Y-40782852D01*
X65496664Y-40789165D01*
X65499811Y-40795819D01*
X65502291Y-40802749D01*
X65504079Y-40809888D01*
X65505159Y-40817169D01*
X65505520Y-40824520D01*
X65505520Y-40974520D01*
X65505159Y-40981871D01*
X65504079Y-40989152D01*
X65502291Y-40996291D01*
X65499811Y-41003221D01*
X65496664Y-41009875D01*
X65492880Y-41016188D01*
X65488496Y-41022099D01*
X65483553Y-41027553D01*
X65478099Y-41032496D01*
X65472188Y-41036880D01*
X65465875Y-41040664D01*
X65459221Y-41043811D01*
X65452291Y-41046291D01*
X65445152Y-41048079D01*
X65437871Y-41049159D01*
X65430520Y-41049520D01*
X64105520Y-41049520D01*
X64098169Y-41049159D01*
X64090888Y-41048079D01*
X64083749Y-41046291D01*
X64076819Y-41043811D01*
X64070165Y-41040664D01*
X64063852Y-41036880D01*
X64057941Y-41032496D01*
X64052487Y-41027553D01*
X64047544Y-41022099D01*
X64043160Y-41016188D01*
X64039376Y-41009875D01*
X64036229Y-41003221D01*
X64033749Y-40996291D01*
X64031961Y-40989152D01*
X64030881Y-40981871D01*
X64030520Y-40974520D01*
X64030520Y-40824520D01*
X64030881Y-40817169D01*
X64031961Y-40809888D01*
X64033749Y-40802749D01*
X64036229Y-40795819D01*
X64039376Y-40789165D01*
X64043160Y-40782852D01*
X64047544Y-40776941D01*
X64052487Y-40771487D01*
X64057941Y-40766544D01*
X64063852Y-40762160D01*
X64070165Y-40758376D01*
X64076819Y-40755229D01*
X64083749Y-40752749D01*
X64090888Y-40750961D01*
X64098169Y-40749881D01*
X64105520Y-40749520D01*
X65430520Y-40749520D01*
X65437871Y-40749881D01*
G37*
G36*
X65437871Y-40249881D02*
G01*
X65445152Y-40250961D01*
X65452291Y-40252749D01*
X65459221Y-40255229D01*
X65465875Y-40258376D01*
X65472188Y-40262160D01*
X65478099Y-40266544D01*
X65483553Y-40271487D01*
X65488496Y-40276941D01*
X65492880Y-40282852D01*
X65496664Y-40289165D01*
X65499811Y-40295819D01*
X65502291Y-40302749D01*
X65504079Y-40309888D01*
X65505159Y-40317169D01*
X65505520Y-40324520D01*
X65505520Y-40474520D01*
X65505159Y-40481871D01*
X65504079Y-40489152D01*
X65502291Y-40496291D01*
X65499811Y-40503221D01*
X65496664Y-40509875D01*
X65492880Y-40516188D01*
X65488496Y-40522099D01*
X65483553Y-40527553D01*
X65478099Y-40532496D01*
X65472188Y-40536880D01*
X65465875Y-40540664D01*
X65459221Y-40543811D01*
X65452291Y-40546291D01*
X65445152Y-40548079D01*
X65437871Y-40549159D01*
X65430520Y-40549520D01*
X64105520Y-40549520D01*
X64098169Y-40549159D01*
X64090888Y-40548079D01*
X64083749Y-40546291D01*
X64076819Y-40543811D01*
X64070165Y-40540664D01*
X64063852Y-40536880D01*
X64057941Y-40532496D01*
X64052487Y-40527553D01*
X64047544Y-40522099D01*
X64043160Y-40516188D01*
X64039376Y-40509875D01*
X64036229Y-40503221D01*
X64033749Y-40496291D01*
X64031961Y-40489152D01*
X64030881Y-40481871D01*
X64030520Y-40474520D01*
X64030520Y-40324520D01*
X64030881Y-40317169D01*
X64031961Y-40309888D01*
X64033749Y-40302749D01*
X64036229Y-40295819D01*
X64039376Y-40289165D01*
X64043160Y-40282852D01*
X64047544Y-40276941D01*
X64052487Y-40271487D01*
X64057941Y-40266544D01*
X64063852Y-40262160D01*
X64070165Y-40258376D01*
X64076819Y-40255229D01*
X64083749Y-40252749D01*
X64090888Y-40250961D01*
X64098169Y-40249881D01*
X64105520Y-40249520D01*
X65430520Y-40249520D01*
X65437871Y-40249881D01*
G37*
G36*
X76610478Y-34005730D02*
G01*
X76624796Y-34007854D01*
X76638837Y-34011371D01*
X76652466Y-34016248D01*
X76665551Y-34022437D01*
X76677967Y-34029878D01*
X76689593Y-34038501D01*
X76700318Y-34048222D01*
X76710039Y-34058947D01*
X76718662Y-34070573D01*
X76726103Y-34082989D01*
X76732292Y-34096074D01*
X76737169Y-34109703D01*
X76740686Y-34123744D01*
X76742810Y-34138062D01*
X76743520Y-34152520D01*
X76743520Y-34447520D01*
X76742810Y-34461978D01*
X76740686Y-34476296D01*
X76737169Y-34490337D01*
X76732292Y-34503966D01*
X76726103Y-34517051D01*
X76718662Y-34529467D01*
X76710039Y-34541093D01*
X76700318Y-34551818D01*
X76689593Y-34561539D01*
X76677967Y-34570162D01*
X76665551Y-34577603D01*
X76652466Y-34583792D01*
X76638837Y-34588669D01*
X76624796Y-34592186D01*
X76610478Y-34594310D01*
X76596020Y-34595020D01*
X76251020Y-34595020D01*
X76236562Y-34594310D01*
X76222244Y-34592186D01*
X76208203Y-34588669D01*
X76194574Y-34583792D01*
X76181489Y-34577603D01*
X76169073Y-34570162D01*
X76157447Y-34561539D01*
X76146722Y-34551818D01*
X76137001Y-34541093D01*
X76128378Y-34529467D01*
X76120937Y-34517051D01*
X76114748Y-34503966D01*
X76109871Y-34490337D01*
X76106354Y-34476296D01*
X76104230Y-34461978D01*
X76103520Y-34447520D01*
X76103520Y-34152520D01*
X76104230Y-34138062D01*
X76106354Y-34123744D01*
X76109871Y-34109703D01*
X76114748Y-34096074D01*
X76120937Y-34082989D01*
X76128378Y-34070573D01*
X76137001Y-34058947D01*
X76146722Y-34048222D01*
X76157447Y-34038501D01*
X76169073Y-34029878D01*
X76181489Y-34022437D01*
X76194574Y-34016248D01*
X76208203Y-34011371D01*
X76222244Y-34007854D01*
X76236562Y-34005730D01*
X76251020Y-34005020D01*
X76596020Y-34005020D01*
X76610478Y-34005730D01*
G37*
G36*
X76610478Y-33035730D02*
G01*
X76624796Y-33037854D01*
X76638837Y-33041371D01*
X76652466Y-33046248D01*
X76665551Y-33052437D01*
X76677967Y-33059878D01*
X76689593Y-33068501D01*
X76700318Y-33078222D01*
X76710039Y-33088947D01*
X76718662Y-33100573D01*
X76726103Y-33112989D01*
X76732292Y-33126074D01*
X76737169Y-33139703D01*
X76740686Y-33153744D01*
X76742810Y-33168062D01*
X76743520Y-33182520D01*
X76743520Y-33477520D01*
X76742810Y-33491978D01*
X76740686Y-33506296D01*
X76737169Y-33520337D01*
X76732292Y-33533966D01*
X76726103Y-33547051D01*
X76718662Y-33559467D01*
X76710039Y-33571093D01*
X76700318Y-33581818D01*
X76689593Y-33591539D01*
X76677967Y-33600162D01*
X76665551Y-33607603D01*
X76652466Y-33613792D01*
X76638837Y-33618669D01*
X76624796Y-33622186D01*
X76610478Y-33624310D01*
X76596020Y-33625020D01*
X76251020Y-33625020D01*
X76236562Y-33624310D01*
X76222244Y-33622186D01*
X76208203Y-33618669D01*
X76194574Y-33613792D01*
X76181489Y-33607603D01*
X76169073Y-33600162D01*
X76157447Y-33591539D01*
X76146722Y-33581818D01*
X76137001Y-33571093D01*
X76128378Y-33559467D01*
X76120937Y-33547051D01*
X76114748Y-33533966D01*
X76109871Y-33520337D01*
X76106354Y-33506296D01*
X76104230Y-33491978D01*
X76103520Y-33477520D01*
X76103520Y-33182520D01*
X76104230Y-33168062D01*
X76106354Y-33153744D01*
X76109871Y-33139703D01*
X76114748Y-33126074D01*
X76120937Y-33112989D01*
X76128378Y-33100573D01*
X76137001Y-33088947D01*
X76146722Y-33078222D01*
X76157447Y-33068501D01*
X76169073Y-33059878D01*
X76181489Y-33052437D01*
X76194574Y-33046248D01*
X76208203Y-33041371D01*
X76222244Y-33037854D01*
X76236562Y-33035730D01*
X76251020Y-33035020D01*
X76596020Y-33035020D01*
X76610478Y-33035730D01*
G37*
D11*
X60706000Y-32372000D03*
X60706000Y-32017000D03*
D12*
X87609020Y-37137020D03*
X87609020Y-39637020D03*
D13*
X41328520Y-35207520D03*
X41328520Y-37107520D03*
X39128520Y-37107520D03*
X39128520Y-36157520D03*
X39128520Y-35207520D03*
D14*
X59028520Y-51992020D03*
X59028520Y-52492020D03*
X59028520Y-52992020D03*
X59028520Y-53492020D03*
X59028520Y-53992020D03*
X59028520Y-54492020D03*
X59028520Y-54992020D03*
D15*
X58303520Y-56217020D03*
X57803520Y-56217020D03*
X57303520Y-56217020D03*
X56803520Y-56217020D03*
X56303520Y-56217020D03*
X55803520Y-56217020D03*
X55303520Y-56217020D03*
D14*
X54078520Y-55492020D03*
X54078520Y-54992020D03*
X54078520Y-54492020D03*
X54078520Y-53992020D03*
X54078520Y-53492020D03*
X54078520Y-52992020D03*
X54078520Y-52492020D03*
D15*
X54803520Y-51267020D03*
X55303520Y-51267020D03*
X55803520Y-51267020D03*
X56303520Y-51267020D03*
X56803520Y-51267020D03*
X57303520Y-51267020D03*
X57803520Y-51267020D03*
X58303520Y-51267020D03*
D16*
X56553520Y-53742020D03*
D14*
X54078520Y-51992020D03*
D15*
X54803520Y-56217020D03*
D14*
X59028520Y-55492020D03*
D10*
G36*
X79741223Y-37897242D02*
G01*
X79755784Y-37899402D01*
X79770063Y-37902979D01*
X79783923Y-37907938D01*
X79797230Y-37914232D01*
X79809856Y-37921800D01*
X79821679Y-37930568D01*
X79832586Y-37940454D01*
X79842472Y-37951361D01*
X79851240Y-37963184D01*
X79858808Y-37975810D01*
X79865102Y-37989117D01*
X79870061Y-38002977D01*
X79873638Y-38017256D01*
X79875798Y-38031817D01*
X79876520Y-38046520D01*
X79876520Y-38346520D01*
X79875798Y-38361223D01*
X79873638Y-38375784D01*
X79870061Y-38390063D01*
X79865102Y-38403923D01*
X79858808Y-38417230D01*
X79851240Y-38429856D01*
X79842472Y-38441679D01*
X79832586Y-38452586D01*
X79821679Y-38462472D01*
X79809856Y-38471240D01*
X79797230Y-38478808D01*
X79783923Y-38485102D01*
X79770063Y-38490061D01*
X79755784Y-38493638D01*
X79741223Y-38495798D01*
X79726520Y-38496520D01*
X78076520Y-38496520D01*
X78061817Y-38495798D01*
X78047256Y-38493638D01*
X78032977Y-38490061D01*
X78019117Y-38485102D01*
X78005810Y-38478808D01*
X77993184Y-38471240D01*
X77981361Y-38462472D01*
X77970454Y-38452586D01*
X77960568Y-38441679D01*
X77951800Y-38429856D01*
X77944232Y-38417230D01*
X77937938Y-38403923D01*
X77932979Y-38390063D01*
X77929402Y-38375784D01*
X77927242Y-38361223D01*
X77926520Y-38346520D01*
X77926520Y-38046520D01*
X77927242Y-38031817D01*
X77929402Y-38017256D01*
X77932979Y-38002977D01*
X77937938Y-37989117D01*
X77944232Y-37975810D01*
X77951800Y-37963184D01*
X77960568Y-37951361D01*
X77970454Y-37940454D01*
X77981361Y-37930568D01*
X77993184Y-37921800D01*
X78005810Y-37914232D01*
X78019117Y-37907938D01*
X78032977Y-37902979D01*
X78047256Y-37899402D01*
X78061817Y-37897242D01*
X78076520Y-37896520D01*
X79726520Y-37896520D01*
X79741223Y-37897242D01*
G37*
G36*
X79741223Y-36627242D02*
G01*
X79755784Y-36629402D01*
X79770063Y-36632979D01*
X79783923Y-36637938D01*
X79797230Y-36644232D01*
X79809856Y-36651800D01*
X79821679Y-36660568D01*
X79832586Y-36670454D01*
X79842472Y-36681361D01*
X79851240Y-36693184D01*
X79858808Y-36705810D01*
X79865102Y-36719117D01*
X79870061Y-36732977D01*
X79873638Y-36747256D01*
X79875798Y-36761817D01*
X79876520Y-36776520D01*
X79876520Y-37076520D01*
X79875798Y-37091223D01*
X79873638Y-37105784D01*
X79870061Y-37120063D01*
X79865102Y-37133923D01*
X79858808Y-37147230D01*
X79851240Y-37159856D01*
X79842472Y-37171679D01*
X79832586Y-37182586D01*
X79821679Y-37192472D01*
X79809856Y-37201240D01*
X79797230Y-37208808D01*
X79783923Y-37215102D01*
X79770063Y-37220061D01*
X79755784Y-37223638D01*
X79741223Y-37225798D01*
X79726520Y-37226520D01*
X78076520Y-37226520D01*
X78061817Y-37225798D01*
X78047256Y-37223638D01*
X78032977Y-37220061D01*
X78019117Y-37215102D01*
X78005810Y-37208808D01*
X77993184Y-37201240D01*
X77981361Y-37192472D01*
X77970454Y-37182586D01*
X77960568Y-37171679D01*
X77951800Y-37159856D01*
X77944232Y-37147230D01*
X77937938Y-37133923D01*
X77932979Y-37120063D01*
X77929402Y-37105784D01*
X77927242Y-37091223D01*
X77926520Y-37076520D01*
X77926520Y-36776520D01*
X77927242Y-36761817D01*
X77929402Y-36747256D01*
X77932979Y-36732977D01*
X77937938Y-36719117D01*
X77944232Y-36705810D01*
X77951800Y-36693184D01*
X77960568Y-36681361D01*
X77970454Y-36670454D01*
X77981361Y-36660568D01*
X77993184Y-36651800D01*
X78005810Y-36644232D01*
X78019117Y-36637938D01*
X78032977Y-36632979D01*
X78047256Y-36629402D01*
X78061817Y-36627242D01*
X78076520Y-36626520D01*
X79726520Y-36626520D01*
X79741223Y-36627242D01*
G37*
G36*
X79741223Y-35357242D02*
G01*
X79755784Y-35359402D01*
X79770063Y-35362979D01*
X79783923Y-35367938D01*
X79797230Y-35374232D01*
X79809856Y-35381800D01*
X79821679Y-35390568D01*
X79832586Y-35400454D01*
X79842472Y-35411361D01*
X79851240Y-35423184D01*
X79858808Y-35435810D01*
X79865102Y-35449117D01*
X79870061Y-35462977D01*
X79873638Y-35477256D01*
X79875798Y-35491817D01*
X79876520Y-35506520D01*
X79876520Y-35806520D01*
X79875798Y-35821223D01*
X79873638Y-35835784D01*
X79870061Y-35850063D01*
X79865102Y-35863923D01*
X79858808Y-35877230D01*
X79851240Y-35889856D01*
X79842472Y-35901679D01*
X79832586Y-35912586D01*
X79821679Y-35922472D01*
X79809856Y-35931240D01*
X79797230Y-35938808D01*
X79783923Y-35945102D01*
X79770063Y-35950061D01*
X79755784Y-35953638D01*
X79741223Y-35955798D01*
X79726520Y-35956520D01*
X78076520Y-35956520D01*
X78061817Y-35955798D01*
X78047256Y-35953638D01*
X78032977Y-35950061D01*
X78019117Y-35945102D01*
X78005810Y-35938808D01*
X77993184Y-35931240D01*
X77981361Y-35922472D01*
X77970454Y-35912586D01*
X77960568Y-35901679D01*
X77951800Y-35889856D01*
X77944232Y-35877230D01*
X77937938Y-35863923D01*
X77932979Y-35850063D01*
X77929402Y-35835784D01*
X77927242Y-35821223D01*
X77926520Y-35806520D01*
X77926520Y-35506520D01*
X77927242Y-35491817D01*
X77929402Y-35477256D01*
X77932979Y-35462977D01*
X77937938Y-35449117D01*
X77944232Y-35435810D01*
X77951800Y-35423184D01*
X77960568Y-35411361D01*
X77970454Y-35400454D01*
X77981361Y-35390568D01*
X77993184Y-35381800D01*
X78005810Y-35374232D01*
X78019117Y-35367938D01*
X78032977Y-35362979D01*
X78047256Y-35359402D01*
X78061817Y-35357242D01*
X78076520Y-35356520D01*
X79726520Y-35356520D01*
X79741223Y-35357242D01*
G37*
G36*
X79741223Y-34087242D02*
G01*
X79755784Y-34089402D01*
X79770063Y-34092979D01*
X79783923Y-34097938D01*
X79797230Y-34104232D01*
X79809856Y-34111800D01*
X79821679Y-34120568D01*
X79832586Y-34130454D01*
X79842472Y-34141361D01*
X79851240Y-34153184D01*
X79858808Y-34165810D01*
X79865102Y-34179117D01*
X79870061Y-34192977D01*
X79873638Y-34207256D01*
X79875798Y-34221817D01*
X79876520Y-34236520D01*
X79876520Y-34536520D01*
X79875798Y-34551223D01*
X79873638Y-34565784D01*
X79870061Y-34580063D01*
X79865102Y-34593923D01*
X79858808Y-34607230D01*
X79851240Y-34619856D01*
X79842472Y-34631679D01*
X79832586Y-34642586D01*
X79821679Y-34652472D01*
X79809856Y-34661240D01*
X79797230Y-34668808D01*
X79783923Y-34675102D01*
X79770063Y-34680061D01*
X79755784Y-34683638D01*
X79741223Y-34685798D01*
X79726520Y-34686520D01*
X78076520Y-34686520D01*
X78061817Y-34685798D01*
X78047256Y-34683638D01*
X78032977Y-34680061D01*
X78019117Y-34675102D01*
X78005810Y-34668808D01*
X77993184Y-34661240D01*
X77981361Y-34652472D01*
X77970454Y-34642586D01*
X77960568Y-34631679D01*
X77951800Y-34619856D01*
X77944232Y-34607230D01*
X77937938Y-34593923D01*
X77932979Y-34580063D01*
X77929402Y-34565784D01*
X77927242Y-34551223D01*
X77926520Y-34536520D01*
X77926520Y-34236520D01*
X77927242Y-34221817D01*
X77929402Y-34207256D01*
X77932979Y-34192977D01*
X77937938Y-34179117D01*
X77944232Y-34165810D01*
X77951800Y-34153184D01*
X77960568Y-34141361D01*
X77970454Y-34130454D01*
X77981361Y-34120568D01*
X77993184Y-34111800D01*
X78005810Y-34104232D01*
X78019117Y-34097938D01*
X78032977Y-34092979D01*
X78047256Y-34089402D01*
X78061817Y-34087242D01*
X78076520Y-34086520D01*
X79726520Y-34086520D01*
X79741223Y-34087242D01*
G37*
G36*
X84691223Y-34087242D02*
G01*
X84705784Y-34089402D01*
X84720063Y-34092979D01*
X84733923Y-34097938D01*
X84747230Y-34104232D01*
X84759856Y-34111800D01*
X84771679Y-34120568D01*
X84782586Y-34130454D01*
X84792472Y-34141361D01*
X84801240Y-34153184D01*
X84808808Y-34165810D01*
X84815102Y-34179117D01*
X84820061Y-34192977D01*
X84823638Y-34207256D01*
X84825798Y-34221817D01*
X84826520Y-34236520D01*
X84826520Y-34536520D01*
X84825798Y-34551223D01*
X84823638Y-34565784D01*
X84820061Y-34580063D01*
X84815102Y-34593923D01*
X84808808Y-34607230D01*
X84801240Y-34619856D01*
X84792472Y-34631679D01*
X84782586Y-34642586D01*
X84771679Y-34652472D01*
X84759856Y-34661240D01*
X84747230Y-34668808D01*
X84733923Y-34675102D01*
X84720063Y-34680061D01*
X84705784Y-34683638D01*
X84691223Y-34685798D01*
X84676520Y-34686520D01*
X83026520Y-34686520D01*
X83011817Y-34685798D01*
X82997256Y-34683638D01*
X82982977Y-34680061D01*
X82969117Y-34675102D01*
X82955810Y-34668808D01*
X82943184Y-34661240D01*
X82931361Y-34652472D01*
X82920454Y-34642586D01*
X82910568Y-34631679D01*
X82901800Y-34619856D01*
X82894232Y-34607230D01*
X82887938Y-34593923D01*
X82882979Y-34580063D01*
X82879402Y-34565784D01*
X82877242Y-34551223D01*
X82876520Y-34536520D01*
X82876520Y-34236520D01*
X82877242Y-34221817D01*
X82879402Y-34207256D01*
X82882979Y-34192977D01*
X82887938Y-34179117D01*
X82894232Y-34165810D01*
X82901800Y-34153184D01*
X82910568Y-34141361D01*
X82920454Y-34130454D01*
X82931361Y-34120568D01*
X82943184Y-34111800D01*
X82955810Y-34104232D01*
X82969117Y-34097938D01*
X82982977Y-34092979D01*
X82997256Y-34089402D01*
X83011817Y-34087242D01*
X83026520Y-34086520D01*
X84676520Y-34086520D01*
X84691223Y-34087242D01*
G37*
G36*
X84691223Y-35357242D02*
G01*
X84705784Y-35359402D01*
X84720063Y-35362979D01*
X84733923Y-35367938D01*
X84747230Y-35374232D01*
X84759856Y-35381800D01*
X84771679Y-35390568D01*
X84782586Y-35400454D01*
X84792472Y-35411361D01*
X84801240Y-35423184D01*
X84808808Y-35435810D01*
X84815102Y-35449117D01*
X84820061Y-35462977D01*
X84823638Y-35477256D01*
X84825798Y-35491817D01*
X84826520Y-35506520D01*
X84826520Y-35806520D01*
X84825798Y-35821223D01*
X84823638Y-35835784D01*
X84820061Y-35850063D01*
X84815102Y-35863923D01*
X84808808Y-35877230D01*
X84801240Y-35889856D01*
X84792472Y-35901679D01*
X84782586Y-35912586D01*
X84771679Y-35922472D01*
X84759856Y-35931240D01*
X84747230Y-35938808D01*
X84733923Y-35945102D01*
X84720063Y-35950061D01*
X84705784Y-35953638D01*
X84691223Y-35955798D01*
X84676520Y-35956520D01*
X83026520Y-35956520D01*
X83011817Y-35955798D01*
X82997256Y-35953638D01*
X82982977Y-35950061D01*
X82969117Y-35945102D01*
X82955810Y-35938808D01*
X82943184Y-35931240D01*
X82931361Y-35922472D01*
X82920454Y-35912586D01*
X82910568Y-35901679D01*
X82901800Y-35889856D01*
X82894232Y-35877230D01*
X82887938Y-35863923D01*
X82882979Y-35850063D01*
X82879402Y-35835784D01*
X82877242Y-35821223D01*
X82876520Y-35806520D01*
X82876520Y-35506520D01*
X82877242Y-35491817D01*
X82879402Y-35477256D01*
X82882979Y-35462977D01*
X82887938Y-35449117D01*
X82894232Y-35435810D01*
X82901800Y-35423184D01*
X82910568Y-35411361D01*
X82920454Y-35400454D01*
X82931361Y-35390568D01*
X82943184Y-35381800D01*
X82955810Y-35374232D01*
X82969117Y-35367938D01*
X82982977Y-35362979D01*
X82997256Y-35359402D01*
X83011817Y-35357242D01*
X83026520Y-35356520D01*
X84676520Y-35356520D01*
X84691223Y-35357242D01*
G37*
G36*
X84691223Y-36627242D02*
G01*
X84705784Y-36629402D01*
X84720063Y-36632979D01*
X84733923Y-36637938D01*
X84747230Y-36644232D01*
X84759856Y-36651800D01*
X84771679Y-36660568D01*
X84782586Y-36670454D01*
X84792472Y-36681361D01*
X84801240Y-36693184D01*
X84808808Y-36705810D01*
X84815102Y-36719117D01*
X84820061Y-36732977D01*
X84823638Y-36747256D01*
X84825798Y-36761817D01*
X84826520Y-36776520D01*
X84826520Y-37076520D01*
X84825798Y-37091223D01*
X84823638Y-37105784D01*
X84820061Y-37120063D01*
X84815102Y-37133923D01*
X84808808Y-37147230D01*
X84801240Y-37159856D01*
X84792472Y-37171679D01*
X84782586Y-37182586D01*
X84771679Y-37192472D01*
X84759856Y-37201240D01*
X84747230Y-37208808D01*
X84733923Y-37215102D01*
X84720063Y-37220061D01*
X84705784Y-37223638D01*
X84691223Y-37225798D01*
X84676520Y-37226520D01*
X83026520Y-37226520D01*
X83011817Y-37225798D01*
X82997256Y-37223638D01*
X82982977Y-37220061D01*
X82969117Y-37215102D01*
X82955810Y-37208808D01*
X82943184Y-37201240D01*
X82931361Y-37192472D01*
X82920454Y-37182586D01*
X82910568Y-37171679D01*
X82901800Y-37159856D01*
X82894232Y-37147230D01*
X82887938Y-37133923D01*
X82882979Y-37120063D01*
X82879402Y-37105784D01*
X82877242Y-37091223D01*
X82876520Y-37076520D01*
X82876520Y-36776520D01*
X82877242Y-36761817D01*
X82879402Y-36747256D01*
X82882979Y-36732977D01*
X82887938Y-36719117D01*
X82894232Y-36705810D01*
X82901800Y-36693184D01*
X82910568Y-36681361D01*
X82920454Y-36670454D01*
X82931361Y-36660568D01*
X82943184Y-36651800D01*
X82955810Y-36644232D01*
X82969117Y-36637938D01*
X82982977Y-36632979D01*
X82997256Y-36629402D01*
X83011817Y-36627242D01*
X83026520Y-36626520D01*
X84676520Y-36626520D01*
X84691223Y-36627242D01*
G37*
G36*
X84691223Y-37897242D02*
G01*
X84705784Y-37899402D01*
X84720063Y-37902979D01*
X84733923Y-37907938D01*
X84747230Y-37914232D01*
X84759856Y-37921800D01*
X84771679Y-37930568D01*
X84782586Y-37940454D01*
X84792472Y-37951361D01*
X84801240Y-37963184D01*
X84808808Y-37975810D01*
X84815102Y-37989117D01*
X84820061Y-38002977D01*
X84823638Y-38017256D01*
X84825798Y-38031817D01*
X84826520Y-38046520D01*
X84826520Y-38346520D01*
X84825798Y-38361223D01*
X84823638Y-38375784D01*
X84820061Y-38390063D01*
X84815102Y-38403923D01*
X84808808Y-38417230D01*
X84801240Y-38429856D01*
X84792472Y-38441679D01*
X84782586Y-38452586D01*
X84771679Y-38462472D01*
X84759856Y-38471240D01*
X84747230Y-38478808D01*
X84733923Y-38485102D01*
X84720063Y-38490061D01*
X84705784Y-38493638D01*
X84691223Y-38495798D01*
X84676520Y-38496520D01*
X83026520Y-38496520D01*
X83011817Y-38495798D01*
X82997256Y-38493638D01*
X82982977Y-38490061D01*
X82969117Y-38485102D01*
X82955810Y-38478808D01*
X82943184Y-38471240D01*
X82931361Y-38462472D01*
X82920454Y-38452586D01*
X82910568Y-38441679D01*
X82901800Y-38429856D01*
X82894232Y-38417230D01*
X82887938Y-38403923D01*
X82882979Y-38390063D01*
X82879402Y-38375784D01*
X82877242Y-38361223D01*
X82876520Y-38346520D01*
X82876520Y-38046520D01*
X82877242Y-38031817D01*
X82879402Y-38017256D01*
X82882979Y-38002977D01*
X82887938Y-37989117D01*
X82894232Y-37975810D01*
X82901800Y-37963184D01*
X82910568Y-37951361D01*
X82920454Y-37940454D01*
X82931361Y-37930568D01*
X82943184Y-37921800D01*
X82955810Y-37914232D01*
X82969117Y-37907938D01*
X82982977Y-37902979D01*
X82997256Y-37899402D01*
X83011817Y-37897242D01*
X83026520Y-37896520D01*
X84676520Y-37896520D01*
X84691223Y-37897242D01*
G37*
G36*
X76610478Y-35321730D02*
G01*
X76624796Y-35323854D01*
X76638837Y-35327371D01*
X76652466Y-35332248D01*
X76665551Y-35338437D01*
X76677967Y-35345878D01*
X76689593Y-35354501D01*
X76700318Y-35364222D01*
X76710039Y-35374947D01*
X76718662Y-35386573D01*
X76726103Y-35398989D01*
X76732292Y-35412074D01*
X76737169Y-35425703D01*
X76740686Y-35439744D01*
X76742810Y-35454062D01*
X76743520Y-35468520D01*
X76743520Y-35763520D01*
X76742810Y-35777978D01*
X76740686Y-35792296D01*
X76737169Y-35806337D01*
X76732292Y-35819966D01*
X76726103Y-35833051D01*
X76718662Y-35845467D01*
X76710039Y-35857093D01*
X76700318Y-35867818D01*
X76689593Y-35877539D01*
X76677967Y-35886162D01*
X76665551Y-35893603D01*
X76652466Y-35899792D01*
X76638837Y-35904669D01*
X76624796Y-35908186D01*
X76610478Y-35910310D01*
X76596020Y-35911020D01*
X76251020Y-35911020D01*
X76236562Y-35910310D01*
X76222244Y-35908186D01*
X76208203Y-35904669D01*
X76194574Y-35899792D01*
X76181489Y-35893603D01*
X76169073Y-35886162D01*
X76157447Y-35877539D01*
X76146722Y-35867818D01*
X76137001Y-35857093D01*
X76128378Y-35845467D01*
X76120937Y-35833051D01*
X76114748Y-35819966D01*
X76109871Y-35806337D01*
X76106354Y-35792296D01*
X76104230Y-35777978D01*
X76103520Y-35763520D01*
X76103520Y-35468520D01*
X76104230Y-35454062D01*
X76106354Y-35439744D01*
X76109871Y-35425703D01*
X76114748Y-35412074D01*
X76120937Y-35398989D01*
X76128378Y-35386573D01*
X76137001Y-35374947D01*
X76146722Y-35364222D01*
X76157447Y-35354501D01*
X76169073Y-35345878D01*
X76181489Y-35338437D01*
X76194574Y-35332248D01*
X76208203Y-35327371D01*
X76222244Y-35323854D01*
X76236562Y-35321730D01*
X76251020Y-35321020D01*
X76596020Y-35321020D01*
X76610478Y-35321730D01*
G37*
G36*
X76610478Y-36291730D02*
G01*
X76624796Y-36293854D01*
X76638837Y-36297371D01*
X76652466Y-36302248D01*
X76665551Y-36308437D01*
X76677967Y-36315878D01*
X76689593Y-36324501D01*
X76700318Y-36334222D01*
X76710039Y-36344947D01*
X76718662Y-36356573D01*
X76726103Y-36368989D01*
X76732292Y-36382074D01*
X76737169Y-36395703D01*
X76740686Y-36409744D01*
X76742810Y-36424062D01*
X76743520Y-36438520D01*
X76743520Y-36733520D01*
X76742810Y-36747978D01*
X76740686Y-36762296D01*
X76737169Y-36776337D01*
X76732292Y-36789966D01*
X76726103Y-36803051D01*
X76718662Y-36815467D01*
X76710039Y-36827093D01*
X76700318Y-36837818D01*
X76689593Y-36847539D01*
X76677967Y-36856162D01*
X76665551Y-36863603D01*
X76652466Y-36869792D01*
X76638837Y-36874669D01*
X76624796Y-36878186D01*
X76610478Y-36880310D01*
X76596020Y-36881020D01*
X76251020Y-36881020D01*
X76236562Y-36880310D01*
X76222244Y-36878186D01*
X76208203Y-36874669D01*
X76194574Y-36869792D01*
X76181489Y-36863603D01*
X76169073Y-36856162D01*
X76157447Y-36847539D01*
X76146722Y-36837818D01*
X76137001Y-36827093D01*
X76128378Y-36815467D01*
X76120937Y-36803051D01*
X76114748Y-36789966D01*
X76109871Y-36776337D01*
X76106354Y-36762296D01*
X76104230Y-36747978D01*
X76103520Y-36733520D01*
X76103520Y-36438520D01*
X76104230Y-36424062D01*
X76106354Y-36409744D01*
X76109871Y-36395703D01*
X76114748Y-36382074D01*
X76120937Y-36368989D01*
X76128378Y-36356573D01*
X76137001Y-36344947D01*
X76146722Y-36334222D01*
X76157447Y-36324501D01*
X76169073Y-36315878D01*
X76181489Y-36308437D01*
X76194574Y-36302248D01*
X76208203Y-36297371D01*
X76222244Y-36293854D01*
X76236562Y-36291730D01*
X76251020Y-36291020D01*
X76596020Y-36291020D01*
X76610478Y-36291730D01*
G37*
G36*
X70151524Y-53889224D02*
G01*
X70175793Y-53892824D01*
X70199591Y-53898785D01*
X70222691Y-53907050D01*
X70244869Y-53917540D01*
X70265913Y-53930153D01*
X70285618Y-53944767D01*
X70303797Y-53961243D01*
X70320273Y-53979422D01*
X70334887Y-53999127D01*
X70347500Y-54020171D01*
X70357990Y-54042349D01*
X70366255Y-54065449D01*
X70372216Y-54089247D01*
X70375816Y-54113516D01*
X70377020Y-54138020D01*
X70377020Y-54888020D01*
X70375816Y-54912524D01*
X70372216Y-54936793D01*
X70366255Y-54960591D01*
X70357990Y-54983691D01*
X70347500Y-55005869D01*
X70334887Y-55026913D01*
X70320273Y-55046618D01*
X70303797Y-55064797D01*
X70285618Y-55081273D01*
X70265913Y-55095887D01*
X70244869Y-55108500D01*
X70222691Y-55118990D01*
X70199591Y-55127255D01*
X70175793Y-55133216D01*
X70151524Y-55136816D01*
X70127020Y-55138020D01*
X68877020Y-55138020D01*
X68852516Y-55136816D01*
X68828247Y-55133216D01*
X68804449Y-55127255D01*
X68781349Y-55118990D01*
X68759171Y-55108500D01*
X68738127Y-55095887D01*
X68718422Y-55081273D01*
X68700243Y-55064797D01*
X68683767Y-55046618D01*
X68669153Y-55026913D01*
X68656540Y-55005869D01*
X68646050Y-54983691D01*
X68637785Y-54960591D01*
X68631824Y-54936793D01*
X68628224Y-54912524D01*
X68627020Y-54888020D01*
X68627020Y-54138020D01*
X68628224Y-54113516D01*
X68631824Y-54089247D01*
X68637785Y-54065449D01*
X68646050Y-54042349D01*
X68656540Y-54020171D01*
X68669153Y-53999127D01*
X68683767Y-53979422D01*
X68700243Y-53961243D01*
X68718422Y-53944767D01*
X68738127Y-53930153D01*
X68759171Y-53917540D01*
X68781349Y-53907050D01*
X68804449Y-53898785D01*
X68828247Y-53892824D01*
X68852516Y-53889224D01*
X68877020Y-53888020D01*
X70127020Y-53888020D01*
X70151524Y-53889224D01*
G37*
G36*
X70151524Y-56689224D02*
G01*
X70175793Y-56692824D01*
X70199591Y-56698785D01*
X70222691Y-56707050D01*
X70244869Y-56717540D01*
X70265913Y-56730153D01*
X70285618Y-56744767D01*
X70303797Y-56761243D01*
X70320273Y-56779422D01*
X70334887Y-56799127D01*
X70347500Y-56820171D01*
X70357990Y-56842349D01*
X70366255Y-56865449D01*
X70372216Y-56889247D01*
X70375816Y-56913516D01*
X70377020Y-56938020D01*
X70377020Y-57688020D01*
X70375816Y-57712524D01*
X70372216Y-57736793D01*
X70366255Y-57760591D01*
X70357990Y-57783691D01*
X70347500Y-57805869D01*
X70334887Y-57826913D01*
X70320273Y-57846618D01*
X70303797Y-57864797D01*
X70285618Y-57881273D01*
X70265913Y-57895887D01*
X70244869Y-57908500D01*
X70222691Y-57918990D01*
X70199591Y-57927255D01*
X70175793Y-57933216D01*
X70151524Y-57936816D01*
X70127020Y-57938020D01*
X68877020Y-57938020D01*
X68852516Y-57936816D01*
X68828247Y-57933216D01*
X68804449Y-57927255D01*
X68781349Y-57918990D01*
X68759171Y-57908500D01*
X68738127Y-57895887D01*
X68718422Y-57881273D01*
X68700243Y-57864797D01*
X68683767Y-57846618D01*
X68669153Y-57826913D01*
X68656540Y-57805869D01*
X68646050Y-57783691D01*
X68637785Y-57760591D01*
X68631824Y-57736793D01*
X68628224Y-57712524D01*
X68627020Y-57688020D01*
X68627020Y-56938020D01*
X68628224Y-56913516D01*
X68631824Y-56889247D01*
X68637785Y-56865449D01*
X68646050Y-56842349D01*
X68656540Y-56820171D01*
X68669153Y-56799127D01*
X68683767Y-56779422D01*
X68700243Y-56761243D01*
X68718422Y-56744767D01*
X68738127Y-56730153D01*
X68759171Y-56717540D01*
X68781349Y-56707050D01*
X68804449Y-56698785D01*
X68828247Y-56692824D01*
X68852516Y-56689224D01*
X68877020Y-56688020D01*
X70127020Y-56688020D01*
X70151524Y-56689224D01*
G37*
G36*
X66405024Y-53889224D02*
G01*
X66429293Y-53892824D01*
X66453091Y-53898785D01*
X66476191Y-53907050D01*
X66498369Y-53917540D01*
X66519413Y-53930153D01*
X66539118Y-53944767D01*
X66557297Y-53961243D01*
X66573773Y-53979422D01*
X66588387Y-53999127D01*
X66601000Y-54020171D01*
X66611490Y-54042349D01*
X66619755Y-54065449D01*
X66625716Y-54089247D01*
X66629316Y-54113516D01*
X66630520Y-54138020D01*
X66630520Y-54888020D01*
X66629316Y-54912524D01*
X66625716Y-54936793D01*
X66619755Y-54960591D01*
X66611490Y-54983691D01*
X66601000Y-55005869D01*
X66588387Y-55026913D01*
X66573773Y-55046618D01*
X66557297Y-55064797D01*
X66539118Y-55081273D01*
X66519413Y-55095887D01*
X66498369Y-55108500D01*
X66476191Y-55118990D01*
X66453091Y-55127255D01*
X66429293Y-55133216D01*
X66405024Y-55136816D01*
X66380520Y-55138020D01*
X65130520Y-55138020D01*
X65106016Y-55136816D01*
X65081747Y-55133216D01*
X65057949Y-55127255D01*
X65034849Y-55118990D01*
X65012671Y-55108500D01*
X64991627Y-55095887D01*
X64971922Y-55081273D01*
X64953743Y-55064797D01*
X64937267Y-55046618D01*
X64922653Y-55026913D01*
X64910040Y-55005869D01*
X64899550Y-54983691D01*
X64891285Y-54960591D01*
X64885324Y-54936793D01*
X64881724Y-54912524D01*
X64880520Y-54888020D01*
X64880520Y-54138020D01*
X64881724Y-54113516D01*
X64885324Y-54089247D01*
X64891285Y-54065449D01*
X64899550Y-54042349D01*
X64910040Y-54020171D01*
X64922653Y-53999127D01*
X64937267Y-53979422D01*
X64953743Y-53961243D01*
X64971922Y-53944767D01*
X64991627Y-53930153D01*
X65012671Y-53917540D01*
X65034849Y-53907050D01*
X65057949Y-53898785D01*
X65081747Y-53892824D01*
X65106016Y-53889224D01*
X65130520Y-53888020D01*
X66380520Y-53888020D01*
X66405024Y-53889224D01*
G37*
G36*
X66405024Y-56689224D02*
G01*
X66429293Y-56692824D01*
X66453091Y-56698785D01*
X66476191Y-56707050D01*
X66498369Y-56717540D01*
X66519413Y-56730153D01*
X66539118Y-56744767D01*
X66557297Y-56761243D01*
X66573773Y-56779422D01*
X66588387Y-56799127D01*
X66601000Y-56820171D01*
X66611490Y-56842349D01*
X66619755Y-56865449D01*
X66625716Y-56889247D01*
X66629316Y-56913516D01*
X66630520Y-56938020D01*
X66630520Y-57688020D01*
X66629316Y-57712524D01*
X66625716Y-57736793D01*
X66619755Y-57760591D01*
X66611490Y-57783691D01*
X66601000Y-57805869D01*
X66588387Y-57826913D01*
X66573773Y-57846618D01*
X66557297Y-57864797D01*
X66539118Y-57881273D01*
X66519413Y-57895887D01*
X66498369Y-57908500D01*
X66476191Y-57918990D01*
X66453091Y-57927255D01*
X66429293Y-57933216D01*
X66405024Y-57936816D01*
X66380520Y-57938020D01*
X65130520Y-57938020D01*
X65106016Y-57936816D01*
X65081747Y-57933216D01*
X65057949Y-57927255D01*
X65034849Y-57918990D01*
X65012671Y-57908500D01*
X64991627Y-57895887D01*
X64971922Y-57881273D01*
X64953743Y-57864797D01*
X64937267Y-57846618D01*
X64922653Y-57826913D01*
X64910040Y-57805869D01*
X64899550Y-57783691D01*
X64891285Y-57760591D01*
X64885324Y-57736793D01*
X64881724Y-57712524D01*
X64880520Y-57688020D01*
X64880520Y-56938020D01*
X64881724Y-56913516D01*
X64885324Y-56889247D01*
X64891285Y-56865449D01*
X64899550Y-56842349D01*
X64910040Y-56820171D01*
X64922653Y-56799127D01*
X64937267Y-56779422D01*
X64953743Y-56761243D01*
X64971922Y-56744767D01*
X64991627Y-56730153D01*
X65012671Y-56717540D01*
X65034849Y-56707050D01*
X65057949Y-56698785D01*
X65081747Y-56692824D01*
X65106016Y-56689224D01*
X65130520Y-56688020D01*
X66380520Y-56688020D01*
X66405024Y-56689224D01*
G37*
G36*
X37068024Y-48491724D02*
G01*
X37092293Y-48495324D01*
X37116091Y-48501285D01*
X37139191Y-48509550D01*
X37161369Y-48520040D01*
X37182413Y-48532653D01*
X37202118Y-48547267D01*
X37220297Y-48563743D01*
X37236773Y-48581922D01*
X37251387Y-48601627D01*
X37264000Y-48622671D01*
X37274490Y-48644849D01*
X37282755Y-48667949D01*
X37288716Y-48691747D01*
X37292316Y-48716016D01*
X37293520Y-48740520D01*
X37293520Y-49490520D01*
X37292316Y-49515024D01*
X37288716Y-49539293D01*
X37282755Y-49563091D01*
X37274490Y-49586191D01*
X37264000Y-49608369D01*
X37251387Y-49629413D01*
X37236773Y-49649118D01*
X37220297Y-49667297D01*
X37202118Y-49683773D01*
X37182413Y-49698387D01*
X37161369Y-49711000D01*
X37139191Y-49721490D01*
X37116091Y-49729755D01*
X37092293Y-49735716D01*
X37068024Y-49739316D01*
X37043520Y-49740520D01*
X35793520Y-49740520D01*
X35769016Y-49739316D01*
X35744747Y-49735716D01*
X35720949Y-49729755D01*
X35697849Y-49721490D01*
X35675671Y-49711000D01*
X35654627Y-49698387D01*
X35634922Y-49683773D01*
X35616743Y-49667297D01*
X35600267Y-49649118D01*
X35585653Y-49629413D01*
X35573040Y-49608369D01*
X35562550Y-49586191D01*
X35554285Y-49563091D01*
X35548324Y-49539293D01*
X35544724Y-49515024D01*
X35543520Y-49490520D01*
X35543520Y-48740520D01*
X35544724Y-48716016D01*
X35548324Y-48691747D01*
X35554285Y-48667949D01*
X35562550Y-48644849D01*
X35573040Y-48622671D01*
X35585653Y-48601627D01*
X35600267Y-48581922D01*
X35616743Y-48563743D01*
X35634922Y-48547267D01*
X35654627Y-48532653D01*
X35675671Y-48520040D01*
X35697849Y-48509550D01*
X35720949Y-48501285D01*
X35744747Y-48495324D01*
X35769016Y-48491724D01*
X35793520Y-48490520D01*
X37043520Y-48490520D01*
X37068024Y-48491724D01*
G37*
G36*
X37068024Y-51291724D02*
G01*
X37092293Y-51295324D01*
X37116091Y-51301285D01*
X37139191Y-51309550D01*
X37161369Y-51320040D01*
X37182413Y-51332653D01*
X37202118Y-51347267D01*
X37220297Y-51363743D01*
X37236773Y-51381922D01*
X37251387Y-51401627D01*
X37264000Y-51422671D01*
X37274490Y-51444849D01*
X37282755Y-51467949D01*
X37288716Y-51491747D01*
X37292316Y-51516016D01*
X37293520Y-51540520D01*
X37293520Y-52290520D01*
X37292316Y-52315024D01*
X37288716Y-52339293D01*
X37282755Y-52363091D01*
X37274490Y-52386191D01*
X37264000Y-52408369D01*
X37251387Y-52429413D01*
X37236773Y-52449118D01*
X37220297Y-52467297D01*
X37202118Y-52483773D01*
X37182413Y-52498387D01*
X37161369Y-52511000D01*
X37139191Y-52521490D01*
X37116091Y-52529755D01*
X37092293Y-52535716D01*
X37068024Y-52539316D01*
X37043520Y-52540520D01*
X35793520Y-52540520D01*
X35769016Y-52539316D01*
X35744747Y-52535716D01*
X35720949Y-52529755D01*
X35697849Y-52521490D01*
X35675671Y-52511000D01*
X35654627Y-52498387D01*
X35634922Y-52483773D01*
X35616743Y-52467297D01*
X35600267Y-52449118D01*
X35585653Y-52429413D01*
X35573040Y-52408369D01*
X35562550Y-52386191D01*
X35554285Y-52363091D01*
X35548324Y-52339293D01*
X35544724Y-52315024D01*
X35543520Y-52290520D01*
X35543520Y-51540520D01*
X35544724Y-51516016D01*
X35548324Y-51491747D01*
X35554285Y-51467949D01*
X35562550Y-51444849D01*
X35573040Y-51422671D01*
X35585653Y-51401627D01*
X35600267Y-51381922D01*
X35616743Y-51363743D01*
X35634922Y-51347267D01*
X35654627Y-51332653D01*
X35675671Y-51320040D01*
X35697849Y-51309550D01*
X35720949Y-51301285D01*
X35744747Y-51295324D01*
X35769016Y-51291724D01*
X35793520Y-51290520D01*
X37043520Y-51290520D01*
X37068024Y-51291724D01*
G37*
G36*
X51581524Y-49133724D02*
G01*
X51605793Y-49137324D01*
X51629591Y-49143285D01*
X51652691Y-49151550D01*
X51674869Y-49162040D01*
X51695913Y-49174653D01*
X51715618Y-49189267D01*
X51733797Y-49205743D01*
X51750273Y-49223922D01*
X51764887Y-49243627D01*
X51777500Y-49264671D01*
X51787990Y-49286849D01*
X51796255Y-49309949D01*
X51802216Y-49333747D01*
X51805816Y-49358016D01*
X51807020Y-49382520D01*
X51807020Y-50632520D01*
X51805816Y-50657024D01*
X51802216Y-50681293D01*
X51796255Y-50705091D01*
X51787990Y-50728191D01*
X51777500Y-50750369D01*
X51764887Y-50771413D01*
X51750273Y-50791118D01*
X51733797Y-50809297D01*
X51715618Y-50825773D01*
X51695913Y-50840387D01*
X51674869Y-50853000D01*
X51652691Y-50863490D01*
X51629591Y-50871755D01*
X51605793Y-50877716D01*
X51581524Y-50881316D01*
X51557020Y-50882520D01*
X50807020Y-50882520D01*
X50782516Y-50881316D01*
X50758247Y-50877716D01*
X50734449Y-50871755D01*
X50711349Y-50863490D01*
X50689171Y-50853000D01*
X50668127Y-50840387D01*
X50648422Y-50825773D01*
X50630243Y-50809297D01*
X50613767Y-50791118D01*
X50599153Y-50771413D01*
X50586540Y-50750369D01*
X50576050Y-50728191D01*
X50567785Y-50705091D01*
X50561824Y-50681293D01*
X50558224Y-50657024D01*
X50557020Y-50632520D01*
X50557020Y-49382520D01*
X50558224Y-49358016D01*
X50561824Y-49333747D01*
X50567785Y-49309949D01*
X50576050Y-49286849D01*
X50586540Y-49264671D01*
X50599153Y-49243627D01*
X50613767Y-49223922D01*
X50630243Y-49205743D01*
X50648422Y-49189267D01*
X50668127Y-49174653D01*
X50689171Y-49162040D01*
X50711349Y-49151550D01*
X50734449Y-49143285D01*
X50758247Y-49137324D01*
X50782516Y-49133724D01*
X50807020Y-49132520D01*
X51557020Y-49132520D01*
X51581524Y-49133724D01*
G37*
G36*
X48781524Y-49133724D02*
G01*
X48805793Y-49137324D01*
X48829591Y-49143285D01*
X48852691Y-49151550D01*
X48874869Y-49162040D01*
X48895913Y-49174653D01*
X48915618Y-49189267D01*
X48933797Y-49205743D01*
X48950273Y-49223922D01*
X48964887Y-49243627D01*
X48977500Y-49264671D01*
X48987990Y-49286849D01*
X48996255Y-49309949D01*
X49002216Y-49333747D01*
X49005816Y-49358016D01*
X49007020Y-49382520D01*
X49007020Y-50632520D01*
X49005816Y-50657024D01*
X49002216Y-50681293D01*
X48996255Y-50705091D01*
X48987990Y-50728191D01*
X48977500Y-50750369D01*
X48964887Y-50771413D01*
X48950273Y-50791118D01*
X48933797Y-50809297D01*
X48915618Y-50825773D01*
X48895913Y-50840387D01*
X48874869Y-50853000D01*
X48852691Y-50863490D01*
X48829591Y-50871755D01*
X48805793Y-50877716D01*
X48781524Y-50881316D01*
X48757020Y-50882520D01*
X48007020Y-50882520D01*
X47982516Y-50881316D01*
X47958247Y-50877716D01*
X47934449Y-50871755D01*
X47911349Y-50863490D01*
X47889171Y-50853000D01*
X47868127Y-50840387D01*
X47848422Y-50825773D01*
X47830243Y-50809297D01*
X47813767Y-50791118D01*
X47799153Y-50771413D01*
X47786540Y-50750369D01*
X47776050Y-50728191D01*
X47767785Y-50705091D01*
X47761824Y-50681293D01*
X47758224Y-50657024D01*
X47757020Y-50632520D01*
X47757020Y-49382520D01*
X47758224Y-49358016D01*
X47761824Y-49333747D01*
X47767785Y-49309949D01*
X47776050Y-49286849D01*
X47786540Y-49264671D01*
X47799153Y-49243627D01*
X47813767Y-49223922D01*
X47830243Y-49205743D01*
X47848422Y-49189267D01*
X47868127Y-49174653D01*
X47889171Y-49162040D01*
X47911349Y-49151550D01*
X47934449Y-49143285D01*
X47958247Y-49137324D01*
X47982516Y-49133724D01*
X48007020Y-49132520D01*
X48757020Y-49132520D01*
X48781524Y-49133724D01*
G37*
D17*
X41393520Y-48654520D03*
X41393520Y-50154520D03*
X41393520Y-50654520D03*
X41393520Y-51154520D03*
X41393520Y-51654520D03*
X41393520Y-52154520D03*
X41393520Y-52654520D03*
X41393520Y-54154520D03*
X43123520Y-54154520D03*
X43123520Y-52654520D03*
X43123520Y-52154520D03*
X43123520Y-51654520D03*
X43123520Y-51154520D03*
X43123520Y-50654520D03*
X43123520Y-50154520D03*
X43123520Y-48654520D03*
D18*
X46939500Y-32575500D03*
X47294500Y-32575500D03*
D10*
G36*
X69688978Y-59324730D02*
G01*
X69703296Y-59326854D01*
X69717337Y-59330371D01*
X69730966Y-59335248D01*
X69744051Y-59341437D01*
X69756467Y-59348878D01*
X69768093Y-59357501D01*
X69778818Y-59367222D01*
X69788539Y-59377947D01*
X69797162Y-59389573D01*
X69804603Y-59401989D01*
X69810792Y-59415074D01*
X69815669Y-59428703D01*
X69819186Y-59442744D01*
X69821310Y-59457062D01*
X69822020Y-59471520D01*
X69822020Y-59766520D01*
X69821310Y-59780978D01*
X69819186Y-59795296D01*
X69815669Y-59809337D01*
X69810792Y-59822966D01*
X69804603Y-59836051D01*
X69797162Y-59848467D01*
X69788539Y-59860093D01*
X69778818Y-59870818D01*
X69768093Y-59880539D01*
X69756467Y-59889162D01*
X69744051Y-59896603D01*
X69730966Y-59902792D01*
X69717337Y-59907669D01*
X69703296Y-59911186D01*
X69688978Y-59913310D01*
X69674520Y-59914020D01*
X69329520Y-59914020D01*
X69315062Y-59913310D01*
X69300744Y-59911186D01*
X69286703Y-59907669D01*
X69273074Y-59902792D01*
X69259989Y-59896603D01*
X69247573Y-59889162D01*
X69235947Y-59880539D01*
X69225222Y-59870818D01*
X69215501Y-59860093D01*
X69206878Y-59848467D01*
X69199437Y-59836051D01*
X69193248Y-59822966D01*
X69188371Y-59809337D01*
X69184854Y-59795296D01*
X69182730Y-59780978D01*
X69182020Y-59766520D01*
X69182020Y-59471520D01*
X69182730Y-59457062D01*
X69184854Y-59442744D01*
X69188371Y-59428703D01*
X69193248Y-59415074D01*
X69199437Y-59401989D01*
X69206878Y-59389573D01*
X69215501Y-59377947D01*
X69225222Y-59367222D01*
X69235947Y-59357501D01*
X69247573Y-59348878D01*
X69259989Y-59341437D01*
X69273074Y-59335248D01*
X69286703Y-59330371D01*
X69300744Y-59326854D01*
X69315062Y-59324730D01*
X69329520Y-59324020D01*
X69674520Y-59324020D01*
X69688978Y-59324730D01*
G37*
G36*
X69688978Y-60294730D02*
G01*
X69703296Y-60296854D01*
X69717337Y-60300371D01*
X69730966Y-60305248D01*
X69744051Y-60311437D01*
X69756467Y-60318878D01*
X69768093Y-60327501D01*
X69778818Y-60337222D01*
X69788539Y-60347947D01*
X69797162Y-60359573D01*
X69804603Y-60371989D01*
X69810792Y-60385074D01*
X69815669Y-60398703D01*
X69819186Y-60412744D01*
X69821310Y-60427062D01*
X69822020Y-60441520D01*
X69822020Y-60736520D01*
X69821310Y-60750978D01*
X69819186Y-60765296D01*
X69815669Y-60779337D01*
X69810792Y-60792966D01*
X69804603Y-60806051D01*
X69797162Y-60818467D01*
X69788539Y-60830093D01*
X69778818Y-60840818D01*
X69768093Y-60850539D01*
X69756467Y-60859162D01*
X69744051Y-60866603D01*
X69730966Y-60872792D01*
X69717337Y-60877669D01*
X69703296Y-60881186D01*
X69688978Y-60883310D01*
X69674520Y-60884020D01*
X69329520Y-60884020D01*
X69315062Y-60883310D01*
X69300744Y-60881186D01*
X69286703Y-60877669D01*
X69273074Y-60872792D01*
X69259989Y-60866603D01*
X69247573Y-60859162D01*
X69235947Y-60850539D01*
X69225222Y-60840818D01*
X69215501Y-60830093D01*
X69206878Y-60818467D01*
X69199437Y-60806051D01*
X69193248Y-60792966D01*
X69188371Y-60779337D01*
X69184854Y-60765296D01*
X69182730Y-60750978D01*
X69182020Y-60736520D01*
X69182020Y-60441520D01*
X69182730Y-60427062D01*
X69184854Y-60412744D01*
X69188371Y-60398703D01*
X69193248Y-60385074D01*
X69199437Y-60371989D01*
X69206878Y-60359573D01*
X69215501Y-60347947D01*
X69225222Y-60337222D01*
X69235947Y-60327501D01*
X69247573Y-60318878D01*
X69259989Y-60311437D01*
X69273074Y-60305248D01*
X69286703Y-60300371D01*
X69300744Y-60296854D01*
X69315062Y-60294730D01*
X69329520Y-60294020D01*
X69674520Y-60294020D01*
X69688978Y-60294730D01*
G37*
G36*
X65942478Y-59324730D02*
G01*
X65956796Y-59326854D01*
X65970837Y-59330371D01*
X65984466Y-59335248D01*
X65997551Y-59341437D01*
X66009967Y-59348878D01*
X66021593Y-59357501D01*
X66032318Y-59367222D01*
X66042039Y-59377947D01*
X66050662Y-59389573D01*
X66058103Y-59401989D01*
X66064292Y-59415074D01*
X66069169Y-59428703D01*
X66072686Y-59442744D01*
X66074810Y-59457062D01*
X66075520Y-59471520D01*
X66075520Y-59766520D01*
X66074810Y-59780978D01*
X66072686Y-59795296D01*
X66069169Y-59809337D01*
X66064292Y-59822966D01*
X66058103Y-59836051D01*
X66050662Y-59848467D01*
X66042039Y-59860093D01*
X66032318Y-59870818D01*
X66021593Y-59880539D01*
X66009967Y-59889162D01*
X65997551Y-59896603D01*
X65984466Y-59902792D01*
X65970837Y-59907669D01*
X65956796Y-59911186D01*
X65942478Y-59913310D01*
X65928020Y-59914020D01*
X65583020Y-59914020D01*
X65568562Y-59913310D01*
X65554244Y-59911186D01*
X65540203Y-59907669D01*
X65526574Y-59902792D01*
X65513489Y-59896603D01*
X65501073Y-59889162D01*
X65489447Y-59880539D01*
X65478722Y-59870818D01*
X65469001Y-59860093D01*
X65460378Y-59848467D01*
X65452937Y-59836051D01*
X65446748Y-59822966D01*
X65441871Y-59809337D01*
X65438354Y-59795296D01*
X65436230Y-59780978D01*
X65435520Y-59766520D01*
X65435520Y-59471520D01*
X65436230Y-59457062D01*
X65438354Y-59442744D01*
X65441871Y-59428703D01*
X65446748Y-59415074D01*
X65452937Y-59401989D01*
X65460378Y-59389573D01*
X65469001Y-59377947D01*
X65478722Y-59367222D01*
X65489447Y-59357501D01*
X65501073Y-59348878D01*
X65513489Y-59341437D01*
X65526574Y-59335248D01*
X65540203Y-59330371D01*
X65554244Y-59326854D01*
X65568562Y-59324730D01*
X65583020Y-59324020D01*
X65928020Y-59324020D01*
X65942478Y-59324730D01*
G37*
G36*
X65942478Y-60294730D02*
G01*
X65956796Y-60296854D01*
X65970837Y-60300371D01*
X65984466Y-60305248D01*
X65997551Y-60311437D01*
X66009967Y-60318878D01*
X66021593Y-60327501D01*
X66032318Y-60337222D01*
X66042039Y-60347947D01*
X66050662Y-60359573D01*
X66058103Y-60371989D01*
X66064292Y-60385074D01*
X66069169Y-60398703D01*
X66072686Y-60412744D01*
X66074810Y-60427062D01*
X66075520Y-60441520D01*
X66075520Y-60736520D01*
X66074810Y-60750978D01*
X66072686Y-60765296D01*
X66069169Y-60779337D01*
X66064292Y-60792966D01*
X66058103Y-60806051D01*
X66050662Y-60818467D01*
X66042039Y-60830093D01*
X66032318Y-60840818D01*
X66021593Y-60850539D01*
X66009967Y-60859162D01*
X65997551Y-60866603D01*
X65984466Y-60872792D01*
X65970837Y-60877669D01*
X65956796Y-60881186D01*
X65942478Y-60883310D01*
X65928020Y-60884020D01*
X65583020Y-60884020D01*
X65568562Y-60883310D01*
X65554244Y-60881186D01*
X65540203Y-60877669D01*
X65526574Y-60872792D01*
X65513489Y-60866603D01*
X65501073Y-60859162D01*
X65489447Y-60850539D01*
X65478722Y-60840818D01*
X65469001Y-60830093D01*
X65460378Y-60818467D01*
X65452937Y-60806051D01*
X65446748Y-60792966D01*
X65441871Y-60779337D01*
X65438354Y-60765296D01*
X65436230Y-60750978D01*
X65435520Y-60736520D01*
X65435520Y-60441520D01*
X65436230Y-60427062D01*
X65438354Y-60412744D01*
X65441871Y-60398703D01*
X65446748Y-60385074D01*
X65452937Y-60371989D01*
X65460378Y-60359573D01*
X65469001Y-60347947D01*
X65478722Y-60337222D01*
X65489447Y-60327501D01*
X65501073Y-60318878D01*
X65513489Y-60311437D01*
X65526574Y-60305248D01*
X65540203Y-60300371D01*
X65554244Y-60296854D01*
X65568562Y-60294730D01*
X65583020Y-60294020D01*
X65928020Y-60294020D01*
X65942478Y-60294730D01*
G37*
D11*
X45593000Y-40373000D03*
X45593000Y-40018000D03*
D10*
G36*
X54749520Y-37261320D02*
G01*
X55449520Y-36261320D01*
X56249520Y-36261320D01*
X56949520Y-37261320D01*
X54749520Y-37261320D01*
G37*
D19*
X55849520Y-38171020D03*
D20*
X54349520Y-35357520D03*
D21*
X55849520Y-35504020D03*
D20*
X57349520Y-35357520D03*
D10*
G36*
X56949520Y-39079520D02*
G01*
X56349520Y-39929520D01*
X55349520Y-39929520D01*
X54749520Y-39079520D01*
X56949520Y-39079520D01*
G37*
G36*
X51767004Y-37413724D02*
G01*
X51791273Y-37417324D01*
X51815071Y-37423285D01*
X51838171Y-37431550D01*
X51860349Y-37442040D01*
X51881393Y-37454653D01*
X51901098Y-37469267D01*
X51919277Y-37485743D01*
X51935753Y-37503922D01*
X51950367Y-37523627D01*
X51962980Y-37544671D01*
X51973470Y-37566849D01*
X51981735Y-37589949D01*
X51987696Y-37613747D01*
X51991296Y-37638016D01*
X51992500Y-37662520D01*
X51992500Y-38412520D01*
X51991296Y-38437024D01*
X51987696Y-38461293D01*
X51981735Y-38485091D01*
X51973470Y-38508191D01*
X51962980Y-38530369D01*
X51950367Y-38551413D01*
X51935753Y-38571118D01*
X51919277Y-38589297D01*
X51901098Y-38605773D01*
X51881393Y-38620387D01*
X51860349Y-38633000D01*
X51838171Y-38643490D01*
X51815071Y-38651755D01*
X51791273Y-38657716D01*
X51767004Y-38661316D01*
X51742500Y-38662520D01*
X50492500Y-38662520D01*
X50467996Y-38661316D01*
X50443727Y-38657716D01*
X50419929Y-38651755D01*
X50396829Y-38643490D01*
X50374651Y-38633000D01*
X50353607Y-38620387D01*
X50333902Y-38605773D01*
X50315723Y-38589297D01*
X50299247Y-38571118D01*
X50284633Y-38551413D01*
X50272020Y-38530369D01*
X50261530Y-38508191D01*
X50253265Y-38485091D01*
X50247304Y-38461293D01*
X50243704Y-38437024D01*
X50242500Y-38412520D01*
X50242500Y-37662520D01*
X50243704Y-37638016D01*
X50247304Y-37613747D01*
X50253265Y-37589949D01*
X50261530Y-37566849D01*
X50272020Y-37544671D01*
X50284633Y-37523627D01*
X50299247Y-37503922D01*
X50315723Y-37485743D01*
X50333902Y-37469267D01*
X50353607Y-37454653D01*
X50374651Y-37442040D01*
X50396829Y-37431550D01*
X50419929Y-37423285D01*
X50443727Y-37417324D01*
X50467996Y-37413724D01*
X50492500Y-37412520D01*
X51742500Y-37412520D01*
X51767004Y-37413724D01*
G37*
G36*
X51767004Y-34613724D02*
G01*
X51791273Y-34617324D01*
X51815071Y-34623285D01*
X51838171Y-34631550D01*
X51860349Y-34642040D01*
X51881393Y-34654653D01*
X51901098Y-34669267D01*
X51919277Y-34685743D01*
X51935753Y-34703922D01*
X51950367Y-34723627D01*
X51962980Y-34744671D01*
X51973470Y-34766849D01*
X51981735Y-34789949D01*
X51987696Y-34813747D01*
X51991296Y-34838016D01*
X51992500Y-34862520D01*
X51992500Y-35612520D01*
X51991296Y-35637024D01*
X51987696Y-35661293D01*
X51981735Y-35685091D01*
X51973470Y-35708191D01*
X51962980Y-35730369D01*
X51950367Y-35751413D01*
X51935753Y-35771118D01*
X51919277Y-35789297D01*
X51901098Y-35805773D01*
X51881393Y-35820387D01*
X51860349Y-35833000D01*
X51838171Y-35843490D01*
X51815071Y-35851755D01*
X51791273Y-35857716D01*
X51767004Y-35861316D01*
X51742500Y-35862520D01*
X50492500Y-35862520D01*
X50467996Y-35861316D01*
X50443727Y-35857716D01*
X50419929Y-35851755D01*
X50396829Y-35843490D01*
X50374651Y-35833000D01*
X50353607Y-35820387D01*
X50333902Y-35805773D01*
X50315723Y-35789297D01*
X50299247Y-35771118D01*
X50284633Y-35751413D01*
X50272020Y-35730369D01*
X50261530Y-35708191D01*
X50253265Y-35685091D01*
X50247304Y-35661293D01*
X50243704Y-35637024D01*
X50242500Y-35612520D01*
X50242500Y-34862520D01*
X50243704Y-34838016D01*
X50247304Y-34813747D01*
X50253265Y-34789949D01*
X50261530Y-34766849D01*
X50272020Y-34744671D01*
X50284633Y-34723627D01*
X50299247Y-34703922D01*
X50315723Y-34685743D01*
X50333902Y-34669267D01*
X50353607Y-34654653D01*
X50374651Y-34642040D01*
X50396829Y-34631550D01*
X50419929Y-34623285D01*
X50443727Y-34617324D01*
X50467996Y-34613724D01*
X50492500Y-34612520D01*
X51742500Y-34612520D01*
X51767004Y-34613724D01*
G37*
G36*
X44518662Y-36488694D02*
G01*
X44542323Y-36492204D01*
X44565527Y-36498016D01*
X44588049Y-36506074D01*
X44609673Y-36516302D01*
X44630190Y-36528599D01*
X44649403Y-36542849D01*
X44667127Y-36558913D01*
X44683191Y-36576637D01*
X44697441Y-36595850D01*
X44709738Y-36616367D01*
X44719966Y-36637991D01*
X44728024Y-36660513D01*
X44733836Y-36683717D01*
X44737346Y-36707378D01*
X44738520Y-36731270D01*
X44738520Y-37218770D01*
X44737346Y-37242662D01*
X44733836Y-37266323D01*
X44728024Y-37289527D01*
X44719966Y-37312049D01*
X44709738Y-37333673D01*
X44697441Y-37354190D01*
X44683191Y-37373403D01*
X44667127Y-37391127D01*
X44649403Y-37407191D01*
X44630190Y-37421441D01*
X44609673Y-37433738D01*
X44588049Y-37443966D01*
X44565527Y-37452024D01*
X44542323Y-37457836D01*
X44518662Y-37461346D01*
X44494770Y-37462520D01*
X43582270Y-37462520D01*
X43558378Y-37461346D01*
X43534717Y-37457836D01*
X43511513Y-37452024D01*
X43488991Y-37443966D01*
X43467367Y-37433738D01*
X43446850Y-37421441D01*
X43427637Y-37407191D01*
X43409913Y-37391127D01*
X43393849Y-37373403D01*
X43379599Y-37354190D01*
X43367302Y-37333673D01*
X43357074Y-37312049D01*
X43349016Y-37289527D01*
X43343204Y-37266323D01*
X43339694Y-37242662D01*
X43338520Y-37218770D01*
X43338520Y-36731270D01*
X43339694Y-36707378D01*
X43343204Y-36683717D01*
X43349016Y-36660513D01*
X43357074Y-36637991D01*
X43367302Y-36616367D01*
X43379599Y-36595850D01*
X43393849Y-36576637D01*
X43409913Y-36558913D01*
X43427637Y-36542849D01*
X43446850Y-36528599D01*
X43467367Y-36516302D01*
X43488991Y-36506074D01*
X43511513Y-36498016D01*
X43534717Y-36492204D01*
X43558378Y-36488694D01*
X43582270Y-36487520D01*
X44494770Y-36487520D01*
X44518662Y-36488694D01*
G37*
G36*
X44518662Y-34613694D02*
G01*
X44542323Y-34617204D01*
X44565527Y-34623016D01*
X44588049Y-34631074D01*
X44609673Y-34641302D01*
X44630190Y-34653599D01*
X44649403Y-34667849D01*
X44667127Y-34683913D01*
X44683191Y-34701637D01*
X44697441Y-34720850D01*
X44709738Y-34741367D01*
X44719966Y-34762991D01*
X44728024Y-34785513D01*
X44733836Y-34808717D01*
X44737346Y-34832378D01*
X44738520Y-34856270D01*
X44738520Y-35343770D01*
X44737346Y-35367662D01*
X44733836Y-35391323D01*
X44728024Y-35414527D01*
X44719966Y-35437049D01*
X44709738Y-35458673D01*
X44697441Y-35479190D01*
X44683191Y-35498403D01*
X44667127Y-35516127D01*
X44649403Y-35532191D01*
X44630190Y-35546441D01*
X44609673Y-35558738D01*
X44588049Y-35568966D01*
X44565527Y-35577024D01*
X44542323Y-35582836D01*
X44518662Y-35586346D01*
X44494770Y-35587520D01*
X43582270Y-35587520D01*
X43558378Y-35586346D01*
X43534717Y-35582836D01*
X43511513Y-35577024D01*
X43488991Y-35568966D01*
X43467367Y-35558738D01*
X43446850Y-35546441D01*
X43427637Y-35532191D01*
X43409913Y-35516127D01*
X43393849Y-35498403D01*
X43379599Y-35479190D01*
X43367302Y-35458673D01*
X43357074Y-35437049D01*
X43349016Y-35414527D01*
X43343204Y-35391323D01*
X43339694Y-35367662D01*
X43338520Y-35343770D01*
X43338520Y-34856270D01*
X43339694Y-34832378D01*
X43343204Y-34808717D01*
X43349016Y-34785513D01*
X43357074Y-34762991D01*
X43367302Y-34741367D01*
X43379599Y-34720850D01*
X43393849Y-34701637D01*
X43409913Y-34683913D01*
X43427637Y-34667849D01*
X43446850Y-34653599D01*
X43467367Y-34641302D01*
X43488991Y-34631074D01*
X43511513Y-34623016D01*
X43534717Y-34617204D01*
X43558378Y-34613694D01*
X43582270Y-34612520D01*
X44494770Y-34612520D01*
X44518662Y-34613694D01*
G37*
G36*
X42408024Y-31163224D02*
G01*
X42432293Y-31166824D01*
X42456091Y-31172785D01*
X42479191Y-31181050D01*
X42501369Y-31191540D01*
X42522413Y-31204153D01*
X42542118Y-31218767D01*
X42560297Y-31235243D01*
X42576773Y-31253422D01*
X42591387Y-31273127D01*
X42604000Y-31294171D01*
X42614490Y-31316349D01*
X42622755Y-31339449D01*
X42628716Y-31363247D01*
X42632316Y-31387516D01*
X42633520Y-31412020D01*
X42633520Y-32662020D01*
X42632316Y-32686524D01*
X42628716Y-32710793D01*
X42622755Y-32734591D01*
X42614490Y-32757691D01*
X42604000Y-32779869D01*
X42591387Y-32800913D01*
X42576773Y-32820618D01*
X42560297Y-32838797D01*
X42542118Y-32855273D01*
X42522413Y-32869887D01*
X42501369Y-32882500D01*
X42479191Y-32892990D01*
X42456091Y-32901255D01*
X42432293Y-32907216D01*
X42408024Y-32910816D01*
X42383520Y-32912020D01*
X41633520Y-32912020D01*
X41609016Y-32910816D01*
X41584747Y-32907216D01*
X41560949Y-32901255D01*
X41537849Y-32892990D01*
X41515671Y-32882500D01*
X41494627Y-32869887D01*
X41474922Y-32855273D01*
X41456743Y-32838797D01*
X41440267Y-32820618D01*
X41425653Y-32800913D01*
X41413040Y-32779869D01*
X41402550Y-32757691D01*
X41394285Y-32734591D01*
X41388324Y-32710793D01*
X41384724Y-32686524D01*
X41383520Y-32662020D01*
X41383520Y-31412020D01*
X41384724Y-31387516D01*
X41388324Y-31363247D01*
X41394285Y-31339449D01*
X41402550Y-31316349D01*
X41413040Y-31294171D01*
X41425653Y-31273127D01*
X41440267Y-31253422D01*
X41456743Y-31235243D01*
X41474922Y-31218767D01*
X41494627Y-31204153D01*
X41515671Y-31191540D01*
X41537849Y-31181050D01*
X41560949Y-31172785D01*
X41584747Y-31166824D01*
X41609016Y-31163224D01*
X41633520Y-31162020D01*
X42383520Y-31162020D01*
X42408024Y-31163224D01*
G37*
G36*
X39608024Y-31163224D02*
G01*
X39632293Y-31166824D01*
X39656091Y-31172785D01*
X39679191Y-31181050D01*
X39701369Y-31191540D01*
X39722413Y-31204153D01*
X39742118Y-31218767D01*
X39760297Y-31235243D01*
X39776773Y-31253422D01*
X39791387Y-31273127D01*
X39804000Y-31294171D01*
X39814490Y-31316349D01*
X39822755Y-31339449D01*
X39828716Y-31363247D01*
X39832316Y-31387516D01*
X39833520Y-31412020D01*
X39833520Y-32662020D01*
X39832316Y-32686524D01*
X39828716Y-32710793D01*
X39822755Y-32734591D01*
X39814490Y-32757691D01*
X39804000Y-32779869D01*
X39791387Y-32800913D01*
X39776773Y-32820618D01*
X39760297Y-32838797D01*
X39742118Y-32855273D01*
X39722413Y-32869887D01*
X39701369Y-32882500D01*
X39679191Y-32892990D01*
X39656091Y-32901255D01*
X39632293Y-32907216D01*
X39608024Y-32910816D01*
X39583520Y-32912020D01*
X38833520Y-32912020D01*
X38809016Y-32910816D01*
X38784747Y-32907216D01*
X38760949Y-32901255D01*
X38737849Y-32892990D01*
X38715671Y-32882500D01*
X38694627Y-32869887D01*
X38674922Y-32855273D01*
X38656743Y-32838797D01*
X38640267Y-32820618D01*
X38625653Y-32800913D01*
X38613040Y-32779869D01*
X38602550Y-32757691D01*
X38594285Y-32734591D01*
X38588324Y-32710793D01*
X38584724Y-32686524D01*
X38583520Y-32662020D01*
X38583520Y-31412020D01*
X38584724Y-31387516D01*
X38588324Y-31363247D01*
X38594285Y-31339449D01*
X38602550Y-31316349D01*
X38613040Y-31294171D01*
X38625653Y-31273127D01*
X38640267Y-31253422D01*
X38656743Y-31235243D01*
X38674922Y-31218767D01*
X38694627Y-31204153D01*
X38715671Y-31191540D01*
X38737849Y-31181050D01*
X38760949Y-31172785D01*
X38784747Y-31166824D01*
X38809016Y-31163224D01*
X38833520Y-31162020D01*
X39583520Y-31162020D01*
X39608024Y-31163224D01*
G37*
G36*
X60838162Y-36488694D02*
G01*
X60861823Y-36492204D01*
X60885027Y-36498016D01*
X60907549Y-36506074D01*
X60929173Y-36516302D01*
X60949690Y-36528599D01*
X60968903Y-36542849D01*
X60986627Y-36558913D01*
X61002691Y-36576637D01*
X61016941Y-36595850D01*
X61029238Y-36616367D01*
X61039466Y-36637991D01*
X61047524Y-36660513D01*
X61053336Y-36683717D01*
X61056846Y-36707378D01*
X61058020Y-36731270D01*
X61058020Y-37218770D01*
X61056846Y-37242662D01*
X61053336Y-37266323D01*
X61047524Y-37289527D01*
X61039466Y-37312049D01*
X61029238Y-37333673D01*
X61016941Y-37354190D01*
X61002691Y-37373403D01*
X60986627Y-37391127D01*
X60968903Y-37407191D01*
X60949690Y-37421441D01*
X60929173Y-37433738D01*
X60907549Y-37443966D01*
X60885027Y-37452024D01*
X60861823Y-37457836D01*
X60838162Y-37461346D01*
X60814270Y-37462520D01*
X59901770Y-37462520D01*
X59877878Y-37461346D01*
X59854217Y-37457836D01*
X59831013Y-37452024D01*
X59808491Y-37443966D01*
X59786867Y-37433738D01*
X59766350Y-37421441D01*
X59747137Y-37407191D01*
X59729413Y-37391127D01*
X59713349Y-37373403D01*
X59699099Y-37354190D01*
X59686802Y-37333673D01*
X59676574Y-37312049D01*
X59668516Y-37289527D01*
X59662704Y-37266323D01*
X59659194Y-37242662D01*
X59658020Y-37218770D01*
X59658020Y-36731270D01*
X59659194Y-36707378D01*
X59662704Y-36683717D01*
X59668516Y-36660513D01*
X59676574Y-36637991D01*
X59686802Y-36616367D01*
X59699099Y-36595850D01*
X59713349Y-36576637D01*
X59729413Y-36558913D01*
X59747137Y-36542849D01*
X59766350Y-36528599D01*
X59786867Y-36516302D01*
X59808491Y-36506074D01*
X59831013Y-36498016D01*
X59854217Y-36492204D01*
X59877878Y-36488694D01*
X59901770Y-36487520D01*
X60814270Y-36487520D01*
X60838162Y-36488694D01*
G37*
G36*
X60838162Y-34613694D02*
G01*
X60861823Y-34617204D01*
X60885027Y-34623016D01*
X60907549Y-34631074D01*
X60929173Y-34641302D01*
X60949690Y-34653599D01*
X60968903Y-34667849D01*
X60986627Y-34683913D01*
X61002691Y-34701637D01*
X61016941Y-34720850D01*
X61029238Y-34741367D01*
X61039466Y-34762991D01*
X61047524Y-34785513D01*
X61053336Y-34808717D01*
X61056846Y-34832378D01*
X61058020Y-34856270D01*
X61058020Y-35343770D01*
X61056846Y-35367662D01*
X61053336Y-35391323D01*
X61047524Y-35414527D01*
X61039466Y-35437049D01*
X61029238Y-35458673D01*
X61016941Y-35479190D01*
X61002691Y-35498403D01*
X60986627Y-35516127D01*
X60968903Y-35532191D01*
X60949690Y-35546441D01*
X60929173Y-35558738D01*
X60907549Y-35568966D01*
X60885027Y-35577024D01*
X60861823Y-35582836D01*
X60838162Y-35586346D01*
X60814270Y-35587520D01*
X59901770Y-35587520D01*
X59877878Y-35586346D01*
X59854217Y-35582836D01*
X59831013Y-35577024D01*
X59808491Y-35568966D01*
X59786867Y-35558738D01*
X59766350Y-35546441D01*
X59747137Y-35532191D01*
X59729413Y-35516127D01*
X59713349Y-35498403D01*
X59699099Y-35479190D01*
X59686802Y-35458673D01*
X59676574Y-35437049D01*
X59668516Y-35414527D01*
X59662704Y-35391323D01*
X59659194Y-35367662D01*
X59658020Y-35343770D01*
X59658020Y-34856270D01*
X59659194Y-34832378D01*
X59662704Y-34808717D01*
X59668516Y-34785513D01*
X59676574Y-34762991D01*
X59686802Y-34741367D01*
X59699099Y-34720850D01*
X59713349Y-34701637D01*
X59729413Y-34683913D01*
X59747137Y-34667849D01*
X59766350Y-34653599D01*
X59786867Y-34641302D01*
X59808491Y-34631074D01*
X59831013Y-34623016D01*
X59854217Y-34617204D01*
X59877878Y-34613694D01*
X59901770Y-34612520D01*
X60814270Y-34612520D01*
X60838162Y-34613694D01*
G37*
G36*
X50932162Y-57507194D02*
G01*
X50955823Y-57510704D01*
X50979027Y-57516516D01*
X51001549Y-57524574D01*
X51023173Y-57534802D01*
X51043690Y-57547099D01*
X51062903Y-57561349D01*
X51080627Y-57577413D01*
X51096691Y-57595137D01*
X51110941Y-57614350D01*
X51123238Y-57634867D01*
X51133466Y-57656491D01*
X51141524Y-57679013D01*
X51147336Y-57702217D01*
X51150846Y-57725878D01*
X51152020Y-57749770D01*
X51152020Y-58237270D01*
X51150846Y-58261162D01*
X51147336Y-58284823D01*
X51141524Y-58308027D01*
X51133466Y-58330549D01*
X51123238Y-58352173D01*
X51110941Y-58372690D01*
X51096691Y-58391903D01*
X51080627Y-58409627D01*
X51062903Y-58425691D01*
X51043690Y-58439941D01*
X51023173Y-58452238D01*
X51001549Y-58462466D01*
X50979027Y-58470524D01*
X50955823Y-58476336D01*
X50932162Y-58479846D01*
X50908270Y-58481020D01*
X49995770Y-58481020D01*
X49971878Y-58479846D01*
X49948217Y-58476336D01*
X49925013Y-58470524D01*
X49902491Y-58462466D01*
X49880867Y-58452238D01*
X49860350Y-58439941D01*
X49841137Y-58425691D01*
X49823413Y-58409627D01*
X49807349Y-58391903D01*
X49793099Y-58372690D01*
X49780802Y-58352173D01*
X49770574Y-58330549D01*
X49762516Y-58308027D01*
X49756704Y-58284823D01*
X49753194Y-58261162D01*
X49752020Y-58237270D01*
X49752020Y-57749770D01*
X49753194Y-57725878D01*
X49756704Y-57702217D01*
X49762516Y-57679013D01*
X49770574Y-57656491D01*
X49780802Y-57634867D01*
X49793099Y-57614350D01*
X49807349Y-57595137D01*
X49823413Y-57577413D01*
X49841137Y-57561349D01*
X49860350Y-57547099D01*
X49880867Y-57534802D01*
X49902491Y-57524574D01*
X49925013Y-57516516D01*
X49948217Y-57510704D01*
X49971878Y-57507194D01*
X49995770Y-57506020D01*
X50908270Y-57506020D01*
X50932162Y-57507194D01*
G37*
G36*
X50932162Y-55632194D02*
G01*
X50955823Y-55635704D01*
X50979027Y-55641516D01*
X51001549Y-55649574D01*
X51023173Y-55659802D01*
X51043690Y-55672099D01*
X51062903Y-55686349D01*
X51080627Y-55702413D01*
X51096691Y-55720137D01*
X51110941Y-55739350D01*
X51123238Y-55759867D01*
X51133466Y-55781491D01*
X51141524Y-55804013D01*
X51147336Y-55827217D01*
X51150846Y-55850878D01*
X51152020Y-55874770D01*
X51152020Y-56362270D01*
X51150846Y-56386162D01*
X51147336Y-56409823D01*
X51141524Y-56433027D01*
X51133466Y-56455549D01*
X51123238Y-56477173D01*
X51110941Y-56497690D01*
X51096691Y-56516903D01*
X51080627Y-56534627D01*
X51062903Y-56550691D01*
X51043690Y-56564941D01*
X51023173Y-56577238D01*
X51001549Y-56587466D01*
X50979027Y-56595524D01*
X50955823Y-56601336D01*
X50932162Y-56604846D01*
X50908270Y-56606020D01*
X49995770Y-56606020D01*
X49971878Y-56604846D01*
X49948217Y-56601336D01*
X49925013Y-56595524D01*
X49902491Y-56587466D01*
X49880867Y-56577238D01*
X49860350Y-56564941D01*
X49841137Y-56550691D01*
X49823413Y-56534627D01*
X49807349Y-56516903D01*
X49793099Y-56497690D01*
X49780802Y-56477173D01*
X49770574Y-56455549D01*
X49762516Y-56433027D01*
X49756704Y-56409823D01*
X49753194Y-56386162D01*
X49752020Y-56362270D01*
X49752020Y-55874770D01*
X49753194Y-55850878D01*
X49756704Y-55827217D01*
X49762516Y-55804013D01*
X49770574Y-55781491D01*
X49780802Y-55759867D01*
X49793099Y-55739350D01*
X49807349Y-55720137D01*
X49823413Y-55702413D01*
X49841137Y-55686349D01*
X49860350Y-55672099D01*
X49880867Y-55659802D01*
X49902491Y-55649574D01*
X49925013Y-55641516D01*
X49948217Y-55635704D01*
X49971878Y-55632194D01*
X49995770Y-55631020D01*
X50908270Y-55631020D01*
X50932162Y-55632194D01*
G37*
G36*
X61727162Y-58140194D02*
G01*
X61750823Y-58143704D01*
X61774027Y-58149516D01*
X61796549Y-58157574D01*
X61818173Y-58167802D01*
X61838690Y-58180099D01*
X61857903Y-58194349D01*
X61875627Y-58210413D01*
X61891691Y-58228137D01*
X61905941Y-58247350D01*
X61918238Y-58267867D01*
X61928466Y-58289491D01*
X61936524Y-58312013D01*
X61942336Y-58335217D01*
X61945846Y-58358878D01*
X61947020Y-58382770D01*
X61947020Y-58870270D01*
X61945846Y-58894162D01*
X61942336Y-58917823D01*
X61936524Y-58941027D01*
X61928466Y-58963549D01*
X61918238Y-58985173D01*
X61905941Y-59005690D01*
X61891691Y-59024903D01*
X61875627Y-59042627D01*
X61857903Y-59058691D01*
X61838690Y-59072941D01*
X61818173Y-59085238D01*
X61796549Y-59095466D01*
X61774027Y-59103524D01*
X61750823Y-59109336D01*
X61727162Y-59112846D01*
X61703270Y-59114020D01*
X60790770Y-59114020D01*
X60766878Y-59112846D01*
X60743217Y-59109336D01*
X60720013Y-59103524D01*
X60697491Y-59095466D01*
X60675867Y-59085238D01*
X60655350Y-59072941D01*
X60636137Y-59058691D01*
X60618413Y-59042627D01*
X60602349Y-59024903D01*
X60588099Y-59005690D01*
X60575802Y-58985173D01*
X60565574Y-58963549D01*
X60557516Y-58941027D01*
X60551704Y-58917823D01*
X60548194Y-58894162D01*
X60547020Y-58870270D01*
X60547020Y-58382770D01*
X60548194Y-58358878D01*
X60551704Y-58335217D01*
X60557516Y-58312013D01*
X60565574Y-58289491D01*
X60575802Y-58267867D01*
X60588099Y-58247350D01*
X60602349Y-58228137D01*
X60618413Y-58210413D01*
X60636137Y-58194349D01*
X60655350Y-58180099D01*
X60675867Y-58167802D01*
X60697491Y-58157574D01*
X60720013Y-58149516D01*
X60743217Y-58143704D01*
X60766878Y-58140194D01*
X60790770Y-58139020D01*
X61703270Y-58139020D01*
X61727162Y-58140194D01*
G37*
G36*
X61727162Y-60015194D02*
G01*
X61750823Y-60018704D01*
X61774027Y-60024516D01*
X61796549Y-60032574D01*
X61818173Y-60042802D01*
X61838690Y-60055099D01*
X61857903Y-60069349D01*
X61875627Y-60085413D01*
X61891691Y-60103137D01*
X61905941Y-60122350D01*
X61918238Y-60142867D01*
X61928466Y-60164491D01*
X61936524Y-60187013D01*
X61942336Y-60210217D01*
X61945846Y-60233878D01*
X61947020Y-60257770D01*
X61947020Y-60745270D01*
X61945846Y-60769162D01*
X61942336Y-60792823D01*
X61936524Y-60816027D01*
X61928466Y-60838549D01*
X61918238Y-60860173D01*
X61905941Y-60880690D01*
X61891691Y-60899903D01*
X61875627Y-60917627D01*
X61857903Y-60933691D01*
X61838690Y-60947941D01*
X61818173Y-60960238D01*
X61796549Y-60970466D01*
X61774027Y-60978524D01*
X61750823Y-60984336D01*
X61727162Y-60987846D01*
X61703270Y-60989020D01*
X60790770Y-60989020D01*
X60766878Y-60987846D01*
X60743217Y-60984336D01*
X60720013Y-60978524D01*
X60697491Y-60970466D01*
X60675867Y-60960238D01*
X60655350Y-60947941D01*
X60636137Y-60933691D01*
X60618413Y-60917627D01*
X60602349Y-60899903D01*
X60588099Y-60880690D01*
X60575802Y-60860173D01*
X60565574Y-60838549D01*
X60557516Y-60816027D01*
X60551704Y-60792823D01*
X60548194Y-60769162D01*
X60547020Y-60745270D01*
X60547020Y-60257770D01*
X60548194Y-60233878D01*
X60551704Y-60210217D01*
X60557516Y-60187013D01*
X60565574Y-60164491D01*
X60575802Y-60142867D01*
X60588099Y-60122350D01*
X60602349Y-60103137D01*
X60618413Y-60085413D01*
X60636137Y-60069349D01*
X60655350Y-60055099D01*
X60675867Y-60042802D01*
X60697491Y-60032574D01*
X60720013Y-60024516D01*
X60743217Y-60018704D01*
X60766878Y-60015194D01*
X60790770Y-60014020D01*
X61703270Y-60014020D01*
X61727162Y-60015194D01*
G37*
G36*
X87889162Y-34456694D02*
G01*
X87912823Y-34460204D01*
X87936027Y-34466016D01*
X87958549Y-34474074D01*
X87980173Y-34484302D01*
X88000690Y-34496599D01*
X88019903Y-34510849D01*
X88037627Y-34526913D01*
X88053691Y-34544637D01*
X88067941Y-34563850D01*
X88080238Y-34584367D01*
X88090466Y-34605991D01*
X88098524Y-34628513D01*
X88104336Y-34651717D01*
X88107846Y-34675378D01*
X88109020Y-34699270D01*
X88109020Y-35186770D01*
X88107846Y-35210662D01*
X88104336Y-35234323D01*
X88098524Y-35257527D01*
X88090466Y-35280049D01*
X88080238Y-35301673D01*
X88067941Y-35322190D01*
X88053691Y-35341403D01*
X88037627Y-35359127D01*
X88019903Y-35375191D01*
X88000690Y-35389441D01*
X87980173Y-35401738D01*
X87958549Y-35411966D01*
X87936027Y-35420024D01*
X87912823Y-35425836D01*
X87889162Y-35429346D01*
X87865270Y-35430520D01*
X86952770Y-35430520D01*
X86928878Y-35429346D01*
X86905217Y-35425836D01*
X86882013Y-35420024D01*
X86859491Y-35411966D01*
X86837867Y-35401738D01*
X86817350Y-35389441D01*
X86798137Y-35375191D01*
X86780413Y-35359127D01*
X86764349Y-35341403D01*
X86750099Y-35322190D01*
X86737802Y-35301673D01*
X86727574Y-35280049D01*
X86719516Y-35257527D01*
X86713704Y-35234323D01*
X86710194Y-35210662D01*
X86709020Y-35186770D01*
X86709020Y-34699270D01*
X86710194Y-34675378D01*
X86713704Y-34651717D01*
X86719516Y-34628513D01*
X86727574Y-34605991D01*
X86737802Y-34584367D01*
X86750099Y-34563850D01*
X86764349Y-34544637D01*
X86780413Y-34526913D01*
X86798137Y-34510849D01*
X86817350Y-34496599D01*
X86837867Y-34484302D01*
X86859491Y-34474074D01*
X86882013Y-34466016D01*
X86905217Y-34460204D01*
X86928878Y-34456694D01*
X86952770Y-34455520D01*
X87865270Y-34455520D01*
X87889162Y-34456694D01*
G37*
G36*
X87889162Y-32581694D02*
G01*
X87912823Y-32585204D01*
X87936027Y-32591016D01*
X87958549Y-32599074D01*
X87980173Y-32609302D01*
X88000690Y-32621599D01*
X88019903Y-32635849D01*
X88037627Y-32651913D01*
X88053691Y-32669637D01*
X88067941Y-32688850D01*
X88080238Y-32709367D01*
X88090466Y-32730991D01*
X88098524Y-32753513D01*
X88104336Y-32776717D01*
X88107846Y-32800378D01*
X88109020Y-32824270D01*
X88109020Y-33311770D01*
X88107846Y-33335662D01*
X88104336Y-33359323D01*
X88098524Y-33382527D01*
X88090466Y-33405049D01*
X88080238Y-33426673D01*
X88067941Y-33447190D01*
X88053691Y-33466403D01*
X88037627Y-33484127D01*
X88019903Y-33500191D01*
X88000690Y-33514441D01*
X87980173Y-33526738D01*
X87958549Y-33536966D01*
X87936027Y-33545024D01*
X87912823Y-33550836D01*
X87889162Y-33554346D01*
X87865270Y-33555520D01*
X86952770Y-33555520D01*
X86928878Y-33554346D01*
X86905217Y-33550836D01*
X86882013Y-33545024D01*
X86859491Y-33536966D01*
X86837867Y-33526738D01*
X86817350Y-33514441D01*
X86798137Y-33500191D01*
X86780413Y-33484127D01*
X86764349Y-33466403D01*
X86750099Y-33447190D01*
X86737802Y-33426673D01*
X86727574Y-33405049D01*
X86719516Y-33382527D01*
X86713704Y-33359323D01*
X86710194Y-33335662D01*
X86709020Y-33311770D01*
X86709020Y-32824270D01*
X86710194Y-32800378D01*
X86713704Y-32776717D01*
X86719516Y-32753513D01*
X86727574Y-32730991D01*
X86737802Y-32709367D01*
X86750099Y-32688850D01*
X86764349Y-32669637D01*
X86780413Y-32651913D01*
X86798137Y-32635849D01*
X86817350Y-32621599D01*
X86837867Y-32609302D01*
X86859491Y-32599074D01*
X86882013Y-32591016D01*
X86905217Y-32585204D01*
X86928878Y-32581694D01*
X86952770Y-32580520D01*
X87865270Y-32580520D01*
X87889162Y-32581694D01*
G37*
G36*
X81031162Y-39820694D02*
G01*
X81054823Y-39824204D01*
X81078027Y-39830016D01*
X81100549Y-39838074D01*
X81122173Y-39848302D01*
X81142690Y-39860599D01*
X81161903Y-39874849D01*
X81179627Y-39890913D01*
X81195691Y-39908637D01*
X81209941Y-39927850D01*
X81222238Y-39948367D01*
X81232466Y-39969991D01*
X81240524Y-39992513D01*
X81246336Y-40015717D01*
X81249846Y-40039378D01*
X81251020Y-40063270D01*
X81251020Y-40550770D01*
X81249846Y-40574662D01*
X81246336Y-40598323D01*
X81240524Y-40621527D01*
X81232466Y-40644049D01*
X81222238Y-40665673D01*
X81209941Y-40686190D01*
X81195691Y-40705403D01*
X81179627Y-40723127D01*
X81161903Y-40739191D01*
X81142690Y-40753441D01*
X81122173Y-40765738D01*
X81100549Y-40775966D01*
X81078027Y-40784024D01*
X81054823Y-40789836D01*
X81031162Y-40793346D01*
X81007270Y-40794520D01*
X80094770Y-40794520D01*
X80070878Y-40793346D01*
X80047217Y-40789836D01*
X80024013Y-40784024D01*
X80001491Y-40775966D01*
X79979867Y-40765738D01*
X79959350Y-40753441D01*
X79940137Y-40739191D01*
X79922413Y-40723127D01*
X79906349Y-40705403D01*
X79892099Y-40686190D01*
X79879802Y-40665673D01*
X79869574Y-40644049D01*
X79861516Y-40621527D01*
X79855704Y-40598323D01*
X79852194Y-40574662D01*
X79851020Y-40550770D01*
X79851020Y-40063270D01*
X79852194Y-40039378D01*
X79855704Y-40015717D01*
X79861516Y-39992513D01*
X79869574Y-39969991D01*
X79879802Y-39948367D01*
X79892099Y-39927850D01*
X79906349Y-39908637D01*
X79922413Y-39890913D01*
X79940137Y-39874849D01*
X79959350Y-39860599D01*
X79979867Y-39848302D01*
X80001491Y-39838074D01*
X80024013Y-39830016D01*
X80047217Y-39824204D01*
X80070878Y-39820694D01*
X80094770Y-39819520D01*
X81007270Y-39819520D01*
X81031162Y-39820694D01*
G37*
G36*
X81031162Y-41695694D02*
G01*
X81054823Y-41699204D01*
X81078027Y-41705016D01*
X81100549Y-41713074D01*
X81122173Y-41723302D01*
X81142690Y-41735599D01*
X81161903Y-41749849D01*
X81179627Y-41765913D01*
X81195691Y-41783637D01*
X81209941Y-41802850D01*
X81222238Y-41823367D01*
X81232466Y-41844991D01*
X81240524Y-41867513D01*
X81246336Y-41890717D01*
X81249846Y-41914378D01*
X81251020Y-41938270D01*
X81251020Y-42425770D01*
X81249846Y-42449662D01*
X81246336Y-42473323D01*
X81240524Y-42496527D01*
X81232466Y-42519049D01*
X81222238Y-42540673D01*
X81209941Y-42561190D01*
X81195691Y-42580403D01*
X81179627Y-42598127D01*
X81161903Y-42614191D01*
X81142690Y-42628441D01*
X81122173Y-42640738D01*
X81100549Y-42650966D01*
X81078027Y-42659024D01*
X81054823Y-42664836D01*
X81031162Y-42668346D01*
X81007270Y-42669520D01*
X80094770Y-42669520D01*
X80070878Y-42668346D01*
X80047217Y-42664836D01*
X80024013Y-42659024D01*
X80001491Y-42650966D01*
X79979867Y-42640738D01*
X79959350Y-42628441D01*
X79940137Y-42614191D01*
X79922413Y-42598127D01*
X79906349Y-42580403D01*
X79892099Y-42561190D01*
X79879802Y-42540673D01*
X79869574Y-42519049D01*
X79861516Y-42496527D01*
X79855704Y-42473323D01*
X79852194Y-42449662D01*
X79851020Y-42425770D01*
X79851020Y-41938270D01*
X79852194Y-41914378D01*
X79855704Y-41890717D01*
X79861516Y-41867513D01*
X79869574Y-41844991D01*
X79879802Y-41823367D01*
X79892099Y-41802850D01*
X79906349Y-41783637D01*
X79922413Y-41765913D01*
X79940137Y-41749849D01*
X79959350Y-41735599D01*
X79979867Y-41723302D01*
X80001491Y-41713074D01*
X80024013Y-41705016D01*
X80047217Y-41699204D01*
X80070878Y-41695694D01*
X80094770Y-41694520D01*
X81007270Y-41694520D01*
X81031162Y-41695694D01*
G37*
G36*
X72866162Y-33941694D02*
G01*
X72889823Y-33945204D01*
X72913027Y-33951016D01*
X72935549Y-33959074D01*
X72957173Y-33969302D01*
X72977690Y-33981599D01*
X72996903Y-33995849D01*
X73014627Y-34011913D01*
X73030691Y-34029637D01*
X73044941Y-34048850D01*
X73057238Y-34069367D01*
X73067466Y-34090991D01*
X73075524Y-34113513D01*
X73081336Y-34136717D01*
X73084846Y-34160378D01*
X73086020Y-34184270D01*
X73086020Y-35096770D01*
X73084846Y-35120662D01*
X73081336Y-35144323D01*
X73075524Y-35167527D01*
X73067466Y-35190049D01*
X73057238Y-35211673D01*
X73044941Y-35232190D01*
X73030691Y-35251403D01*
X73014627Y-35269127D01*
X72996903Y-35285191D01*
X72977690Y-35299441D01*
X72957173Y-35311738D01*
X72935549Y-35321966D01*
X72913027Y-35330024D01*
X72889823Y-35335836D01*
X72866162Y-35339346D01*
X72842270Y-35340520D01*
X72354770Y-35340520D01*
X72330878Y-35339346D01*
X72307217Y-35335836D01*
X72284013Y-35330024D01*
X72261491Y-35321966D01*
X72239867Y-35311738D01*
X72219350Y-35299441D01*
X72200137Y-35285191D01*
X72182413Y-35269127D01*
X72166349Y-35251403D01*
X72152099Y-35232190D01*
X72139802Y-35211673D01*
X72129574Y-35190049D01*
X72121516Y-35167527D01*
X72115704Y-35144323D01*
X72112194Y-35120662D01*
X72111020Y-35096770D01*
X72111020Y-34184270D01*
X72112194Y-34160378D01*
X72115704Y-34136717D01*
X72121516Y-34113513D01*
X72129574Y-34090991D01*
X72139802Y-34069367D01*
X72152099Y-34048850D01*
X72166349Y-34029637D01*
X72182413Y-34011913D01*
X72200137Y-33995849D01*
X72219350Y-33981599D01*
X72239867Y-33969302D01*
X72261491Y-33959074D01*
X72284013Y-33951016D01*
X72307217Y-33945204D01*
X72330878Y-33941694D01*
X72354770Y-33940520D01*
X72842270Y-33940520D01*
X72866162Y-33941694D01*
G37*
G36*
X70991162Y-33941694D02*
G01*
X71014823Y-33945204D01*
X71038027Y-33951016D01*
X71060549Y-33959074D01*
X71082173Y-33969302D01*
X71102690Y-33981599D01*
X71121903Y-33995849D01*
X71139627Y-34011913D01*
X71155691Y-34029637D01*
X71169941Y-34048850D01*
X71182238Y-34069367D01*
X71192466Y-34090991D01*
X71200524Y-34113513D01*
X71206336Y-34136717D01*
X71209846Y-34160378D01*
X71211020Y-34184270D01*
X71211020Y-35096770D01*
X71209846Y-35120662D01*
X71206336Y-35144323D01*
X71200524Y-35167527D01*
X71192466Y-35190049D01*
X71182238Y-35211673D01*
X71169941Y-35232190D01*
X71155691Y-35251403D01*
X71139627Y-35269127D01*
X71121903Y-35285191D01*
X71102690Y-35299441D01*
X71082173Y-35311738D01*
X71060549Y-35321966D01*
X71038027Y-35330024D01*
X71014823Y-35335836D01*
X70991162Y-35339346D01*
X70967270Y-35340520D01*
X70479770Y-35340520D01*
X70455878Y-35339346D01*
X70432217Y-35335836D01*
X70409013Y-35330024D01*
X70386491Y-35321966D01*
X70364867Y-35311738D01*
X70344350Y-35299441D01*
X70325137Y-35285191D01*
X70307413Y-35269127D01*
X70291349Y-35251403D01*
X70277099Y-35232190D01*
X70264802Y-35211673D01*
X70254574Y-35190049D01*
X70246516Y-35167527D01*
X70240704Y-35144323D01*
X70237194Y-35120662D01*
X70236020Y-35096770D01*
X70236020Y-34184270D01*
X70237194Y-34160378D01*
X70240704Y-34136717D01*
X70246516Y-34113513D01*
X70254574Y-34090991D01*
X70264802Y-34069367D01*
X70277099Y-34048850D01*
X70291349Y-34029637D01*
X70307413Y-34011913D01*
X70325137Y-33995849D01*
X70344350Y-33981599D01*
X70364867Y-33969302D01*
X70386491Y-33959074D01*
X70409013Y-33951016D01*
X70432217Y-33945204D01*
X70455878Y-33941694D01*
X70479770Y-33940520D01*
X70967270Y-33940520D01*
X70991162Y-33941694D01*
G37*
G36*
X62933662Y-47474194D02*
G01*
X62957323Y-47477704D01*
X62980527Y-47483516D01*
X63003049Y-47491574D01*
X63024673Y-47501802D01*
X63045190Y-47514099D01*
X63064403Y-47528349D01*
X63082127Y-47544413D01*
X63098191Y-47562137D01*
X63112441Y-47581350D01*
X63124738Y-47601867D01*
X63134966Y-47623491D01*
X63143024Y-47646013D01*
X63148836Y-47669217D01*
X63152346Y-47692878D01*
X63153520Y-47716770D01*
X63153520Y-48204270D01*
X63152346Y-48228162D01*
X63148836Y-48251823D01*
X63143024Y-48275027D01*
X63134966Y-48297549D01*
X63124738Y-48319173D01*
X63112441Y-48339690D01*
X63098191Y-48358903D01*
X63082127Y-48376627D01*
X63064403Y-48392691D01*
X63045190Y-48406941D01*
X63024673Y-48419238D01*
X63003049Y-48429466D01*
X62980527Y-48437524D01*
X62957323Y-48443336D01*
X62933662Y-48446846D01*
X62909770Y-48448020D01*
X61997270Y-48448020D01*
X61973378Y-48446846D01*
X61949717Y-48443336D01*
X61926513Y-48437524D01*
X61903991Y-48429466D01*
X61882367Y-48419238D01*
X61861850Y-48406941D01*
X61842637Y-48392691D01*
X61824913Y-48376627D01*
X61808849Y-48358903D01*
X61794599Y-48339690D01*
X61782302Y-48319173D01*
X61772074Y-48297549D01*
X61764016Y-48275027D01*
X61758204Y-48251823D01*
X61754694Y-48228162D01*
X61753520Y-48204270D01*
X61753520Y-47716770D01*
X61754694Y-47692878D01*
X61758204Y-47669217D01*
X61764016Y-47646013D01*
X61772074Y-47623491D01*
X61782302Y-47601867D01*
X61794599Y-47581350D01*
X61808849Y-47562137D01*
X61824913Y-47544413D01*
X61842637Y-47528349D01*
X61861850Y-47514099D01*
X61882367Y-47501802D01*
X61903991Y-47491574D01*
X61926513Y-47483516D01*
X61949717Y-47477704D01*
X61973378Y-47474194D01*
X61997270Y-47473020D01*
X62909770Y-47473020D01*
X62933662Y-47474194D01*
G37*
G36*
X62933662Y-45599194D02*
G01*
X62957323Y-45602704D01*
X62980527Y-45608516D01*
X63003049Y-45616574D01*
X63024673Y-45626802D01*
X63045190Y-45639099D01*
X63064403Y-45653349D01*
X63082127Y-45669413D01*
X63098191Y-45687137D01*
X63112441Y-45706350D01*
X63124738Y-45726867D01*
X63134966Y-45748491D01*
X63143024Y-45771013D01*
X63148836Y-45794217D01*
X63152346Y-45817878D01*
X63153520Y-45841770D01*
X63153520Y-46329270D01*
X63152346Y-46353162D01*
X63148836Y-46376823D01*
X63143024Y-46400027D01*
X63134966Y-46422549D01*
X63124738Y-46444173D01*
X63112441Y-46464690D01*
X63098191Y-46483903D01*
X63082127Y-46501627D01*
X63064403Y-46517691D01*
X63045190Y-46531941D01*
X63024673Y-46544238D01*
X63003049Y-46554466D01*
X62980527Y-46562524D01*
X62957323Y-46568336D01*
X62933662Y-46571846D01*
X62909770Y-46573020D01*
X61997270Y-46573020D01*
X61973378Y-46571846D01*
X61949717Y-46568336D01*
X61926513Y-46562524D01*
X61903991Y-46554466D01*
X61882367Y-46544238D01*
X61861850Y-46531941D01*
X61842637Y-46517691D01*
X61824913Y-46501627D01*
X61808849Y-46483903D01*
X61794599Y-46464690D01*
X61782302Y-46444173D01*
X61772074Y-46422549D01*
X61764016Y-46400027D01*
X61758204Y-46376823D01*
X61754694Y-46353162D01*
X61753520Y-46329270D01*
X61753520Y-45841770D01*
X61754694Y-45817878D01*
X61758204Y-45794217D01*
X61764016Y-45771013D01*
X61772074Y-45748491D01*
X61782302Y-45726867D01*
X61794599Y-45706350D01*
X61808849Y-45687137D01*
X61824913Y-45669413D01*
X61842637Y-45653349D01*
X61861850Y-45639099D01*
X61882367Y-45626802D01*
X61903991Y-45616574D01*
X61926513Y-45608516D01*
X61949717Y-45602704D01*
X61973378Y-45599194D01*
X61997270Y-45598020D01*
X62909770Y-45598020D01*
X62933662Y-45599194D01*
G37*
G36*
X60647662Y-45599194D02*
G01*
X60671323Y-45602704D01*
X60694527Y-45608516D01*
X60717049Y-45616574D01*
X60738673Y-45626802D01*
X60759190Y-45639099D01*
X60778403Y-45653349D01*
X60796127Y-45669413D01*
X60812191Y-45687137D01*
X60826441Y-45706350D01*
X60838738Y-45726867D01*
X60848966Y-45748491D01*
X60857024Y-45771013D01*
X60862836Y-45794217D01*
X60866346Y-45817878D01*
X60867520Y-45841770D01*
X60867520Y-46329270D01*
X60866346Y-46353162D01*
X60862836Y-46376823D01*
X60857024Y-46400027D01*
X60848966Y-46422549D01*
X60838738Y-46444173D01*
X60826441Y-46464690D01*
X60812191Y-46483903D01*
X60796127Y-46501627D01*
X60778403Y-46517691D01*
X60759190Y-46531941D01*
X60738673Y-46544238D01*
X60717049Y-46554466D01*
X60694527Y-46562524D01*
X60671323Y-46568336D01*
X60647662Y-46571846D01*
X60623770Y-46573020D01*
X59711270Y-46573020D01*
X59687378Y-46571846D01*
X59663717Y-46568336D01*
X59640513Y-46562524D01*
X59617991Y-46554466D01*
X59596367Y-46544238D01*
X59575850Y-46531941D01*
X59556637Y-46517691D01*
X59538913Y-46501627D01*
X59522849Y-46483903D01*
X59508599Y-46464690D01*
X59496302Y-46444173D01*
X59486074Y-46422549D01*
X59478016Y-46400027D01*
X59472204Y-46376823D01*
X59468694Y-46353162D01*
X59467520Y-46329270D01*
X59467520Y-45841770D01*
X59468694Y-45817878D01*
X59472204Y-45794217D01*
X59478016Y-45771013D01*
X59486074Y-45748491D01*
X59496302Y-45726867D01*
X59508599Y-45706350D01*
X59522849Y-45687137D01*
X59538913Y-45669413D01*
X59556637Y-45653349D01*
X59575850Y-45639099D01*
X59596367Y-45626802D01*
X59617991Y-45616574D01*
X59640513Y-45608516D01*
X59663717Y-45602704D01*
X59687378Y-45599194D01*
X59711270Y-45598020D01*
X60623770Y-45598020D01*
X60647662Y-45599194D01*
G37*
G36*
X60647662Y-47474194D02*
G01*
X60671323Y-47477704D01*
X60694527Y-47483516D01*
X60717049Y-47491574D01*
X60738673Y-47501802D01*
X60759190Y-47514099D01*
X60778403Y-47528349D01*
X60796127Y-47544413D01*
X60812191Y-47562137D01*
X60826441Y-47581350D01*
X60838738Y-47601867D01*
X60848966Y-47623491D01*
X60857024Y-47646013D01*
X60862836Y-47669217D01*
X60866346Y-47692878D01*
X60867520Y-47716770D01*
X60867520Y-48204270D01*
X60866346Y-48228162D01*
X60862836Y-48251823D01*
X60857024Y-48275027D01*
X60848966Y-48297549D01*
X60838738Y-48319173D01*
X60826441Y-48339690D01*
X60812191Y-48358903D01*
X60796127Y-48376627D01*
X60778403Y-48392691D01*
X60759190Y-48406941D01*
X60738673Y-48419238D01*
X60717049Y-48429466D01*
X60694527Y-48437524D01*
X60671323Y-48443336D01*
X60647662Y-48446846D01*
X60623770Y-48448020D01*
X59711270Y-48448020D01*
X59687378Y-48446846D01*
X59663717Y-48443336D01*
X59640513Y-48437524D01*
X59617991Y-48429466D01*
X59596367Y-48419238D01*
X59575850Y-48406941D01*
X59556637Y-48392691D01*
X59538913Y-48376627D01*
X59522849Y-48358903D01*
X59508599Y-48339690D01*
X59496302Y-48319173D01*
X59486074Y-48297549D01*
X59478016Y-48275027D01*
X59472204Y-48251823D01*
X59468694Y-48228162D01*
X59467520Y-48204270D01*
X59467520Y-47716770D01*
X59468694Y-47692878D01*
X59472204Y-47669217D01*
X59478016Y-47646013D01*
X59486074Y-47623491D01*
X59496302Y-47601867D01*
X59508599Y-47581350D01*
X59522849Y-47562137D01*
X59538913Y-47544413D01*
X59556637Y-47528349D01*
X59575850Y-47514099D01*
X59596367Y-47501802D01*
X59617991Y-47491574D01*
X59640513Y-47483516D01*
X59663717Y-47477704D01*
X59687378Y-47474194D01*
X59711270Y-47473020D01*
X60623770Y-47473020D01*
X60647662Y-47474194D01*
G37*
G36*
X48512162Y-42895194D02*
G01*
X48535823Y-42898704D01*
X48559027Y-42904516D01*
X48581549Y-42912574D01*
X48603173Y-42922802D01*
X48623690Y-42935099D01*
X48642903Y-42949349D01*
X48660627Y-42965413D01*
X48676691Y-42983137D01*
X48690941Y-43002350D01*
X48703238Y-43022867D01*
X48713466Y-43044491D01*
X48721524Y-43067013D01*
X48727336Y-43090217D01*
X48730846Y-43113878D01*
X48732020Y-43137770D01*
X48732020Y-44050270D01*
X48730846Y-44074162D01*
X48727336Y-44097823D01*
X48721524Y-44121027D01*
X48713466Y-44143549D01*
X48703238Y-44165173D01*
X48690941Y-44185690D01*
X48676691Y-44204903D01*
X48660627Y-44222627D01*
X48642903Y-44238691D01*
X48623690Y-44252941D01*
X48603173Y-44265238D01*
X48581549Y-44275466D01*
X48559027Y-44283524D01*
X48535823Y-44289336D01*
X48512162Y-44292846D01*
X48488270Y-44294020D01*
X48000770Y-44294020D01*
X47976878Y-44292846D01*
X47953217Y-44289336D01*
X47930013Y-44283524D01*
X47907491Y-44275466D01*
X47885867Y-44265238D01*
X47865350Y-44252941D01*
X47846137Y-44238691D01*
X47828413Y-44222627D01*
X47812349Y-44204903D01*
X47798099Y-44185690D01*
X47785802Y-44165173D01*
X47775574Y-44143549D01*
X47767516Y-44121027D01*
X47761704Y-44097823D01*
X47758194Y-44074162D01*
X47757020Y-44050270D01*
X47757020Y-43137770D01*
X47758194Y-43113878D01*
X47761704Y-43090217D01*
X47767516Y-43067013D01*
X47775574Y-43044491D01*
X47785802Y-43022867D01*
X47798099Y-43002350D01*
X47812349Y-42983137D01*
X47828413Y-42965413D01*
X47846137Y-42949349D01*
X47865350Y-42935099D01*
X47885867Y-42922802D01*
X47907491Y-42912574D01*
X47930013Y-42904516D01*
X47953217Y-42898704D01*
X47976878Y-42895194D01*
X48000770Y-42894020D01*
X48488270Y-42894020D01*
X48512162Y-42895194D01*
G37*
G36*
X50387162Y-42895194D02*
G01*
X50410823Y-42898704D01*
X50434027Y-42904516D01*
X50456549Y-42912574D01*
X50478173Y-42922802D01*
X50498690Y-42935099D01*
X50517903Y-42949349D01*
X50535627Y-42965413D01*
X50551691Y-42983137D01*
X50565941Y-43002350D01*
X50578238Y-43022867D01*
X50588466Y-43044491D01*
X50596524Y-43067013D01*
X50602336Y-43090217D01*
X50605846Y-43113878D01*
X50607020Y-43137770D01*
X50607020Y-44050270D01*
X50605846Y-44074162D01*
X50602336Y-44097823D01*
X50596524Y-44121027D01*
X50588466Y-44143549D01*
X50578238Y-44165173D01*
X50565941Y-44185690D01*
X50551691Y-44204903D01*
X50535627Y-44222627D01*
X50517903Y-44238691D01*
X50498690Y-44252941D01*
X50478173Y-44265238D01*
X50456549Y-44275466D01*
X50434027Y-44283524D01*
X50410823Y-44289336D01*
X50387162Y-44292846D01*
X50363270Y-44294020D01*
X49875770Y-44294020D01*
X49851878Y-44292846D01*
X49828217Y-44289336D01*
X49805013Y-44283524D01*
X49782491Y-44275466D01*
X49760867Y-44265238D01*
X49740350Y-44252941D01*
X49721137Y-44238691D01*
X49703413Y-44222627D01*
X49687349Y-44204903D01*
X49673099Y-44185690D01*
X49660802Y-44165173D01*
X49650574Y-44143549D01*
X49642516Y-44121027D01*
X49636704Y-44097823D01*
X49633194Y-44074162D01*
X49632020Y-44050270D01*
X49632020Y-43137770D01*
X49633194Y-43113878D01*
X49636704Y-43090217D01*
X49642516Y-43067013D01*
X49650574Y-43044491D01*
X49660802Y-43022867D01*
X49673099Y-43002350D01*
X49687349Y-42983137D01*
X49703413Y-42965413D01*
X49721137Y-42949349D01*
X49740350Y-42935099D01*
X49760867Y-42922802D01*
X49782491Y-42912574D01*
X49805013Y-42904516D01*
X49828217Y-42898704D01*
X49851878Y-42895194D01*
X49875770Y-42894020D01*
X50363270Y-42894020D01*
X50387162Y-42895194D01*
G37*
G36*
X61452024Y-40236724D02*
G01*
X61476293Y-40240324D01*
X61500091Y-40246285D01*
X61523191Y-40254550D01*
X61545369Y-40265040D01*
X61566413Y-40277653D01*
X61586118Y-40292267D01*
X61604297Y-40308743D01*
X61620773Y-40326922D01*
X61635387Y-40346627D01*
X61648000Y-40367671D01*
X61658490Y-40389849D01*
X61666755Y-40412949D01*
X61672716Y-40436747D01*
X61676316Y-40461016D01*
X61677520Y-40485520D01*
X61677520Y-41235520D01*
X61676316Y-41260024D01*
X61672716Y-41284293D01*
X61666755Y-41308091D01*
X61658490Y-41331191D01*
X61648000Y-41353369D01*
X61635387Y-41374413D01*
X61620773Y-41394118D01*
X61604297Y-41412297D01*
X61586118Y-41428773D01*
X61566413Y-41443387D01*
X61545369Y-41456000D01*
X61523191Y-41466490D01*
X61500091Y-41474755D01*
X61476293Y-41480716D01*
X61452024Y-41484316D01*
X61427520Y-41485520D01*
X60177520Y-41485520D01*
X60153016Y-41484316D01*
X60128747Y-41480716D01*
X60104949Y-41474755D01*
X60081849Y-41466490D01*
X60059671Y-41456000D01*
X60038627Y-41443387D01*
X60018922Y-41428773D01*
X60000743Y-41412297D01*
X59984267Y-41394118D01*
X59969653Y-41374413D01*
X59957040Y-41353369D01*
X59946550Y-41331191D01*
X59938285Y-41308091D01*
X59932324Y-41284293D01*
X59928724Y-41260024D01*
X59927520Y-41235520D01*
X59927520Y-40485520D01*
X59928724Y-40461016D01*
X59932324Y-40436747D01*
X59938285Y-40412949D01*
X59946550Y-40389849D01*
X59957040Y-40367671D01*
X59969653Y-40346627D01*
X59984267Y-40326922D01*
X60000743Y-40308743D01*
X60018922Y-40292267D01*
X60038627Y-40277653D01*
X60059671Y-40265040D01*
X60081849Y-40254550D01*
X60104949Y-40246285D01*
X60128747Y-40240324D01*
X60153016Y-40236724D01*
X60177520Y-40235520D01*
X61427520Y-40235520D01*
X61452024Y-40236724D01*
G37*
G36*
X61452024Y-43036724D02*
G01*
X61476293Y-43040324D01*
X61500091Y-43046285D01*
X61523191Y-43054550D01*
X61545369Y-43065040D01*
X61566413Y-43077653D01*
X61586118Y-43092267D01*
X61604297Y-43108743D01*
X61620773Y-43126922D01*
X61635387Y-43146627D01*
X61648000Y-43167671D01*
X61658490Y-43189849D01*
X61666755Y-43212949D01*
X61672716Y-43236747D01*
X61676316Y-43261016D01*
X61677520Y-43285520D01*
X61677520Y-44035520D01*
X61676316Y-44060024D01*
X61672716Y-44084293D01*
X61666755Y-44108091D01*
X61658490Y-44131191D01*
X61648000Y-44153369D01*
X61635387Y-44174413D01*
X61620773Y-44194118D01*
X61604297Y-44212297D01*
X61586118Y-44228773D01*
X61566413Y-44243387D01*
X61545369Y-44256000D01*
X61523191Y-44266490D01*
X61500091Y-44274755D01*
X61476293Y-44280716D01*
X61452024Y-44284316D01*
X61427520Y-44285520D01*
X60177520Y-44285520D01*
X60153016Y-44284316D01*
X60128747Y-44280716D01*
X60104949Y-44274755D01*
X60081849Y-44266490D01*
X60059671Y-44256000D01*
X60038627Y-44243387D01*
X60018922Y-44228773D01*
X60000743Y-44212297D01*
X59984267Y-44194118D01*
X59969653Y-44174413D01*
X59957040Y-44153369D01*
X59946550Y-44131191D01*
X59938285Y-44108091D01*
X59932324Y-44084293D01*
X59928724Y-44060024D01*
X59927520Y-44035520D01*
X59927520Y-43285520D01*
X59928724Y-43261016D01*
X59932324Y-43236747D01*
X59938285Y-43212949D01*
X59946550Y-43189849D01*
X59957040Y-43167671D01*
X59969653Y-43146627D01*
X59984267Y-43126922D01*
X60000743Y-43108743D01*
X60018922Y-43092267D01*
X60038627Y-43077653D01*
X60059671Y-43065040D01*
X60081849Y-43054550D01*
X60104949Y-43046285D01*
X60128747Y-43040324D01*
X60153016Y-43036724D01*
X60177520Y-43035520D01*
X61427520Y-43035520D01*
X61452024Y-43036724D01*
G37*
G36*
X48512162Y-46133694D02*
G01*
X48535823Y-46137204D01*
X48559027Y-46143016D01*
X48581549Y-46151074D01*
X48603173Y-46161302D01*
X48623690Y-46173599D01*
X48642903Y-46187849D01*
X48660627Y-46203913D01*
X48676691Y-46221637D01*
X48690941Y-46240850D01*
X48703238Y-46261367D01*
X48713466Y-46282991D01*
X48721524Y-46305513D01*
X48727336Y-46328717D01*
X48730846Y-46352378D01*
X48732020Y-46376270D01*
X48732020Y-47288770D01*
X48730846Y-47312662D01*
X48727336Y-47336323D01*
X48721524Y-47359527D01*
X48713466Y-47382049D01*
X48703238Y-47403673D01*
X48690941Y-47424190D01*
X48676691Y-47443403D01*
X48660627Y-47461127D01*
X48642903Y-47477191D01*
X48623690Y-47491441D01*
X48603173Y-47503738D01*
X48581549Y-47513966D01*
X48559027Y-47522024D01*
X48535823Y-47527836D01*
X48512162Y-47531346D01*
X48488270Y-47532520D01*
X48000770Y-47532520D01*
X47976878Y-47531346D01*
X47953217Y-47527836D01*
X47930013Y-47522024D01*
X47907491Y-47513966D01*
X47885867Y-47503738D01*
X47865350Y-47491441D01*
X47846137Y-47477191D01*
X47828413Y-47461127D01*
X47812349Y-47443403D01*
X47798099Y-47424190D01*
X47785802Y-47403673D01*
X47775574Y-47382049D01*
X47767516Y-47359527D01*
X47761704Y-47336323D01*
X47758194Y-47312662D01*
X47757020Y-47288770D01*
X47757020Y-46376270D01*
X47758194Y-46352378D01*
X47761704Y-46328717D01*
X47767516Y-46305513D01*
X47775574Y-46282991D01*
X47785802Y-46261367D01*
X47798099Y-46240850D01*
X47812349Y-46221637D01*
X47828413Y-46203913D01*
X47846137Y-46187849D01*
X47865350Y-46173599D01*
X47885867Y-46161302D01*
X47907491Y-46151074D01*
X47930013Y-46143016D01*
X47953217Y-46137204D01*
X47976878Y-46133694D01*
X48000770Y-46132520D01*
X48488270Y-46132520D01*
X48512162Y-46133694D01*
G37*
G36*
X50387162Y-46133694D02*
G01*
X50410823Y-46137204D01*
X50434027Y-46143016D01*
X50456549Y-46151074D01*
X50478173Y-46161302D01*
X50498690Y-46173599D01*
X50517903Y-46187849D01*
X50535627Y-46203913D01*
X50551691Y-46221637D01*
X50565941Y-46240850D01*
X50578238Y-46261367D01*
X50588466Y-46282991D01*
X50596524Y-46305513D01*
X50602336Y-46328717D01*
X50605846Y-46352378D01*
X50607020Y-46376270D01*
X50607020Y-47288770D01*
X50605846Y-47312662D01*
X50602336Y-47336323D01*
X50596524Y-47359527D01*
X50588466Y-47382049D01*
X50578238Y-47403673D01*
X50565941Y-47424190D01*
X50551691Y-47443403D01*
X50535627Y-47461127D01*
X50517903Y-47477191D01*
X50498690Y-47491441D01*
X50478173Y-47503738D01*
X50456549Y-47513966D01*
X50434027Y-47522024D01*
X50410823Y-47527836D01*
X50387162Y-47531346D01*
X50363270Y-47532520D01*
X49875770Y-47532520D01*
X49851878Y-47531346D01*
X49828217Y-47527836D01*
X49805013Y-47522024D01*
X49782491Y-47513966D01*
X49760867Y-47503738D01*
X49740350Y-47491441D01*
X49721137Y-47477191D01*
X49703413Y-47461127D01*
X49687349Y-47443403D01*
X49673099Y-47424190D01*
X49660802Y-47403673D01*
X49650574Y-47382049D01*
X49642516Y-47359527D01*
X49636704Y-47336323D01*
X49633194Y-47312662D01*
X49632020Y-47288770D01*
X49632020Y-46376270D01*
X49633194Y-46352378D01*
X49636704Y-46328717D01*
X49642516Y-46305513D01*
X49650574Y-46282991D01*
X49660802Y-46261367D01*
X49673099Y-46240850D01*
X49687349Y-46221637D01*
X49703413Y-46203913D01*
X49721137Y-46187849D01*
X49740350Y-46173599D01*
X49760867Y-46161302D01*
X49782491Y-46151074D01*
X49805013Y-46143016D01*
X49828217Y-46137204D01*
X49851878Y-46133694D01*
X49875770Y-46132520D01*
X50363270Y-46132520D01*
X50387162Y-46133694D01*
G37*
M02*
