M48
; DRILL file {KiCad (5.1.5)-3} date 9/22/2021 12:57:12 AM
; FORMAT={-:-/ absolute / metric / decimal}
; #@! TF.CreationDate,2021-09-22T00:57:12-07:00
; #@! TF.GenerationSoftware,Kicad,Pcbnew,(5.1.5)-3
; #@! TF.FileFunction,Plated,1,4,PTH
FMAT,2
METRIC
T1C0.200
T2C0.400
T3C0.520
T4C0.890
T5C1.000
T6C1.040
T7C2.700
%
G90
G05
T1
X55.554Y-52.742
X55.554Y-53.742
X55.554Y-54.742
X56.554Y-52.742
X56.554Y-53.742
X56.554Y-54.742
X57.554Y-52.742
X57.554Y-53.742
X57.554Y-54.742
T2
X45.372Y-26.894
X58.009Y-43.277
X58.009Y-44.293
X58.304Y-57.478
X58.58Y-50.135
X59.025Y-43.277
X59.025Y-44.293
X60.145Y-54.991
X60.485Y-52.992
X60.739Y-26.767
X62.396Y-51.907
X62.581Y-41.372
X62.898Y-42.324
X62.947Y-58.405
X63.216Y-43.531
X63.406Y-53.246
X63.597Y-31.593
X66.264Y-41.905
X67.208Y-43.086
X67.28Y-45.436
X67.437Y-40.64
X67.673Y-42.146
X68.417Y-43.906
X70.181Y-40.59
X71.283Y-54.513
X71.344Y-33.244
X73.249Y-33.244
X74.392Y-36.736
X75.281Y-34.387
X75.408Y-42.388
X76.36Y-48.039
X76.36Y-48.039
X76.421Y-37.625
X76.424Y-32.291
X76.424Y-42.388
X77.249Y-24.481
X77.567Y-42.388
X77.567Y-48.357
X78.71Y-42.388
X78.71Y-48.738
X79.853Y-49.246
X82.075Y-40.292
X83.852Y-33.179
X85.314Y-32.863
X89.456Y-33.068
X103.983Y-51.659
T3
X42.259Y-47.655
T4
X42.259Y-55.155
T5
X39.149Y-24.237
X39.149Y-26.777
X93.569Y-56.358
X96.109Y-56.358
X98.649Y-56.358
X101.189Y-56.358
X103.729Y-56.358
X106.269Y-56.358
X108.809Y-56.358
X111.349Y-56.358
X104.11Y-27.148
X104.11Y-29.688
X104.11Y-32.228
X104.11Y-34.768
X104.11Y-37.308
X104.11Y-39.848
X104.11Y-42.388
X104.11Y-44.928
X100.3Y-27.148
X100.3Y-29.688
X100.3Y-32.228
X100.3Y-34.768
X100.3Y-37.308
X100.3Y-39.848
X100.3Y-42.388
X100.3Y-44.928
X82.52Y-22.576
X85.06Y-22.576
X87.6Y-22.576
X90.14Y-22.576
X92.68Y-22.576
X95.22Y-22.576
X97.76Y-22.576
X100.3Y-22.576
X69.629Y-26.83
X72.169Y-26.83
X74.709Y-26.83
X77.249Y-26.83
X63.597Y-24.227
X63.597Y-26.767
X63.597Y-29.307
X74.582Y-56.358
X77.122Y-56.358
X79.662Y-56.358
X82.202Y-56.358
X84.742Y-56.358
X87.282Y-56.358
X89.822Y-56.358
X48.23Y-24.227
X48.23Y-26.767
X48.23Y-29.307
T6
X40.109Y-49.005
X40.109Y-53.805
X44.409Y-49.005
X44.409Y-53.805
T7
X31.569Y-61.358
X116.569Y-21.358
X116.569Y-61.358
X31.569Y-21.358
T0
M30
