G04 #@! TF.GenerationSoftware,KiCad,Pcbnew,(5.1.5)-3*
G04 #@! TF.CreationDate,2021-09-22T00:57:08-07:00*
G04 #@! TF.ProjectId,control_board,636f6e74-726f-46c5-9f62-6f6172642e6b,rev?*
G04 #@! TF.SameCoordinates,Original*
G04 #@! TF.FileFunction,Legend,Bot*
G04 #@! TF.FilePolarity,Positive*
%FSLAX46Y46*%
G04 Gerber Fmt 4.6, Leading zero omitted, Abs format (unit mm)*
G04 Created by KiCad (PCBNEW (5.1.5)-3) date 2021-09-22 00:57:08*
%MOMM*%
%LPD*%
G04 APERTURE LIST*
%ADD10C,5.502000*%
%ADD11O,1.802000X1.802000*%
%ADD12R,1.802000X1.802000*%
%ADD13C,0.400000*%
%ADD14C,1.662000*%
%ADD15C,0.547000*%
%ADD16C,0.362000*%
G04 APERTURE END LIST*
%LPC*%
D10*
X31568520Y-61357520D03*
X31568520Y-21357520D03*
X116568520Y-61357520D03*
X116568520Y-21357520D03*
D11*
X100299520Y-44927520D03*
X100299520Y-42387520D03*
X100299520Y-39847520D03*
X100299520Y-37307520D03*
X100299520Y-34767520D03*
X100299520Y-32227520D03*
X100299520Y-29687520D03*
D12*
X100299520Y-27147520D03*
D13*
X55553520Y-52742020D03*
X56553520Y-52742020D03*
X57553520Y-52742020D03*
X55553520Y-53742020D03*
X56553520Y-53742020D03*
X57553520Y-53742020D03*
X55553520Y-54742020D03*
X56553520Y-54742020D03*
X57553520Y-54742020D03*
D14*
X44408520Y-49004520D03*
X44408520Y-53804520D03*
D15*
X42258520Y-55154520D03*
D14*
X40108520Y-53804520D03*
X40108520Y-49004520D03*
D16*
X42258520Y-47654520D03*
D11*
X39149020Y-24236520D03*
D12*
X39149020Y-26776520D03*
D11*
X63596520Y-29306520D03*
X63596520Y-26766520D03*
D12*
X63596520Y-24226520D03*
D11*
X48229520Y-29306520D03*
X48229520Y-26766520D03*
D12*
X48229520Y-24226520D03*
D11*
X104109520Y-44927520D03*
X104109520Y-42387520D03*
X104109520Y-39847520D03*
X104109520Y-37307520D03*
X104109520Y-34767520D03*
X104109520Y-32227520D03*
X104109520Y-29687520D03*
D12*
X104109520Y-27147520D03*
D11*
X100299520Y-22575520D03*
X97759520Y-22575520D03*
X95219520Y-22575520D03*
X92679520Y-22575520D03*
X90139520Y-22575520D03*
X87599520Y-22575520D03*
X85059520Y-22575520D03*
D12*
X82519520Y-22575520D03*
D11*
X89822020Y-56357520D03*
X87282020Y-56357520D03*
X84742020Y-56357520D03*
X82202020Y-56357520D03*
X79662020Y-56357520D03*
X77122020Y-56357520D03*
D12*
X74582020Y-56357520D03*
D11*
X111348520Y-56357520D03*
X108808520Y-56357520D03*
X106268520Y-56357520D03*
X103728520Y-56357520D03*
X101188520Y-56357520D03*
X98648520Y-56357520D03*
X96108520Y-56357520D03*
D12*
X93568520Y-56357520D03*
D11*
X69629020Y-26830020D03*
X72169020Y-26830020D03*
X74709020Y-26830020D03*
D12*
X77249020Y-26830020D03*
M02*
